<svg width="19" height="18" viewBox="0 0 19 18" fill="none" xmlns="http://www.w3.org/2000/svg">
	<path fill-rule="evenodd" clip-rule="evenodd"
		  d="M18.1001 2.2277L13.669 2.24667L12.8093 0.556926C12.5308 0 12.2524 0 11.9739 0H6.96158C6.68311 0 6.40465 0 6.12619 0.556926L5.29044 2.24667H0.622405C0.287264 2.24667 0 2.51375 0 2.87796V16.4293C0 16.9862 0.278463 17.2647 0.835389 17.2647H18.1001C18.657 17.2647 18.9355 16.9862 18.9355 16.4293V3.06309C18.9355 2.50617 18.657 2.2277 18.1001 2.2277ZM17.8216 16.1509H1.11385V3.34156H6.12459C6.12619 3.34156 7.10547 1.38299 7.24004 1.11385H11.6954C11.8431 1.40922 12.8269 3.34156 12.8269 3.34156H17.8216V16.1509ZM9.46774 4.4554C6.7015 4.4554 4.45541 6.7015 4.45541 9.46774C4.45541 12.234 6.7015 14.4801 9.46774 14.4801C12.234 14.4801 14.4801 12.234 14.4801 9.46774C14.4801 6.7015 12.234 4.4554 9.46774 4.4554ZM9.46774 13.2743C7.36351 13.2743 5.6612 11.572 5.6612 9.46774C5.6612 7.3635 7.36351 5.6612 9.46774 5.6612C11.572 5.6612 13.2743 7.3635 13.2743 9.46774C13.2743 11.572 11.5483 13.2743 9.46774 13.2743ZM16.0981 5.56926H14.5094C14.1811 5.56926 13.9231 5.33363 13.9231 5.01233C13.9231 4.69103 14.2045 4.4554 14.5328 4.4554H16.0981C16.4264 4.4554 16.7078 4.69103 16.7078 5.01233C16.7078 5.33363 16.4264 5.56926 16.0981 5.56926Z"
		  fill="white"/>
	<path fill-rule="evenodd" clip-rule="evenodd"
		  d="M18.1001 2.2277L13.669 2.24667L12.8093 0.556926C12.5308 0 12.2524 0 11.9739 0H6.96158C6.68311 0 6.40465 0 6.12619 0.556926L5.29044 2.24667H0.622405C0.287264 2.24667 0 2.51375 0 2.87796V16.4293C0 16.9862 0.278463 17.2647 0.835389 17.2647H18.1001C18.657 17.2647 18.9355 16.9862 18.9355 16.4293V3.06309C18.9355 2.50617 18.657 2.2277 18.1001 2.2277ZM17.8216 16.1509H1.11385V3.34156H6.12459C6.12619 3.34156 7.10547 1.38299 7.24004 1.11385H11.6954C11.8431 1.40922 12.8269 3.34156 12.8269 3.34156H17.8216V16.1509ZM9.46774 4.4554C6.7015 4.4554 4.45541 6.7015 4.45541 9.46774C4.45541 12.234 6.7015 14.4801 9.46774 14.4801C12.234 14.4801 14.4801 12.234 14.4801 9.46774C14.4801 6.7015 12.234 4.4554 9.46774 4.4554ZM9.46774 13.2743C7.36351 13.2743 5.6612 11.572 5.6612 9.46774C5.6612 7.3635 7.36351 5.6612 9.46774 5.6612C11.572 5.6612 13.2743 7.3635 13.2743 9.46774C13.2743 11.572 11.5483 13.2743 9.46774 13.2743ZM16.0981 5.56926H14.5094C14.1811 5.56926 13.9231 5.33363 13.9231 5.01233C13.9231 4.69103 14.2045 4.4554 14.5328 4.4554H16.0981C16.4264 4.4554 16.7078 4.69103 16.7078 5.01233C16.7078 5.33363 16.4264 5.56926 16.0981 5.56926Z"
		  fill="white"/>
</svg>
