<svg width="20" height="30" viewBox="0 0 20 30" fill="none" xmlns="http://www.w3.org/2000/svg">
	<path d="M9.9 30C9 30 8.2 29.4983 7.8 28.6957C4.9 23.3779 0 13.9465 0 10.0334C0 4.51505 4.5 0 10 0C15.5 0 20 4.51505 20 10.0334C20 13.9465 15.1 23.3779 12.2 28.6957C11.6 29.4983 10.8 30 9.9 30ZM9.9 1.60535C5.2 1.60535 1.4 5.41806 1.4 10.1338C1.4 12.7425 4.2 19.2642 9 28.0936C9.3 28.6957 10.3 28.6957 10.7 28.0936C15.5 19.2642 18.3 12.7425 18.3 10.1338C18.4 5.41806 14.6 1.60535 9.9 1.60535Z" fill="#6F5C4D"/>
	<path d="M9.8999 15.1504C7.1999 15.1504 4.8999 12.943 4.8999 10.1337C4.8999 7.42464 7.0999 5.11694 9.8999 5.11694C12.5999 5.11694 14.8999 7.3243 14.8999 10.1337C14.8999 12.943 12.6999 15.1504 9.8999 15.1504ZM9.8999 6.62196C7.9999 6.62196 6.3999 8.22731 6.3999 10.1337C6.3999 12.04 7.9999 13.6454 9.8999 13.6454C11.7999 13.6454 13.3999 12.04 13.3999 10.1337C13.3999 8.22731 11.7999 6.62196 9.8999 6.62196Z" fill="#6F5C4D"/>
</svg>
