<svg width="190" height="130" viewBox="0 0 190 130" fill="none" xmlns="http://www.w3.org/2000/svg">
<path d="M160.012 31.5386C160.234 31.5386 160.456 31.3169 160.456 31.0952C160.456 30.8735 160.234 30.6519 160.012 30.7627C159.791 30.7627 159.569 30.9844 159.68 31.2061C159.569 31.3169 159.791 31.5386 160.012 31.5386Z" fill="#8F6D4E"/>
<path d="M160.234 33.1989C160.567 33.1989 160.677 32.9772 160.677 32.7556C160.677 32.5339 160.456 32.423 160.234 32.423C160.012 32.423 159.902 32.6447 159.902 32.8664C159.791 33.0881 160.012 33.1989 160.234 33.1989Z" fill="#8F6D4E"/>
<path d="M160.456 34.8585C160.566 34.8585 160.566 34.8585 160.456 34.8585C160.788 34.8585 160.899 34.6369 160.899 34.4152C160.899 34.1935 160.677 34.0826 160.456 34.0826C160.234 34.0826 160.123 34.3043 160.123 34.526C160.123 34.7477 160.345 34.8585 160.456 34.8585Z" fill="#8F6D4E"/>
<path d="M160.896 36.5187H161.007C161.229 36.4079 161.34 36.1862 161.34 35.9645C161.229 35.7428 161.007 35.632 160.786 35.632C160.564 35.7428 160.453 35.9645 160.453 36.1862C160.564 36.297 160.675 36.5187 160.896 36.5187Z" fill="#8F6D4E"/>
<path d="M163.332 42.7152C163.442 42.7152 163.442 42.7152 163.553 42.7152C163.775 42.6043 163.775 42.3826 163.775 42.161C163.664 41.9393 163.442 41.9393 163.221 41.9393C162.999 42.0501 162.999 42.2718 163.11 42.4935C163.11 42.6043 163.221 42.7152 163.332 42.7152Z" fill="#8F6D4E"/>
<path d="M159.902 29.879C160.124 29.879 160.346 29.6574 160.346 29.4357C160.346 29.214 160.124 28.9923 159.902 28.9923C159.681 28.9923 159.459 29.214 159.459 29.4357C159.459 29.6574 159.681 29.879 159.902 29.879Z" fill="#8F6D4E"/>
<path d="M162.668 41.1662H162.778C163 41.0554 163.111 40.8337 163 40.612C162.889 40.3903 162.668 40.2795 162.446 40.3903C162.224 40.5012 162.113 40.7229 162.224 40.9446C162.335 41.0554 162.446 41.1662 162.668 41.1662Z" fill="#8F6D4E"/>
<path d="M162.004 39.6171H162.115C162.337 39.5062 162.448 39.2845 162.337 39.0628C162.226 38.8412 162.004 38.7303 161.783 38.8412C161.561 38.952 161.45 39.1737 161.561 39.3954C161.672 39.5062 161.783 39.6171 162.004 39.6171Z" fill="#8F6D4E"/>
<path d="M161.339 38.0674H161.45C161.672 37.9565 161.783 37.7348 161.672 37.5132C161.561 37.2915 161.339 37.1806 161.118 37.2915C160.896 37.4023 160.785 37.624 160.896 37.8457C161.007 37.9565 161.229 38.0674 161.339 38.0674Z" fill="#8F6D4E"/>
<path d="M173.181 53.0057C173.07 53.2274 173.07 53.449 173.292 53.5599C173.403 53.5599 173.403 53.6707 173.514 53.6707C173.625 53.6707 173.735 53.5599 173.846 53.449C173.957 53.2274 173.957 53.0057 173.735 52.8948C173.514 52.784 173.292 52.784 173.181 53.0057Z" fill="#8F6D4E"/>
<path d="M174.619 53.8903C174.508 54.1116 174.619 54.3329 174.73 54.4436C174.84 54.4436 174.84 54.5542 174.951 54.5542C175.062 54.5542 175.283 54.4436 175.283 54.3329C175.394 54.1116 175.283 53.8903 175.172 53.7796C174.951 53.5583 174.73 53.669 174.619 53.8903Z" fill="#8F6D4E"/>
<path d="M179.156 55.9936C179.045 56.2152 179.156 56.4369 179.377 56.5478H179.488C179.71 56.5478 179.821 56.4369 179.932 56.3261C180.043 56.1044 179.932 55.8827 179.71 55.7719C179.488 55.661 179.267 55.7719 179.156 55.9936Z" fill="#8F6D4E"/>
<path d="M176.057 54.6656C175.946 54.8872 176.057 55.1089 176.279 55.2198C176.279 55.2198 176.39 55.2198 176.501 55.2198C176.611 55.2198 176.833 55.1089 176.833 54.9981C176.944 54.7764 176.833 54.5547 176.611 54.4439C176.39 54.333 176.168 54.4439 176.057 54.6656Z" fill="#8F6D4E"/>
<path d="M185.685 57.6535C185.685 57.8752 185.795 58.0969 186.017 58.0969C186.239 58.0969 186.46 57.986 186.46 57.7644C186.46 57.5427 186.35 57.321 186.128 57.321C185.906 57.2101 185.685 57.321 185.685 57.6535Z" fill="#8F6D4E"/>
<path d="M184.024 57.3215C184.024 57.5432 184.135 57.7649 184.357 57.7649H184.468C184.689 57.7649 184.8 57.6541 184.911 57.4324C184.911 57.2107 184.8 56.989 184.579 56.989C184.246 56.989 184.024 57.0999 184.024 57.3215Z" fill="#8F6D4E"/>
<path d="M180.705 56.5467C180.594 56.7684 180.816 56.9901 180.927 57.1009H181.038C181.259 57.1009 181.37 56.9901 181.481 56.7684C181.592 56.5467 181.37 56.325 181.148 56.2142C181.038 56.2142 180.816 56.325 180.705 56.5467Z" fill="#8F6D4E"/>
<path d="M182.364 56.9892C182.364 57.2109 182.475 57.4325 182.697 57.5434H182.808C183.029 57.5434 183.14 57.4325 183.251 57.2109C183.251 56.9892 183.14 56.7675 182.918 56.7675C182.586 56.6566 182.364 56.7675 182.364 56.9892Z" fill="#8F6D4E"/>
<path d="M177.607 55.3297C177.496 55.5514 177.607 55.7731 177.829 55.8839H177.939C178.05 55.8839 178.272 55.7731 178.383 55.6622C178.494 55.4406 178.383 55.2189 178.161 55.108C177.939 55.108 177.718 55.2189 177.607 55.3297Z" fill="#8F6D4E"/>
<path d="M166.873 47.4727C166.652 47.5836 166.652 47.9161 166.873 48.0269C166.984 48.1378 167.095 48.1378 167.206 48.1378C167.317 48.1378 167.428 48.1378 167.428 48.0269C167.649 47.9161 167.649 47.5836 167.428 47.4727C167.317 47.3619 167.095 47.251 166.873 47.4727Z" fill="#8F6D4E"/>
<path d="M165.877 46.1444C165.655 46.2553 165.655 46.5878 165.766 46.6986C165.877 46.8095 165.988 46.8095 166.099 46.8095C166.21 46.8095 166.32 46.8095 166.32 46.6986C166.542 46.5878 166.542 46.2553 166.431 46.1444C166.32 46.0336 165.988 46.0336 165.877 46.1444Z" fill="#8F6D4E"/>
<path d="M163.996 43.378C163.774 43.4889 163.774 43.7106 163.885 43.9323C163.996 44.0431 164.107 44.1539 164.218 44.1539C164.329 44.1539 164.329 44.1539 164.44 44.0431C164.661 43.9323 164.661 43.7106 164.55 43.4889C164.44 43.2672 164.218 43.2672 163.996 43.378Z" fill="#8F6D4E"/>
<path d="M170.525 51.0134C170.414 51.2351 170.414 51.4567 170.525 51.5676C170.635 51.6784 170.635 51.6784 170.746 51.6784C170.857 51.6784 170.968 51.5676 171.079 51.5676C171.19 51.3459 171.19 51.1242 170.968 51.0134C170.746 50.9025 170.635 50.7917 170.525 51.0134Z" fill="#8F6D4E"/>
<path d="M171.853 52.0099C171.742 52.2316 171.742 52.4533 171.964 52.5642C172.075 52.675 172.075 52.675 172.186 52.675C172.296 52.675 172.407 52.5642 172.518 52.4533C172.629 52.2316 172.629 52.0099 172.407 51.8991C172.186 51.7883 171.964 51.7883 171.853 52.0099Z" fill="#8F6D4E"/>
<path d="M167.979 48.6897C167.758 48.8004 167.758 49.1324 167.979 49.243C168.09 49.3537 168.201 49.3537 168.311 49.3537C168.422 49.3537 168.533 49.3537 168.643 49.243C168.865 49.1324 168.865 48.8004 168.643 48.6897C168.422 48.5791 168.201 48.5791 167.979 48.6897Z" fill="#8F6D4E"/>
<path d="M169.196 49.907C169.086 50.1287 169.086 50.3504 169.196 50.4612C169.307 50.572 169.418 50.572 169.418 50.572C169.529 50.572 169.64 50.572 169.751 50.4612C169.861 50.2395 169.861 50.0178 169.751 49.907C169.64 49.6853 169.418 49.6853 169.196 49.907Z" fill="#8F6D4E"/>
<path d="M164.881 44.8164C164.659 44.927 164.659 45.259 164.77 45.3697C164.881 45.4803 164.991 45.591 165.102 45.591C165.213 45.591 165.213 45.591 165.323 45.4803C165.545 45.3697 165.545 45.0377 165.434 44.927C165.323 44.7057 165.102 44.5951 164.881 44.8164Z" fill="#8F6D4E"/>
<path d="M186.68 0H14.7175H0.774607V6.0862V29.4351H0V100.367H0.774607V123.716V129.802H14.7175H126.372H129.691H169.86H173.18H186.57H189.889V123.716V62.5218V59.2021V57.8742H189.668C189.668 57.6529 189.447 57.4316 189.225 57.4316C189.004 57.4316 188.783 57.6529 188.783 57.8742H188.119C188.119 57.6529 188.008 57.4316 187.676 57.4316C187.455 57.4316 187.234 57.6529 187.234 57.7635C187.234 57.7635 187.234 57.7635 187.234 57.8742H186.57V59.2021H155.364H154.479V61.7472V62.6325H169.86V123.826H129.691V62.5218H133.122V59.2021V39.8369H132.236V59.2021H126.372V59.866V62.5218V123.716H14.7175V100.367H15.4921V29.4351H14.7175V6.0862H186.68V27.3326H159.901V28.2178H186.68H190V27.3326V6.0862V0H186.68ZM14.2749 100.367H1.21724V29.4351H14.2749V100.367ZM173.291 62.5218H186.68V123.716H173.291V62.5218Z" fill="#8F6D4E"/>
<path d="M12.6149 30.8734H10.9551V97.4895H12.6149V30.8734Z" fill="#8F6D4E"/>
<path d="M9.40597 30.8734H7.74609V97.4895H9.40597V30.8734Z" fill="#8F6D4E"/>
<path d="M163.664 64.7352H162.336H156.25C153.594 64.7352 151.491 66.8377 151.491 69.4935C151.491 72.1493 153.594 74.2518 156.25 74.2518H162.336H163.664C164.106 74.2518 164.438 73.9199 164.438 73.4772V65.5098C164.549 65.0672 164.217 64.7352 163.664 64.7352ZM162.004 73.5879H156.25C153.926 73.5879 152.155 71.7067 152.155 69.4935C152.155 67.1697 154.036 65.3992 156.25 65.3992H162.004V73.5879ZM163.885 73.4772C163.885 73.5879 163.774 73.5879 163.774 73.5879H162.668V65.2885H163.664C163.774 65.2885 163.774 65.3992 163.774 65.3992V73.4772H163.885Z" fill="#8F6D4E"/>
<path d="M167.978 64.7352H165.987C165.544 64.7352 165.212 65.0672 165.212 65.5098V73.4772C165.212 73.9199 165.544 74.2518 165.987 74.2518H167.978C168.421 74.2518 168.753 73.9199 168.753 73.4772V65.5098C168.753 65.0672 168.421 64.7352 167.978 64.7352ZM168.089 73.4772C168.089 73.5879 167.978 73.5879 167.978 73.5879H165.987C165.876 73.5879 165.876 73.4772 165.876 73.4772V65.5098C165.876 65.3992 165.987 65.3992 165.987 65.3992H167.978C168.089 65.3992 168.089 65.5098 168.089 65.5098V73.4772Z" fill="#8F6D4E"/>
<path d="M166.983 68.4976C166.43 68.4976 165.987 68.9402 165.987 69.4935C165.987 70.0468 166.43 70.4894 166.983 70.4894C167.537 70.4894 167.868 70.0468 167.868 69.4935C167.868 68.9402 167.537 68.4976 166.983 68.4976ZM166.983 69.7148C166.873 69.7148 166.651 69.6041 166.651 69.4935C166.651 69.3828 166.762 69.1615 166.983 69.1615C167.094 69.1615 167.205 69.2722 167.205 69.4935C167.205 69.6041 167.094 69.7148 166.983 69.7148Z" fill="#8F6D4E"/>
<path d="M156.359 76.6862V95.6087C156.359 95.83 156.47 95.9407 156.691 95.9407H168.421C168.642 95.9407 168.753 95.83 168.753 95.6087V76.6862C168.753 76.4648 168.642 76.3542 168.421 76.3542H156.691C156.47 76.3542 156.359 76.5755 156.359 76.6862ZM157.023 77.0181H168.089V95.2767H157.023V77.0181Z" fill="#8F6D4E"/>
<path d="M167.536 85.8706L167.426 80.1164C167.426 79.5631 166.983 79.1205 166.43 79.1205H161.45C160.122 79.1205 159.016 80.2271 159.016 81.555V91.0716C159.016 92.3995 160.122 93.506 161.45 93.506H166.43C166.983 93.506 167.426 93.0634 167.426 92.5101V86.7559H167.536C167.758 86.7559 167.868 86.6452 167.868 86.4239C167.868 85.9813 167.758 85.8706 167.536 85.8706ZM166.872 85.8706H164.77C164.549 85.8706 164.438 85.9813 164.438 86.2026C164.438 86.4239 164.549 86.5346 164.77 86.5346H166.872V92.2888C166.872 92.5101 166.762 92.6208 166.54 92.6208H161.561C160.565 92.6208 159.79 91.8462 159.79 90.8502V81.3336C159.79 80.3377 160.565 79.5631 161.561 79.5631H166.54C166.762 79.5631 166.872 79.6738 166.872 79.8951V85.8706Z" fill="#8F6D4E"/>
<path d="M110.436 58.8699C110.215 58.8699 110.104 58.9806 110.104 59.2019V107.56V122.166C110.104 122.388 110.215 122.498 110.436 122.498H125.043C125.265 122.498 125.375 122.388 125.375 122.166V107.449V59.2019C125.375 58.9806 125.265 58.8699 125.043 58.8699H110.436ZM124.711 121.724H110.768V107.781H124.711V121.724ZM124.711 107.117H110.768V85.5385H124.711V107.117ZM124.711 84.8746H110.768V75.9113H124.711V84.8746ZM124.711 75.2473H110.768V59.5339H124.711V75.2473Z" fill="#8F6D4E"/>
<path d="M114.642 121.392H120.396C121.724 121.392 122.941 120.285 122.941 118.847V115.084H123.605C123.827 115.084 123.937 114.974 123.937 114.752C123.937 114.531 123.827 114.42 123.605 114.42H122.831V110.658C122.831 109.33 121.724 108.113 120.286 108.113H114.531C113.204 108.113 111.986 109.219 111.986 110.658V118.957C112.097 120.285 113.204 121.392 114.642 121.392ZM112.761 110.658C112.761 109.662 113.536 108.777 114.642 108.777H120.396C121.392 108.777 122.278 109.551 122.278 110.658V114.531H119.511C119.29 114.531 119.179 114.642 119.179 114.863C119.179 115.084 119.29 115.195 119.511 115.195H122.167V119.068C122.167 120.064 121.392 120.949 120.286 120.949H114.531C113.536 120.949 112.65 120.175 112.65 119.068V110.658H112.761Z" fill="#8F6D4E"/>
<path d="M117.408 115.748C117.961 115.748 118.293 115.306 118.293 114.752C118.293 114.199 117.851 113.867 117.408 113.867C116.855 113.867 116.412 114.31 116.412 114.752C116.412 115.306 116.855 115.748 117.408 115.748ZM117.408 114.531C117.519 114.531 117.629 114.642 117.629 114.752C117.629 114.863 117.519 115.084 117.408 115.084C117.297 115.084 117.076 114.974 117.076 114.752C117.076 114.642 117.187 114.531 117.408 114.531Z" fill="#8F6D4E"/>
<path d="M120.395 82.9937C121.723 82.9937 122.83 81.8871 122.83 80.5592C122.83 79.2313 121.723 78.1247 120.395 78.1247C119.067 78.1247 117.961 79.2313 117.961 80.5592C117.85 81.8871 118.957 82.9937 120.395 82.9937ZM120.395 78.678C121.391 78.678 122.166 79.4526 122.166 80.4485C122.166 81.4444 121.391 82.2191 120.395 82.2191C119.399 82.2191 118.625 81.4444 118.625 80.4485C118.514 79.5632 119.399 78.678 120.395 78.678Z" fill="#8F6D4E"/>
<path d="M115.085 82.9937C116.413 82.9937 117.519 81.8871 117.519 80.5592C117.519 79.2313 116.413 78.1247 115.085 78.1247C113.757 78.1247 112.65 79.2313 112.65 80.5592C112.54 81.8871 113.646 82.9937 115.085 82.9937ZM115.085 78.678C116.081 78.678 116.855 79.4526 116.855 80.4485C116.855 81.4444 116.081 82.2191 115.085 82.2191C114.089 82.2191 113.314 81.4444 113.314 80.4485C113.203 79.5632 114.089 78.678 115.085 78.678Z" fill="#8F6D4E"/>
<path d="M170.524 24.8982H184.91V24.5662H185.242V7.74615H107.449V24.2342V24.5662V24.8982H117.408V25.2301H137.991V24.8982H149.942V25.2301H170.524V24.8982ZM137.659 24.2342V24.5662H123.163V24.2342H108.113V8.4101H137.659V24.2342ZM165.434 24.5662H155.696V24.2342H138.323V8.4101H184.578V24.2342H165.434V24.5662Z" fill="#8F6D4E"/>
<path d="M26.2266 98.4871C26.4483 98.4871 26.6699 98.2654 26.6699 98.0437C26.6699 97.822 26.4483 97.6003 26.2266 97.6003C26.0049 97.6003 25.7832 97.822 25.7832 98.0437C25.894 98.2654 26.0049 98.4871 26.2266 98.4871Z" fill="#8F6D4E"/>
<path d="M26.2266 95.1674C26.4483 95.1674 26.6699 94.9457 26.6699 94.724C26.6699 94.5023 26.4483 94.2806 26.2266 94.2806C26.0049 94.2806 25.7832 94.5023 25.7832 94.724C25.894 94.9457 26.0049 95.1674 26.2266 95.1674Z" fill="#8F6D4E"/>
<path d="M26.2266 96.8275C26.4483 96.8275 26.6699 96.6058 26.6699 96.3841C26.6699 96.1624 26.4483 95.9407 26.2266 95.9407C26.0049 95.9407 25.7832 96.1624 25.7832 96.3841C25.894 96.6058 26.0049 96.8275 26.2266 96.8275Z" fill="#8F6D4E"/>
<path d="M28.3287 69.2733H28.4395C28.6612 69.1625 28.772 68.9408 28.6612 68.7191C28.5503 68.4974 28.3287 68.3866 28.107 68.4974C27.8853 68.6082 27.7744 68.8299 27.8853 69.0516C27.9961 69.1625 28.2178 69.2733 28.3287 69.2733Z" fill="#8F6D4E"/>
<path d="M32.0918 68.7192C32.0918 68.4975 31.8701 68.2758 31.6484 68.2758C31.4268 68.2758 31.2051 68.4975 31.2051 68.7192C31.2051 68.9409 31.4268 69.1626 31.6484 69.1626C31.8701 69.1626 32.0918 68.9409 32.0918 68.7192Z" fill="#8F6D4E"/>
<path d="M30.4336 68.7192C30.4336 68.4975 30.2119 68.2758 29.9902 68.2758C29.7686 68.2758 29.5469 68.4975 29.5469 68.7192C29.5469 68.9409 29.7686 69.1626 29.9902 69.1626C30.2119 69.1626 30.4336 68.9409 30.4336 68.7192Z" fill="#8F6D4E"/>
<path d="M35.4121 68.7192C35.4121 68.4975 35.1904 68.2758 34.9688 68.2758C34.7471 68.2758 34.5254 68.4975 34.5254 68.7192C34.5254 68.9409 34.7471 69.1626 34.9688 69.1626C35.1904 69.1626 35.4121 68.9409 35.4121 68.7192Z" fill="#8F6D4E"/>
<path d="M26.2266 93.3972C26.4483 93.3972 26.6699 93.1756 26.6699 92.9539C26.6699 92.7322 26.4483 92.5105 26.2266 92.5105C26.0049 92.5105 25.7832 92.7322 25.7832 92.9539C25.894 93.2864 26.0049 93.3972 26.2266 93.3972Z" fill="#8F6D4E"/>
<path d="M26.2266 85.0976C26.4483 85.0976 26.6699 84.8759 26.6699 84.6542C26.6699 84.4325 26.4483 84.2108 26.2266 84.2108C26.0049 84.2108 25.7832 84.4325 25.7832 84.6542C25.894 84.8759 26.0049 85.0976 26.2266 85.0976Z" fill="#8F6D4E"/>
<path d="M26.2266 76.7984C26.4483 76.7984 26.6699 76.5767 26.6699 76.355C26.6699 76.1333 26.4483 75.9116 26.2266 75.9116C26.0049 75.9116 25.7832 76.1333 25.7832 76.355C25.894 76.5767 26.0049 76.7984 26.2266 76.7984Z" fill="#8F6D4E"/>
<path d="M26.2266 75.0277C26.4483 75.0277 26.6699 74.806 26.6699 74.5844C26.6699 74.3627 26.4483 74.141 26.2266 74.141C26.0049 74.141 25.7832 74.3627 25.7832 74.5844C25.894 74.9169 26.0049 75.0277 26.2266 75.0277Z" fill="#8F6D4E"/>
<path d="M26.2266 78.4579C26.4483 78.4579 26.6699 78.2362 26.6699 78.0145C26.6699 77.7929 26.4483 77.5712 26.2266 77.5712C26.0049 77.5712 25.7832 77.7929 25.7832 78.0145C25.894 78.2362 26.0049 78.4579 26.2266 78.4579Z" fill="#8F6D4E"/>
<path d="M26.2266 80.1181C26.4483 80.1181 26.6699 79.8964 26.6699 79.6747C26.6699 79.453 26.4483 79.2313 26.2266 79.2313C26.0049 79.2313 25.7832 79.453 25.7832 79.6747C25.894 79.8964 26.0049 80.1181 26.2266 80.1181Z" fill="#8F6D4E"/>
<path d="M26.2266 91.7371C26.4483 91.7371 26.6699 91.5155 26.6699 91.2938C26.6699 91.0721 26.4483 90.8504 26.2266 90.8504C26.0049 90.8504 25.7832 91.0721 25.7832 91.2938C25.894 91.6263 26.0049 91.7371 26.2266 91.7371Z" fill="#8F6D4E"/>
<path d="M27.0011 70.2689C27.1119 70.2689 27.2228 70.2689 27.3336 70.158C27.4445 69.9364 27.4445 69.7147 27.3336 69.6038C27.1119 69.493 26.8903 69.493 26.7794 69.6038C26.6686 69.8255 26.6686 70.0472 26.7794 70.158C26.7794 70.158 26.8903 70.2689 27.0011 70.2689Z" fill="#8F6D4E"/>
<path d="M26.2266 73.3676C26.4483 73.3676 26.6699 73.146 26.6699 72.9243C26.6699 72.7026 26.4483 72.4809 26.2266 72.4809C26.0049 72.4809 25.7832 72.7026 25.7832 72.9243C25.894 73.2568 26.0049 73.3676 26.2266 73.3676Z" fill="#8F6D4E"/>
<path d="M26.2266 88.4173C26.4483 88.4173 26.6699 88.1956 26.6699 87.974C26.6699 87.7523 26.4483 87.5306 26.2266 87.5306C26.0049 87.5306 25.7832 87.7523 25.7832 87.974C25.894 88.1956 26.0049 88.4173 26.2266 88.4173Z" fill="#8F6D4E"/>
<path d="M26.2266 81.7782C26.4483 81.7782 26.6699 81.5565 26.6699 81.3349C26.6699 81.1132 26.4483 80.8915 26.2266 80.8915C26.0049 80.8915 25.7832 81.1132 25.7832 81.3349C25.894 81.5565 26.0049 81.7782 26.2266 81.7782Z" fill="#8F6D4E"/>
<path d="M26.2266 90.0774C26.4483 90.0774 26.6699 89.8557 26.6699 89.634C26.6699 89.4124 26.4483 89.1907 26.2266 89.1907C26.0049 89.1907 25.7832 89.4124 25.7832 89.634C25.894 89.9666 26.0049 90.0774 26.2266 90.0774Z" fill="#8F6D4E"/>
<path d="M26.2266 86.7572C26.4483 86.7572 26.6699 86.5355 26.6699 86.3138C26.6699 86.0921 26.4483 85.8704 26.2266 85.8704C26.0049 85.8704 25.7832 86.0921 25.7832 86.3138C25.894 86.5355 26.0049 86.7572 26.2266 86.7572Z" fill="#8F6D4E"/>
<path d="M25.8936 71.2644C25.8936 71.486 26.0044 71.7077 26.2261 71.7077C26.4478 71.7077 26.5586 71.5969 26.6695 71.3752C26.6695 71.1535 26.5586 70.9318 26.3369 70.9318C26.1152 70.821 25.8936 71.0427 25.8936 71.2644Z" fill="#8F6D4E"/>
<path d="M26.2266 83.4378C26.4483 83.4378 26.6699 83.2161 26.6699 82.9945C26.6699 82.7728 26.4483 82.5511 26.2266 82.5511C26.0049 82.5511 25.7832 82.7728 25.7832 82.9945C25.894 83.2161 26.0049 83.4378 26.2266 83.4378Z" fill="#8F6D4E"/>
<path d="M47.1426 68.7192C47.1426 68.4975 46.9209 68.2758 46.6992 68.2758C46.4775 68.2758 46.2559 68.4975 46.2559 68.7192C46.2559 68.9409 46.4775 69.1626 46.6992 69.1626C46.9209 69.1626 47.1426 68.9409 47.1426 68.7192Z" fill="#8F6D4E"/>
<path d="M33.3096 68.2758C33.0879 68.2758 32.8662 68.4975 32.8662 68.7192C32.8662 68.9409 33.0879 69.1626 33.3096 69.1626C33.5313 69.1626 33.753 68.9409 33.753 68.7192C33.753 68.4975 33.5313 68.2758 33.3096 68.2758Z" fill="#8F6D4E"/>
<path d="M61.3052 68.7191C61.1944 68.9408 61.3052 69.1625 61.5269 69.2733H61.6377C61.8594 69.2733 61.9703 69.1625 62.0811 69.0516C62.1919 68.8299 62.0811 68.6082 61.8594 68.4974C61.6377 68.3866 61.416 68.4974 61.3052 68.7191Z" fill="#8F6D4E"/>
<path d="M58.7608 68.7192C58.7608 68.4975 58.5391 68.2758 58.3174 68.2758C58.0957 68.2758 57.874 68.4975 57.874 68.7192C57.874 68.9409 58.0957 69.1626 58.3174 69.1626C58.5391 69.1626 58.7608 68.9409 58.7608 68.7192Z" fill="#8F6D4E"/>
<path d="M60.4199 68.7192C60.4199 68.4975 60.1983 68.2758 59.9766 68.2758C59.7549 68.2758 59.5332 68.4975 59.5332 68.7192C59.5332 68.9409 59.7549 69.1626 59.9766 69.1626C60.3091 69.1626 60.4199 68.9409 60.4199 68.7192Z" fill="#8F6D4E"/>
<path d="M63.7402 94.2806C63.5186 94.2806 63.2969 94.5023 63.2969 94.724C63.2969 94.9457 63.5186 95.1674 63.7402 95.1674C63.9619 95.1674 64.1836 94.9457 64.1836 94.724C64.1836 94.5023 63.9619 94.2806 63.7402 94.2806Z" fill="#8F6D4E"/>
<path d="M63.7402 97.6003C63.5186 97.6003 63.2969 97.822 63.2969 98.0437C63.2969 98.2654 63.5186 98.4871 63.7402 98.4871C63.9619 98.4871 64.1836 98.2654 64.1836 98.0437C64.1836 97.822 63.9619 97.6003 63.7402 97.6003Z" fill="#8F6D4E"/>
<path d="M63.7402 95.9407C63.5186 95.9407 63.2969 96.1624 63.2969 96.3841C63.2969 96.6058 63.5186 96.8275 63.7402 96.8275C63.9619 96.8275 64.1836 96.6058 64.1836 96.3841C64.1836 96.1624 63.9619 95.9407 63.7402 95.9407Z" fill="#8F6D4E"/>
<path d="M56.7676 69.1626C56.9893 69.1626 57.211 68.9409 57.211 68.7192C57.211 68.4975 56.9893 68.2758 56.7676 68.2758C56.5459 68.2758 56.3242 68.4975 56.3242 68.7192C56.3242 68.9409 56.4351 69.1626 56.7676 69.1626Z" fill="#8F6D4E"/>
<path d="M48.8008 68.7192C48.8008 68.4975 48.5791 68.2758 48.3574 68.2758C48.1357 68.2758 47.9141 68.4975 47.9141 68.7192C47.9141 68.9409 48.1357 69.1626 48.3574 69.1626C48.5791 69.1626 48.8008 68.9409 48.8008 68.7192Z" fill="#8F6D4E"/>
<path d="M45.4815 68.7192C45.4815 68.4975 45.2598 68.2758 45.0381 68.2758C44.8164 68.2758 44.5947 68.4975 44.5947 68.7192C44.5947 68.9409 44.8164 69.1626 45.0381 69.1626C45.2598 69.1626 45.4815 68.9409 45.4815 68.7192Z" fill="#8F6D4E"/>
<path d="M43.8223 68.7192C43.8223 68.4975 43.6006 68.2758 43.3789 68.2758C43.1572 68.2758 42.9355 68.4975 42.9355 68.7192C42.9355 68.9409 43.1572 69.1626 43.3789 69.1626C43.6006 69.1626 43.8223 68.9409 43.8223 68.7192Z" fill="#8F6D4E"/>
<path d="M52.1221 68.7192C52.1221 68.4975 51.9004 68.2758 51.6787 68.2758C51.457 68.2758 51.2354 68.4975 51.2354 68.7192C51.2354 68.9409 51.457 69.1626 51.6787 69.1626C51.9004 69.1626 52.1221 68.9409 52.1221 68.7192Z" fill="#8F6D4E"/>
<path d="M50.461 68.7192C50.461 68.4975 50.2393 68.2758 50.0176 68.2758C49.7959 68.2758 49.5742 68.4975 49.5742 68.7192C49.5742 68.9409 49.7959 69.1626 50.0176 69.1626C50.2393 69.1626 50.461 68.9409 50.461 68.7192Z" fill="#8F6D4E"/>
<path d="M53.7803 68.7192C53.7803 68.4975 53.5586 68.2758 53.3369 68.2758C53.1152 68.2758 52.8936 68.4975 52.8936 68.7192C52.8936 68.9409 53.1152 69.1626 53.3369 69.1626C53.5586 69.1626 53.7803 68.9409 53.7803 68.7192Z" fill="#8F6D4E"/>
<path d="M63.7402 92.6204C63.5186 92.6204 63.2969 92.8421 63.2969 93.0638C63.2969 93.2855 63.5186 93.5072 63.7402 93.5072C63.9619 93.5072 64.1836 93.2855 64.1836 93.0638C64.1836 92.8421 63.9619 92.6204 63.7402 92.6204Z" fill="#8F6D4E"/>
<path d="M63.7402 82.6615C63.5186 82.6615 63.2969 82.8832 63.2969 83.1049C63.2969 83.3266 63.5186 83.5482 63.7402 83.5482C63.9619 83.5482 64.1836 83.3266 64.1836 83.1049C64.1836 82.7723 63.9619 82.6615 63.7402 82.6615Z" fill="#8F6D4E"/>
<path d="M63.7402 74.2519C63.5186 74.2519 63.2969 74.4736 63.2969 74.6953C63.2969 74.9169 63.5186 75.1386 63.7402 75.1386C63.9619 75.1386 64.1836 74.9169 64.1836 74.6953C64.1836 74.4736 63.9619 74.2519 63.7402 74.2519Z" fill="#8F6D4E"/>
<path d="M63.7402 75.9116C63.5186 75.9116 63.2969 76.1333 63.2969 76.355C63.2969 76.5767 63.5186 76.7984 63.7402 76.7984C63.9619 76.7984 64.1836 76.5767 64.1836 76.355C64.1836 76.1333 63.9619 75.9116 63.7402 75.9116Z" fill="#8F6D4E"/>
<path d="M63.7402 77.5712C63.5186 77.5712 63.2969 77.7929 63.2969 78.0145C63.2969 78.2362 63.5186 78.4579 63.7402 78.4579C63.9619 78.4579 64.1836 78.2362 64.1836 78.0145C64.1836 77.7929 63.9619 77.5712 63.7402 77.5712Z" fill="#8F6D4E"/>
<path d="M62.7432 69.4934C62.5215 69.6043 62.5215 69.9368 62.6324 70.0476C62.7432 70.1585 62.8541 70.1585 62.9649 70.1585C63.0758 70.1585 63.1866 70.1585 63.1866 70.0476C63.4083 69.9368 63.4083 69.6043 63.2974 69.4934C63.1866 69.3826 62.9649 69.3826 62.7432 69.4934Z" fill="#8F6D4E"/>
<path d="M63.7402 79.2313C63.5186 79.2313 63.2969 79.453 63.2969 79.6747C63.2969 79.8964 63.5186 80.1181 63.7402 80.1181C63.9619 80.1181 64.1836 79.8964 64.1836 79.6747C64.1836 79.453 63.9619 79.2313 63.7402 79.2313Z" fill="#8F6D4E"/>
<path d="M63.7402 72.5918C63.5186 72.5918 63.2969 72.8135 63.2969 73.0352C63.2969 73.2569 63.5186 73.4785 63.7402 73.4785C63.9619 73.4785 64.1836 73.2569 64.1836 73.0352C64.1836 72.8135 63.9619 72.5918 63.7402 72.5918Z" fill="#8F6D4E"/>
<path d="M63.6294 70.9321C63.4077 70.9321 63.2969 71.1538 63.2969 71.3754C63.2969 71.5971 63.5186 71.708 63.7402 71.708C63.9619 71.708 64.1836 71.4863 64.0728 71.2646C64.0728 71.0429 63.8511 70.9321 63.6294 70.9321Z" fill="#8F6D4E"/>
<path d="M42.0518 68.7192C42.0518 68.4975 41.8301 68.2758 41.6084 68.2758C41.3867 68.2758 41.165 68.4975 41.165 68.7192C41.165 68.9409 41.3867 69.1626 41.6084 69.1626C41.9409 69.1626 42.0518 68.9409 42.0518 68.7192Z" fill="#8F6D4E"/>
<path d="M63.7402 85.9813C63.5186 85.9813 63.2969 86.203 63.2969 86.4247C63.2969 86.6464 63.5186 86.8681 63.7402 86.8681C63.9619 86.8681 64.1836 86.6464 64.1836 86.4247C64.1836 86.0922 63.9619 85.9813 63.7402 85.9813Z" fill="#8F6D4E"/>
<path d="M63.7402 87.6411C63.5186 87.6411 63.2969 87.8627 63.2969 88.0844C63.2969 88.3061 63.5186 88.5278 63.7402 88.5278C63.9619 88.5278 64.1836 88.3061 64.1836 88.0844C64.1836 87.8627 63.9619 87.6411 63.7402 87.6411Z" fill="#8F6D4E"/>
<path d="M63.7402 89.3011C63.5186 89.3011 63.2969 89.5228 63.2969 89.7445C63.2969 89.9661 63.5186 90.1878 63.7402 90.1878C63.9619 90.1878 64.1836 89.9661 64.1836 89.7445C64.1836 89.5228 63.9619 89.3011 63.7402 89.3011Z" fill="#8F6D4E"/>
<path d="M63.7402 90.9608C63.5186 90.9608 63.2969 91.1825 63.2969 91.4042C63.2969 91.6259 63.5186 91.8476 63.7402 91.8476C63.9619 91.8476 64.1836 91.6259 64.1836 91.4042C64.1836 91.1825 63.9619 90.9608 63.7402 90.9608Z" fill="#8F6D4E"/>
<path d="M63.7402 80.8915C63.5186 80.8915 63.2969 81.1132 63.2969 81.3349C63.2969 81.5565 63.5186 81.7782 63.7402 81.7782C63.9619 81.7782 64.1836 81.5565 64.1836 81.3349C64.1836 81.1132 63.9619 80.8915 63.7402 80.8915Z" fill="#8F6D4E"/>
<path d="M63.7402 84.3212C63.5186 84.3212 63.2969 84.5429 63.2969 84.7645C63.2969 84.9862 63.5186 85.2079 63.7402 85.2079C63.9619 85.2079 64.1836 84.9862 64.1836 84.7645C64.1836 84.432 63.9619 84.3212 63.7402 84.3212Z" fill="#8F6D4E"/>
<path d="M55.4405 68.7192C55.4405 68.4975 55.2188 68.2758 54.9971 68.2758C54.7754 68.2758 54.5537 68.4975 54.5537 68.7192C54.5537 68.9409 54.7754 69.1626 54.9971 69.1626C55.2188 69.1626 55.4405 68.9409 55.4405 68.7192Z" fill="#8F6D4E"/>
<path d="M38.7324 68.7192C38.7324 68.4975 38.5108 68.2758 38.2891 68.2758C38.0674 68.2758 37.8457 68.4975 37.8457 68.7192C37.8457 68.9409 38.0674 69.1626 38.2891 69.1626C38.6216 69.1626 38.7324 68.9409 38.7324 68.7192Z" fill="#8F6D4E"/>
<path d="M40.3916 68.7192C40.3916 68.4975 40.1699 68.2758 39.9483 68.2758C39.7266 68.2758 39.5049 68.4975 39.5049 68.7192C39.5049 68.9409 39.7266 69.1626 39.9483 69.1626C40.2808 69.1626 40.3916 68.9409 40.3916 68.7192Z" fill="#8F6D4E"/>
<path d="M37.0713 68.7192C37.0713 68.4975 36.8496 68.2758 36.6279 68.2758C36.4063 68.2758 36.1846 68.4975 36.1846 68.7192C36.1846 68.9409 36.4063 69.1626 36.6279 69.1626C36.8496 69.1626 37.0713 68.9409 37.0713 68.7192Z" fill="#8F6D4E"/>
<path d="M21.2471 100.699V117.74V118.072C21.2471 120.064 22.9069 121.724 24.8988 121.724H25.8947H26.5587H42.7147H47.1411H63.2972H63.9611H64.957C66.9489 121.724 68.6087 120.064 68.6087 118.072V117.74V100.699C68.6087 99.2602 67.3915 98.043 65.9529 98.043C64.7357 98.043 63.6291 98.9282 63.4078 100.145C62.9652 99.5922 62.3012 99.2602 61.416 99.2602H47.0304C46.0345 99.2602 45.2599 99.8135 44.8172 100.588C44.3746 99.8135 43.6 99.2602 42.6041 99.2602H28.2185C27.4439 99.2602 26.78 99.5922 26.2267 100.145C26.0054 98.9282 24.8988 98.043 23.6815 98.043C22.4643 98.043 21.2471 99.2602 21.2471 100.699ZM64.0718 101.805V100.699C64.0718 99.5922 64.957 98.7069 66.0636 98.7069C67.1702 98.7069 68.0554 99.5922 68.0554 100.699V117.74H64.0718V101.805V101.805ZM64.0718 118.404H68.0554V118.515C68.0554 118.625 68.0554 118.736 68.0554 118.736C68.0554 118.847 68.0555 118.957 67.9448 119.068C67.9448 119.179 67.8341 119.179 67.8341 119.289C67.8341 119.4 67.7235 119.511 67.7235 119.511C67.7235 119.621 67.6128 119.621 67.6128 119.732C67.5022 119.843 67.5022 119.843 67.3915 119.953C67.2808 120.064 67.2808 120.064 67.1702 120.175C67.0595 120.285 67.0595 120.285 66.9489 120.396C66.8382 120.396 66.8382 120.507 66.7276 120.507C66.6169 120.617 66.5062 120.617 66.3956 120.617C66.2849 120.617 66.2849 120.728 66.1743 120.728C66.0636 120.728 65.9529 120.839 65.8423 120.839C65.7316 120.839 65.7316 120.839 65.621 120.839C65.3997 120.839 65.289 120.949 65.0677 120.949H64.0718V118.404V118.404ZM45.3705 101.805C45.3705 100.809 46.2558 99.9242 47.2517 99.9242H61.6373C62.6332 99.9242 63.5185 100.809 63.5185 101.805V117.851H45.3705V101.805ZM45.3705 118.404H63.4078V121.06H47.2517C46.2558 121.06 45.3705 120.175 45.3705 119.179V118.404ZM45.4812 121.06H44.4853C44.7066 120.839 44.8172 120.617 45.0386 120.396C45.1492 120.728 45.3705 120.949 45.4812 121.06ZM26.5587 101.805C26.5587 100.809 27.4439 99.9242 28.4398 99.9242H42.8254C43.8213 99.9242 44.7066 100.809 44.7066 101.805V117.851H26.5587V101.805ZM26.5587 118.404H44.5959V119.179C44.5959 120.175 43.7107 121.06 42.7147 121.06H26.5587V118.404ZM25.8947 121.06H24.8988C24.6775 121.06 24.4562 121.06 24.3455 120.949C24.2348 120.949 24.2348 120.949 24.1242 120.949C24.0135 120.949 23.9029 120.839 23.7922 120.839C23.6815 120.839 23.6815 120.728 23.5709 120.728C23.4602 120.728 23.3496 120.617 23.2389 120.617C23.1283 120.617 23.1283 120.507 23.0176 120.507C22.9069 120.396 22.7963 120.396 22.7963 120.285C22.6856 120.175 22.6856 120.175 22.575 120.064C22.4643 119.953 22.4643 119.953 22.3537 119.843C22.3537 119.732 22.243 119.732 22.243 119.621C22.243 119.511 22.1323 119.4 22.1323 119.4C22.1323 119.289 22.0217 119.289 22.0217 119.179C22.0217 119.068 21.911 118.957 21.911 118.847C21.911 118.736 21.911 118.625 21.911 118.625V118.515H25.8947V121.06ZM25.8947 100.699V101.805V117.851H21.911V100.699C21.911 99.5922 22.7963 98.7069 23.9029 98.7069C25.0094 98.7069 25.8947 99.5922 25.8947 100.699Z" fill="#8F6D4E"/>
<path d="M33.4199 75.69V92.842C33.4199 93.0633 33.5306 93.174 33.7519 93.174H56.3262C56.5475 93.174 56.6581 93.0633 56.6581 92.842V75.69C56.6581 75.4687 56.5475 75.358 56.3262 75.358H33.7519C33.5306 75.358 33.4199 75.4687 33.4199 75.69ZM34.0839 76.022H55.9942V92.51H34.0839V76.022Z" fill="#8F6D4E"/>
<path d="M168.089 10.8446H153.925C153.15 10.8446 152.597 11.3979 152.597 12.0618C152.597 12.5045 152.818 12.8365 153.261 13.0578L160.675 16.9308V17.3734C159.457 17.7054 158.683 18.3694 158.683 19.3653C158.683 20.4719 159.568 21.3571 160.675 21.3571C161.671 21.3571 162.556 20.5825 162.667 19.6973C162.667 19.4759 162.556 19.3653 162.335 19.3653C162.113 19.3653 162.003 19.4759 162.003 19.6973C162.003 20.0292 161.781 20.2505 161.671 20.3612C161.449 20.5825 161.117 20.8038 160.675 20.8038C160.011 20.8038 159.457 20.2505 159.457 19.5866C159.457 19.3653 159.568 19.0333 159.789 18.9226C160.011 18.7013 160.453 18.48 160.896 18.3694C160.896 18.3694 161.449 18.2587 161.449 18.148V18.0374V17.1521L168.863 13.2791C169.306 13.0578 169.527 12.7258 169.527 12.2832C169.417 11.3979 168.863 10.8446 168.089 10.8446ZM168.421 12.3938L161.007 16.3775L153.593 12.3938C153.371 12.2832 153.261 12.1725 153.261 11.9512C153.261 11.7299 153.593 11.5086 153.925 11.5086H168.089C168.421 11.5086 168.753 11.7299 168.753 11.9512C168.753 12.1725 168.642 12.2832 168.421 12.3938Z" fill="#8F6D4E"/>
<path d="M114.754 13.0573L122.168 16.9304V17.373C120.951 17.705 120.176 18.3689 120.176 19.3648C120.176 20.4714 121.061 21.3567 122.168 21.3567C123.164 21.3567 124.049 20.5821 124.16 19.6968C124.16 19.4755 124.049 19.3648 123.828 19.3648C123.606 19.3648 123.496 19.4755 123.496 19.6968C123.496 20.0288 123.274 20.2501 123.164 20.3608C122.942 20.5821 122.61 20.8034 122.168 20.8034C121.504 20.8034 120.951 20.2501 120.951 19.5862C120.951 19.3649 121.061 19.0329 121.283 18.9222C121.504 18.7009 121.946 18.4796 122.389 18.3689C122.389 18.3689 122.942 18.2583 122.942 18.1476V18.037V17.1517L130.357 13.2787C130.799 13.0573 131.02 12.7254 131.02 12.2827C131.02 11.6188 130.467 11.0655 129.693 11.0655H115.528C114.754 11.0655 114.2 11.6188 114.2 12.2827C114.09 12.504 114.422 12.836 114.754 13.0573ZM115.418 11.5081H129.582C129.914 11.5081 130.246 11.7294 130.246 11.9508C130.246 12.0614 130.135 12.2827 129.914 12.3934L122.5 16.3771L115.086 12.3934C114.864 12.2827 114.754 12.1721 114.754 11.9508C114.754 11.7294 115.086 11.5081 115.418 11.5081Z" fill="#8F6D4E"/>
<path d="M130.134 99.2603V122.056C130.134 122.277 130.244 122.388 130.466 122.388H168.975C169.196 122.388 169.307 122.277 169.307 122.056V99.2603C169.307 99.0389 169.196 98.9283 168.975 98.9283H130.466C130.355 98.9283 130.134 99.0389 130.134 99.2603ZM130.798 99.5922H168.643V121.724H130.798V99.5922Z" fill="#8F6D4E"/>
<path d="M162.666 109.552C162.002 109.552 161.56 110.105 161.56 110.658C161.56 111.322 162.113 111.765 162.666 111.765C163.33 111.765 163.773 111.211 163.773 110.658C163.773 109.994 163.219 109.552 162.666 109.552ZM162.666 111.101C162.445 111.101 162.224 110.879 162.224 110.658C162.224 110.437 162.445 110.216 162.666 110.216C162.887 110.216 163.109 110.437 163.109 110.658C163.109 110.879 162.887 111.101 162.666 111.101Z" fill="#8F6D4E"/>
<path d="M167.978 110.326H166.65V104.351C166.65 103.133 165.654 102.248 164.548 102.248H141.309C136.662 102.248 132.899 106.01 132.899 110.658C132.899 115.306 136.662 119.068 141.309 119.068H164.548C165.765 119.068 166.65 118.072 166.65 116.966V110.99H167.978C168.199 110.99 168.31 110.879 168.31 110.658C168.31 110.437 168.199 110.326 167.978 110.326ZM165.986 110.326H164.99C164.769 110.326 164.658 110.437 164.658 110.658C164.658 110.879 164.769 110.99 164.99 110.99H165.986V116.966C165.986 117.74 165.322 118.404 164.548 118.404H141.309C136.994 118.404 133.563 114.974 133.563 110.658C133.563 106.342 137.104 102.912 141.309 102.912H164.548C165.322 102.912 165.986 103.576 165.986 104.351V110.326Z" fill="#8F6D4E"/>
<path d="M142.529 41.7199C142.64 41.7199 142.861 41.6091 142.861 41.4982C142.972 41.2765 142.861 41.0548 142.64 40.944C142.418 40.8332 142.196 40.944 142.085 41.1657C141.975 41.3874 142.085 41.6091 142.307 41.7199C142.418 41.7199 142.529 41.7199 142.529 41.7199Z" fill="#8F6D4E"/>
<path d="M150.495 47.9164C150.717 47.8055 150.717 47.473 150.606 47.3622C150.495 47.1405 150.163 47.1405 150.052 47.2513C149.83 47.3622 149.83 47.6947 149.941 47.8055C150.052 47.9164 150.163 47.9164 150.274 47.9164C150.384 48.0272 150.384 48.0272 150.495 47.9164Z" fill="#8F6D4E"/>
<path d="M141.09 40.9445C141.201 40.9445 141.423 40.8337 141.423 40.7228C141.534 40.5011 141.423 40.2794 141.201 40.1686C140.98 40.0578 140.758 40.1686 140.647 40.3903C140.536 40.612 140.647 40.8337 140.869 40.9445C140.98 40.9445 140.98 40.9445 141.09 40.9445Z" fill="#8F6D4E"/>
<path d="M143.967 42.4938C144.078 42.4938 144.189 42.3829 144.299 42.2721C144.41 42.0504 144.41 41.8287 144.189 41.7179C143.967 41.607 143.745 41.607 143.634 41.8287C143.523 42.0504 143.523 42.2721 143.745 42.3829C143.856 42.4938 143.967 42.4938 143.967 42.4938Z" fill="#8F6D4E"/>
<path d="M147.066 44.2642C147.176 44.0425 147.176 43.8208 146.955 43.71C146.733 43.5991 146.511 43.5991 146.401 43.71C146.29 43.9316 146.29 44.1533 146.401 44.2642C146.511 44.375 146.622 44.375 146.622 44.375C146.844 44.4859 146.955 44.375 147.066 44.2642Z" fill="#8F6D4E"/>
<path d="M151.492 49.3548C151.714 49.244 151.714 49.0223 151.603 48.8006C151.492 48.5789 151.16 48.5789 151.049 48.6898C150.827 48.8006 150.827 49.0223 150.938 49.244C151.049 49.3548 151.16 49.4657 151.271 49.4657C151.271 49.3548 151.381 49.3548 151.492 49.3548Z" fill="#8F6D4E"/>
<path d="M153.926 54.6651C153.705 54.7758 153.594 54.9971 153.705 55.2184C153.705 55.4397 153.926 55.5504 154.147 55.5504H154.258C154.479 55.4397 154.59 55.2184 154.59 54.9971C154.368 54.6651 154.147 54.5544 153.926 54.6651Z" fill="#8F6D4E"/>
<path d="M148.283 45.4812C148.394 45.3703 148.394 45.0378 148.283 44.9269C148.172 44.8161 147.839 44.8161 147.729 44.9269C147.618 45.0378 147.618 45.3703 147.729 45.4812C147.839 45.592 147.95 45.592 148.061 45.592C148.061 45.592 148.172 45.4812 148.283 45.4812Z" fill="#8F6D4E"/>
<path d="M145.738 43.2683C145.849 43.0466 145.849 42.8249 145.627 42.714C145.405 42.6032 145.184 42.6032 145.073 42.8249C144.962 43.0466 144.962 43.2683 145.184 43.3791C145.294 43.3791 145.294 43.4899 145.405 43.4899C145.516 43.3791 145.627 43.3791 145.738 43.2683Z" fill="#8F6D4E"/>
<path d="M151.934 50.0177C151.712 50.1285 151.712 50.3502 151.823 50.5719C151.934 50.6827 152.044 50.7936 152.155 50.7936C152.266 50.7936 152.266 50.7936 152.377 50.6827C152.599 50.5719 152.599 50.3502 152.488 50.1285C152.377 50.0177 152.155 49.9068 151.934 50.0177Z" fill="#8F6D4E"/>
<path d="M132.901 38.3981C132.68 38.3981 132.458 38.6198 132.458 38.8415C132.458 39.0632 132.68 39.2849 132.901 39.2849C133.123 39.2849 133.345 39.0632 133.345 38.8415C133.345 38.6198 133.123 38.3981 132.901 38.3981Z" fill="#8F6D4E"/>
<path d="M134.56 39.2849C134.782 39.2849 134.893 39.1741 135.004 38.9524C135.004 38.7307 134.893 38.509 134.671 38.509C134.449 38.509 134.228 38.6199 134.228 38.8416C134.117 39.0632 134.339 39.2849 134.56 39.2849Z" fill="#8F6D4E"/>
<path d="M136.222 39.6167C136.443 39.6167 136.554 39.5059 136.665 39.2842C136.665 39.0625 136.554 38.8408 136.333 38.8408C136.111 38.8408 135.889 38.9517 135.889 39.1734C135.778 39.2842 135.889 39.5059 136.222 39.6167Z" fill="#8F6D4E"/>
<path d="M149.501 46.6986C149.612 46.5878 149.722 46.2553 149.501 46.1444C149.39 45.9227 149.057 45.9227 148.947 46.1444C148.725 46.2553 148.725 46.5878 148.947 46.6986C149.057 46.8095 149.168 46.8095 149.279 46.8095C149.279 46.8095 149.39 46.6986 149.501 46.6986Z" fill="#8F6D4E"/>
<path d="M154.146 56.7677C154.146 56.989 154.368 57.0997 154.589 57.0997H154.7C154.921 57.0997 155.032 56.8784 155.032 56.657C155.032 56.4357 154.81 56.3251 154.589 56.3251C154.146 56.3251 154.036 56.5464 154.146 56.7677Z" fill="#8F6D4E"/>
<path d="M153.373 53.1164C153.151 53.2273 153.04 53.4489 153.151 53.6706C153.262 53.7815 153.373 53.8923 153.594 53.8923H153.705C153.927 53.7815 154.038 53.5598 153.927 53.3381C153.816 53.1164 153.594 53.0056 153.373 53.1164Z" fill="#8F6D4E"/>
<path d="M139.429 40.3903C139.65 40.3903 139.761 40.2796 139.872 40.0583C139.982 39.837 139.872 39.6157 139.65 39.505C139.429 39.3944 139.208 39.505 139.097 39.7263C138.986 39.9477 139.097 40.169 139.318 40.2796C139.429 40.3903 139.429 40.3903 139.429 40.3903Z" fill="#8F6D4E"/>
<path d="M154.811 58.7606C155.144 58.7606 155.255 58.5389 155.255 58.3172C155.255 58.0955 155.033 57.9847 154.811 57.9847C154.59 57.9847 154.368 58.2064 154.479 58.428C154.479 58.5389 154.59 58.7606 154.811 58.7606Z" fill="#8F6D4E"/>
<path d="M137.881 39.9494C138.103 39.9494 138.213 39.8386 138.324 39.6169C138.435 39.3952 138.213 39.1735 137.992 39.0627C137.77 39.0627 137.548 39.1735 137.548 39.3952C137.438 39.6169 137.548 39.8386 137.881 39.9494C137.881 39.9494 137.77 39.9494 137.881 39.9494Z" fill="#8F6D4E"/>
<path d="M152.71 51.5668C152.488 51.6776 152.377 51.8993 152.488 52.121C152.599 52.2319 152.71 52.3427 152.82 52.3427C152.82 52.3427 152.931 52.3427 153.042 52.3427C153.264 52.2319 153.375 52.0102 153.264 51.7885C153.153 51.5668 152.931 51.456 152.71 51.5668Z" fill="#8F6D4E"/>
<path d="M83.4353 72.5916C84.2099 75.2474 86.5337 77.1286 89.4108 77.1286C92.2879 77.1286 94.6117 75.2474 95.3863 72.5916C96.2716 72.5916 97.0462 71.817 97.0462 70.9317C97.0462 66.7267 93.6158 63.2963 89.4108 63.2963C85.2058 63.2963 81.7754 66.7267 81.7754 70.9317C81.886 71.817 82.55 72.5916 83.4353 72.5916ZM89.4108 76.4646C86.8657 76.4646 84.7632 74.8048 84.0992 72.4809C84.7632 72.2596 85.2058 71.5957 85.2058 70.9317C85.2058 68.6079 87.087 66.7267 89.4108 66.7267C91.7346 66.7267 93.6158 68.6079 93.6158 70.9317C93.6158 71.7063 94.0584 72.2596 94.7224 72.4809C94.0584 74.8048 91.9559 76.4646 89.4108 76.4646ZM89.4108 63.9603C93.2838 63.9603 96.3823 67.0587 96.3823 70.9317C96.3823 71.3744 96.0503 71.817 95.6077 71.9277C95.497 71.9277 95.497 71.9277 95.3863 71.9277C95.2757 71.9277 95.0544 71.9277 94.9437 71.817C94.6117 71.7063 94.2798 71.2637 94.2798 70.8211C94.2798 68.1653 92.0666 65.9521 89.4108 65.9521C86.755 65.9521 84.5418 68.1653 84.5418 70.8211C84.5418 71.2637 84.3205 71.5957 83.8779 71.817C83.7672 71.9277 83.6566 71.9277 83.4353 71.9277C83.3246 71.9277 83.3246 71.9277 83.2139 71.9277C82.7713 71.817 82.4393 71.3744 82.4393 70.9317C82.55 67.0587 85.6484 63.9603 89.4108 63.9603Z" fill="#8F6D4E"/>
<path d="M89.4108 103.797C86.5337 103.797 84.2099 105.679 83.4353 108.334C82.55 108.334 81.7754 109.109 81.7754 109.994C81.7754 114.199 85.2058 117.63 89.4108 117.63C93.6158 117.63 97.0462 114.199 97.0462 109.994C97.0462 109.109 96.2716 108.334 95.3863 108.334C94.7224 105.679 92.2879 103.797 89.4108 103.797ZM89.4108 104.461C91.9559 104.461 94.0584 106.121 94.7224 108.445C94.0584 108.666 93.6158 109.33 93.6158 109.994C93.6158 112.318 91.7346 114.199 89.4108 114.199C87.087 114.199 85.2058 112.318 85.2058 109.994C85.2058 109.22 84.7632 108.666 84.0992 108.445C84.8738 106.121 86.9763 104.461 89.4108 104.461ZM96.3823 109.994C96.3823 113.867 93.2838 116.966 89.4108 116.966C85.5378 116.966 82.4393 113.867 82.4393 109.994C82.4393 109.552 82.7713 109.109 83.2139 108.998C83.3246 108.998 83.3246 108.998 83.4353 108.998C83.5459 108.998 83.7672 108.998 83.8779 109.109C84.2099 109.22 84.5418 109.662 84.5418 110.105C84.5418 112.761 86.755 114.974 89.4108 114.974C92.0666 114.974 94.2798 112.761 94.2798 110.105C94.2798 109.662 94.5011 109.33 94.9437 109.109C95.0544 108.998 95.165 108.998 95.3863 108.998C95.497 108.998 95.497 108.998 95.6077 108.998C96.0503 109.109 96.3823 109.552 96.3823 109.994Z" fill="#8F6D4E"/>
<path d="M100.366 89.6335C100.366 83.5473 95.4974 78.6783 89.4112 78.6783C83.325 78.6783 78.4561 83.5473 78.4561 89.6335C78.4561 95.7197 83.325 100.589 89.4112 100.589C95.4974 100.589 100.366 95.609 100.366 89.6335ZM89.4112 99.9247C83.7676 99.9247 79.12 95.2771 79.12 89.6335C79.12 83.9899 83.7676 79.3423 89.4112 79.3423C95.0548 79.3423 99.7024 83.9899 99.7024 89.6335C99.7024 95.2771 95.0548 99.9247 89.4112 99.9247Z" fill="#8F6D4E"/>
<path d="M37.4025 13.3899H39.3943C40.2796 13.3899 40.9435 12.9473 41.3861 12.1727H48.2469V10.1809H41.3861C41.0542 9.51691 40.2796 8.96362 39.3943 8.96362H37.4025C36.5172 8.96362 35.8532 9.40625 35.4106 10.1809H28.5498V12.2834H35.4106C35.8532 12.9473 36.5172 13.3899 37.4025 13.3899ZM39.3943 12.726H37.4025C36.9598 12.726 36.5172 12.5047 36.2959 12.1727H40.6115C40.2796 12.5047 39.8369 12.726 39.3943 12.726ZM37.4025 9.62757H39.3943C39.8369 9.62757 40.2796 9.84889 40.5009 10.1809H36.1852C36.5172 9.84889 36.9598 9.62757 37.4025 9.62757ZM29.2138 11.6194V10.8448H35.1893H35.5213H35.8532H40.9435H41.2755H41.6075H47.583V11.6194H41.6075H41.2755H40.9435H35.9639H35.6319H35.3H29.2138Z" fill="#8F6D4E"/>
<path d="M86.3143 22.685V8.07813C86.3143 7.96747 86.2037 7.74615 85.9824 7.74615H23.2392C23.0179 7.74615 22.9072 7.85681 22.9072 8.07813V22.685C22.9072 22.9063 23.0179 23.017 23.2392 23.017H85.9824C86.2037 23.017 86.3143 22.9063 86.3143 22.685ZM85.6504 22.353H23.5712V8.4101H85.6504V22.353Z" fill="#8F6D4E"/>
<path d="M70.3782 35.0785C70.3782 35.9638 71.0422 36.6277 71.9274 36.6277H78.5669C79.4522 36.6277 80.1162 35.9638 80.1162 35.0785C80.1162 34.5252 79.8948 34.0826 79.4522 33.8613C79.7842 33.5293 80.1162 33.0867 80.1162 32.644V26.3365C80.1162 25.1193 79.1202 24.1234 77.903 24.1234H72.4807C71.2635 24.1234 70.2676 25.1193 70.2676 26.3365V32.644C70.2676 33.1973 70.4889 33.64 70.9315 33.8613C70.5996 34.1932 70.3782 34.6359 70.3782 35.0785ZM71.0422 26.3365C71.0422 25.4512 71.7061 24.7873 72.5914 24.7873H78.0136C78.8989 24.7873 79.5629 25.4512 79.5629 26.3365V32.644C79.5629 33.1973 79.1202 33.5293 78.6776 33.5293H72.0381C71.4848 33.5293 71.1528 33.0867 71.1528 32.644V26.3365H71.0422ZM71.9274 34.1932H78.5669C79.0096 34.1932 79.4522 34.6359 79.4522 35.0785C79.4522 35.5211 79.0096 35.9638 78.5669 35.9638H71.9274C71.4848 35.9638 71.0422 35.5211 71.0422 35.0785C71.0422 34.6359 71.3742 34.1932 71.9274 34.1932Z" fill="#8F6D4E"/>
<path d="M70.157 31.6486V26.5583C70.157 25.673 69.4931 25.0091 68.6078 25.0091C67.7225 25.0091 67.0586 25.673 67.0586 26.5583V31.6486C67.0586 32.5338 67.7225 33.1978 68.6078 33.1978C69.4931 33.1978 70.157 32.4232 70.157 31.6486ZM69.4931 31.6486C69.4931 32.0912 69.1611 32.5338 68.6078 32.5338C68.1652 32.5338 67.7225 32.2019 67.7225 31.6486V26.5583C67.7225 26.1157 68.0545 25.673 68.6078 25.673C69.0504 25.673 69.4931 26.005 69.4931 26.5583V31.6486Z" fill="#8F6D4E"/>
<path d="M83.325 26.4474C83.325 25.5621 82.661 24.8982 81.7758 24.8982C80.8905 24.8982 80.2266 25.5621 80.2266 26.4474V31.5377C80.2266 32.4229 80.8905 33.0869 81.7758 33.0869C82.661 33.0869 83.325 32.4229 83.325 31.5377V26.4474ZM82.661 31.6483C82.661 32.091 82.3291 32.5336 81.7758 32.5336C81.3331 32.5336 80.8905 32.2016 80.8905 31.6483V26.5581C80.8905 26.1154 81.2225 25.6728 81.7758 25.6728C82.2184 25.6728 82.661 26.0048 82.661 26.5581V31.6483Z" fill="#8F6D4E"/>
<path d="M71.706 12.283V12.615H72.3699H78.1242H78.7881V12.283H82.3292H82.9931V11.619V10.8444V10.1805H82.3292H78.7881V9.84851H78.1242H72.3699H71.706V10.1805H68.1649H67.501V10.8444V11.5084V12.1723H68.1649H71.706V12.283ZM68.1649 10.8444H71.706H72.3699H78.1242H78.7881H82.3292V11.5084H78.7881H78.1242H72.3699H71.706H68.1649V10.8444V10.8444Z" fill="#8F6D4E"/>
<path d="M69.9355 18.2585H80.6694V14.7175H69.9355V18.2585ZM70.5995 15.3814H80.0054V15.7134H70.5995V15.3814ZM70.5995 16.3773H80.0054V16.5987H70.5995V16.3773ZM70.5995 17.3733H80.0054V17.7052H70.5995V17.3733Z" fill="#8F6D4E"/>
</svg>
