<svg width="190" height="86" viewBox="0 0 190 86" fill="none" xmlns="http://www.w3.org/2000/svg">
<path d="M186.353 -0.00012207H8.73924H0.628723V3.83508V20.8106H0V64.6954H0.628723V85.569H1.69755H8.73924H127.568H129.831H186.291H190V81.7338V34.9568H186.291V35.0197C186.165 35.0197 186.039 35.0826 186.039 35.2083C186.039 35.3341 186.102 35.4598 186.228 35.4598V39.3579H183.147H179.437H161.707V25.6518H161.33V41.6213H161.519H179.437V56.0819H175.854V59.7914V81.7338H129.705V41.6213H146.492V39.3579H129.705H127.442V41.6213V81.7338H8.6135V64.6954H9.24222V20.8106H8.6135V3.83508H186.228V17.1011H170.384V17.4784H186.228H189.937V3.83508V-0.00012207H186.353V-0.00012207ZM179.689 59.7285H183.273V58.2196V56.0191V41.5584H186.353V81.671H179.689V59.7285V59.7285ZM8.67637 34.0138H8.04765V22.3195H6.85308V34.0138H5.78425V22.3195H4.58968V34.0138H0.691595V20.9992H8.6135V34.0138H8.67637ZM0.691595 64.4439V50.9264H4.58968V62.6835H5.78425V50.9893H6.85308V62.6835H8.04765V50.9893H8.67637V64.5068H0.691595V64.4439Z" fill="#8F6D4E"/>
<path d="M167.24 11.8827H175.414C175.854 11.8827 176.168 11.5683 176.168 11.1911C176.168 10.9396 176.042 10.6881 175.791 10.6252L171.515 8.36181V7.85883V7.79596L171.201 7.67022C170.95 7.60734 170.698 7.4816 170.572 7.35585C170.447 7.23011 170.384 7.10437 170.384 6.91575C170.384 6.53852 170.698 6.22415 171.075 6.22415C171.264 6.22415 171.453 6.28703 171.641 6.47565C171.704 6.53852 171.83 6.66426 171.83 6.85287C171.83 6.97862 171.893 7.04149 172.018 7.04149C172.144 7.04149 172.207 6.97862 172.207 6.85287C172.144 6.28702 171.641 5.84692 171.075 5.84692C170.447 5.84692 169.944 6.34989 169.944 6.97862C169.944 7.54447 170.384 7.9217 171.075 8.11032V8.42468L166.8 10.6881C166.549 10.8138 166.423 11.0024 166.423 11.2539C166.486 11.5683 166.863 11.8827 167.24 11.8827ZM167.052 10.9396L171.327 8.67618L175.602 10.9396C175.728 11.0024 175.791 11.0653 175.791 11.1911C175.791 11.3168 175.602 11.4426 175.414 11.4426H167.303C167.114 11.4426 166.926 11.3168 166.926 11.1911C166.926 11.0653 166.989 11.0024 167.052 10.9396Z" fill="#8F6D4E"/>
<path d="M127.945 13.3289C128.386 13.3289 128.763 13.0145 128.763 12.5744C128.763 12.3229 128.574 12.0714 128.323 11.9457L123.67 9.49367V8.92782V8.86495L123.356 8.73921C123.041 8.67633 122.853 8.55059 122.664 8.36198C122.538 8.23623 122.476 8.04761 122.476 7.92186C122.476 7.48176 122.853 7.10453 123.293 7.10453C123.544 7.10453 123.733 7.1674 123.859 7.35602C123.922 7.41889 124.047 7.6075 124.047 7.79612C124.047 7.92187 124.173 8.04762 124.299 8.04762C124.425 8.04762 124.55 7.92187 124.55 7.79612C124.487 7.1674 123.922 6.72729 123.293 6.72729C122.601 6.72729 122.035 7.29315 122.035 7.98474C122.035 8.55059 122.538 9.05357 123.293 9.24219V9.55655L118.64 12.0086C118.389 12.1343 118.2 12.3858 118.2 12.6373C118.2 13.0774 118.577 13.3918 119.018 13.3918H127.945V13.3289ZM119.018 12.8888C118.829 12.8888 118.64 12.763 118.64 12.5744C118.64 12.4487 118.703 12.3858 118.829 12.3229L123.544 9.87091L128.26 12.3229C128.386 12.3858 128.448 12.4487 128.448 12.5744C128.448 12.763 128.26 12.8888 128.071 12.8888H119.018Z" fill="#8F6D4E"/>
<path d="M149.762 11.9457L145.11 9.49367V8.92782V8.86495L144.795 8.73921C144.481 8.67633 144.292 8.55059 144.104 8.36198C143.978 8.23623 143.915 8.04761 143.915 7.92186C143.915 7.48176 144.292 7.10453 144.732 7.10453C144.984 7.10453 145.172 7.1674 145.298 7.35602C145.361 7.41889 145.487 7.6075 145.487 7.79612C145.487 7.92187 145.613 8.04762 145.738 8.04762C145.864 8.04762 145.99 7.92187 145.99 7.79612C145.927 7.1674 145.361 6.72729 144.732 6.72729C144.041 6.72729 143.475 7.29315 143.475 7.98474C143.475 8.55059 143.978 9.05357 144.732 9.24219V9.55655L140.08 12.0086C139.828 12.1343 139.64 12.3858 139.64 12.6373C139.64 13.0774 140.017 13.3918 140.457 13.3918H149.385C149.825 13.3918 150.202 13.0774 150.202 12.6373C150.202 12.3229 150.014 12.0714 149.762 11.9457ZM149.385 12.8888H140.457C140.268 12.8888 140.08 12.763 140.08 12.5744C140.08 12.4487 140.143 12.3858 140.268 12.3229L144.984 9.87091L149.699 12.3229C149.825 12.3858 149.888 12.4487 149.888 12.5744C149.762 12.763 149.573 12.8888 149.385 12.8888Z" fill="#8F6D4E"/>
<path d="M105.941 13.3289C106.381 13.3289 106.758 13.0145 106.758 12.5744C106.758 12.3229 106.569 12.0714 106.318 11.9457L101.665 9.49367V8.92782V8.86495L101.351 8.73921C101.036 8.67633 100.848 8.55059 100.659 8.36198C100.534 8.23623 100.471 8.04761 100.471 7.92186C100.471 7.48176 100.848 7.10453 101.288 7.10453C101.539 7.10453 101.728 7.1674 101.854 7.35602C101.917 7.41889 102.042 7.6075 102.042 7.79612C102.042 7.92187 102.168 8.04762 102.294 8.04762C102.42 8.04762 102.545 7.92187 102.545 7.79612C102.483 7.1674 101.917 6.72729 101.288 6.72729C100.596 6.72729 100.031 7.29315 100.031 7.98474C100.031 8.55059 100.534 9.05357 101.288 9.24219V9.55655L96.6354 12.0086C96.3839 12.1343 96.1953 12.3858 96.1953 12.6373C96.1953 13.0774 96.5725 13.3918 97.0127 13.3918H105.941V13.3289ZM97.0127 12.8888C96.824 12.8888 96.6354 12.763 96.6354 12.5744C96.6354 12.4487 96.6983 12.3858 96.824 12.3229L101.539 9.87091L106.255 12.3229C106.381 12.3858 106.443 12.4487 106.443 12.5744C106.443 12.763 106.255 12.8888 106.066 12.8888H97.0127Z" fill="#8F6D4E"/>
<path d="M146.178 39.0437C146.178 39.1695 146.241 39.2952 146.429 39.2952C146.555 39.2952 146.681 39.2323 146.681 39.1066C146.681 38.9808 146.618 38.8551 146.429 38.8551C146.241 38.8551 146.178 38.918 146.178 39.0437Z" fill="#8F6D4E"/>
<path d="M146.744 38.1634C146.744 38.0377 146.681 37.9119 146.555 37.9119C146.429 37.9119 146.304 37.9748 146.304 38.1005C146.304 38.2263 146.367 38.352 146.492 38.352C146.618 38.352 146.744 38.2892 146.744 38.1634Z" fill="#8F6D4E"/>
<path d="M146.87 37.2204C146.87 37.0947 146.807 36.9689 146.681 36.9689C146.555 36.9689 146.43 37.0318 146.43 37.1575C146.43 37.2833 146.493 37.409 146.618 37.409C146.618 37.409 146.618 37.409 146.681 37.409C146.744 37.409 146.87 37.3462 146.87 37.2204Z" fill="#8F6D4E"/>
<path d="M148.568 31.8132C148.505 31.9389 148.505 32.0646 148.631 32.1275C148.693 32.1275 148.693 32.1904 148.756 32.1904C148.819 32.1904 148.882 32.1275 148.945 32.0646C149.008 31.9389 149.008 31.8132 148.882 31.7503C148.819 31.6874 148.693 31.6874 148.568 31.8132Z" fill="#8F6D4E"/>
<path d="M147.372 35.3968C147.435 35.2711 147.372 35.1453 147.246 35.0825C147.121 35.0196 146.995 35.0825 146.932 35.2082C146.869 35.334 146.932 35.4597 147.058 35.5226H147.121C147.246 35.5854 147.309 35.5226 147.372 35.3968Z" fill="#8F6D4E"/>
<path d="M147.876 33.8251C147.939 33.8251 148.064 33.7622 148.064 33.6994C148.127 33.5736 148.064 33.4479 147.939 33.385C147.813 33.3221 147.687 33.385 147.624 33.5108C147.561 33.6365 147.624 33.7623 147.75 33.8251C147.75 33.8251 147.813 33.8251 147.876 33.8251Z" fill="#8F6D4E"/>
<path d="M147.12 36.3401C147.12 36.2144 147.057 36.0886 146.932 36.0258C146.806 36.0258 146.68 36.0886 146.617 36.2144C146.554 36.3401 146.68 36.4659 146.806 36.5287H146.869C146.995 36.4659 147.057 36.403 147.12 36.3401Z" fill="#8F6D4E"/>
<path d="M149.133 30.9957C149.07 31.1214 149.07 31.2471 149.196 31.31C149.259 31.31 149.259 31.3729 149.322 31.3729C149.385 31.3729 149.447 31.3729 149.51 31.2471C149.573 31.1214 149.573 30.9957 149.447 30.9328C149.385 30.8699 149.259 30.9328 149.133 30.9957Z" fill="#8F6D4E"/>
<path d="M148.189 32.945C148.252 32.945 148.252 33.0078 148.315 33.0078C148.378 33.0078 148.504 32.945 148.504 32.8821C148.567 32.7563 148.504 32.6306 148.378 32.5677C148.252 32.5049 148.127 32.5677 148.064 32.6306C148.001 32.7563 148.064 32.8821 148.189 32.945Z" fill="#8F6D4E"/>
<path d="M147.435 34.7051C147.498 34.7051 147.624 34.6423 147.624 34.5794C147.687 34.4536 147.624 34.3279 147.498 34.265C147.372 34.2021 147.247 34.265 147.184 34.3908C147.121 34.5165 147.184 34.6423 147.31 34.7051C147.372 34.7051 147.435 34.7051 147.435 34.7051Z" fill="#8F6D4E"/>
<path d="M157.808 25.7776C157.808 25.9033 157.934 25.9662 158.06 25.9662C158.06 25.9662 158.06 25.9662 158.123 25.9662C158.248 25.9662 158.311 25.8404 158.311 25.7147C158.311 25.5889 158.186 25.5261 158.06 25.5261C157.871 25.5261 157.745 25.6518 157.808 25.7776Z" fill="#8F6D4E"/>
<path d="M155.231 26.3431C155.106 26.406 155.043 26.5318 155.106 26.6575C155.169 26.7204 155.231 26.7833 155.357 26.7833H155.42C155.546 26.7204 155.609 26.5946 155.546 26.4689C155.483 26.3431 155.357 26.2803 155.231 26.3431Z" fill="#8F6D4E"/>
<path d="M156.111 25.9661C155.986 26.029 155.923 26.1547 155.986 26.2805C155.986 26.3433 156.111 26.4062 156.237 26.4062H156.3C156.426 26.3433 156.489 26.2176 156.426 26.0919C156.363 26.029 156.237 25.9032 156.111 25.9661Z" fill="#8F6D4E"/>
<path d="M157.055 25.7148C156.929 25.7777 156.866 25.9034 156.866 26.0292C156.929 26.1549 156.992 26.2178 157.118 26.2178H157.181C157.306 26.1549 157.369 26.0292 157.369 25.9034C157.306 25.7148 157.181 25.6519 157.055 25.7148Z" fill="#8F6D4E"/>
<path d="M160.89 25.2117C160.764 25.2117 160.639 25.3374 160.639 25.4632C160.639 25.5889 160.764 25.7146 160.89 25.7146C161.016 25.7146 161.142 25.5889 161.142 25.4632C161.079 25.2745 161.016 25.2117 160.89 25.2117Z" fill="#8F6D4E"/>
<path d="M149.762 30.2413C149.699 30.3671 149.699 30.4928 149.762 30.5557C149.825 30.6185 149.888 30.6185 149.888 30.6185C149.951 30.6185 150.013 30.6185 150.076 30.5557C150.139 30.4299 150.139 30.3042 150.076 30.2413C150.013 30.1784 149.825 30.1784 149.762 30.2413Z" fill="#8F6D4E"/>
<path d="M159.004 25.7776C159.13 25.7776 159.193 25.6518 159.193 25.5261C159.193 25.4003 159.067 25.3375 158.942 25.3375C158.816 25.3375 158.753 25.4632 158.753 25.5889C158.753 25.7147 158.879 25.7776 159.004 25.7776Z" fill="#8F6D4E"/>
<path d="M159.947 25.7146C160.073 25.7146 160.198 25.5889 160.136 25.4632C160.136 25.3374 160.01 25.2117 159.884 25.2117C159.758 25.2117 159.633 25.3374 159.695 25.4632C159.695 25.5889 159.821 25.7146 159.947 25.7146Z" fill="#8F6D4E"/>
<path d="M150.453 29.5497C150.391 29.6755 150.391 29.8012 150.453 29.8641C150.516 29.9269 150.579 29.9269 150.642 29.9269C150.705 29.9269 150.768 29.9269 150.831 29.8641C150.956 29.7383 150.894 29.6126 150.831 29.5497C150.642 29.424 150.516 29.4868 150.453 29.5497Z" fill="#8F6D4E"/>
<path d="M151.899 28.2924C151.773 28.3553 151.773 28.5439 151.836 28.6068C151.899 28.6697 151.962 28.6697 152.025 28.6697C152.088 28.6697 152.151 28.6697 152.151 28.6068C152.276 28.5439 152.276 28.3553 152.213 28.2924C152.151 28.2296 151.962 28.1667 151.899 28.2924Z" fill="#8F6D4E"/>
<path d="M154.351 26.7205C154.225 26.7833 154.162 26.9091 154.225 27.0348C154.288 27.0977 154.351 27.1606 154.413 27.1606C154.413 27.1606 154.476 27.1606 154.539 27.1606C154.665 27.0977 154.728 26.972 154.665 26.8462C154.602 26.7205 154.476 26.6576 154.351 26.7205Z" fill="#8F6D4E"/>
<path d="M151.145 28.8583C151.019 28.9212 151.019 29.1098 151.145 29.1727C151.208 29.2355 151.271 29.2355 151.334 29.2355C151.397 29.2355 151.459 29.2355 151.459 29.1727C151.585 29.1098 151.585 28.9212 151.459 28.8583C151.397 28.7954 151.208 28.7954 151.145 28.8583Z" fill="#8F6D4E"/>
<path d="M152.654 27.7267C152.528 27.7896 152.528 27.9782 152.591 28.041C152.654 28.1039 152.717 28.1668 152.78 28.1668C152.843 28.1668 152.843 28.1668 152.905 28.1039C153.031 28.041 153.031 27.8524 152.968 27.7896C152.905 27.6638 152.78 27.6009 152.654 27.7267Z" fill="#8F6D4E"/>
<path d="M153.471 27.1606C153.346 27.2235 153.346 27.3492 153.408 27.475C153.471 27.5378 153.534 27.6007 153.597 27.6007C153.66 27.6007 153.66 27.6007 153.723 27.6007C153.849 27.5378 153.849 27.4121 153.786 27.2863C153.723 27.1606 153.597 27.0977 153.471 27.1606Z" fill="#8F6D4E"/>
<path d="M172.459 26.0919C172.522 26.1548 172.585 26.2177 172.648 26.2177C172.648 26.2177 172.711 26.2177 172.774 26.2177C172.899 26.1548 172.899 26.0291 172.899 25.9033C172.836 25.7776 172.711 25.7776 172.585 25.7776C172.459 25.8405 172.396 25.9662 172.459 26.0919Z" fill="#8F6D4E"/>
<path d="M185.159 35.0197C185.159 35.1454 185.222 35.2712 185.348 35.2712C185.348 35.2712 185.348 35.2712 185.411 35.2712C185.536 35.2712 185.599 35.2083 185.662 35.0825C185.662 34.9568 185.599 34.8311 185.474 34.8311C185.285 34.7682 185.159 34.8939 185.159 35.0197Z" fill="#8F6D4E"/>
<path d="M172.269 25.3376C172.269 25.3376 172.332 25.3376 172.395 25.3376C172.52 25.2748 172.583 25.149 172.52 25.0233C172.458 24.8975 172.332 24.8347 172.206 24.8975C172.08 24.9604 172.017 25.0861 172.08 25.2119C172.08 25.2748 172.143 25.3376 172.269 25.3376Z" fill="#8F6D4E"/>
<path d="M184.216 34.831C184.153 34.9568 184.279 35.0825 184.405 35.0825H184.467C184.593 35.0825 184.656 35.0196 184.719 34.8939C184.719 34.7681 184.656 34.6424 184.53 34.6424C184.405 34.5795 184.279 34.7053 184.216 34.831Z" fill="#8F6D4E"/>
<path d="M171.515 23.5769H171.578C171.704 23.514 171.767 23.3883 171.704 23.2625C171.641 23.1368 171.515 23.0739 171.39 23.1368C171.264 23.1997 171.201 23.3254 171.264 23.4511C171.327 23.514 171.453 23.5769 171.515 23.5769Z" fill="#8F6D4E"/>
<path d="M170.698 19.8674C170.823 19.8674 170.949 19.7416 170.949 19.6159C170.949 19.4901 170.823 19.4272 170.698 19.4272C170.572 19.4272 170.446 19.553 170.509 19.6787C170.509 19.8045 170.635 19.8674 170.698 19.8674Z" fill="#8F6D4E"/>
<path d="M170.635 18.9244C170.761 18.9244 170.887 18.7987 170.887 18.6729C170.887 18.5472 170.761 18.4214 170.635 18.4214C170.51 18.4214 170.384 18.5472 170.384 18.6729C170.447 18.7987 170.51 18.9244 170.635 18.9244Z" fill="#8F6D4E"/>
<path d="M183.336 34.5798C183.273 34.7055 183.399 34.8313 183.525 34.8942H183.588C183.713 34.8942 183.776 34.8313 183.839 34.7055C183.902 34.5798 183.776 34.454 183.65 34.3912C183.462 34.3912 183.336 34.454 183.336 34.5798Z" fill="#8F6D4E"/>
<path d="M171.892 24.457H171.955C172.081 24.3941 172.144 24.2683 172.081 24.1426C172.018 24.0169 171.892 23.954 171.767 24.0169C171.641 24.0797 171.578 24.2055 171.641 24.3312C171.704 24.3941 171.767 24.457 171.892 24.457Z" fill="#8F6D4E"/>
<path d="M171.264 22.6967C171.264 22.6967 171.327 22.6967 171.264 22.6967C171.453 22.6338 171.516 22.5081 171.516 22.3823C171.516 22.2566 171.327 22.1937 171.201 22.1937C171.076 22.2566 171.013 22.3823 171.013 22.5081C171.076 22.571 171.138 22.6967 171.264 22.6967Z" fill="#8F6D4E"/>
<path d="M170.824 20.8105C171.013 20.8105 171.076 20.6847 171.076 20.559C171.076 20.4332 170.95 20.3704 170.824 20.3704C170.699 20.3704 170.636 20.4961 170.636 20.6219C170.636 20.7476 170.761 20.8105 170.824 20.8105Z" fill="#8F6D4E"/>
<path d="M171.013 21.7537C171.076 21.7537 171.076 21.7537 171.013 21.7537C171.201 21.6908 171.264 21.628 171.264 21.4393C171.264 21.3136 171.139 21.2507 171.013 21.2507C170.887 21.2507 170.824 21.3765 170.824 21.5022C170.824 21.6908 170.95 21.7537 171.013 21.7537Z" fill="#8F6D4E"/>
<path d="M170.635 17.9814C170.761 17.9814 170.887 17.8557 170.887 17.7299C170.887 17.6042 170.761 17.4785 170.635 17.4785C170.51 17.4785 170.384 17.6042 170.384 17.7299C170.384 17.8557 170.51 17.9814 170.635 17.9814Z" fill="#8F6D4E"/>
<path d="M175.288 29.6755C175.162 29.7384 175.162 29.927 175.288 29.9899C175.351 30.0528 175.413 30.0528 175.476 30.0528C175.539 30.0528 175.602 30.0528 175.665 29.9899C175.728 29.927 175.791 29.7384 175.665 29.6755C175.539 29.5498 175.413 29.5498 175.288 29.6755Z" fill="#8F6D4E"/>
<path d="M182.392 34.2653C182.329 34.3911 182.392 34.5168 182.518 34.5797H182.58C182.706 34.5797 182.769 34.5168 182.832 34.454C182.895 34.3282 182.832 34.2025 182.706 34.1396C182.58 34.0767 182.455 34.1396 182.392 34.2653Z" fill="#8F6D4E"/>
<path d="M174.659 28.9211C174.533 28.984 174.533 29.1726 174.659 29.2355C174.722 29.2984 174.785 29.2983 174.847 29.2983C174.91 29.2983 174.973 29.2984 174.973 29.2355C175.099 29.1726 175.099 28.984 174.973 28.9211C174.91 28.8582 174.785 28.8582 174.659 28.9211Z" fill="#8F6D4E"/>
<path d="M175.979 30.3043C175.916 30.43 175.916 30.5558 175.979 30.6187C176.042 30.6815 176.105 30.6815 176.167 30.6815C176.23 30.6815 176.293 30.6815 176.356 30.6187C176.419 30.5558 176.419 30.3672 176.356 30.3043C176.23 30.2414 176.042 30.2414 175.979 30.3043Z" fill="#8F6D4E"/>
<path d="M173.527 27.4121C173.401 27.475 173.401 27.6636 173.464 27.7265C173.527 27.7894 173.59 27.8523 173.653 27.8523C173.716 27.8523 173.716 27.8523 173.779 27.7894C173.904 27.7265 173.904 27.5379 173.841 27.475C173.779 27.3493 173.653 27.3493 173.527 27.4121Z" fill="#8F6D4E"/>
<path d="M173.024 26.5948C172.898 26.6577 172.898 26.7834 172.961 26.9092C173.024 26.972 173.087 27.0349 173.15 27.0349C173.213 27.0349 173.213 27.0349 173.276 27.0349C173.401 26.972 173.401 26.8463 173.338 26.7205C173.276 26.5319 173.15 26.5319 173.024 26.5948Z" fill="#8F6D4E"/>
<path d="M176.671 30.996C176.608 31.1217 176.608 31.2475 176.671 31.3103C176.734 31.3732 176.797 31.3732 176.797 31.3732C176.86 31.3732 176.923 31.3732 176.986 31.3103C177.048 31.1846 177.048 31.0589 176.986 30.996C176.923 30.8702 176.734 30.8702 176.671 30.996Z" fill="#8F6D4E"/>
<path d="M174.093 28.1667C173.968 28.2295 173.968 28.4182 174.031 28.481C174.093 28.5439 174.156 28.6068 174.219 28.6068C174.282 28.6068 174.345 28.6068 174.345 28.5439C174.471 28.481 174.471 28.2924 174.408 28.2295C174.345 28.1038 174.156 28.1038 174.093 28.1667Z" fill="#8F6D4E"/>
<path d="M180.632 33.5736C180.569 33.6993 180.632 33.8251 180.758 33.8879C180.758 33.8879 180.821 33.8879 180.884 33.8879C180.946 33.8879 181.072 33.8251 181.072 33.7622C181.135 33.6364 181.072 33.5107 180.946 33.4478C180.821 33.3849 180.695 33.4478 180.632 33.5736Z" fill="#8F6D4E"/>
<path d="M181.512 33.9509C181.449 34.0766 181.512 34.2024 181.638 34.2652H181.701C181.763 34.2652 181.889 34.2024 181.952 34.1395C182.015 34.0138 181.952 33.888 181.826 33.8251C181.701 33.7623 181.575 33.8251 181.512 33.9509Z" fill="#8F6D4E"/>
<path d="M179.814 33.1335C179.751 33.2592 179.814 33.385 179.877 33.4479C179.94 33.4479 179.94 33.4479 180.003 33.4479C180.066 33.4479 180.191 33.385 180.191 33.3221C180.254 33.1964 180.191 33.0706 180.066 33.0078C180.003 33.0078 179.877 33.0077 179.814 33.1335Z" fill="#8F6D4E"/>
<path d="M178.179 32.1276C178.116 32.2533 178.116 32.3791 178.242 32.442C178.305 32.442 178.305 32.5048 178.368 32.5048C178.43 32.5048 178.493 32.442 178.556 32.3791C178.619 32.2534 178.619 32.1276 178.493 32.0647C178.368 32.0019 178.242 32.0019 178.179 32.1276Z" fill="#8F6D4E"/>
<path d="M178.997 32.6936C178.934 32.8194 178.934 32.9451 179.06 33.008C179.123 33.008 179.123 33.0708 179.186 33.0708C179.249 33.0708 179.312 33.008 179.375 32.9451C179.437 32.8194 179.375 32.6936 179.312 32.6307C179.186 32.505 179.06 32.5679 178.997 32.6936Z" fill="#8F6D4E"/>
<path d="M177.425 31.5616C177.362 31.6873 177.362 31.8131 177.488 31.8759C177.551 31.9388 177.614 31.9388 177.614 31.9388C177.677 31.9388 177.739 31.9388 177.802 31.8131C177.865 31.6873 177.865 31.5616 177.739 31.4987C177.614 31.4358 177.488 31.4987 177.425 31.5616Z" fill="#8F6D4E"/>
<path d="M64.1295 28.8582C64.1295 28.3552 63.8151 27.8523 63.375 27.6636C63.8151 27.4121 64.1295 26.972 64.1295 26.4062V20.1818C64.1295 19.0501 63.2492 18.1699 62.1175 18.1699H56.6477C55.516 18.1699 54.6357 19.0501 54.6357 20.1818V26.4062C54.6357 26.9092 54.9501 27.4121 55.3902 27.6636C54.9501 27.9151 54.6357 28.3552 54.6357 28.8582C54.6357 29.6127 55.2645 30.2414 56.0189 30.2414H62.6834C63.5007 30.2414 64.1295 29.6127 64.1295 28.8582ZM55.013 26.4062V20.1818C55.013 19.3016 55.7674 18.5472 56.6477 18.5472H62.1175C62.9978 18.5472 63.7522 19.3016 63.7522 20.1818V26.4062C63.7522 26.972 63.2492 27.475 62.6834 27.475H56.0818C55.4531 27.4121 55.013 26.972 55.013 26.4062ZM55.013 28.8582C55.013 28.2924 55.4531 27.8523 56.0189 27.8523H62.6205C63.1864 27.8523 63.6265 28.2924 63.6265 28.8582C63.6265 29.4241 63.1864 29.8642 62.6205 29.8642H56.0189C55.4531 29.8642 55.013 29.4241 55.013 28.8582Z" fill="#8F6D4E"/>
<path d="M51.4297 20.3073V25.4C51.4297 26.1544 52.0584 26.7832 52.8129 26.7832C53.5673 26.7832 54.1961 26.1544 54.1961 25.4V20.3073C54.1961 19.5529 53.5673 18.9241 52.8129 18.9241C52.0584 18.9241 51.4297 19.5529 51.4297 20.3073ZM53.8188 20.3073V25.4C53.8188 25.9658 53.3787 26.4059 52.8129 26.4059C52.247 26.4059 51.8069 25.9658 51.8069 25.4V20.3073C51.8069 19.7415 52.247 19.3014 52.8129 19.3014C53.3787 19.3014 53.8188 19.7415 53.8188 20.3073Z" fill="#8F6D4E"/>
<path d="M64.5703 20.3073V25.4C64.5703 26.1544 65.199 26.7832 65.9535 26.7832C66.708 26.7832 67.3367 26.1544 67.3367 25.4V20.3073C67.3367 19.5529 66.708 18.9241 65.9535 18.9241C65.1362 18.9241 64.5703 19.5529 64.5703 20.3073ZM66.8966 20.3073V25.4C66.8966 25.9658 66.4565 26.4059 65.8906 26.4059C65.3248 26.4059 64.8847 25.9658 64.8847 25.4V20.3073C64.8847 19.7415 65.3248 19.3014 65.8906 19.3014C66.4565 19.3014 66.8966 19.7415 66.8966 20.3073Z" fill="#8F6D4E"/>
<path d="M27.2232 11.1283H29.2352C30.0525 11.1283 30.7441 10.6254 31.0585 9.93376H37.9115V8.17334H31.1213C30.807 7.48174 30.1154 6.97876 29.298 6.97876H27.2861C26.4688 6.97876 25.7772 7.48174 25.4628 8.17334H18.5469V9.93376H25.4C25.7143 10.6254 26.4059 11.1283 27.2232 11.1283ZM18.9241 9.55653V8.55057H25.2113H25.4H25.5886H30.807H30.9956H31.1842H37.4714V9.55653H31.1842H30.9956H30.807H25.5886H25.4H25.2113H18.9241ZM30.6812 8.17334H25.8401C26.1544 7.67036 26.6574 7.356 27.2861 7.356H29.298C29.8639 7.41887 30.3669 7.73323 30.6812 8.17334ZM29.2352 10.7511H27.2232C26.5945 10.7511 26.0915 10.4367 25.7772 9.93376H30.6184C30.3669 10.4367 29.8639 10.7511 29.2352 10.7511Z" fill="#8F6D4E"/>
<path d="M56.1457 8.61339V8.92775H56.5229H62.1814H62.5586V8.61339H66.3938H66.7711V8.23615V7.54457V7.16733H66.3938H62.5586V6.85297H62.2443H56.5858H56.2085V7.16733H52.3733H51.9961V7.54457V8.23615V8.61339H52.3733H56.1457ZM52.3105 7.48169H56.1457H56.5229H62.1814H62.5586H66.3938V8.17329H62.5586H62.2443H56.5858H56.2085H52.3733V7.48169H52.3105Z" fill="#8F6D4E"/>
<path d="M54.1963 14.7119H64.5702V11.5054H54.1963V14.7119ZM54.5735 13.7688H64.193V14.3346H54.5735V13.7688ZM54.5735 12.8257H64.193V13.3915H54.5735V12.8257ZM64.193 12.4485H54.5735V11.8826H64.193V12.4485Z" fill="#8F6D4E"/>
<path d="M178.369 12.9516V12.8259H185.097H185.474V12.4487V4.84113H155.735H155.358H113.108H112.731H91.1025V15.3408V15.5294H97.1383V15.718H107.135V15.5294H112.731H113.108H120.967V15.718H146.053V15.5294H155.735V15.3408V15.1522V12.8259H162.966V12.9516H178.369V12.9516ZM91.4798 15.1522V5.21836H112.731V15.1522H103.677V15.3408H100.219V15.1522H91.4798ZM113.108 15.1522V5.21836H133.667V15.3408H124.048V15.1522H113.108V15.1522ZM142.595 15.1522V15.3408H134.044V5.21836H155.358V12.8259V15.1522H142.595ZM155.735 12.4487V5.21836H185.097V12.4487H174.723V12.5744H166.424V12.4487H155.735Z" fill="#8F6D4E"/>
<path d="M69.2217 5.21838H11.8193V15.9067H69.2217V5.21838ZM68.8445 15.5294H12.1966V5.59561H68.8445V15.5294Z" fill="#8F6D4E"/>
<path d="M173.968 53.1898H174.974C175.288 53.1898 175.539 52.9383 175.539 52.624V46.6511C175.539 46.3368 175.288 46.0853 174.974 46.0853H173.968H169.441C167.492 46.0853 165.92 47.6571 165.92 49.6061C165.92 51.5552 167.492 53.1269 169.441 53.1269H173.968V53.1898ZM175.099 46.714V52.6869C175.099 52.8126 175.036 52.8755 174.911 52.8755H174.156V46.5882H174.974C175.036 46.5254 175.099 46.5882 175.099 46.714ZM166.234 49.669C166.234 47.9086 167.68 46.5254 169.378 46.5254H173.716V52.8126H169.378C167.68 52.8126 166.234 51.4294 166.234 49.669Z" fill="#8F6D4E"/>
<path d="M178.118 53.1898C178.432 53.1898 178.684 52.9383 178.684 52.624V46.6511C178.684 46.3368 178.432 46.0853 178.118 46.0853H176.609C176.294 46.0853 176.043 46.3368 176.043 46.6511V52.624C176.043 52.9383 176.294 53.1898 176.609 53.1898H178.118ZM176.483 52.6869V46.714C176.483 46.5882 176.546 46.5254 176.672 46.5254H178.181C178.306 46.5254 178.369 46.5882 178.369 46.714V52.6869C178.369 52.8126 178.306 52.8755 178.181 52.8755H176.672C176.546 52.8126 176.483 52.7497 176.483 52.6869Z" fill="#8F6D4E"/>
<path d="M177.362 50.2975C177.739 50.2975 177.991 49.9832 177.991 49.6688C177.991 49.2916 177.676 49.0401 177.362 49.0401C176.985 49.0401 176.733 49.3545 176.733 49.6688C176.733 50.0461 177.048 50.2975 177.362 50.2975ZM177.362 49.4173C177.488 49.4173 177.614 49.5431 177.614 49.6688C177.614 49.7946 177.488 49.9203 177.362 49.9203C177.236 49.9203 177.111 49.7946 177.111 49.6688C177.111 49.5431 177.236 49.4173 177.362 49.4173Z" fill="#8F6D4E"/>
<path d="M130.962 42.6274C130.836 42.6274 130.773 42.6902 130.773 42.816V69.0966V80.6651C130.773 80.7908 130.836 80.8537 130.962 80.8537H142.531C142.656 80.8537 142.719 80.7908 142.719 80.6651V69.0966V42.816C142.719 42.6902 142.656 42.6274 142.531 42.6274H130.962ZM131.151 43.0046H142.342V68.908H131.151V43.0046ZM142.405 80.5393H131.214V69.3481H142.405V80.5393Z" fill="#8F6D4E"/>
<path d="M137.879 49.103H132.975C132.472 49.103 132.094 49.4802 132.094 49.9832V55.7674H131.843C131.717 55.7674 131.654 55.8303 131.654 55.956C131.654 56.0818 131.717 56.1447 131.843 56.1447H132.094V61.9289C132.094 62.4319 132.472 62.8091 132.975 62.8091H137.879C139.073 62.8091 140.079 61.8032 140.079 60.6086V51.3035C140.079 50.1089 139.073 49.103 137.879 49.103ZM139.702 60.6086C139.702 61.6146 138.885 62.4319 137.879 62.4319H132.975C132.723 62.4319 132.472 62.1804 132.472 61.9289V56.1447H134.672C134.798 56.1447 134.861 56.0818 134.861 55.956C134.861 55.8303 134.798 55.7674 134.672 55.7674H132.472V49.9832C132.472 49.7317 132.723 49.4802 132.975 49.4802H137.879C138.885 49.4802 139.702 50.2975 139.702 51.3035V60.6086Z" fill="#8F6D4E"/>
<path d="M158.689 68.4048V80.2248C158.689 80.3506 158.752 80.4134 158.878 80.4134H174.282C174.408 80.4134 174.47 80.3506 174.47 80.2248V64.8211C174.47 64.6954 174.408 64.6325 174.282 64.6325H162.462C160.387 64.6325 158.689 66.2672 158.689 68.4048ZM174.093 79.9733H159.067V68.342C159.067 66.4558 160.576 64.9469 162.462 64.9469H174.093V79.9733Z" fill="#8F6D4E"/>
<path d="M171.704 77.6473C172.018 77.6473 172.27 77.3958 172.27 77.0814C172.27 76.767 172.018 76.5156 171.704 76.5156C171.389 76.5156 171.138 76.767 171.138 77.0814C171.075 77.3958 171.389 77.6473 171.704 77.6473ZM171.704 76.8928C171.83 76.8928 171.892 76.9557 171.892 77.0814C171.892 77.2072 171.83 77.27 171.704 77.27C171.578 77.27 171.515 77.2072 171.515 77.0814C171.452 76.9557 171.578 76.8928 171.704 76.8928Z" fill="#8F6D4E"/>
<path d="M171.767 74.9434C171.892 74.9434 171.955 74.8806 171.955 74.7548V69.9136C171.955 69.7879 171.892 69.725 171.767 69.725C171.641 69.725 171.578 69.7879 171.578 69.9136V74.7548C171.578 74.8806 171.641 74.9434 171.767 74.9434Z" fill="#8F6D4E"/>
<path d="M164.663 77.3327H169.504C169.63 77.3327 169.693 77.2698 169.693 77.1441C169.693 77.0183 169.63 76.9554 169.504 76.9554H164.663C164.537 76.9554 164.475 77.0183 164.475 77.1441C164.475 77.2069 164.537 77.3327 164.663 77.3327Z" fill="#8F6D4E"/>
<path d="M170.007 75.5093C170.069 75.5722 170.069 75.5722 170.132 75.5722C170.195 75.5722 170.258 75.5722 170.258 75.5093C170.321 75.4464 170.321 75.3207 170.258 75.2578L166.549 71.5484C166.486 71.4855 166.36 71.4855 166.297 71.5484C166.234 71.6112 166.234 71.737 166.297 71.7999L170.007 75.5093Z" fill="#8F6D4E"/>
<path d="M136.81 78.2131C138.634 78.2131 140.08 76.7042 140.08 74.9437C140.08 73.1204 138.571 71.6744 136.81 71.6744C134.987 71.6744 133.541 73.1833 133.541 74.9437C133.478 76.7042 134.987 78.2131 136.81 78.2131ZM136.81 71.9887C138.445 71.9887 139.702 73.3091 139.702 74.8809C139.702 76.5155 138.382 77.773 136.81 77.773C135.176 77.773 133.918 76.4527 133.918 74.8809C133.855 73.3091 135.176 71.9887 136.81 71.9887Z" fill="#8F6D4E"/>
<path d="M133.1 79.4703C133.478 79.4703 133.729 79.1559 133.729 78.8416C133.729 78.5272 133.415 78.2128 133.1 78.2128C132.723 78.2128 132.472 78.5272 132.472 78.8416C132.472 79.1559 132.723 79.4703 133.1 79.4703ZM133.1 78.5272C133.226 78.5272 133.352 78.6529 133.352 78.7787C133.352 78.9044 133.226 79.0302 133.1 79.0302C132.975 79.0302 132.849 78.9044 132.849 78.7787C132.849 78.6529 132.912 78.5272 133.1 78.5272Z" fill="#8F6D4E"/>
<path d="M24.9601 80.7906H57.8423C57.968 80.7906 58.0309 80.7277 58.0309 80.602V78.8416V65.827V41.1182C58.0309 40.9924 57.968 40.9296 57.8423 40.9296H24.9601C24.8344 40.9296 24.7715 40.9924 24.7715 41.1182V57.2135V78.9044V80.6648C24.7715 80.7277 24.8972 80.7906 24.9601 80.7906ZM25.1487 57.6536L33.4479 65.9527C33.5107 66.0156 33.5107 66.0156 33.5736 66.0156H57.6537V78.7158H25.1487V57.6536ZM25.4631 57.3392H32.4419C33.0077 57.3392 33.5107 57.7793 33.5107 58.4081V65.3869L25.4631 57.3392ZM25.1487 41.3068H57.6537V65.6384H33.7622V58.4081C33.7622 57.6536 33.1335 56.962 32.3162 56.962H25.1487V41.3068ZM57.7166 80.4134H25.1487V79.0302H57.6537V80.4134H57.7166Z" fill="#8F6D4E"/>
<path d="M54.5726 69.0965H43.5071C42.8783 69.0965 42.3125 69.6623 42.3125 70.2911V75.7609C42.3125 76.4525 42.8783 76.9555 43.5071 76.9555H54.6355C55.2642 76.9555 55.83 76.3897 55.83 75.7609V70.2911C55.7672 69.6623 55.2642 69.0965 54.5726 69.0965ZM55.3899 75.7609C55.3899 76.201 55.0127 76.5783 54.5726 76.5783H43.5071C43.067 76.5783 42.6897 76.201 42.6897 75.7609V70.2911C42.6897 69.851 43.067 69.4737 43.5071 69.4737H54.6355C55.0756 69.4737 55.4528 69.851 55.4528 70.2911V75.7609H55.3899Z" fill="#8F6D4E"/>
<path d="M39.3577 69.0965H28.2922C27.6635 69.0965 27.0977 69.6623 27.0977 70.2911V75.7609C27.0977 76.4525 27.6635 76.9555 28.2922 76.9555H39.4206C40.0493 76.9555 40.6152 76.3897 40.6152 75.7609V70.2911C40.6152 69.6623 40.0493 69.0965 39.3577 69.0965ZM40.238 75.7609C40.238 76.201 39.8607 76.5783 39.4206 76.5783H28.2922C27.8521 76.5783 27.4749 76.201 27.4749 75.7609V70.2911C27.4749 69.851 27.8521 69.4737 28.2922 69.4737H39.4206C39.8607 69.4737 40.238 69.851 40.238 70.2911V75.7609Z" fill="#8F6D4E"/>
<path d="M65.7008 79.0304C68.2785 79.0304 70.4162 76.8927 70.4162 74.315C70.4162 71.7372 68.2785 69.5995 65.7008 69.5995C63.123 69.5995 60.9854 71.7372 60.9854 74.315C60.9854 76.8927 63.123 79.0304 65.7008 79.0304ZM65.7008 70.0397C68.0899 70.0397 70.039 71.9887 70.039 74.3778C70.039 76.767 68.0899 78.716 65.7008 78.716C63.3116 78.716 61.3626 76.767 61.3626 74.3778C61.3626 71.9258 63.3116 70.0397 65.7008 70.0397Z" fill="#8F6D4E"/>
<path d="M12.5117 74.315C12.5117 76.8927 14.6494 79.0304 17.2271 79.0304C19.8049 79.0304 21.9426 76.8927 21.9426 74.315C21.9426 71.7372 19.8049 69.5995 17.2271 69.5995C14.5865 69.6624 12.5117 71.7372 12.5117 74.315ZM21.5025 74.315C21.5025 76.7041 19.5534 78.6532 17.1643 78.6532C14.7751 78.6532 12.8261 76.7041 12.8261 74.315C12.8261 71.9258 14.7751 69.9768 17.1643 69.9768C19.6163 70.0397 21.5025 71.9258 21.5025 74.315Z" fill="#8F6D4E"/>
<path d="M113.61 53.5042C116.314 53.5042 118.514 51.3037 118.514 48.6002C118.514 45.8966 116.314 43.6961 113.61 43.6961C113.044 43.6961 112.604 44.1362 112.541 44.7021C110.844 45.1422 109.523 46.714 109.523 48.6002C109.523 50.4863 110.781 52.0581 112.541 52.4982C112.541 53.0641 113.044 53.5042 113.61 53.5042ZM113.61 44.0105C116.125 44.0105 118.137 46.0224 118.137 48.5373C118.137 51.0522 116.125 53.0641 113.61 53.0641C113.296 53.0641 112.981 52.8126 112.919 52.4982C112.919 52.4354 112.919 52.4354 112.919 52.3725C112.919 52.3096 112.919 52.1839 112.981 52.121C113.107 51.8695 113.296 51.6809 113.61 51.6809C115.371 51.6809 116.754 50.2348 116.754 48.5373C116.754 46.7769 115.308 45.3937 113.61 45.3937C113.296 45.3937 113.044 45.205 112.981 44.9536C112.981 44.8907 112.919 44.7649 112.919 44.7021C112.919 44.6392 112.919 44.6392 112.919 44.5763C112.981 44.262 113.296 44.0105 113.61 44.0105ZM109.964 48.6002C109.964 46.9026 111.095 45.5194 112.604 45.0793C112.73 45.5194 113.17 45.8338 113.61 45.8338C115.182 45.8338 116.377 47.0912 116.377 48.6002C116.377 50.172 115.119 51.3665 113.61 51.3665C113.17 51.3665 112.73 51.6809 112.604 52.121C111.095 51.6809 109.964 50.2348 109.964 48.6002Z" fill="#8F6D4E"/>
<path d="M89.0276 52.4982C90.7251 52.0581 92.0454 50.4863 92.0454 48.6002C92.0454 46.714 90.788 45.1422 89.0276 44.7021C89.0276 44.1362 88.5246 43.6961 87.9587 43.6961C85.2552 43.6961 83.0547 45.8966 83.0547 48.6002C83.0547 51.3037 85.2552 53.5042 87.9587 53.5042C88.5874 53.5042 89.0276 53.0641 89.0276 52.4982ZM87.9587 44.0105C88.2731 44.0105 88.5874 44.262 88.6503 44.5763C88.6503 44.6392 88.6503 44.6392 88.6503 44.7021C88.6503 44.7649 88.6503 44.8907 88.5874 44.9536C88.4617 45.205 88.2731 45.3937 87.9587 45.3937C86.1983 45.3937 84.8151 46.8397 84.8151 48.5373C84.8151 50.2977 86.2612 51.6809 87.9587 51.6809C88.2731 51.6809 88.5246 51.8695 88.5874 52.121C88.5874 52.1839 88.6503 52.3096 88.6503 52.3725C88.6503 52.4354 88.6503 52.4354 88.6503 52.4982C88.5874 52.8126 88.336 53.0641 87.9587 53.0641C85.4438 53.0641 83.4319 51.0522 83.4319 48.5373C83.4319 46.0853 85.5067 44.0105 87.9587 44.0105ZM91.6682 48.6002C91.6682 50.2977 90.5365 51.6809 89.0276 52.121C88.9018 51.6809 88.4617 51.3665 88.0216 51.3665C86.4498 51.3665 85.2552 50.1091 85.2552 48.6002C85.2552 47.0283 86.5127 45.8338 88.0216 45.8338C88.4617 45.8338 88.9018 45.5194 89.0276 45.0793C90.5365 45.4565 91.6682 46.9026 91.6682 48.6002Z" fill="#8F6D4E"/>
<path d="M108.517 48.6001C108.517 44.6392 105.311 41.4327 101.35 41.4327C97.3891 41.4327 94.1826 44.6392 94.1826 48.6001C94.1826 52.5611 97.3891 55.7675 101.35 55.7675C105.311 55.7047 108.517 52.4982 108.517 48.6001ZM94.5598 48.6001C94.5598 44.8906 97.5777 41.8099 101.35 41.8099C105.06 41.8099 108.14 44.8278 108.14 48.6001C108.14 52.3096 105.122 55.3903 101.35 55.3903C97.6406 55.3274 94.5598 52.3096 94.5598 48.6001Z" fill="#8F6D4E"/>
<path d="M75.1953 69.5996V80.6651C75.1953 80.7908 75.2582 80.8537 75.3839 80.8537H115.119H126.185C126.31 80.8537 126.373 80.7908 126.373 80.6651V69.5996C126.373 69.4738 126.31 69.4109 126.185 69.4109H115.119H75.3839C75.2582 69.4109 75.1953 69.5367 75.1953 69.5996ZM125.996 80.5393H115.308V69.851H125.996V80.5393ZM114.931 80.5393H98.3323V69.851H114.931V80.5393ZM97.9551 80.5393H91.0391V69.851H97.9551V80.5393ZM75.5725 69.7882H90.6619V80.4765H75.5725V69.7882V69.7882Z" fill="#8F6D4E"/>
<path d="M117.508 79.0304H120.463V79.5962C120.463 79.722 120.526 79.7849 120.652 79.7849C120.778 79.7849 120.84 79.722 120.84 79.5962V79.0304H123.795C124.801 79.0304 125.619 78.213 125.619 77.2071V72.8689C125.619 71.8629 124.801 71.0456 123.795 71.0456H117.445C116.439 71.0456 115.622 71.8629 115.622 72.8689V77.2071C115.685 78.213 116.502 79.0304 117.508 79.0304ZM116.062 72.806C116.062 71.9887 116.691 71.36 117.508 71.36H123.858C124.676 71.36 125.304 71.9887 125.304 72.806V77.1442C125.304 77.9616 124.676 78.5903 123.858 78.5903H120.903V76.5155C120.903 76.3897 120.84 76.3269 120.715 76.3269C120.589 76.3269 120.526 76.3897 120.526 76.5155V78.5903H117.571C116.754 78.5903 116.125 77.9616 116.125 77.1442V72.806H116.062Z" fill="#8F6D4E"/>
<path d="M120.651 75.5722C121.028 75.5722 121.28 75.2578 121.28 74.9435C121.28 74.5662 120.966 74.3148 120.651 74.3148C120.274 74.3148 120.022 74.6291 120.022 74.9435C120.022 75.2578 120.274 75.5722 120.651 75.5722ZM120.651 74.6291C120.777 74.6291 120.903 74.7549 120.903 74.8806C120.903 75.0063 120.777 75.1321 120.651 75.1321C120.525 75.1321 120.4 75.0063 120.4 74.8806C120.4 74.7549 120.525 74.6291 120.651 74.6291Z" fill="#8F6D4E"/>
<path d="M94.6231 78.9675C95.6291 78.9675 96.4464 78.1502 96.4464 77.1442C96.4464 76.1383 95.6291 75.3209 94.6231 75.3209C93.6171 75.3209 92.7998 76.1383 92.7998 77.1442C92.7998 78.1502 93.6171 78.9675 94.6231 78.9675ZM94.6231 75.761C95.4404 75.761 96.0692 76.3898 96.0692 77.2071C96.0692 78.0244 95.4404 78.6531 94.6231 78.6531C93.8058 78.6531 93.177 78.0244 93.177 77.2071C93.177 76.3898 93.8058 75.761 94.6231 75.761Z" fill="#8F6D4E"/>
<path d="M94.6231 74.9436C95.6291 74.9436 96.4464 74.1263 96.4464 73.1204C96.4464 72.1144 95.6291 71.2971 94.6231 71.2971C93.6171 71.2971 92.7998 72.1144 92.7998 73.1204C92.7998 74.1263 93.6171 74.9436 94.6231 74.9436ZM94.6231 71.6743C95.4404 71.6743 96.0692 72.303 96.0692 73.1204C96.0692 73.9377 95.4404 74.5664 94.6231 74.5664C93.8058 74.5664 93.177 73.9377 93.177 73.1204C93.177 72.3659 93.8058 71.6743 94.6231 71.6743Z" fill="#8F6D4E"/>
</svg>
