<svg width="191" height="124" viewBox="0 0 191 124" fill="none" xmlns="http://www.w3.org/2000/svg">
<path d="M64.9177 22.986C64.9697 22.934 64.9697 22.8819 64.9697 22.8299L64.9697 22.7778C64.9697 22.7257 64.9697 22.7257 64.9177 22.7257C64.8656 22.6736 64.8135 22.6736 64.7614 22.6736C64.7094 22.6736 64.6573 22.6736 64.6052 22.7257L64.5532 22.7778L64.5532 22.8299C64.5532 22.8819 64.5532 22.934 64.6052 22.986C64.7094 23.0902 64.8656 23.0902 64.9177 22.986Z" fill="#8F6D4E"/>
<path d="M61.6895 23.4025C61.7936 23.3505 61.8457 23.2984 61.8457 23.1422C61.8457 23.038 61.7416 22.986 61.6374 22.986L61.5854 22.986C61.4812 22.986 61.4291 23.0901 61.4291 23.1942C61.4291 23.3505 61.5333 23.4546 61.6895 23.4025Z" fill="#8F6D4E"/>
<path d="M63.1991 23.1422C63.3032 23.1422 63.4074 23.038 63.3553 22.9339C63.3553 22.8297 63.2512 22.7776 63.147 22.7776C63.0429 22.7776 62.9387 22.8818 62.9908 22.9859C62.9908 23.0901 63.0949 23.1422 63.1991 23.1422Z" fill="#8F6D4E"/>
<path d="M62.418 23.2465C62.5221 23.2465 62.5742 23.1423 62.5742 23.0382C62.5742 22.934 62.4701 22.882 62.3659 22.882C62.3659 22.882 62.3659 22.882 62.3139 22.882C62.2097 22.882 62.1577 22.9862 62.1577 23.0903C62.2097 23.1944 62.3139 23.2465 62.418 23.2465Z" fill="#8F6D4E"/>
<path d="M60.9082 23.6108C61.0124 23.5588 61.0645 23.4546 61.0645 23.3505C61.0124 23.2464 60.9603 23.1943 60.8562 23.1943L60.8041 23.1943C60.7 23.2463 60.6479 23.3505 60.7 23.4546C60.7 23.5587 60.8041 23.6108 60.9082 23.6108Z" fill="#8F6D4E"/>
<path d="M58.7211 24.4438C58.8253 24.3917 58.8773 24.2876 58.8253 24.1835C58.7732 24.1314 58.7211 24.0793 58.6691 24.0793C58.617 24.0793 58.617 24.0793 58.5649 24.0793C58.4608 24.1314 58.4087 24.2355 58.4608 24.3396C58.4608 24.4438 58.617 24.4959 58.7211 24.4438Z" fill="#8F6D4E"/>
<path d="M60.1274 23.8713C60.2315 23.8192 60.2836 23.7151 60.2315 23.6109C60.1795 23.5068 60.1274 23.5068 60.0233 23.5068L59.9712 23.5068C59.867 23.5588 59.815 23.663 59.867 23.7671C59.9191 23.8192 60.0233 23.8713 60.1274 23.8713Z" fill="#8F6D4E"/>
<path d="M59.3979 24.1318C59.502 24.0797 59.5541 23.9756 59.502 23.8715C59.45 23.8194 59.3979 23.7673 59.2938 23.7673L59.2417 23.7673C59.1376 23.8193 59.0855 23.9235 59.1376 24.0276C59.1896 24.1318 59.2938 24.1839 59.3979 24.1318Z" fill="#8F6D4E"/>
<path d="M52.7328 29.8067C52.8369 29.8588 52.9411 29.8068 52.9931 29.7547C53.0452 29.6505 53.0452 29.5464 52.9411 29.4943C52.889 29.4943 52.889 29.4423 52.8369 29.4423C52.7849 29.4423 52.6807 29.4943 52.6807 29.5464C52.5766 29.5985 52.6287 29.7547 52.7328 29.8067Z" fill="#8F6D4E"/>
<path d="M51.7436 31.9939C51.8478 32.046 51.9519 31.9939 52.004 31.8897C52.0561 31.7856 52.004 31.6815 51.8999 31.6294L51.8478 31.6294C51.7436 31.6294 51.6916 31.6815 51.6395 31.7336C51.5874 31.8377 51.6395 31.9419 51.7436 31.9939Z" fill="#8F6D4E"/>
<path d="M51.4833 32.723C51.5874 32.7751 51.6916 32.7229 51.7436 32.6188C51.7957 32.5147 51.6916 32.4105 51.6395 32.3585L51.5874 32.3585C51.4833 32.3585 51.4312 32.4106 51.3791 32.5147C51.3271 32.6188 51.3791 32.723 51.4833 32.723Z" fill="#8F6D4E"/>
<path d="M51.2748 33.5039C51.3789 33.556 51.4831 33.4518 51.5352 33.3477C51.5352 33.2435 51.4831 33.1394 51.379 33.1394L51.3269 33.1394C51.2227 33.1394 51.1707 33.1915 51.1186 33.2956C51.1186 33.3998 51.1707 33.5039 51.2748 33.5039Z" fill="#8F6D4E"/>
<path d="M57.9925 24.8083C58.0967 24.7562 58.0967 24.6521 58.0967 24.5479C58.0446 24.4959 57.9925 24.4438 57.9405 24.4438C57.8884 24.4438 57.8884 24.4438 57.8363 24.4438C57.7322 24.4959 57.7322 24.6 57.7322 24.7042C57.7843 24.8604 57.8884 24.8603 57.9925 24.8083Z" fill="#8F6D4E"/>
<path d="M52.3169 30.484C52.421 30.5361 52.5252 30.484 52.5772 30.3799C52.6293 30.2758 52.5772 30.1716 52.4731 30.1196C52.421 30.1196 52.421 30.1196 52.369 30.1196C52.3169 30.1196 52.2127 30.1716 52.2127 30.2237C52.2127 30.3278 52.2648 30.432 52.3169 30.484Z" fill="#8F6D4E"/>
<path d="M63.9792 23.0901C64.0834 23.0901 64.1875 22.986 64.1875 22.8819C64.1875 22.7777 64.0834 22.7256 63.9792 22.7256C63.8751 22.7256 63.7709 22.8298 63.7709 22.9339C63.823 22.986 63.8751 23.0901 63.9792 23.0901Z" fill="#8F6D4E"/>
<path d="M52.0044 31.2127C52.1085 31.2648 52.2127 31.2127 52.2647 31.1086C52.3168 31.0044 52.2647 30.9003 52.1606 30.8482C52.1085 30.8482 52.1085 30.8482 52.0565 30.8482C52.0044 30.8482 51.9003 30.9003 51.9003 30.9524C51.8482 31.0565 51.9002 31.1607 52.0044 31.2127Z" fill="#8F6D4E"/>
<path d="M55.4405 26.6829C55.5446 26.6308 55.5446 26.4746 55.4405 26.4225C55.3884 26.3705 55.3363 26.3705 55.2843 26.3705C55.2322 26.3705 55.1801 26.3705 55.128 26.4225C55.076 26.4746 55.0239 26.6308 55.128 26.6829C55.2322 26.7349 55.3884 26.7349 55.4405 26.6829Z" fill="#8F6D4E"/>
<path d="M54.8676 27.2036C54.9717 27.1516 54.9197 26.9954 54.8676 26.9433C54.8155 26.8912 54.7635 26.8912 54.7114 26.8912C54.6593 26.8912 54.6073 26.8912 54.5552 26.9433C54.5031 26.9954 54.5031 27.1516 54.5552 27.2036C54.7114 27.3078 54.8155 27.3078 54.8676 27.2036Z" fill="#8F6D4E"/>
<path d="M54.3477 27.8284C54.3997 27.7242 54.3997 27.6201 54.3477 27.568C54.2956 27.516 54.2435 27.516 54.2435 27.516C54.1915 27.516 54.1394 27.516 54.0873 27.568C54.0353 27.6201 54.0353 27.7763 54.0873 27.8284C54.1394 27.8804 54.2956 27.8804 54.3477 27.8284Z" fill="#8F6D4E"/>
<path d="M56.0651 26.1622C56.1692 26.1101 56.1692 25.9539 56.1172 25.9018C56.0651 25.8498 56.013 25.8498 55.961 25.8498C55.9089 25.8498 55.8568 25.8498 55.8568 25.9018C55.7527 25.9539 55.7527 26.1101 55.8048 26.1622C55.8568 26.2143 55.961 26.2143 56.0651 26.1622Z" fill="#8F6D4E"/>
<path d="M53.1488 29.1303C53.253 29.1824 53.3571 29.1824 53.4092 29.0782C53.4612 28.9741 53.4612 28.87 53.3571 28.8179C53.305 28.8179 53.305 28.7658 53.2529 28.7658C53.2009 28.7658 53.1488 28.7658 53.0967 28.8699C52.9926 28.922 53.0447 29.0782 53.1488 29.1303Z" fill="#8F6D4E"/>
<path d="M56.6901 25.6935C56.7942 25.6415 56.7942 25.4853 56.7422 25.4332C56.6901 25.3811 56.638 25.329 56.586 25.329C56.5339 25.329 56.4818 25.329 56.4818 25.3811C56.3777 25.4331 56.3777 25.5893 56.4297 25.6414C56.4818 25.6935 56.586 25.7456 56.6901 25.6935Z" fill="#8F6D4E"/>
<path d="M57.3151 25.2252C57.4192 25.1731 57.4192 25.069 57.3672 24.9648C57.3151 24.9128 57.263 24.8607 57.2109 24.8607C57.1589 24.8607 57.1589 24.8607 57.1068 24.9128C57.0027 24.9649 57.0027 25.069 57.0547 25.1731C57.1068 25.2773 57.211 25.2773 57.3151 25.2252Z" fill="#8F6D4E"/>
<path d="M53.8789 28.4011C53.931 28.297 53.931 28.1929 53.8268 28.1408C53.7747 28.0887 53.7748 28.0887 53.7227 28.0887C53.6706 28.0887 53.6185 28.0887 53.5665 28.1408C53.5144 28.2449 53.5144 28.3491 53.6185 28.4011C53.6706 28.5053 53.7747 28.5053 53.8789 28.4011Z" fill="#8F6D4E"/>
<path d="M46.3809 25.7978C46.3809 25.7978 46.3809 25.7458 46.3288 25.7458C46.2767 25.6937 46.2247 25.6937 46.1726 25.6937C46.1205 25.6937 46.0684 25.6937 46.0164 25.7458L45.9643 25.7978L45.9643 25.8499C45.9643 25.902 45.9643 25.902 45.9643 25.9541C45.9643 25.9541 45.9643 26.0061 46.0164 26.0061C46.0684 26.0582 46.2246 26.0582 46.2767 26.0061L46.3288 25.9541C46.3288 25.9541 46.3288 25.902 46.3288 25.8499C46.3809 25.8499 46.3809 25.8499 46.3809 25.7978Z" fill="#8F6D4E"/>
<path d="M37.3735 31.1089C37.4777 31.161 37.5818 31.1089 37.6339 31.0569C37.6859 30.9527 37.6339 30.8486 37.5297 30.7965C37.5297 30.7965 37.4777 30.7445 37.4256 30.7445C37.3735 30.7445 37.2694 30.7965 37.2694 30.8486C37.2694 30.9006 37.2694 31.0569 37.3735 31.1089Z" fill="#8F6D4E"/>
<path d="M43.7771 25.954C43.7771 25.954 43.725 26.0061 43.7771 25.954C43.6209 26.0061 43.5688 26.1102 43.5688 26.2144C43.6209 26.3185 43.725 26.3705 43.8292 26.3705C43.9333 26.3185 43.9854 26.2664 43.9854 26.1623C43.9333 26.0581 43.8812 25.954 43.7771 25.954Z" fill="#8F6D4E"/>
<path d="M41.4857 26.839C41.4336 26.839 41.4336 26.839 41.3815 26.8911C41.2774 26.9431 41.2253 27.0473 41.2774 27.1514C41.3295 27.2555 41.4336 27.3076 41.5378 27.2556C41.6419 27.2035 41.6419 27.0994 41.5898 26.9952C41.6419 26.8911 41.5898 26.839 41.4857 26.839Z" fill="#8F6D4E"/>
<path d="M44.5066 25.7977C44.4024 25.7977 44.3504 25.9019 44.3504 26.006C44.3504 26.1101 44.4545 26.1622 44.5586 26.1622C44.6628 26.1622 44.7148 26.0581 44.7148 25.9539C44.7148 25.9019 44.6628 25.7977 44.5066 25.7977Z" fill="#8F6D4E"/>
<path d="M42.9959 26.214L42.9438 26.214C42.8397 26.2661 42.7876 26.3702 42.8397 26.4743C42.8918 26.5785 42.9959 26.6305 43.1 26.5784C43.2042 26.5264 43.2563 26.4222 43.2042 26.3181C43.1521 26.266 43.048 26.214 42.9959 26.214Z" fill="#8F6D4E"/>
<path d="M42.2147 26.4747L42.1626 26.4747C42.0585 26.5267 42.0064 26.6309 42.0584 26.735C42.1105 26.8392 42.2147 26.8912 42.3188 26.8391C42.4229 26.7871 42.475 26.6829 42.4229 26.5788C42.3709 26.5267 42.3188 26.4747 42.2147 26.4747Z" fill="#8F6D4E"/>
<path d="M36.7475 32.5665C36.8517 32.6186 36.9558 32.5666 37.0079 32.4624C37.06 32.3583 37.0079 32.2542 36.9038 32.2021L36.8517 32.2021C36.7475 32.2021 36.6955 32.2541 36.6434 32.3062C36.5913 32.4103 36.6434 32.5145 36.7475 32.5665Z" fill="#8F6D4E"/>
<path d="M37.2686 31.7336C37.3207 31.6295 37.2686 31.5253 37.1645 31.4732C37.1124 31.4732 37.1124 31.4732 37.0604 31.4732C37.0083 31.4732 36.9041 31.5253 36.9041 31.5774C36.8521 31.6815 36.9042 31.7856 37.0083 31.8377C37.1124 31.8377 37.2686 31.8377 37.2686 31.7336Z" fill="#8F6D4E"/>
<path d="M36.7488 33.1916C36.8009 33.0875 36.6968 32.9834 36.5926 32.9834L36.5406 32.9834C36.4364 32.9834 36.3844 33.0354 36.3323 33.1396C36.2802 33.2437 36.3844 33.3478 36.4885 33.3999C36.6447 33.3999 36.7488 33.2958 36.7488 33.1916Z" fill="#8F6D4E"/>
<path d="M39.0391 29.1303C39.0911 29.0261 39.0911 28.922 39.0391 28.8699C38.987 28.8178 38.9349 28.8179 38.8829 28.8179C38.8308 28.8179 38.7787 28.8178 38.7267 28.8699C38.6746 28.9741 38.6746 29.0782 38.7267 29.1303C38.8829 29.1823 38.987 29.1823 39.0391 29.1303Z" fill="#8F6D4E"/>
<path d="M40.7045 27.2557C40.6003 27.3078 40.6003 27.4119 40.6524 27.516C40.7045 27.6202 40.8086 27.6202 40.9128 27.5681C41.0169 27.516 41.0169 27.4119 40.9648 27.3077C40.9128 27.2557 40.8607 27.2036 40.8086 27.2036C40.7565 27.2556 40.7045 27.2557 40.7045 27.2557Z" fill="#8F6D4E"/>
<path d="M45.3387 25.7455C45.2346 25.7455 45.1305 25.8496 45.1305 25.9538C45.1305 26.0579 45.2346 26.162 45.3387 26.1099C45.4429 26.1099 45.547 26.0058 45.4949 25.9016C45.547 25.7975 45.4429 25.7455 45.3387 25.7455Z" fill="#8F6D4E"/>
<path d="M39.5079 28.193C39.4558 28.193 39.4037 28.193 39.4037 28.245C39.3517 28.2971 39.2996 28.4533 39.4037 28.5054C39.4558 28.5574 39.612 28.6095 39.6641 28.5054C39.7682 28.4533 39.7682 28.2971 39.6641 28.245C39.612 28.245 39.5599 28.193 39.5079 28.193Z" fill="#8F6D4E"/>
<path d="M38.0498 30.3278C38.1019 30.2236 38.1018 30.1195 37.9977 30.0674C37.9456 30.0674 37.9456 30.0154 37.8936 30.0154C37.8415 30.0154 37.7894 30.0675 37.7374 30.1195C37.6853 30.2237 37.6853 30.3278 37.7894 30.3799C37.8936 30.4319 37.9977 30.4319 38.0498 30.3278Z" fill="#8F6D4E"/>
<path d="M38.5182 29.4424C38.4661 29.3903 38.4661 29.3903 38.414 29.3903C38.3619 29.3903 38.3099 29.3903 38.2578 29.4424C38.2057 29.5465 38.2057 29.6507 38.3099 29.7027C38.414 29.7548 38.5182 29.7548 38.5702 29.6507C38.6223 29.5986 38.5702 29.4945 38.5182 29.4424Z" fill="#8F6D4E"/>
<path d="M40.289 27.7762C40.237 27.7241 40.1849 27.672 40.1328 27.672C40.0808 27.672 40.0808 27.672 40.0287 27.7241C39.9246 27.7762 39.9246 27.9324 39.9766 27.9844C40.0287 28.0886 40.1849 28.0886 40.237 28.0366C40.3411 27.9845 40.3411 27.8803 40.289 27.7762Z" fill="#8F6D4E"/>
<path d="M36.3825 33.7644L36.3305 33.7644L36.2784 33.8165L36.2263 33.8685L36.2263 33.9206C36.2263 33.9727 36.2263 33.9727 36.2263 33.9727L36.2784 34.0248C36.3826 34.1289 36.4867 34.0768 36.5388 34.0248C36.5908 33.9727 36.5908 33.9206 36.5908 33.8685C36.5908 33.8165 36.5908 33.8165 36.5908 33.8165C36.5908 33.8165 36.5908 33.7644 36.5388 33.7644C36.4867 33.7644 36.4346 33.7644 36.3825 33.7644Z" fill="#8F6D4E"/>
<path d="M45.9643 35.8472L46.3809 35.8472L46.3809 26.4227L45.9643 26.4227L45.9643 35.8472Z" fill="#8F6D4E"/>
<path d="M19.0965 47.979C19.0965 47.979 19.0965 48.0311 19.1485 48.0311C19.2006 48.0831 19.3047 48.0832 19.3568 48.0832L19.4089 48.0311L19.4609 47.979L19.4609 47.927C19.4609 47.8749 19.4609 47.8228 19.4089 47.7707C19.3568 47.7187 19.3047 47.7187 19.2527 47.7187C19.2006 47.7187 19.1485 47.7187 19.0965 47.7707C19.0444 47.8228 19.0444 47.8749 19.0444 47.927C19.0965 47.927 19.0965 47.9269 19.0965 47.979Z" fill="#8F6D4E"/>
<path d="M25.293 37.3051C25.2409 37.3051 25.2409 37.3051 25.1889 37.3571C25.0847 37.4092 25.0847 37.5134 25.1368 37.6175C25.1888 37.7216 25.293 37.7217 25.3971 37.6696C25.5013 37.6175 25.5013 37.5134 25.4492 37.4093C25.3971 37.3051 25.3451 37.3051 25.293 37.3051Z" fill="#8F6D4E"/>
<path d="M20.086 44.0739C20.1381 43.9697 20.086 43.8656 19.9819 43.8135L19.9298 43.8135C19.8257 43.8135 19.7736 43.8656 19.7215 43.9698C19.6695 44.0739 19.7215 44.178 19.8257 44.2301C19.9819 44.2301 20.086 44.178 20.086 44.0739Z" fill="#8F6D4E"/>
<path d="M24.5111 37.7215C24.407 37.7736 24.407 37.8777 24.459 37.9819C24.5111 38.086 24.6153 38.086 24.7194 38.0339C24.8235 37.9818 24.8235 37.8777 24.7715 37.7736C24.7194 37.7215 24.6673 37.6695 24.6152 37.6695C24.5632 37.7215 24.5632 37.7215 24.5111 37.7215Z" fill="#8F6D4E"/>
<path d="M21.5958 40.4812C21.5437 40.5853 21.5437 40.6895 21.6478 40.7416C21.752 40.7936 21.8561 40.7936 21.9082 40.6895C21.9603 40.5854 21.9602 40.4812 21.8561 40.4291C21.804 40.3771 21.752 40.3771 21.752 40.3771C21.6999 40.3771 21.6478 40.4291 21.5958 40.4812Z" fill="#8F6D4E"/>
<path d="M23.8344 38.1902C23.7302 38.2423 23.7302 38.3985 23.7823 38.4505C23.8344 38.5547 23.9906 38.5547 24.0426 38.5026C24.1468 38.4505 24.1468 38.2943 24.0947 38.2423C24.0426 38.1902 23.9906 38.1381 23.9385 38.1381C23.9385 38.1381 23.8864 38.1902 23.8344 38.1902Z" fill="#8F6D4E"/>
<path d="M21.126 41.106C21.074 41.2102 21.074 41.3143 21.1781 41.3664C21.2822 41.4184 21.3864 41.4184 21.4385 41.3143C21.4905 41.2102 21.4905 41.106 21.3864 41.054C21.3343 41.054 21.3343 41.0018 21.2822 41.0018C21.2302 41.0018 21.1781 41.054 21.126 41.106Z" fill="#8F6D4E"/>
<path d="M28.2087 36.1594C28.2087 36.1594 28.1567 36.1594 28.2087 36.1594C28.0525 36.2115 28.0004 36.3156 28.0004 36.4198C28.0004 36.5239 28.1046 36.5759 28.2608 36.5759C28.3649 36.5239 28.417 36.4718 28.417 36.3156C28.3649 36.2114 28.3129 36.1594 28.2087 36.1594Z" fill="#8F6D4E"/>
<path d="M23.2621 38.7108C23.2101 38.7629 23.158 38.9191 23.2621 38.9712C23.3142 39.0753 23.4704 39.0753 23.5225 38.9712C23.6266 38.9191 23.6266 38.7629 23.5225 38.7108C23.4704 38.6587 23.4183 38.6587 23.3663 38.6587C23.3142 38.6587 23.2621 38.6587 23.2621 38.7108Z" fill="#8F6D4E"/>
<path d="M27.4276 36.3677L27.3755 36.3677C27.2713 36.4198 27.2193 36.5239 27.2713 36.6281C27.3234 36.7322 27.4275 36.7843 27.5317 36.7322C27.6358 36.6801 27.6879 36.576 27.6358 36.4718C27.5838 36.4198 27.5317 36.3677 27.4276 36.3677Z" fill="#8F6D4E"/>
<path d="M26.698 36.6281L26.646 36.6281C26.5418 36.6802 26.4898 36.7843 26.5418 36.8885C26.5939 36.9926 26.698 37.0446 26.8022 36.9926C26.9063 36.9405 26.9584 36.8364 26.9063 36.7322C26.8543 36.6802 26.8022 36.6281 26.698 36.6281Z" fill="#8F6D4E"/>
<path d="M20.71 42.6682C20.7621 42.564 20.71 42.4599 20.6059 42.4078C20.6059 42.4078 20.5538 42.4078 20.5018 42.4078C20.4497 42.4078 20.3456 42.4599 20.3456 42.5119C20.2935 42.6161 20.3456 42.7202 20.4497 42.7723C20.5538 42.8244 20.658 42.7723 20.71 42.6682Z" fill="#8F6D4E"/>
<path d="M19.6693 44.9592C19.7735 45.0113 19.8776 44.9071 19.9297 44.803C19.9297 44.6989 19.8776 44.5947 19.7735 44.5427L19.7214 44.5427C19.6173 44.5427 19.5652 44.5948 19.5131 44.6989C19.4611 44.8551 19.5652 44.9592 19.6693 44.9592Z" fill="#8F6D4E"/>
<path d="M20.8157 42.0431C20.9199 42.0951 21.024 42.0951 21.0761 41.991C21.1282 41.8869 21.0761 41.7827 21.024 41.7307C20.9719 41.7307 20.972 41.7307 20.9199 41.7307C20.8678 41.7307 20.7637 41.7828 20.7637 41.8348C20.6595 41.8869 20.7116 41.991 20.8157 42.0431Z" fill="#8F6D4E"/>
<path d="M22.6371 39.2317C22.5851 39.2837 22.5851 39.4399 22.6371 39.492C22.6892 39.5441 22.8454 39.5441 22.8975 39.492C23.0016 39.4399 23.0016 39.2837 22.8975 39.2317C22.8454 39.1796 22.7934 39.1795 22.7413 39.1795C22.7413 39.1795 22.6892 39.2317 22.6371 39.2317Z" fill="#8F6D4E"/>
<path d="M20.3975 43.3971C20.4496 43.293 20.3975 43.1888 20.2934 43.1368C20.2413 43.1368 20.2413 43.1368 20.2413 43.1368C20.1893 43.1368 20.0851 43.1888 20.0851 43.2409C20.0331 43.345 20.0851 43.4492 20.1893 43.5012C20.2413 43.5012 20.3455 43.4492 20.3975 43.3971Z" fill="#8F6D4E"/>
<path d="M19.1489 47.0941C19.1489 47.1983 19.2009 47.3024 19.3572 47.3024C19.4613 47.3024 19.5654 47.2503 19.5654 47.1462C19.5654 47.0421 19.5134 46.9379 19.3572 46.9379C19.2009 46.9379 19.1489 46.99 19.1489 47.0941Z" fill="#8F6D4E"/>
<path d="M19.2009 46.3127C19.2009 46.4168 19.253 46.521 19.3572 46.521C19.4613 46.521 19.5654 46.4689 19.5654 46.3648C19.5654 46.2606 19.5134 46.1565 19.4092 46.1565C19.3051 46.1565 19.2009 46.2086 19.2009 46.3127Z" fill="#8F6D4E"/>
<path d="M25.9698 36.9404C25.9698 36.9404 25.9178 36.9404 25.8657 36.9404C25.7616 36.9925 25.7095 37.0966 25.7616 37.2008C25.8136 37.3049 25.9178 37.357 26.0219 37.3049C26.1261 37.2528 26.1781 37.1487 26.1261 37.0445C26.1261 36.9925 26.074 36.9404 25.9698 36.9404Z" fill="#8F6D4E"/>
<path d="M19.3045 45.5319C19.3045 45.6361 19.3565 45.7402 19.4607 45.7402C19.5648 45.7402 19.6689 45.6881 19.6689 45.584C19.6689 45.4799 19.6169 45.3757 19.5127 45.3757C19.5127 45.3757 19.5127 45.3757 19.4607 45.3757C19.4086 45.3757 19.3565 45.4278 19.3045 45.5319Z" fill="#8F6D4E"/>
<path d="M22.1176 39.8564C22.0655 39.9084 22.0655 40.0646 22.1176 40.1167C22.2217 40.1688 22.3259 40.1688 22.3779 40.1167C22.43 40.0646 22.43 39.9084 22.3779 39.8564C22.3259 39.8043 22.2738 39.8043 22.2738 39.8043C22.2217 39.7522 22.1697 39.8043 22.1176 39.8564Z" fill="#8F6D4E"/>
<path d="M28.99 35.9512L28.9379 35.9512C28.9379 35.9512 28.8858 35.9511 28.8858 36.0032C28.8338 36.0553 28.8338 36.1074 28.8338 36.1594C28.8338 36.2115 28.8338 36.2115 28.8338 36.2115C28.8338 36.2636 28.8338 36.2636 28.8858 36.2636C28.9379 36.3156 29.0941 36.3156 29.1462 36.2636L29.1982 36.2115L29.1982 36.1594C29.1982 36.1074 29.1982 36.0553 29.1462 36.0032L29.0941 35.9512C29.042 36.0032 28.99 35.9512 28.99 35.9512Z" fill="#8F6D4E"/>
<path d="M100.948 56.8307L100.896 56.8307C100.896 56.8307 100.844 56.8306 100.844 56.8827L100.792 56.9348L100.792 56.9869C100.792 57.039 100.792 57.091 100.844 57.1431L100.896 57.1952C100.948 57.2472 101.052 57.1951 101.104 57.1431C101.156 57.091 101.156 57.039 101.156 56.9869C101.156 56.9348 101.156 56.8827 101.104 56.8307C101 56.8307 101 56.8307 100.948 56.8307Z" fill="#8F6D4E"/>
<path d="M107.718 46.4168C107.822 46.3648 107.874 46.2606 107.822 46.1565C107.77 46.1044 107.718 46.0524 107.666 46.0524C107.614 46.0524 107.614 46.0524 107.562 46.0524C107.458 46.1044 107.406 46.2086 107.458 46.3127C107.51 46.4168 107.614 46.4689 107.718 46.4168Z" fill="#8F6D4E"/>
<path d="M108.395 46.1045C108.499 46.0524 108.551 45.9483 108.499 45.8442C108.447 45.7921 108.395 45.74 108.291 45.74L108.239 45.74C108.135 45.7921 108.083 45.8963 108.135 46.0004C108.187 46.1045 108.291 46.1566 108.395 46.1045Z" fill="#8F6D4E"/>
<path d="M107.041 46.7816C107.145 46.7295 107.145 46.6254 107.093 46.5212C107.041 46.4692 106.989 46.4171 106.937 46.4171C106.884 46.4171 106.884 46.4171 106.832 46.4171C106.728 46.4691 106.728 46.5733 106.78 46.6774C106.78 46.7815 106.937 46.8337 107.041 46.7816Z" fill="#8F6D4E"/>
<path d="M109.123 45.8443C109.228 45.7922 109.28 45.6881 109.228 45.584C109.228 45.4798 109.123 45.4277 109.071 45.4277L109.019 45.4277C108.915 45.4798 108.863 45.5839 108.915 45.6881C108.915 45.7922 109.019 45.8443 109.123 45.8443Z" fill="#8F6D4E"/>
<path d="M109.905 45.6362C110.009 45.6362 110.062 45.532 110.062 45.4279C110.062 45.3237 109.957 45.2717 109.853 45.2717C109.853 45.2717 109.853 45.2717 109.801 45.2717C109.697 45.2717 109.645 45.4279 109.645 45.5321C109.645 45.5841 109.801 45.6362 109.905 45.6362Z" fill="#8F6D4E"/>
<path d="M105.739 47.6149C105.843 47.5628 105.843 47.4066 105.791 47.3546C105.739 47.3025 105.687 47.2504 105.635 47.2504C105.583 47.2504 105.531 47.2504 105.531 47.3025C105.427 47.3546 105.427 47.5108 105.479 47.5628C105.531 47.667 105.635 47.667 105.739 47.6149Z" fill="#8F6D4E"/>
<path d="M102.25 51.5198C102.198 51.5198 102.198 51.5198 102.146 51.5198C102.094 51.5198 101.99 51.5719 101.99 51.6239C101.938 51.7281 101.99 51.8322 102.094 51.8843C102.198 51.9364 102.302 51.8843 102.354 51.7802C102.354 51.676 102.354 51.5719 102.25 51.5198Z" fill="#8F6D4E"/>
<path d="M101.522 53.9672C101.574 53.8631 101.47 53.759 101.366 53.7069L101.314 53.7069C101.21 53.7069 101.158 53.759 101.106 53.8631C101.106 53.9673 101.158 54.0714 101.262 54.1235C101.366 54.1235 101.47 54.0714 101.522 53.9672Z" fill="#8F6D4E"/>
<path d="M101.835 52.1965C101.783 52.1965 101.679 52.2486 101.679 52.3007C101.626 52.4048 101.679 52.5089 101.783 52.561C101.887 52.6131 101.991 52.561 102.043 52.4568C102.095 52.3527 102.043 52.2485 101.939 52.1965C101.887 52.1965 101.835 52.1965 101.835 52.1965Z" fill="#8F6D4E"/>
<path d="M102.407 51.1554C102.511 51.2074 102.615 51.1554 102.667 51.1033C102.719 50.9992 102.667 50.895 102.615 50.843C102.563 50.843 102.563 50.843 102.511 50.843C102.459 50.843 102.407 50.8951 102.354 50.9471C102.302 50.9992 102.354 51.1033 102.407 51.1554Z" fill="#8F6D4E"/>
<path d="M106.364 47.1461C106.468 47.094 106.468 46.9378 106.416 46.8857C106.364 46.8336 106.312 46.7816 106.26 46.7816C106.208 46.7816 106.208 46.7816 106.156 46.8337C106.052 46.8857 106.052 47.0419 106.104 47.094C106.156 47.1981 106.26 47.2502 106.364 47.1461Z" fill="#8F6D4E"/>
<path d="M100.948 55.9978C100.844 55.9978 100.74 56.0499 100.74 56.2061C100.74 56.3102 100.792 56.4144 100.948 56.4144C101.052 56.4144 101.156 56.3623 101.156 56.2061C101.156 56.1019 101.052 56.0499 100.948 55.9978Z" fill="#8F6D4E"/>
<path d="M101.365 54.6963C101.365 54.5922 101.313 54.488 101.209 54.488L101.157 54.488C101.053 54.488 101.001 54.5401 100.949 54.6443C100.949 54.7484 101.001 54.8525 101.105 54.8525C101.209 54.8525 101.313 54.8004 101.365 54.6963Z" fill="#8F6D4E"/>
<path d="M101.21 55.477C101.21 55.3729 101.158 55.2687 101.054 55.2687L101.002 55.2687C100.898 55.2687 100.845 55.3208 100.793 55.425C100.793 55.5291 100.845 55.6332 100.95 55.6332C101.106 55.6332 101.21 55.5811 101.21 55.477Z" fill="#8F6D4E"/>
<path d="M101.73 53.1861C101.782 53.0819 101.73 52.9778 101.625 52.9257L101.573 52.9257C101.469 52.9257 101.417 52.9778 101.365 53.0819C101.313 53.1861 101.365 53.2902 101.469 53.3423C101.573 53.3423 101.73 53.2902 101.73 53.1861Z" fill="#8F6D4E"/>
<path d="M104.282 48.6559C104.334 48.708 104.49 48.708 104.542 48.6559C104.646 48.6038 104.646 48.4476 104.542 48.3955C104.49 48.3435 104.438 48.3435 104.386 48.3435C104.334 48.3435 104.282 48.3435 104.23 48.3955C104.23 48.4476 104.23 48.5518 104.282 48.6559Z" fill="#8F6D4E"/>
<path d="M104.021 49.177C104.074 49.0728 104.074 48.9687 104.021 48.9166C103.969 48.8645 103.917 48.8646 103.917 48.8646C103.865 48.8646 103.813 48.8645 103.761 48.9166C103.709 49.0208 103.709 49.1249 103.761 49.177C103.865 49.2811 103.969 49.2811 104.021 49.177Z" fill="#8F6D4E"/>
<path d="M103.553 49.8014C103.605 49.6972 103.605 49.5931 103.501 49.541C103.449 49.541 103.449 49.489 103.397 49.489C103.344 49.489 103.292 49.541 103.24 49.541C103.188 49.6451 103.188 49.7493 103.292 49.8014C103.344 49.9055 103.501 49.9055 103.553 49.8014Z" fill="#8F6D4E"/>
<path d="M105.114 48.0835C105.218 48.0314 105.218 47.8752 105.114 47.8231C105.062 47.771 105.01 47.771 104.958 47.771C104.906 47.771 104.854 47.771 104.854 47.8231C104.75 47.8752 104.75 48.0314 104.854 48.0835C104.906 48.1876 105.062 48.1876 105.114 48.0835Z" fill="#8F6D4E"/>
<path d="M103.084 50.4266C103.136 50.3224 103.136 50.2183 103.032 50.1662C102.98 50.1662 102.98 50.1141 102.928 50.1141C102.876 50.1141 102.824 50.1662 102.772 50.2183C102.719 50.3224 102.719 50.4265 102.824 50.4786C102.928 50.5307 103.032 50.5307 103.084 50.4266Z" fill="#8F6D4E"/>
<path d="M110.738 45.1154L110.686 45.0633L110.634 45.0633C110.581 45.0633 110.581 45.0633 110.581 45.0633C110.581 45.0633 110.529 45.0633 110.529 45.1154C110.477 45.1674 110.477 45.2195 110.477 45.2716C110.477 45.3237 110.477 45.3757 110.529 45.4278C110.581 45.5319 110.738 45.5319 110.79 45.4278C110.842 45.3757 110.842 45.3237 110.842 45.2716C110.842 45.2195 110.842 45.2195 110.842 45.1674C110.79 45.1674 110.79 45.1674 110.738 45.1154Z" fill="#8F6D4E"/>
<path d="M101.575 57.1954L112.874 57.1954L112.874 56.7789L101.575 56.7789L101.575 57.1954Z" fill="#8F6D4E"/>
<path d="M24.46 72.7639C24.4079 72.7639 24.3559 72.7639 24.3038 72.816L24.2517 72.868C24.2517 72.9201 24.2517 72.9201 24.2517 72.9722C24.2517 73.0242 24.2517 73.0242 24.2517 73.0242C24.2517 73.0242 24.2517 73.0763 24.3038 73.0763C24.3559 73.1284 24.5121 73.1284 24.5642 73.0763L24.6162 73.0242L24.6162 72.9722C24.6162 72.9201 24.6162 72.9201 24.6162 72.868C24.6162 72.868 24.6162 72.816 24.5642 72.816C24.5642 72.7639 24.5121 72.7639 24.46 72.7639Z" fill="#8F6D4E"/>
<path d="M30.6036 76.0443C30.4994 76.0443 30.4474 76.0964 30.3953 76.2005C30.3953 76.3047 30.4474 76.4088 30.5515 76.4609C30.6556 76.4609 30.7598 76.4088 30.7598 76.3047C30.8118 76.2005 30.7598 76.0964 30.6036 76.0443Z" fill="#8F6D4E"/>
<path d="M32.1657 76.2526C32.0616 76.2526 31.9575 76.3567 31.9575 76.4608C31.9575 76.565 32.0095 76.6691 32.1657 76.6691C32.2699 76.6691 32.374 76.6171 32.374 76.5129C32.374 76.3567 32.2699 76.2526 32.1657 76.2526Z" fill="#8F6D4E"/>
<path d="M31.3848 76.2007C31.2807 76.2007 31.2286 76.2528 31.1765 76.3569C31.1765 76.461 31.2286 76.5652 31.3327 76.5652C31.4369 76.5652 31.541 76.5131 31.541 76.409C31.5931 76.3048 31.541 76.2007 31.3848 76.2007Z" fill="#8F6D4E"/>
<path d="M30.0311 76.0966C30.0831 75.9925 29.979 75.8884 29.8749 75.8363L29.8228 75.8363C29.7186 75.8363 29.6666 75.8884 29.6145 75.9925C29.5624 76.0967 29.6666 76.2008 29.7707 76.2529C29.8749 76.3049 30.0311 76.2008 30.0311 76.0966Z" fill="#8F6D4E"/>
<path d="M24.8764 73.3367C24.8243 73.4408 24.8243 73.545 24.8764 73.5971C24.9285 73.6491 25.0847 73.6491 25.1367 73.5971C25.1888 73.4929 25.1888 73.3888 25.1367 73.3367C25.0847 73.2846 25.0326 73.2847 25.0326 73.2847C24.9805 73.2847 24.9285 73.2846 24.8764 73.3367Z" fill="#8F6D4E"/>
<path d="M26.2822 74.2221C26.2302 74.2221 26.1781 74.2742 26.126 74.3262C26.074 74.4304 26.074 74.5345 26.1781 74.5866C26.2822 74.6387 26.3864 74.6386 26.4384 74.5345C26.4905 74.4304 26.4905 74.3262 26.3864 74.2742C26.3343 74.2742 26.3343 74.2221 26.2822 74.2221Z" fill="#8F6D4E"/>
<path d="M36.019 75.8882C35.9148 75.9403 35.8627 76.0444 35.8627 76.1485C35.9148 76.2527 36.0189 76.3047 36.1231 76.3047C36.2272 76.3047 36.2793 76.1485 36.2793 76.0444C36.2272 75.9403 36.1752 75.8882 36.019 75.8882C36.019 75.8882 36.071 75.8882 36.019 75.8882Z" fill="#8F6D4E"/>
<path d="M29.1459 75.6801L29.0939 75.6801C28.9897 75.6801 28.9377 75.7322 28.8856 75.7842C28.8335 75.8884 28.8856 75.9925 28.9897 76.0446C29.0939 76.0966 29.198 76.0446 29.2501 75.9404C29.3022 75.7842 29.2501 75.6801 29.1459 75.6801Z" fill="#8F6D4E"/>
<path d="M25.501 73.8575C25.449 73.9616 25.449 74.0658 25.5531 74.1178C25.6572 74.1699 25.7614 74.1699 25.8135 74.0658C25.8655 73.9616 25.8655 73.8575 25.7614 73.8054C25.7093 73.7534 25.6572 73.7533 25.6572 73.7533C25.6052 73.8054 25.5531 73.8054 25.501 73.8575Z" fill="#8F6D4E"/>
<path d="M26.959 74.6387C26.9069 74.6387 26.8028 74.6908 26.8028 74.7429C26.7507 74.847 26.8028 74.9511 26.8549 75.0032C26.959 75.0553 27.0631 75.0032 27.1152 74.9512C27.1673 74.847 27.1673 74.7429 27.0631 74.6908C27.0111 74.6908 26.959 74.6387 26.959 74.6387Z" fill="#8F6D4E"/>
<path d="M39.0387 75.0032C39.1429 74.9511 39.1429 74.847 39.0908 74.7429C39.0387 74.6908 38.9867 74.6387 38.9346 74.6387C38.8825 74.6387 38.8825 74.6387 38.8305 74.6908C38.7263 74.7429 38.7263 74.847 38.7784 74.9512C38.8305 75.0032 38.9346 75.0553 39.0387 75.0032Z" fill="#8F6D4E"/>
<path d="M36.9038 75.9923C37.0079 75.9402 37.06 75.8361 37.0079 75.7319C37.0079 75.6278 36.9038 75.6278 36.7996 75.6278L36.7475 75.6278C36.6434 75.6798 36.5913 75.784 36.6434 75.8881C36.6434 75.9923 36.7996 76.0443 36.9038 75.9923Z" fill="#8F6D4E"/>
<path d="M38.3627 75.3675C38.4669 75.3155 38.5189 75.2113 38.4669 75.1072C38.4148 75.0551 38.3627 75.0031 38.3107 75.0031C38.2586 75.0031 38.2586 75.0031 38.2065 75.0031C38.1024 75.0551 38.0503 75.1593 38.1024 75.2634C38.1545 75.4196 38.2586 75.4196 38.3627 75.3675Z" fill="#8F6D4E"/>
<path d="M37.6332 75.7319C37.7374 75.6798 37.7895 75.5757 37.7374 75.4715C37.6853 75.4195 37.6333 75.3674 37.5812 75.3674C37.5812 75.3674 37.5291 75.3674 37.477 75.3674C37.3729 75.4195 37.3208 75.5236 37.3729 75.6277C37.425 75.7319 37.5291 75.784 37.6332 75.7319Z" fill="#8F6D4E"/>
<path d="M34.7168 76.357C34.7168 76.2529 34.6126 76.2008 34.5085 76.2008C34.4044 76.2008 34.3002 76.305 34.3523 76.4091C34.3523 76.5132 34.4564 76.6174 34.5606 76.5653C34.6647 76.5653 34.7168 76.4612 34.7168 76.357Z" fill="#8F6D4E"/>
<path d="M33.9365 76.4611C33.9365 76.3569 33.8324 76.2528 33.7282 76.2528C33.6241 76.2528 33.52 76.3569 33.52 76.4611C33.52 76.5652 33.6241 76.6693 33.7282 76.6173C33.8844 76.6693 33.9365 76.5652 33.9365 76.4611Z" fill="#8F6D4E"/>
<path d="M27.6365 75.055C27.5845 75.055 27.4803 75.107 27.4803 75.1591C27.4282 75.2632 27.4803 75.3674 27.5845 75.4195C27.6886 75.4715 27.7927 75.4194 27.8448 75.3153C27.8969 75.2112 27.8448 75.107 27.7407 75.055C27.6886 75.055 27.6886 75.055 27.6365 75.055Z" fill="#8F6D4E"/>
<path d="M28.3641 75.3674C28.312 75.3674 28.2079 75.4195 28.2079 75.4715C28.1558 75.5757 28.2079 75.6798 28.312 75.7319C28.4161 75.784 28.5203 75.7319 28.5723 75.6277C28.6244 75.5236 28.5724 75.4195 28.4682 75.3674C28.4161 75.3674 28.3641 75.3674 28.3641 75.3674Z" fill="#8F6D4E"/>
<path d="M35.498 76.2005C35.498 76.0964 35.3939 76.0443 35.2898 76.0443C35.2898 76.0443 35.2898 76.0443 35.2377 76.0443C35.1336 76.0443 35.0815 76.1485 35.0815 76.2526C35.0815 76.3568 35.1856 76.4088 35.2898 76.4088C35.446 76.4088 35.498 76.3047 35.498 76.2005Z" fill="#8F6D4E"/>
<path d="M32.7387 76.4608C32.7387 76.565 32.8428 76.6691 32.947 76.6691C33.0511 76.6691 33.1553 76.565 33.1553 76.4608C33.1553 76.3567 33.0511 76.2526 32.947 76.2526C32.8428 76.3047 32.7387 76.3567 32.7387 76.4608Z" fill="#8F6D4E"/>
<path d="M39.4552 74.2742L39.4031 74.3262L39.4031 74.3783C39.4031 74.4304 39.4031 74.4824 39.4552 74.5345C39.5072 74.5866 39.6634 74.5866 39.7155 74.5345C39.7676 74.4824 39.7676 74.4304 39.7676 74.3783L39.7676 74.3262C39.7676 74.3262 39.7676 74.2742 39.7155 74.2742L39.6634 74.2221L39.6114 74.2221C39.5593 74.2221 39.5072 74.2221 39.4552 74.2742Z" fill="#8F6D4E"/>
<path d="M25.0818 72.6446L33.0713 64.6551L32.7767 64.3605L24.7872 72.35L25.0818 72.6446Z" fill="#8F6D4E"/>
<path d="M85.1195 73.1287C85.1716 73.1287 85.1716 73.1286 85.1716 73.0766C85.2236 73.0245 85.2236 72.9724 85.2236 72.9204C85.2236 72.8683 85.2236 72.8162 85.1716 72.7642C85.1195 72.7121 85.0674 72.7121 85.0154 72.7121L84.9633 72.7121C84.9633 72.7121 84.9112 72.7121 84.9112 72.7642C84.8592 72.8162 84.8592 72.8683 84.8592 72.9204C84.8592 72.9724 84.8592 73.0245 84.9112 73.0766C84.9633 73.1286 85.0154 73.1287 85.1195 73.1287Z" fill="#8F6D4E"/>
<path d="M79.7051 76.2529C79.8093 76.2008 79.8613 76.0967 79.8613 75.9925C79.8613 75.8884 79.7572 75.8363 79.6531 75.8363L79.601 75.8363C79.4968 75.8884 79.4448 75.9925 79.4448 76.0966C79.4969 76.2008 79.601 76.3049 79.7051 76.2529Z" fill="#8F6D4E"/>
<path d="M80.4868 76.0444C80.5909 75.9924 80.643 75.8882 80.5909 75.7841C80.5909 75.68 80.4868 75.6799 80.3826 75.6799L80.3306 75.6799C80.2264 75.732 80.1744 75.8362 80.2264 75.9403C80.2785 75.9924 80.3826 76.0444 80.4868 76.0444Z" fill="#8F6D4E"/>
<path d="M78.7156 76.3047C78.7156 76.4088 78.8197 76.4609 78.9239 76.4609C79.028 76.4609 79.0801 76.3568 79.0801 76.2526C79.0801 76.1485 78.9759 76.0964 78.8718 76.0964L78.8197 76.0964C78.7156 76.0964 78.6635 76.2005 78.7156 76.3047Z" fill="#8F6D4E"/>
<path d="M76.7373 76.4608C76.7373 76.3567 76.6332 76.2526 76.529 76.2526C76.4249 76.2526 76.3208 76.3567 76.3208 76.4608C76.3208 76.565 76.4249 76.6691 76.529 76.6691C76.6332 76.6691 76.7373 76.617 76.7373 76.4608Z" fill="#8F6D4E"/>
<path d="M81.2153 75.7319C81.3194 75.6798 81.3715 75.5757 81.3194 75.4715C81.2673 75.4195 81.2153 75.3674 81.1632 75.3674L81.1111 75.3674C81.007 75.4195 80.9549 75.5236 81.007 75.6277C81.007 75.7319 81.1111 75.784 81.2153 75.7319Z" fill="#8F6D4E"/>
<path d="M77.5176 76.4611C77.5176 76.3569 77.4134 76.2528 77.3093 76.2528C77.2052 76.2528 77.101 76.3569 77.101 76.4611C77.101 76.5652 77.2052 76.6693 77.3093 76.6173C77.4655 76.6693 77.5176 76.5652 77.5176 76.4611Z" fill="#8F6D4E"/>
<path d="M78.2988 76.357C78.2988 76.2529 78.1947 76.2008 78.0906 76.2008L78.0385 76.2008C77.9343 76.2008 77.8302 76.305 77.8823 76.4091C77.8823 76.5132 77.9864 76.6174 78.0906 76.5653C78.2468 76.5653 78.2988 76.4612 78.2988 76.357Z" fill="#8F6D4E"/>
<path d="M83.2975 74.5866C83.4017 74.5345 83.4017 74.4304 83.3496 74.3262C83.2975 74.2742 83.2454 74.2221 83.1934 74.2221C83.1413 74.2221 83.1413 74.2221 83.0892 74.2742C82.9851 74.3262 82.9851 74.4304 83.0372 74.5345C83.0892 74.6386 83.2454 74.6387 83.2975 74.5866Z" fill="#8F6D4E"/>
<path d="M83.9743 74.1179C84.0784 74.0658 84.0784 73.9096 84.0263 73.8576C83.9743 73.8055 83.9222 73.8055 83.8701 73.8055C83.8181 73.8055 83.766 73.8055 83.766 73.8576C83.6619 73.9096 83.6619 74.0658 83.7139 74.1179C83.766 74.17 83.8701 74.2221 83.9743 74.1179Z" fill="#8F6D4E"/>
<path d="M84.5996 73.6494C84.7038 73.5973 84.7038 73.4411 84.5996 73.389C84.5476 73.3369 84.4955 73.3369 84.4434 73.3369C84.3914 73.3369 84.3393 73.3369 84.3393 73.389C84.2351 73.4411 84.2351 73.5973 84.3393 73.6494C84.3914 73.7014 84.4955 73.7014 84.5996 73.6494Z" fill="#8F6D4E"/>
<path d="M81.9448 75.4195C82.0489 75.3674 82.101 75.2632 82.0489 75.1591C81.9968 75.107 81.9448 75.055 81.8927 75.055C81.8406 75.055 81.8406 75.055 81.7886 75.055C81.6844 75.107 81.6324 75.2112 81.6844 75.3153C81.7365 75.4194 81.8406 75.4715 81.9448 75.4195Z" fill="#8F6D4E"/>
<path d="M75.1748 76.409C75.1748 76.3048 75.1227 76.2007 75.0186 76.2007L74.9665 76.2007C74.8624 76.2007 74.8103 76.2528 74.7583 76.3569C74.7583 76.461 74.8103 76.5652 74.9145 76.5652C75.0707 76.5652 75.1748 76.5131 75.1748 76.409Z" fill="#8F6D4E"/>
<path d="M82.6217 75.003C82.7259 74.9509 82.7259 74.8468 82.6738 74.7427C82.6217 74.6906 82.5697 74.6385 82.5176 74.6385C82.4655 74.6385 82.4655 74.6385 82.4135 74.6385C82.3093 74.6906 82.3093 74.7947 82.3614 74.8989C82.4135 75.0551 82.5697 75.1072 82.6217 75.003Z" fill="#8F6D4E"/>
<path d="M75.9561 76.4611C75.9561 76.3569 75.904 76.2528 75.7999 76.2528C75.6957 76.2528 75.5916 76.3049 75.5916 76.409C75.5916 76.5131 75.6957 76.6173 75.7999 76.6173C75.8519 76.6693 75.9561 76.5652 75.9561 76.4611Z" fill="#8F6D4E"/>
<path d="M74.3936 76.3047C74.3936 76.2005 74.3415 76.0964 74.2374 76.0964L74.1853 76.0964C74.0811 76.0964 74.0291 76.1485 73.977 76.2526C73.977 76.3568 74.0291 76.4609 74.1332 76.4609C74.2373 76.4609 74.3415 76.4088 74.3936 76.3047Z" fill="#8F6D4E"/>
<path d="M72.6245 75.9923C72.7286 76.0443 72.8328 75.9923 72.8848 75.8881C72.9369 75.784 72.8848 75.6798 72.7807 75.6278L72.7286 75.6278C72.6766 75.6278 72.5724 75.6799 72.5724 75.7319C72.4683 75.8881 72.5204 75.9923 72.6245 75.9923Z" fill="#8F6D4E"/>
<path d="M72.1026 75.6277C72.1547 75.5236 72.1026 75.4195 71.9985 75.3674C71.9464 75.3674 71.9464 75.3674 71.8943 75.3674C71.8423 75.3674 71.7381 75.4195 71.7381 75.4715C71.6861 75.5757 71.7381 75.6798 71.8423 75.7319C71.9464 75.784 72.1026 75.7319 72.1026 75.6277Z" fill="#8F6D4E"/>
<path d="M70.6972 74.8988C70.7493 74.7947 70.7493 74.6906 70.6452 74.6385C70.5931 74.6385 70.5931 74.5864 70.541 74.5864C70.489 74.5864 70.4369 74.6385 70.3848 74.6906C70.3328 74.7947 70.3848 74.8989 70.4369 74.9509C70.541 75.0551 70.6452 75.003 70.6972 74.8988Z" fill="#8F6D4E"/>
<path d="M71.2176 75.003C71.1655 75.003 71.0614 75.0551 71.0614 75.1072C71.0093 75.2113 71.0614 75.3154 71.1655 75.3675C71.2697 75.4196 71.3738 75.3675 71.4259 75.2634C71.4779 75.1592 71.4259 75.0551 71.3217 75.003C71.3217 75.003 71.2697 75.003 71.2176 75.003Z" fill="#8F6D4E"/>
<path d="M73.6131 76.0966C73.6652 75.9925 73.561 75.8884 73.4569 75.8363L73.4048 75.8363C73.3007 75.8363 73.2486 75.8884 73.1966 75.9925C73.1445 76.0967 73.2486 76.2008 73.3528 76.2529C73.509 76.3049 73.6131 76.2008 73.6131 76.0966Z" fill="#8F6D4E"/>
<path d="M69.9691 74.5862L70.0212 74.5342C70.0732 74.4821 70.0732 74.43 70.0732 74.378L70.0732 74.3259C70.0732 74.3259 70.0732 74.2738 70.0212 74.2738L69.9691 74.2218L69.917 74.2218C69.865 74.2218 69.8129 74.2217 69.7608 74.2738C69.7088 74.3259 69.7088 74.378 69.7088 74.43C69.7088 74.4821 69.7088 74.5342 69.7608 74.5862C69.8129 74.5862 69.917 74.5862 69.9691 74.5862Z" fill="#8F6D4E"/>
<path d="M84.39 72.6389L84.6846 72.3444L76.6951 64.3548L76.4005 64.6494L84.39 72.6389Z" fill="#8F6D4E"/>
<path d="M104.698 114.003L110.374 114.003L110.374 81.2512L104.698 81.2512L104.698 114.003ZM105.011 81.5636L110.062 81.5636L110.062 113.69L105.011 113.69L105.011 81.5636Z" fill="#8F6D4E"/>
<path d="M107.875 95.5181L107.875 90.4153L106.521 90.4153L106.521 95.5181C106 95.7785 105.636 96.2992 105.636 96.924L105.636 98.434C105.636 99.0588 106 99.5795 106.521 99.8399L106.521 104.943L107.875 104.943L107.875 99.8399C108.395 99.5795 108.76 99.0588 108.76 98.434L108.76 96.924C108.76 96.2992 108.395 95.7264 107.875 95.5181ZM108.447 98.3819C108.447 98.7985 108.239 99.215 107.875 99.4233L107.875 95.8305C108.239 96.0388 108.447 96.4554 108.447 96.8719L108.447 98.3819ZM107.562 99.8919L107.562 104.578L106.833 104.578L106.833 99.8919L106.833 99.7357L106.833 99.5795L106.833 95.7264L106.833 95.5702L106.833 95.414L106.833 90.7278L107.562 90.7278L107.562 95.414L107.562 95.5702L107.562 95.7264L107.562 99.5795L107.562 99.7357L107.562 99.8919ZM105.948 96.8719C105.948 96.4554 106.156 96.0388 106.521 95.8305L106.521 99.4233C106.156 99.215 105.948 98.7985 105.948 98.3819L105.948 96.8719Z" fill="#8F6D4E"/>
<path d="M141.458 44.022L169.419 44.022L169.419 36.7323L141.458 36.7323L141.458 44.022V44.022ZM141.77 37.0447L169.107 37.0447L169.107 43.7096L141.77 43.7096L141.77 37.0447Z" fill="#8F6D4E"/>
<path d="M156.194 38.8149L154.684 38.8149C154.06 38.8149 153.539 39.1794 153.279 39.7001L148.176 39.7001L148.176 41.0539L153.279 41.0539C153.539 41.5746 154.06 41.9391 154.684 41.9391L156.194 41.9391C156.819 41.9391 157.34 41.5746 157.6 41.0539L162.703 41.0539L162.703 39.7001L157.6 39.7001C157.34 39.1794 156.767 38.8149 156.194 38.8149ZM162.391 40.0126L162.391 40.7415L157.704 40.7415L157.548 40.7415L157.392 40.7415L153.539 40.7415L153.331 40.7415L153.174 40.7415L148.488 40.7415L148.488 40.0126L153.174 40.0126L153.331 40.0126L153.487 40.0126L157.34 40.0126L157.496 40.0126L157.652 40.0126L162.391 40.0126ZM156.194 41.6267L154.684 41.6267C154.268 41.6267 153.851 41.4184 153.643 41.0539L157.236 41.0539C156.976 41.4184 156.611 41.6267 156.194 41.6267ZM157.236 39.7001L153.643 39.7001C153.851 39.3356 154.268 39.1273 154.684 39.1273L156.194 39.1273C156.611 39.1273 156.976 39.3877 157.236 39.7001Z" fill="#8F6D4E"/>
<path d="M14.3578 88.9053C14.7223 88.9053 14.9826 88.7491 15.1909 88.4888C15.3471 88.7491 15.6595 88.9053 15.9719 88.9053C16.4926 88.9053 16.9092 88.4888 16.9092 87.9681L16.9092 83.5942C16.9092 83.0736 16.4926 82.657 15.9719 82.657C15.6595 82.657 15.3471 82.8132 15.1909 83.0736C15.0347 82.8132 14.7223 82.657 14.3578 82.657L11.8064 82.657L11.8064 82.4487L13.6809 82.4487C14.2016 82.4487 14.6181 82.0322 14.6181 81.5115C14.6181 80.9908 14.2016 80.5742 13.6809 80.5742L11.8064 80.5742L11.8064 75.1591L4.77709 75.1591L4.7771 106.453L11.8064 106.453L11.8064 90.9881L13.6809 90.9881C14.2016 90.9881 14.6181 90.5715 14.6181 90.0508C14.6181 89.5301 14.2016 89.1136 13.6809 89.1136L11.8064 89.1136L11.8064 88.9053L14.3578 88.9053V88.9053ZM15.3471 83.5942C15.3471 83.2298 15.6595 82.9694 15.9719 82.9694C16.3364 82.9694 16.5968 83.2818 16.5968 83.5942L16.5968 87.9681C16.5968 88.3325 16.2844 88.5929 15.9719 88.5929C15.6075 88.5929 15.3471 88.2805 15.3471 87.9681L15.3471 83.5942ZM14.3578 82.9694C14.7223 82.9694 15.0347 83.2818 15.0347 83.6463L15.0347 87.9681C15.0347 88.3325 14.7223 88.645 14.3578 88.645L11.8064 88.645L11.8064 83.0215L14.3578 83.0215L14.3578 82.9694ZM11.494 88.9053L11.494 89.1136L11.494 89.426L11.494 90.6756L11.494 90.9881L11.494 106.14L5.0895 106.14L5.08949 75.4715L11.494 75.4715L11.494 80.5742L11.494 80.8867L11.494 82.1363L11.494 82.4487L11.494 82.657L11.494 82.9694L11.494 88.5929L11.494 88.9053ZM13.733 80.8867C14.0974 80.8867 14.3578 81.147 14.3578 81.5115C14.3578 81.876 14.0974 82.1363 13.733 82.1363L11.8585 82.1363L11.8585 80.8867L13.733 80.8867V80.8867ZM13.733 89.426C14.0974 89.426 14.3578 89.6863 14.3578 90.0508C14.3578 90.4153 14.0974 90.6756 13.733 90.6756L11.8585 90.6756L11.8585 89.426L13.733 89.426V89.426Z" fill="#8F6D4E"/>
<path d="M7.06907 81.1991L7.06907 80.8867L6.75665 80.8867L6.28803 80.8867L5.97562 80.8867L5.97562 81.1991L5.97562 83.6463L5.76734 83.6463L5.76734 83.9587L5.76734 87.6556L5.76734 87.9681L5.97562 87.9681L5.97562 90.4153L5.97562 90.7277L6.28803 90.7277L6.75665 90.7277L7.06907 90.7277L7.06907 90.4153L7.06907 87.9681L7.27734 87.9681L7.27734 87.6556L7.27734 83.9587L7.27734 83.6463L7.06907 83.6463L7.06907 81.1991ZM6.75665 87.916L6.75665 90.3632L6.28803 90.3632L6.28803 87.916L6.28803 87.6036L6.28803 83.9067L6.28803 83.5943L6.28803 81.147L6.75665 81.147L6.75665 83.5943L6.75665 83.9067L6.75665 87.6036L6.75665 87.916Z" fill="#8F6D4E"/>
<path d="M8.89123 82.3448L8.89123 89.1659L10.0367 89.1659L11.0781 89.1659L11.0781 89.1138L11.0781 88.9055L11.0781 88.5931L11.0781 82.9697L11.0781 82.6573L11.0781 82.449L11.0781 82.3969L10.0367 82.3969L8.89123 82.3969L8.89123 82.3448ZM10.7657 82.9697L10.7657 88.5931L10.7657 88.8535L10.4533 88.8535L10.4533 88.5931L10.4533 82.9697L10.4533 82.7093L10.7657 82.7093L10.7657 82.9697ZM9.20365 83.178L9.20365 82.6573L9.51605 82.6573L9.51605 82.8655L9.51605 83.2821L9.51605 88.2287L9.51605 88.6452L9.51605 88.8535L9.20365 88.8535L9.20365 88.3328L9.20365 83.178ZM9.82847 88.8014L9.82847 88.489L9.82847 83.0738L9.82847 82.7614L9.82847 82.7093L9.98469 82.7093L10.1409 82.7093L10.1409 83.0218L10.1409 88.6452L10.1409 88.9576L10.0367 88.9576L9.88054 88.9576L9.88054 88.8014L9.82847 88.8014Z" fill="#8F6D4E"/>
<path d="M65.4384 98.4861L61.6894 98.4861C61.2208 98.4861 60.8563 98.8506 60.8563 99.3193L60.8563 107.494C60.8563 107.963 61.2208 108.327 61.6894 108.327L65.4384 108.327C65.907 108.327 66.2715 107.963 66.2715 107.494L66.2715 99.3193C66.2715 98.8506 65.907 98.4861 65.4384 98.4861ZM65.9591 107.442C65.9591 107.754 65.6987 107.963 65.4384 107.963L61.6894 107.963C61.377 107.963 61.1687 107.702 61.1687 107.442L61.1687 99.2672C61.1687 98.9548 61.4291 98.7465 61.6894 98.7465L65.4384 98.7465C65.7508 98.7465 65.9591 99.0068 65.9591 99.2672L65.9591 107.442Z" fill="#8F6D4E"/>
<path d="M65.4384 86.9789L61.6894 86.9789C61.2208 86.9789 60.8563 87.3434 60.8563 87.812L60.8563 95.9868C60.8563 96.4554 61.2208 96.8199 61.6894 96.8199L65.4384 96.8199C65.907 96.8199 66.2715 96.4554 66.2715 95.9868L66.2715 87.812C66.2715 87.3434 65.907 86.9789 65.4384 86.9789ZM65.9591 95.9868C65.9591 96.2992 65.6987 96.5075 65.4384 96.5075L61.6894 96.5075C61.377 96.5075 61.1687 96.2472 61.1687 95.9868L61.1687 87.812C61.1687 87.4996 61.4291 87.2913 61.6894 87.2913L65.4384 87.2913C65.7508 87.2913 65.9591 87.5516 65.9591 87.812L65.9591 95.9868Z" fill="#8F6D4E"/>
<path d="M85.4844 109.889C85.5886 109.889 85.6406 109.837 85.6406 109.733L85.6406 85.5211C85.6406 85.417 85.5886 85.3649 85.4844 85.3649L74.4458 85.3649L59.554 85.3649L58.3564 85.3649C58.2523 85.3649 58.2002 85.417 58.2002 85.5211L58.2002 109.733C58.2002 109.837 58.2523 109.889 58.3564 109.889L59.554 109.889L68.5099 109.889L85.4844 109.889ZM85.3282 109.577L68.6661 109.577L68.6661 91.6652L73.6127 91.6652C74.1854 91.6652 74.602 91.1966 74.602 90.6759L74.602 85.7294L85.3282 85.7293L85.3282 109.577ZM74.2896 85.9376L74.2896 90.6239C74.2896 90.9883 73.9772 91.3007 73.6127 91.3007L68.8744 91.3007L74.2896 85.9376ZM58.4606 85.6773L59.3457 85.6773L59.3458 109.577L58.4606 109.577L58.4606 85.6773ZM59.7102 85.6773L74.0813 85.6773L68.4058 91.3528C68.3537 91.3528 68.3537 91.4049 68.3537 91.4569L68.3537 109.577L59.7102 109.577L59.7102 85.6773Z" fill="#8F6D4E"/>
<path d="M47.5263 96.8199L51.2753 96.8199C51.7439 96.8199 52.1084 96.4554 52.1084 95.9868L52.1084 87.812C52.1084 87.3434 51.7439 86.9789 51.2753 86.9789L47.5263 86.9789C47.0577 86.9789 46.6932 87.3434 46.6932 87.812L46.6932 95.9868C46.6932 96.4554 47.0577 96.8199 47.5263 96.8199ZM47.0056 87.812C47.0056 87.4996 47.266 87.2913 47.5263 87.2913L51.2753 87.2913C51.5877 87.2913 51.796 87.5516 51.796 87.812L51.796 95.9868C51.796 96.2992 51.5356 96.5075 51.2753 96.5075L47.5263 96.5075C47.2139 96.5075 47.0056 96.2472 47.0056 95.9868L47.0056 87.812Z" fill="#8F6D4E"/>
<path d="M47.5263 108.327L51.2753 108.327C51.7439 108.327 52.1084 107.963 52.1084 107.494L52.1084 99.3193C52.1084 98.8506 51.7439 98.4861 51.2753 98.4861L47.5263 98.4861C47.0577 98.4861 46.6932 98.8506 46.6932 99.3193L46.6932 107.494C46.6932 107.911 47.0577 108.327 47.5263 108.327ZM47.0056 99.3193C47.0056 99.0069 47.266 98.7986 47.5263 98.7986L51.2753 98.7986C51.5877 98.7986 51.796 99.0589 51.796 99.3193L51.796 107.494C51.796 107.807 51.5356 108.015 51.2753 108.015L47.5263 108.015C47.2139 108.015 47.0056 107.754 47.0056 107.494L47.0056 99.3193Z" fill="#8F6D4E"/>
<path d="M44.4537 85.3649L27.4792 85.3649C27.375 85.3649 27.323 85.417 27.323 85.5211L27.323 109.733C27.323 109.837 27.375 109.889 27.4792 109.889L38.5178 109.889L53.4616 109.889L54.6592 109.889C54.7634 109.889 54.8154 109.837 54.8154 109.733L54.8154 85.5211C54.8154 85.417 54.7634 85.3649 54.6592 85.3649L53.4616 85.3649L44.4537 85.3649ZM27.6354 85.6773L44.2975 85.6773L44.2975 103.641L39.3509 103.641C38.7782 103.641 38.3616 104.11 38.3616 104.63L38.3616 109.577L27.6354 109.577L27.6354 85.6773ZM38.674 109.369L38.674 104.63C38.674 104.266 38.9864 103.954 39.3509 103.954L44.0892 103.954L38.674 109.369ZM54.503 109.577L53.6178 109.577L53.6178 85.6773L54.503 85.6773L54.503 109.577ZM53.2534 109.577L38.8823 109.577L44.5578 103.901C44.6099 103.849 44.6099 103.849 44.6099 103.797L44.6099 85.6773L53.2534 85.6773L53.2534 109.577Z" fill="#8F6D4E"/>
<path d="M12.6925 24.34L8.94357 24.34L8.11046 24.34C7.85011 24.34 7.64184 24.5483 7.64184 24.8086L7.64184 29.7552C7.64184 30.0155 7.85011 30.2238 8.11046 30.2238L8.94357 30.2238L12.6925 30.2238C14.3067 30.2238 15.6084 28.9221 15.6084 27.308C15.6084 25.6938 14.3067 24.34 12.6925 24.34ZM7.95424 29.7031L7.95424 24.7566C7.95424 24.6524 8.00632 24.6003 8.11046 24.6003L8.78735 24.6003L8.78735 29.8072L8.11046 29.8072C8.05839 29.8593 7.95424 29.8073 7.95424 29.7031ZM12.6925 29.8594L9.09977 29.8594L9.09977 24.6525L12.6925 24.6525C14.1505 24.6525 15.296 25.85 15.296 27.2559C15.296 28.6618 14.1505 29.8594 12.6925 29.8594Z" fill="#8F6D4E"/>
<path d="M5.0387 29.7028C5.0387 29.9632 5.24697 30.1714 5.50731 30.1714L6.75697 30.1714C7.01731 30.1714 7.22559 29.9632 7.22559 29.7028L7.22559 24.7563C7.22559 24.4959 7.01731 24.2876 6.75697 24.2876L5.50731 24.2876C5.24697 24.2876 5.03869 24.4959 5.03869 24.7563L5.0387 29.7028ZM5.3511 24.8083C5.3511 24.7042 5.40318 24.6521 5.50731 24.6521L6.75697 24.6521C6.86111 24.6521 6.91317 24.7042 6.91317 24.8083L6.91317 29.7549C6.91317 29.859 6.86111 29.9111 6.75697 29.9111L5.50731 29.9111C5.40318 29.9111 5.3511 29.859 5.3511 29.7549L5.3511 24.8083Z" fill="#8F6D4E"/>
<path d="M6.13165 27.7764C6.44407 27.7764 6.65234 27.5161 6.65234 27.2557C6.65234 26.9433 6.392 26.735 6.13165 26.735C5.81924 26.735 5.61096 26.9954 5.61096 27.2557C5.55889 27.5682 5.81924 27.7764 6.13165 27.7764ZM6.13165 27.0474C6.23579 27.0474 6.33994 27.1516 6.33994 27.2557C6.33994 27.3599 6.23579 27.464 6.13165 27.464C6.02752 27.464 5.92338 27.3599 5.92338 27.2557C5.87131 27.1516 5.97545 27.0474 6.13165 27.0474Z" fill="#8F6D4E"/>
<path d="M31.6975 26.839C31.6975 27.0994 31.9058 27.3077 32.1661 27.3077L32.9992 27.3077L36.7482 27.3077C38.3623 27.3077 39.6641 26.006 39.6641 24.3918C39.6641 22.7777 38.3623 21.4759 36.7482 21.4759L32.9992 21.4759L32.1661 21.4759C31.9058 21.4759 31.6975 21.6842 31.6975 21.9445L31.6975 26.839ZM39.3516 24.3397C39.3516 25.7976 38.1541 26.9432 36.7482 26.9432L33.1554 26.9432L33.1554 21.7363L36.7482 21.7363C38.2061 21.7363 39.3516 22.9338 39.3516 24.3397ZM32.0099 21.8925C32.0099 21.7883 32.062 21.7363 32.1661 21.7363L32.843 21.7363L32.843 26.9432L32.1661 26.9432C32.062 26.9432 32.0099 26.8911 32.0099 26.787L32.0099 21.8925Z" fill="#8F6D4E"/>
<path d="M18.3154 20.122L18.3154 10.1768C18.3154 10.0726 18.2633 10.0205 18.1592 10.0205L5.19402 10.0205C5.08988 10.0205 5.03782 10.0726 5.03782 10.1768L5.03782 23.142C5.03782 23.2461 5.08988 23.2982 5.19402 23.2982L15.1392 23.2982C16.9096 23.2982 18.3154 21.8402 18.3154 20.122ZM15.1392 22.9858L5.35022 22.9858L5.35022 10.333L18.003 10.333L18.003 20.122C18.003 21.684 16.7534 22.9858 15.1392 22.9858Z" fill="#8F6D4E"/>
<path d="M7.38099 12.2598C7.12065 12.2598 6.91236 12.4681 6.91236 12.7284C6.91236 12.9888 7.12065 13.1971 7.38099 13.1971C7.64134 13.1971 7.84961 12.9888 7.84961 12.7284C7.84961 12.5202 7.64134 12.2598 7.38099 12.2598ZM7.38099 12.9367C7.27685 12.9367 7.22477 12.8846 7.22477 12.7805C7.22477 12.6764 7.27685 12.6243 7.38099 12.6243C7.48513 12.6243 7.53719 12.6764 7.53719 12.7805C7.53719 12.8326 7.48513 12.9367 7.38099 12.9367Z" fill="#8F6D4E"/>
<path d="M7.32915 14.5507C7.22501 14.5507 7.17293 14.6028 7.17293 14.7069L7.17293 18.7683C7.17293 18.8725 7.22501 18.9246 7.32915 18.9246C7.43329 18.9246 7.48535 18.8725 7.48535 18.7683L7.48535 14.7069C7.48535 14.6028 7.43329 14.5507 7.32915 14.5507Z" fill="#8F6D4E"/>
<path d="M13.3165 12.5721L9.25506 12.5721C9.15092 12.5721 9.09886 12.6242 9.09886 12.7283C9.09886 12.8324 9.15092 12.8845 9.25506 12.8845L13.3165 12.8845C13.4206 12.8845 13.4727 12.8324 13.4727 12.7283C13.4727 12.6242 13.4206 12.5721 13.3165 12.5721Z" fill="#8F6D4E"/>
<path d="M8.787 14.0822C8.73493 14.0301 8.73494 14.0301 8.68287 14.0301C8.6308 14.0301 8.57873 14.0301 8.57873 14.0822C8.52666 14.1343 8.52666 14.2384 8.57873 14.2905L11.7029 17.4146C11.7549 17.4667 11.8591 17.4667 11.9111 17.4146C11.9632 17.3626 11.9632 17.2584 11.9111 17.2063L8.787 14.0822Z" fill="#8F6D4E"/>
<path d="M36.6949 20.018C37.1635 20.018 37.5801 19.6535 37.5801 19.1328L37.5801 3.72037C37.5801 3.25174 37.1635 2.83522 36.6949 2.83522L31.8525 2.83522C31.7483 2.83522 31.6963 2.88725 31.6963 2.99139L31.6963 19.8618C31.6963 19.9659 31.7483 20.018 31.8525 20.018L36.6949 20.018ZM32.0087 3.14762L36.6949 3.14762C37.0073 3.14762 37.2677 3.40795 37.2677 3.72037L37.2677 19.1328C37.2677 19.4452 37.0073 19.7056 36.6949 19.7056L32.0087 19.7056L32.0087 3.14762Z" fill="#8F6D4E"/>
<path d="M35.1338 8.04223L32.7907 8.04223C32.5303 8.04223 32.322 8.25052 32.322 8.51086L32.322 11.2184L32.27 11.2184C32.1658 11.2184 32.1138 11.2705 32.1138 11.3747C32.1138 11.4788 32.1658 11.5308 32.27 11.5308L32.322 11.5308L32.322 14.2385C32.322 14.4988 32.5303 14.707 32.7907 14.707L35.1338 14.707C35.7586 14.707 36.2793 14.1864 36.2793 13.5615L36.2793 9.08361C36.2793 8.56292 35.7586 8.04223 35.1338 8.04223ZM35.9669 13.6657C35.9669 14.1343 35.6024 14.4988 35.1338 14.4988L32.7907 14.4988C32.6865 14.4988 32.6345 14.4467 32.6345 14.3426L32.6345 11.635L33.6238 11.635C33.7279 11.635 33.78 11.5829 33.78 11.4788C33.78 11.3746 33.7279 11.3225 33.6238 11.3225L32.6345 11.3225L32.6345 8.61498C32.6345 8.51084 32.6865 8.45874 32.7907 8.45874L35.1338 8.45874C35.6024 8.45874 35.9669 8.82328 35.9669 9.2919L35.9669 13.6657Z" fill="#8F6D4E"/>
<path d="M5.03791 40.7414C5.03791 40.8455 5.08998 40.8976 5.19411 40.8976L9.51584 40.8976C9.93239 40.8976 10.2969 40.5331 10.2969 40.1165L10.2969 32.2541C10.2969 31.8376 9.93239 31.4731 9.51584 31.4731L5.19411 31.4731C5.08997 31.4731 5.03791 31.5251 5.03791 31.6293L5.03791 40.7414ZM5.35031 31.7334L9.51584 31.7334C9.77618 31.7334 9.98447 31.9417 9.98447 32.2021L9.98447 40.0645C9.98447 40.3248 9.77618 40.5331 9.51584 40.5331L5.35031 40.5331L5.35031 31.7334Z" fill="#8F6D4E"/>
<path d="M8.16174 33.1393L6.07898 33.1393C5.81864 33.1393 5.61035 33.3476 5.61035 33.608L5.61035 36.0031C5.50621 36.0031 5.45415 36.0552 5.45415 36.1594C5.45415 36.2635 5.50621 36.3155 5.61035 36.3155L5.61035 38.7108C5.61035 38.9711 5.81864 39.1793 6.07898 39.1793L8.16174 39.1793C8.7345 39.1793 9.20312 38.7107 9.20312 38.1379L9.20312 34.1286C9.15106 33.5559 8.68243 33.1393 8.16174 33.1393ZM8.83864 38.1379C8.83864 38.5545 8.52622 38.8669 8.10967 38.8669L6.02691 38.8669C5.97484 38.8669 5.87069 38.8149 5.87069 38.7108L5.87069 36.3155L6.7038 36.3155C6.80794 36.3155 6.86002 36.2635 6.86002 36.1594C6.86002 36.0552 6.80794 36.0031 6.7038 36.0031L5.87069 36.0031L5.87069 33.608C5.87069 33.5559 5.92277 33.4517 6.02691 33.4517L8.10967 33.4517C8.52622 33.4517 8.83863 33.7642 8.83863 34.1807L8.83864 38.1379Z" fill="#8F6D4E"/>
<path d="M92.0451 42.5121C92.3575 42.5121 92.6699 42.2518 92.6699 41.9393C92.6699 41.7311 92.5658 41.5748 92.3575 41.4707L88.973 39.6483L88.973 39.2318L88.973 39.1797L88.7127 39.1276C88.5044 39.0755 88.3482 38.9714 88.192 38.8673C88.0878 38.7631 88.0358 38.659 88.0358 38.5548C88.0358 38.2424 88.2961 37.9821 88.6085 37.9821C88.7647 37.9821 88.9209 38.0341 89.0251 38.1383C89.0772 38.1903 89.1292 38.2945 89.1813 38.4507C89.1813 38.5549 89.2334 38.6069 89.3375 38.6069C89.4416 38.6069 89.4937 38.5549 89.4937 38.4507C89.4416 37.9821 89.0772 37.6697 88.6085 37.6697C88.0878 37.6697 87.7234 38.0862 87.7234 38.5548C87.7234 38.9714 88.0878 39.3359 88.6085 39.44L88.6085 39.6483L85.224 41.4707C85.0158 41.5748 84.9116 41.7311 84.9116 41.9393C84.9116 42.2518 85.172 42.5121 85.5365 42.5121L92.0451 42.5121V42.5121ZM85.5365 42.1997C85.3803 42.1997 85.2761 42.0955 85.2761 41.9914C85.2761 41.9393 85.3282 41.8352 85.4323 41.7831L88.8689 39.9607L92.3054 41.7831C92.4096 41.8352 92.4616 41.8873 92.4616 41.9914C92.4616 42.0955 92.3054 42.1997 92.2013 42.1997L85.5365 42.1997Z" fill="#8F6D4E"/>
<path d="M78.9229 41.5227L75.5385 39.7003L75.5385 39.2838L75.5385 39.2317L75.2781 39.1796C75.0698 39.1275 74.9136 39.0234 74.7574 38.9193C74.6533 38.8151 74.6012 38.711 74.6012 38.6069C74.6012 38.2944 74.8615 38.0341 75.174 38.0341C75.3302 38.0341 75.4864 38.0862 75.5905 38.1903C75.6426 38.2424 75.6947 38.3465 75.7467 38.5027C75.7467 38.6069 75.7988 38.6589 75.9029 38.6589C76.0071 38.6589 76.0591 38.6069 76.0591 38.5027C76.0071 38.0341 75.6426 37.7217 75.174 37.7217C74.6533 37.7217 74.2888 38.1382 74.2888 38.6069C74.2888 39.0234 74.6533 39.3879 75.174 39.4921L75.174 39.7003L71.7895 41.5227C71.5812 41.6268 71.4771 41.7831 71.4771 41.9913C71.4771 42.3038 71.7374 42.5641 72.1019 42.5641L78.6105 42.5641C78.9229 42.5641 79.2354 42.3038 79.2354 41.9913C79.2354 41.7831 79.0791 41.6268 78.9229 41.5227ZM78.6105 42.1996L72.1019 42.1996C71.9457 42.1996 71.7895 42.0955 71.7895 41.9913C71.7895 41.9393 71.8415 41.8351 71.9457 41.7831L75.3822 39.9606L78.8188 41.7831C78.9229 41.8351 78.975 41.8872 78.975 41.9913C78.8709 42.0955 78.7667 42.1996 78.6105 42.1996Z" fill="#8F6D4E"/>
<path d="M99.804 42.5121L106.313 42.5121C106.625 42.5121 106.937 42.2518 106.937 41.9393C106.937 41.7311 106.833 41.5748 106.625 41.4707L103.241 39.6483L103.241 39.2318L103.241 39.1797L102.98 39.1276C102.772 39.0755 102.616 38.9714 102.46 38.8673C102.355 38.7631 102.303 38.659 102.303 38.5548C102.303 38.2424 102.564 37.9821 102.876 37.9821C103.032 37.9821 103.189 38.0341 103.293 38.1383C103.345 38.1903 103.397 38.2945 103.449 38.4507C103.449 38.5549 103.501 38.6069 103.605 38.6069C103.709 38.6069 103.761 38.5549 103.761 38.4507C103.709 37.9821 103.345 37.6697 102.876 37.6697C102.355 37.6697 101.991 38.0862 101.991 38.5548C101.991 38.9714 102.355 39.3359 102.876 39.44L102.876 39.6483L99.4916 41.4707C99.2834 41.5748 99.1792 41.7311 99.1792 41.9393C99.1792 42.3038 99.4396 42.5121 99.804 42.5121ZM99.6478 41.7831L103.084 39.9607L106.521 41.7831C106.625 41.8352 106.677 41.8873 106.677 41.9914C106.677 42.0955 106.521 42.1997 106.417 42.1997L99.9082 42.1997C99.752 42.1997 99.6478 42.0955 99.6478 41.9914C99.4916 41.8873 99.5437 41.8352 99.6478 41.7831Z" fill="#8F6D4E"/>
<path d="M95.014 36.3158L68.615 36.3158L68.615 43.97L68.615 44.1262L73.4575 44.1262L73.4575 44.2824L77.7271 44.2824L78.6644 44.2824L89.5468 44.2824L89.5468 44.1262L94.962 44.1262L95.2744 44.1262L98.711 44.1262L98.711 44.2824L107.198 44.2824L107.198 44.1262L110.635 44.1262L110.635 43.97L110.635 43.8138L110.635 36.3158L95.3265 36.3158L95.014 36.3158ZM77.7792 43.97L76.165 43.97L76.165 43.8138L68.9274 43.8138L68.9274 36.6283L81.8406 36.6283L81.8406 43.97L78.7164 43.97L77.7792 43.97ZM82.153 36.6283L95.014 36.6283L95.014 43.8138L87.0996 43.8138L87.0996 43.97L82.153 43.97L82.153 36.6283ZM110.322 36.6283L110.322 43.8138L104.647 43.8138L104.647 43.97L101.21 43.97L101.21 43.8138L95.3265 43.8138L95.3265 36.6283L110.322 36.6283Z" fill="#8F6D4E"/>
<path d="M99.4906 66.1514L105.999 66.1514C106.312 66.1514 106.624 65.891 106.624 65.6307C106.624 65.4224 106.52 65.2662 106.312 65.162L102.927 63.3396L102.927 62.9231L102.927 62.871L102.667 62.8189C102.458 62.7669 102.302 62.6627 102.146 62.5586C102.042 62.4545 101.99 62.3503 101.99 62.2462C101.99 61.9338 102.25 61.6734 102.563 61.6734C102.719 61.6734 102.875 61.7255 102.979 61.8817C103.031 61.9338 103.083 62.0379 103.135 62.1941C103.135 62.2983 103.187 62.3503 103.292 62.3503C103.396 62.3503 103.448 62.2983 103.448 62.1941C103.396 61.7255 103.031 61.4131 102.563 61.4131C102.042 61.4131 101.677 61.8296 101.677 62.2982C101.677 62.7148 102.042 63.0793 102.563 63.1835L102.563 63.3917L99.1781 65.2141C98.9699 65.3182 98.8657 65.4745 98.8657 65.6827C98.8657 65.891 99.1261 66.1514 99.4906 66.1514ZM99.3344 65.4224L102.771 63.6L106.207 65.4224C106.312 65.4745 106.364 65.5265 106.364 65.6307C106.364 65.7348 106.207 65.839 106.103 65.839L99.5947 65.839C99.4385 65.839 99.2823 65.7348 99.2823 65.6307C99.1781 65.5265 99.2302 65.4745 99.3344 65.4224Z" fill="#8F6D4E"/>
<path d="M84.9115 66.1514L91.4201 66.1514C91.7325 66.1514 92.0449 65.891 92.0449 65.6307C92.0449 65.4224 91.9408 65.2662 91.7325 65.162L88.348 63.3396L88.348 62.9231L88.348 62.871L88.0877 62.8189C87.8794 62.7669 87.7232 62.6627 87.567 62.5586C87.4628 62.4545 87.4108 62.3503 87.4108 62.2462C87.4108 61.9338 87.6711 61.6734 87.9835 61.6734C88.1397 61.6734 88.2959 61.7255 88.4001 61.8817C88.4522 61.9338 88.5042 62.0379 88.5563 62.1941C88.5563 62.2983 88.6084 62.3503 88.7125 62.3503C88.8166 62.3503 88.8687 62.2983 88.8687 62.1941C88.8166 61.7255 88.4522 61.4131 87.9835 61.4131C87.4628 61.4131 87.0984 61.8296 87.0984 62.2982C87.0984 62.7148 87.4628 63.0793 87.9835 63.1835L87.9835 63.3917L84.599 65.2141C84.3908 65.3182 84.2866 65.4745 84.2866 65.6827C84.3387 65.891 84.599 66.1514 84.9115 66.1514ZM84.7553 65.4224L88.1918 63.6L91.6284 65.4224C91.7325 65.4745 91.7846 65.5265 91.7846 65.6307C91.7846 65.7348 91.6284 65.839 91.5242 65.839L85.0156 65.839C84.8594 65.839 84.7553 65.7348 84.7553 65.6307C84.6511 65.5265 84.7032 65.4745 84.7553 65.4224Z" fill="#8F6D4E"/>
<path d="M81.0064 65.2661L83.5057 67.7654L84.6513 67.7654L89.1292 67.7654L89.1292 67.9216L93.4509 67.9216L94.3882 67.9216L103.032 67.9216L103.032 67.7654L110.321 67.7654L110.321 67.6092L110.321 67.453L110.321 59.955L81.0064 59.955L81.0064 65.2661V65.2661ZM110.009 67.453L100.532 67.453L100.532 67.6092L95.5858 67.6092L95.5858 60.2674L110.009 60.2674L110.009 67.453ZM81.3188 60.2674L95.2733 60.2674L95.2733 67.6092L94.3882 67.6092L93.4509 67.6092L91.8368 67.6092L91.8368 67.453L84.5992 67.453L83.6619 67.453L81.3188 65.1099L81.3188 60.2674Z" fill="#8F6D4E"/>
<path d="M26.4914 63.1833C26.8038 63.1833 27.1162 62.9229 27.1162 62.6105C27.1162 62.4022 27.0121 62.246 26.8038 62.1419L23.4193 60.3195L23.4193 59.9029L23.4193 59.8509L23.159 59.7988C22.9507 59.7467 22.7945 59.6426 22.6383 59.5385C22.5341 59.4343 22.4821 59.3301 22.4821 59.226C22.4821 58.9136 22.7424 58.6532 23.0548 58.6532C23.211 58.6532 23.3672 58.7053 23.4714 58.8095C23.5234 58.8615 23.5755 58.9657 23.6276 59.1219C23.6276 59.226 23.6797 59.2781 23.7838 59.2781C23.8879 59.2781 23.94 59.226 23.94 59.1219C23.8879 58.6533 23.5234 58.3408 23.0548 58.3408C22.5341 58.3408 22.1697 58.7574 22.1697 59.226C22.1697 59.6425 22.5341 60.0071 23.0548 60.1112L23.0548 60.3195L19.6703 62.1419C19.4621 62.246 19.3579 62.4022 19.3579 62.6105C19.3579 62.9229 19.6183 63.1833 19.9827 63.1833L26.4914 63.1833V63.1833ZM19.9827 62.8708C19.8265 62.8708 19.7224 62.7667 19.7224 62.6626C19.7224 62.6105 19.7745 62.5064 19.8786 62.4543L23.3152 60.6319L26.7517 62.4543C26.8559 62.5064 26.9079 62.5585 26.9079 62.6626C26.9079 62.7667 26.7517 62.8708 26.6476 62.8708L19.9827 62.8708Z" fill="#8F6D4E"/>
<path d="M14.6182 62.1419L11.2338 60.3195L11.2338 59.9029L11.2338 59.8509L10.9734 59.7988C10.7651 59.7467 10.6089 59.6426 10.4527 59.5385C10.3486 59.4343 10.2965 59.3301 10.2965 59.226C10.2965 58.9136 10.5569 58.6532 10.8693 58.6532C11.0255 58.6532 11.1817 58.7053 11.2858 58.8095C11.3379 58.8615 11.39 58.9657 11.442 59.1219C11.442 59.226 11.4941 59.2781 11.5982 59.2781C11.7024 59.2781 11.7544 59.226 11.7544 59.1219C11.7024 58.6533 11.3379 58.3408 10.8693 58.3408C10.3486 58.3408 9.9841 58.7574 9.9841 59.226C9.9841 59.6425 10.3486 60.0071 10.8693 60.1112L10.8693 60.3195L7.48478 62.1419C7.2765 62.246 7.17236 62.4022 7.17236 62.6105C7.17236 62.9229 7.43271 63.1833 7.7972 63.1833L14.3058 63.1833C14.6182 63.1833 14.9307 62.9229 14.9307 62.6105C14.9307 62.4543 14.8265 62.246 14.6182 62.1419ZM14.3058 62.8708L7.7972 62.8708C7.64099 62.8708 7.48478 62.7667 7.48478 62.6626C7.48478 62.6105 7.53686 62.5064 7.641 62.4543L11.0775 60.6319L14.5141 62.4543C14.6182 62.5064 14.6703 62.5585 14.6703 62.6626C14.6182 62.7667 14.462 62.8708 14.3058 62.8708Z" fill="#8F6D4E"/>
<path d="M28.9902 64.6412L28.9902 64.485L28.9902 56.9871L4.88225 56.9871L4.88225 64.6412L4.88225 64.7974L8.6833 64.7974L8.6833 64.9536L12.953 64.9536L13.8902 64.9536L22.6899 64.9536L22.6899 64.7974L28.9382 64.7974L28.9382 64.6412L28.9902 64.6412ZM13.005 64.6412L11.3909 64.6412L11.3909 64.485L5.19467 64.485L5.19467 57.2995L16.7019 57.2995L16.7019 64.6412L13.9423 64.6412L13.005 64.6412ZM17.0664 57.2995L28.7299 57.2995L28.7299 64.485L20.2947 64.485L20.2947 64.6412L17.0664 64.6412L17.0664 57.2995Z" fill="#8F6D4E"/>
<path d="M20.763 48.7603L19.8257 48.7603L11.0261 48.7603L11.0261 48.9166L4.77778 48.9166L4.77778 49.0727L4.77778 49.229L4.77778 54.1235L28.8857 54.1235L28.8857 49.0727L28.8857 48.9166L25.0847 48.9166L25.0847 48.7603L20.763 48.7603ZM5.09018 49.229L13.5254 49.229L13.5254 49.0727L16.7537 49.0727L16.7537 53.8111L5.09018 53.8111L5.09018 49.229ZM28.5733 49.229L28.5733 53.8111L17.0661 53.8111L17.0661 49.0727L19.8257 49.0727L20.763 49.0727L22.3771 49.0727L22.3771 49.229L28.5733 49.229Z" fill="#8F6D4E"/>
<path d="M173.586 82.1362L173.586 81.3031L173.586 80.9907L173.586 74.1176L173.586 72.1389L173.586 66.0989L173.586 64.1203L173.586 57.2472L173.586 56.9348L173.586 56.1017C173.586 55.4768 173.065 54.9562 172.44 54.9562L171.868 54.9562L164.63 54.9562C164.005 54.9562 163.485 55.4768 163.485 56.1017C163.485 56.6223 163.849 57.091 164.37 57.1952C164.161 57.4034 164.005 57.6638 164.005 58.0282L164.005 64.1724C164.005 64.5889 164.214 64.9013 164.526 65.1096C164.214 65.3179 164.005 65.6303 164.005 66.0469L164.005 72.191C164.005 72.6076 164.214 72.92 164.526 73.1283C164.214 73.3365 164.005 73.649 164.005 74.0655L164.005 80.2097C164.005 80.5221 164.161 80.8345 164.37 81.0427C163.849 81.1469 163.485 81.6155 163.485 82.1362C163.485 82.761 164.005 83.2817 164.63 83.2817L172.44 83.2817C173.065 83.2817 173.586 82.8131 173.586 82.1362ZM173.274 82.1362C173.274 82.6048 172.909 82.9693 172.44 82.9693L172.18 82.9693L172.18 81.3031L173.274 81.3031L173.274 82.1362ZM172.128 80.9907L172.128 73.2845L172.388 73.2845C172.857 73.2845 173.221 73.6489 173.221 74.1176L173.221 80.9907L172.128 80.9907V80.9907ZM172.128 65.3179L172.388 65.3179C172.857 65.3179 173.221 65.6824 173.221 66.151L173.221 72.191C173.221 72.6596 172.857 73.0241 172.388 73.0241L172.128 73.0241L172.128 65.3179ZM173.274 73.3365C173.221 73.2324 173.117 73.1803 173.013 73.1283C173.117 73.0762 173.221 73.0241 173.274 72.92L173.274 73.3365ZM173.274 65.37C173.221 65.2658 173.117 65.2138 173.013 65.1617C173.117 65.1096 173.221 65.0575 173.274 64.9534L173.274 65.37ZM173.274 64.1724C173.274 64.641 172.909 65.0055 172.44 65.0055L172.18 65.0055L172.18 57.2993L173.274 57.2993L173.274 64.1724ZM172.44 55.3206C172.909 55.3206 173.274 55.6852 173.274 56.1538L173.274 56.9869L172.18 56.9869L172.18 55.3206L172.44 55.3206V55.3206ZM164.578 56.9869C164.109 56.9869 163.745 56.6224 163.745 56.1538C163.745 55.6852 164.109 55.3206 164.578 55.3206L171.816 55.3206L171.816 56.9869L164.995 56.9869L164.578 56.9869V56.9869ZM164.214 64.2245L164.214 58.0803C164.214 57.6638 164.578 57.2993 164.995 57.2993L171.816 57.2993L171.816 65.0055L164.995 65.0055C164.578 65.0055 164.214 64.641 164.214 64.2245ZM164.214 72.191L164.214 66.0469C164.214 65.6303 164.578 65.2659 164.995 65.2659L171.816 65.2659L171.816 72.972L164.995 72.972C164.578 72.972 164.214 72.6596 164.214 72.191ZM164.214 80.2097L164.214 74.0655C164.214 73.649 164.578 73.2845 164.995 73.2845L171.816 73.2845L171.816 80.9907L164.995 80.9907C164.578 80.9907 164.214 80.6262 164.214 80.2097ZM163.745 82.1362C163.745 81.6676 164.109 81.3031 164.578 81.3031L164.995 81.3031L171.816 81.3031L171.816 82.9693L164.578 82.9693C164.109 82.9693 163.745 82.6048 163.745 82.1362Z" fill="#8F6D4E"/>
<path d="M137.345 56.1541L137.345 56.9872L137.345 57.2996L137.345 64.1727L137.345 66.1513L137.345 72.1913L137.345 74.17L137.345 81.0431L137.345 81.3555L137.345 82.1886C137.345 82.8134 137.865 83.3341 138.49 83.3341L139.063 83.3341L146.353 83.3341C146.977 83.3341 147.498 82.8134 147.498 82.1886C147.498 81.6679 147.134 81.1993 146.613 81.0951C146.821 80.8869 146.977 80.6265 146.977 80.262L146.977 74.1179C146.977 73.7013 146.769 73.3889 146.457 73.1806C146.769 72.9724 146.977 72.66 146.977 72.2434L146.977 66.0993C146.977 65.6827 146.769 65.3703 146.457 65.162C146.769 64.9537 146.977 64.6413 146.977 64.2248L146.977 58.0806C146.977 57.7682 146.821 57.4558 146.613 57.2475C147.134 57.1434 147.498 56.6748 147.498 56.1541C147.498 55.5293 146.977 55.0085 146.353 55.0085L138.49 55.0085C137.865 55.0085 137.345 55.5293 137.345 56.1541ZM137.657 56.1541C137.657 55.6855 138.021 55.3209 138.49 55.3209L138.75 55.3209L138.75 56.9872L137.657 56.9872L137.657 56.1541ZM138.75 57.2996L138.75 65.0058L138.49 65.0058C138.021 65.0058 137.657 64.6413 137.657 64.1727L137.657 57.2996L138.75 57.2996ZM138.75 72.9724L138.49 72.9724C138.021 72.9724 137.657 72.6079 137.657 72.1393L137.657 66.0993C137.657 65.6306 138.021 65.2662 138.49 65.2662L138.75 65.2662L138.75 72.9724ZM137.657 64.9537C137.709 65.0578 137.813 65.1099 137.917 65.162C137.813 65.2141 137.709 65.2661 137.657 65.3703L137.657 64.9537ZM137.657 72.9203C137.709 73.0244 137.813 73.0765 137.917 73.1286C137.813 73.1807 137.709 73.2327 137.657 73.3368L137.657 72.9203ZM137.657 74.1179C137.657 73.6493 138.021 73.2848 138.49 73.2848L138.75 73.2848L138.75 80.991L137.657 80.991L137.657 74.1179ZM138.49 82.9696C138.021 82.9696 137.657 82.6051 137.657 82.1365L137.657 81.3034L138.75 81.3034L138.75 82.9696L138.49 82.9696ZM146.353 81.3034C146.821 81.3034 147.186 81.6679 147.186 82.1365C147.186 82.6051 146.821 82.9696 146.353 82.9696L139.115 82.9696L139.115 81.3034L145.884 81.3034L146.353 81.3034ZM146.665 74.1179L146.665 80.21C146.665 80.6265 146.3 80.991 145.884 80.991L139.063 80.991L139.063 73.2848L145.884 73.2848C146.353 73.2848 146.665 73.6493 146.665 74.1179ZM146.665 66.0993L146.665 72.2434C146.665 72.66 146.3 73.0244 145.884 73.0244L139.063 73.0244L139.063 65.3182L145.884 65.3182C146.353 65.3182 146.665 65.6306 146.665 66.0993ZM146.665 58.0806L146.665 64.2248C146.665 64.6413 146.3 65.0058 145.884 65.0058L139.063 65.0058L139.063 57.2996L145.884 57.2996C146.353 57.2996 146.665 57.6641 146.665 58.0806ZM147.186 56.1541C147.186 56.6227 146.821 56.9872 146.353 56.9872L145.936 56.9872L139.115 56.9872L139.115 55.3209L146.353 55.3209C146.821 55.3209 147.186 55.6855 147.186 56.1541Z" fill="#8F6D4E"/>
<path d="M122.037 121.084L153.903 121.084L153.903 120.563L122.037 120.563L122.037 121.084Z" fill="#8F6D4E"/>
<path d="M122.037 122.073L153.903 122.073L153.903 121.552L122.037 121.552L122.037 122.073Z" fill="#8F6D4E"/>
<path d="M68.041 121.084L99.9072 121.084L99.9072 120.563L68.041 120.563L68.041 121.084Z" fill="#8F6D4E"/>
<path d="M68.041 122.073L99.9072 122.073L99.9072 121.552L68.041 121.552L68.041 122.073Z" fill="#8F6D4E"/>
<path d="M4.04855 123.74L11.7548 123.74L11.7548 124L45.3393 124L45.3393 123.74L67.2083 123.74L67.2083 124L100.793 124L100.793 123.74L121.204 123.74L121.204 124L154.788 124L154.788 123.74L190.404 123.74L190.404 121.553L190.404 120.355L190.404 75.732L190.664 75.732L190.664 42.1475L190.404 42.1475L190.404 35.8992L190.404 32.4626L186.967 32.4626L64.9694 32.4626L64.9694 23.5067L64.5528 23.5067L64.5528 35.8992L64.9694 35.8992L111.259 35.8992L111.259 45.2196L112.821 45.2196L112.821 35.8992L186.967 35.8992L186.967 42.1475L186.707 42.1475L186.707 75.732L186.967 75.732L186.967 120.303L154.788 120.303L154.788 120.043L121.204 120.043L121.204 120.303L112.873 120.303L112.873 59.122L112.873 57.5599L111.311 57.5599L79.809 57.5599L78.247 57.5599L78.247 59.122L78.247 62.8709L76.8411 64.2768L77.9346 65.3703L79.757 63.5478L79.757 59.122L111.259 59.122L111.259 120.303L100.793 120.303L100.793 120.043L67.2083 120.043L67.2083 120.303L57.4193 120.303L57.4193 76.0444L57.7838 76.0444L67.4166 76.0444L69.239 74.222L68.1456 73.1286L66.7397 74.5344L57.7318 74.5344L51.6917 74.5344L42.6838 74.5344L41.2779 73.1286L40.1845 74.222L42.0069 76.0444L51.6397 76.0444L55.7531 76.0444L55.7531 120.303L45.2873 120.303L45.2873 120.043L11.7027 120.043L11.7027 120.303L3.9965 120.303L3.99649 56.2582L29.6665 56.2582L29.6665 63.5479L31.4889 65.3703L32.5824 64.2768L31.1765 62.8709L31.1765 47.8751L31.1765 47.7188L19.8776 47.7188L19.8776 48.1354L29.6145 48.1354L29.6145 54.6961L3.94442 54.6961L3.94441 9.29192L29.4062 9.29192L29.4062 19.185L28.6251 19.185L27.0631 19.185L27.0631 20.7471L27.0631 27.464L27.0631 29.026L28.6251 29.026L29.4062 29.026L29.4062 34.2329L29.4062 35.2743L29.4062 35.795L35.9669 35.795L35.9669 34.2329L30.9683 34.2329L30.9683 29.026L30.9683 27.464L30.9683 20.7471L30.9683 19.185L30.9683 2.15842L46.7972 2.15842L46.7972 34.2851L46.7972 35.4826L46.7972 35.8471L51.2752 35.8471L51.2752 34.2851L51.2231 34.2851C51.2752 34.2851 51.2752 34.285 51.3273 34.2329C51.3793 34.1809 51.3793 34.1288 51.3793 34.0768C51.3793 34.0247 51.3793 33.9726 51.3273 33.9205L51.2752 33.8685L51.2231 33.8685C51.171 33.8685 51.119 33.8685 51.0669 33.9205C51.0148 33.9726 51.0148 34.0247 51.0148 34.0768C51.0148 34.1288 51.0148 34.1809 51.0669 34.2329C51.0669 34.2329 51.119 34.233 51.171 34.2851L48.5155 34.2851L48.5155 2.15842L48.5155 0.59635L46.9535 0.59635L31.1245 0.596351L29.5624 0.596351L4.10061 0.596354L0.664054 0.596354L0.664054 2.15843L0.664054 7.72985L0.664054 9.29192L0.664058 54.6961L0.664058 56.2582L0.664064 120.303L0.664064 123.74L4.04855 123.74ZM187.019 42.4078L190.352 42.4078L190.352 75.5237L186.967 75.5237L186.967 42.4078L187.019 42.4078ZM154.684 123.688L121.464 123.688L121.464 120.303L154.684 120.303L154.684 123.688ZM100.689 123.688L67.4687 123.688L67.4687 120.303L100.689 120.303L100.689 123.688V123.688ZM45.1311 123.688L12.0151 123.688L12.0151 120.303L45.1311 120.303L45.1311 123.688ZM30.76 27.5161L29.4583 27.5161L28.6772 27.5161L28.6772 20.7992L29.4583 20.7992L30.76 20.7992L30.76 27.5161ZM4.04854 2.15843L29.5103 2.15842L29.5103 7.72985L4.04854 7.72985L4.04854 2.15843Z" fill="#8F6D4E"/>
<path d="M12.5878 121.084L44.4541 121.084L44.4541 120.563L12.5878 120.563L12.5878 121.084Z" fill="#8F6D4E"/>
<path d="M12.5878 122.073L44.4541 122.073L44.4541 121.552L12.5878 121.552L12.5878 122.073Z" fill="#8F6D4E"/>
<path d="M187.228 74.8469L187.749 74.8469L187.749 42.9807L187.228 42.9807L187.228 74.8469Z" fill="#8F6D4E"/>
<path d="M188.216 74.8469L188.736 74.8469L188.736 42.9807L188.216 42.9807L188.216 74.8469Z" fill="#8F6D4E"/>
<path d="M149.373 109.837C148.279 109.837 147.394 110.566 147.082 111.556C146.717 111.556 146.405 111.868 146.405 112.284C146.405 113.951 147.759 115.252 149.373 115.252C151.039 115.252 152.341 113.899 152.341 112.284C152.341 111.92 152.028 111.608 151.664 111.556C151.352 110.566 150.466 109.837 149.373 109.837ZM152.028 112.232C152.028 113.69 150.831 114.888 149.373 114.888C147.915 114.888 146.717 113.69 146.717 112.232C146.717 112.076 146.822 111.92 146.978 111.868C147.03 111.868 147.03 111.868 147.082 111.868C147.134 111.868 147.238 111.868 147.29 111.92C147.394 111.972 147.498 112.128 147.498 112.284C147.498 113.326 148.332 114.159 149.373 114.159C150.414 114.159 151.247 113.326 151.247 112.284C151.247 112.128 151.352 112.024 151.456 111.92C151.508 111.868 151.56 111.868 151.664 111.868C151.716 111.868 151.768 111.868 151.768 111.868C151.924 111.92 152.028 112.076 152.028 112.232ZM149.373 110.15C150.31 110.15 151.091 110.775 151.352 111.608C151.091 111.712 150.935 111.972 150.935 112.284C150.935 113.118 150.258 113.847 149.373 113.847C148.54 113.847 147.811 113.17 147.811 112.284C147.811 111.972 147.603 111.712 147.394 111.608C147.655 110.722 148.436 110.15 149.373 110.15Z" fill="#8F6D4E"/>
<path d="M160.985 109.837C159.892 109.837 159.007 110.566 158.694 111.556C158.33 111.556 158.017 111.868 158.017 112.284C158.017 113.951 159.371 115.252 160.985 115.252C162.651 115.252 163.953 113.899 163.953 112.284C163.953 111.92 163.641 111.608 163.276 111.556C162.964 110.566 162.027 109.837 160.985 109.837ZM163.641 112.232C163.641 113.69 162.443 114.888 160.985 114.888C159.527 114.888 158.33 113.69 158.33 112.232C158.33 112.076 158.434 111.92 158.59 111.868C158.642 111.868 158.642 111.868 158.694 111.868C158.746 111.868 158.85 111.868 158.902 111.92C159.007 111.972 159.111 112.128 159.111 112.284C159.111 113.326 159.944 114.159 160.985 114.159C162.027 114.159 162.86 113.326 162.86 112.284C162.86 112.128 162.964 112.024 163.068 111.92C163.12 111.868 163.172 111.868 163.276 111.868C163.328 111.868 163.38 111.868 163.38 111.868C163.485 111.92 163.641 112.076 163.641 112.232ZM160.985 110.15C161.922 110.15 162.703 110.775 162.964 111.608C162.703 111.712 162.547 111.972 162.547 112.284C162.547 113.118 161.87 113.847 160.985 113.847C160.152 113.847 159.423 113.17 159.423 112.284C159.423 111.972 159.215 111.712 159.007 111.608C159.267 110.722 160.048 110.15 160.985 110.15Z" fill="#8F6D4E"/>
<path d="M157.965 94.685C157.965 95.0495 158.277 95.3619 158.641 95.414C158.954 96.4033 159.839 97.1323 160.932 97.1323C162.026 97.1323 162.911 96.4033 163.223 95.414C163.588 95.414 163.9 95.1016 163.9 94.685C163.9 93.0709 162.547 91.7171 160.932 91.7171C159.318 91.7171 157.965 93.0188 157.965 94.685ZM163.64 94.685C163.64 94.8412 163.536 94.9974 163.38 95.0495C163.328 95.0495 163.328 95.0495 163.276 95.0495C163.223 95.0495 163.119 95.0495 163.067 94.9974C162.963 94.9454 162.859 94.7892 162.859 94.633C162.859 93.5916 162.026 92.7585 160.985 92.7585C159.943 92.7585 159.11 93.5916 159.11 94.633C159.11 94.7892 159.006 94.8933 158.902 94.9974C158.85 95.0495 158.798 95.0495 158.693 95.0495C158.641 95.0495 158.589 95.0495 158.589 95.0495C158.433 94.9974 158.329 94.8412 158.329 94.685C158.329 93.2271 159.527 92.0295 160.985 92.0295C162.442 92.0295 163.64 93.2271 163.64 94.685ZM160.985 96.7678C160.047 96.7678 159.266 96.143 159.006 95.3098C159.266 95.2057 159.422 94.9454 159.422 94.633C159.422 93.7999 160.099 93.0709 160.985 93.0709C161.818 93.0709 162.547 93.7478 162.547 94.633C162.547 94.9454 162.755 95.2057 162.963 95.3098C162.651 96.143 161.87 96.7678 160.985 96.7678Z" fill="#8F6D4E"/>
<path d="M149.373 91.7171C147.707 91.7171 146.405 93.0709 146.405 94.685C146.405 95.0495 146.717 95.3619 147.082 95.414C147.394 96.4033 148.279 97.1323 149.373 97.1323C150.466 97.1323 151.352 96.4033 151.664 95.414C152.028 95.414 152.341 95.1016 152.341 94.685C152.341 93.0188 150.987 91.7171 149.373 91.7171ZM151.768 95.0495C151.716 95.0495 151.716 95.0495 151.664 95.0495C151.612 95.0495 151.508 95.0495 151.456 94.9974C151.352 94.9454 151.247 94.7892 151.247 94.633C151.247 93.5916 150.414 92.7585 149.373 92.7585C148.332 92.7585 147.498 93.5916 147.498 94.633C147.498 94.7892 147.394 94.8933 147.29 94.9974C147.238 95.0495 147.186 95.0495 147.082 95.0495C147.03 95.0495 146.978 95.0495 146.978 95.0495C146.822 94.9974 146.717 94.8412 146.717 94.685C146.717 93.2271 147.915 92.0295 149.373 92.0295C150.831 92.0295 152.028 93.2271 152.028 94.685C152.028 94.8412 151.924 94.9974 151.768 95.0495ZM149.373 96.7678C148.436 96.7678 147.655 96.143 147.394 95.3098C147.655 95.2057 147.811 94.9454 147.811 94.633C147.811 93.7999 148.488 93.0709 149.373 93.0709C150.206 93.0709 150.935 93.7478 150.935 94.633C150.935 94.9454 151.143 95.2057 151.352 95.3098C151.091 96.143 150.31 96.7678 149.373 96.7678Z" fill="#8F6D4E"/>
<path d="M167.648 109.108L167.648 97.8092C167.648 97.705 167.596 97.653 167.492 97.653L143.332 97.653C143.228 97.653 143.176 97.705 143.176 97.8092L143.176 109.108C143.176 109.212 143.228 109.264 143.332 109.264L167.492 109.264C167.596 109.264 167.648 109.16 167.648 109.108ZM167.336 108.952L143.488 108.952L143.488 97.9654L167.336 97.9654L167.336 108.952Z" fill="#8F6D4E"/>
<path d="M116.362 82.1887C115.581 82.1887 115.008 82.8136 115.008 83.5425C115.008 84.3236 115.633 84.8963 116.362 84.8963C117.143 84.8963 117.716 84.2715 117.716 83.5425C117.716 82.7615 117.143 82.1887 116.362 82.1887ZM116.362 84.5839C115.789 84.5839 115.321 84.1153 115.321 83.5425C115.321 82.9698 115.789 82.5011 116.362 82.5011C116.935 82.5011 117.403 82.9698 117.403 83.5425C117.403 84.1153 116.935 84.5839 116.362 84.5839Z" fill="#8F6D4E"/>
<path d="M119.381 82.1887C118.6 82.1887 118.028 82.8136 118.028 83.5425C118.028 84.3236 118.652 84.8963 119.381 84.8963C120.162 84.8963 120.735 84.2715 120.735 83.5425C120.787 82.7615 120.162 82.1887 119.381 82.1887ZM119.381 84.5839C118.809 84.5839 118.34 84.1153 118.34 83.5425C118.34 82.9698 118.809 82.5011 119.381 82.5011C119.954 82.5011 120.423 82.9698 120.423 83.5425C120.475 84.1153 119.954 84.5839 119.381 84.5839Z" fill="#8F6D4E"/>
<path d="M119.538 65.6825L118.184 65.6826L118.861 64.485C118.913 64.4329 118.861 64.3288 118.809 64.2767C118.809 64.2767 118.757 64.2767 118.705 64.2767C118.653 64.2767 118.601 64.3288 118.548 64.3808L117.872 65.5784L117.195 64.3808C117.143 64.3288 117.091 64.2767 117.038 64.2767C116.986 64.2767 116.986 64.2767 116.934 64.2767C116.882 64.3288 116.83 64.4329 116.882 64.485L117.559 65.6826L116.205 65.6826C116.101 65.6826 116.049 65.7346 116.049 65.8388C116.049 65.9429 116.101 65.995 116.205 65.995L117.559 65.995L116.882 67.1926C116.83 67.2446 116.882 67.3488 116.934 67.4009C116.986 67.4529 117.091 67.4009 117.143 67.3488L117.819 66.1512L118.496 67.3488C118.548 67.4009 118.653 67.4529 118.705 67.4009C118.757 67.3488 118.809 67.2446 118.757 67.1926L118.08 65.995L119.434 65.995C119.538 65.995 119.59 65.9429 119.59 65.8388C119.59 65.7346 119.59 65.6825 119.538 65.6825Z" fill="#8F6D4E"/>
<path d="M113.863 86.1457L113.863 113.846C113.863 113.951 113.915 114.003 114.019 114.003L121.726 114.003C121.83 114.003 121.882 113.951 121.882 113.846L121.882 86.1457L121.882 80.7826L121.882 69.6919L121.882 61.9857C121.882 61.8816 121.83 61.8295 121.726 61.8295L114.019 61.8295C113.915 61.8295 113.863 61.8816 113.863 61.9857L113.863 69.6919L113.863 80.7826L113.863 86.1457ZM114.176 80.9388L121.569 80.9388L121.569 85.9895L114.176 85.9895L114.176 80.9388ZM114.176 69.8481L121.569 69.8481L121.569 80.6264L114.176 80.6264L114.176 69.8481ZM121.569 113.69L114.176 113.69L114.176 86.3019L121.569 86.3019L121.569 113.69ZM114.176 62.1419L121.569 62.1419L121.569 69.5357L114.176 69.5357L114.176 62.1419Z" fill="#8F6D4E"/>
<path d="M119.538 70.9937L116.258 70.9937C115.477 70.9937 114.852 71.6185 114.852 72.3995L114.852 74.6385L114.436 74.6385C114.332 74.6385 114.279 74.6906 114.279 74.7947C114.279 74.8988 114.332 74.9509 114.436 74.9509L114.852 74.9509L114.852 77.1899C114.852 77.9709 115.477 78.5958 116.258 78.5958L119.538 78.5958C120.32 78.5958 120.944 77.9709 120.944 77.1899L120.944 72.3995C120.944 71.6185 120.32 70.9937 119.538 70.9937ZM120.632 77.1899C120.632 77.8147 120.163 78.2833 119.538 78.2833L116.258 78.2833C115.633 78.2833 115.165 77.8147 115.165 77.1899L115.165 74.9509L116.727 74.9509C116.831 74.9509 116.883 74.8988 116.883 74.7947C116.883 74.6906 116.831 74.6385 116.727 74.6385L115.165 74.6385L115.165 72.3995C115.165 71.7747 115.633 71.3061 116.258 71.3061L119.538 71.3061C120.163 71.3061 120.632 71.7747 120.632 72.3995L120.632 77.1899Z" fill="#8F6D4E"/>
<path d="M117.975 74.2742C117.715 74.2742 117.455 74.4825 117.455 74.7949C117.455 75.0553 117.663 75.3156 117.975 75.3156C118.236 75.3156 118.496 75.1073 118.496 74.7949C118.496 74.5346 118.236 74.2742 117.975 74.2742ZM117.975 75.0032C117.871 75.0032 117.767 74.8991 117.767 74.7949C117.767 74.6908 117.871 74.5867 117.975 74.5867C118.08 74.5867 118.184 74.6908 118.184 74.7949C118.184 74.8991 118.08 75.0032 117.975 75.0032Z" fill="#8F6D4E"/>
<path d="M87.6722 88.0723C86.9953 88.0723 86.4746 88.593 86.4746 89.2699L86.4746 106.036C86.4746 106.713 86.9953 107.234 87.6722 107.234L91.1608 107.234C91.8377 107.234 92.3584 106.713 92.3584 106.036L92.3584 89.2699C92.3584 88.593 91.8377 88.0723 91.1608 88.0723L87.6722 88.0723ZM92.046 89.2699L92.046 106.036C92.046 106.505 91.6294 106.921 91.1608 106.921L87.6722 106.921C87.2036 106.921 86.787 106.505 86.787 106.036L86.787 89.2699C86.787 88.8013 87.2036 88.3848 87.6722 88.3848L91.1608 88.3848C91.6294 88.3848 92.046 88.7492 92.046 89.2699Z" fill="#8F6D4E"/>
<path d="M59.0858 110.93C58.5651 110.93 58.1485 111.347 58.1485 111.868L58.1485 116.345C58.1485 116.866 58.5651 117.283 59.0858 117.283L62.262 117.283C62.7827 117.283 63.1992 116.866 63.1992 116.345L63.1992 111.868C63.1992 111.347 62.7827 110.93 62.262 110.93L59.0858 110.93ZM62.8347 111.868L62.8347 116.345C62.8347 116.658 62.5744 116.97 62.2099 116.97L59.0337 116.97C58.7213 116.97 58.4089 116.71 58.4089 116.345L58.4089 111.868C58.4089 111.555 58.6692 111.243 59.0337 111.243L62.2099 111.243C62.5744 111.243 62.8347 111.555 62.8347 111.868Z" fill="#8F6D4E"/>
<path d="M59.0858 84.3232L62.262 84.3232C62.7827 84.3232 63.1992 83.9066 63.1992 83.3859L63.1992 78.908C63.1992 78.3873 62.7827 77.9707 62.262 77.9708L59.0858 77.9708C58.5651 77.9708 58.1485 78.3873 58.1485 78.908L58.1485 83.3859C58.1485 83.9066 58.5651 84.3232 59.0858 84.3232ZM58.4609 78.908C58.4609 78.5956 58.7213 78.2832 59.0858 78.2832L62.262 78.2832C62.5744 78.2832 62.8868 78.5435 62.8868 78.908L62.8868 83.3859C62.8868 83.6983 62.6265 84.0107 62.262 84.0107L59.0858 84.0107C58.7734 84.0107 58.4609 83.7504 58.4609 83.3859L58.4609 78.908Z" fill="#8F6D4E"/>
<path d="M47.9429 114.524C47.9429 116.294 49.4008 117.752 51.1711 117.752C52.9415 117.752 54.3994 116.294 54.3994 114.524C54.3994 112.753 52.9415 111.295 51.1711 111.295C49.4008 111.295 47.9429 112.753 47.9429 114.524ZM54.087 114.524C54.087 116.138 52.7853 117.439 51.1711 117.439C49.557 117.439 48.2553 116.138 48.2553 114.524C48.2553 112.909 49.557 111.608 51.1711 111.608C52.7853 111.608 54.087 112.909 54.087 114.524Z" fill="#8F6D4E"/>
<path d="M54.3994 80.8866C54.3994 79.1163 52.9415 77.6584 51.1711 77.6584C49.4008 77.6584 47.9429 79.1163 47.9429 80.8866C47.9429 82.657 49.4008 84.1149 51.1711 84.1149C52.9415 84.1149 54.3994 82.7091 54.3994 80.8866ZM48.2553 80.8866C48.2553 79.2725 49.557 77.9708 51.1711 77.9708C52.7853 77.9708 54.087 79.2725 54.087 80.8866C54.087 82.5008 52.7853 83.8025 51.1711 83.8025C49.557 83.8025 48.2553 82.5008 48.2553 80.8866Z" fill="#8F6D4E"/>
<path d="M179.521 115.877C179.521 117.648 180.979 119.106 182.749 119.106C184.52 119.106 185.978 117.648 185.978 115.877C185.978 114.107 184.52 112.649 182.749 112.649C180.979 112.649 179.521 114.107 179.521 115.877ZM185.665 115.877C185.665 117.492 184.363 118.793 182.749 118.793C181.135 118.793 179.833 117.492 179.833 115.877C179.833 114.263 181.135 112.962 182.749 112.962C184.363 112.962 185.665 114.263 185.665 115.877Z" fill="#8F6D4E"/>
<path d="M158.329 61.9858L152.55 61.9858C152.029 61.9858 151.612 62.4023 151.612 62.923L151.612 75.3675C151.612 75.8882 152.029 76.3047 152.55 76.3047L158.329 76.3047C158.85 76.3047 159.267 75.8882 159.267 75.3675L159.267 62.923C159.267 62.4023 158.85 61.9858 158.329 61.9858ZM158.954 75.3675C158.954 75.732 158.694 75.9923 158.329 75.9923L152.55 75.9923C152.185 75.9923 151.925 75.732 151.925 75.3675L151.925 62.923C151.925 62.5585 152.185 62.2982 152.55 62.2982L158.329 62.2982C158.694 62.2982 158.954 62.5585 158.954 62.923L158.954 75.3675V75.3675Z" fill="#8F6D4E"/>
<path d="M183.063 100.829C182.906 100.725 182.698 100.673 182.49 100.673C182.229 100.673 181.969 100.777 181.761 100.933C181.657 100.829 181.5 100.777 181.396 100.673C180.876 100.361 180.407 100.204 179.938 100.204C178.533 100.204 177.647 101.662 176.762 103.068C176.137 104.11 175.617 104.995 175.46 105.828C175.304 106.817 175.721 107.65 176.71 108.223C176.814 108.327 176.97 108.379 177.127 108.431C177.075 108.587 177.075 108.796 177.127 108.952C177.179 109.212 177.335 109.473 177.595 109.577C178.428 110.098 179.366 110.358 180.303 110.358C182.125 110.358 183.791 109.421 184.729 107.911C185.458 106.713 185.666 105.359 185.354 104.005C185.093 102.704 184.26 101.558 183.063 100.829ZM180.355 110.15C179.47 110.15 178.585 109.941 177.804 109.421C177.543 109.264 177.387 108.952 177.491 108.64C177.491 108.587 177.543 108.535 177.543 108.483C177.543 108.431 177.543 108.431 177.595 108.379L177.647 108.327C177.804 108.119 178.012 108.015 178.22 108.015C178.376 108.015 178.48 108.067 178.585 108.119C179.157 108.483 179.73 108.64 180.355 108.64C181.5 108.64 182.594 108.067 183.271 107.025C184.26 105.411 183.739 103.329 182.177 102.339C181.865 102.131 181.761 101.714 181.917 101.402C181.917 101.402 181.917 101.35 181.969 101.35C181.969 101.298 182.021 101.298 182.021 101.298C182.073 101.246 182.073 101.194 182.125 101.194C182.281 101.09 182.438 101.037 182.594 101.037C182.75 101.037 182.854 101.09 182.958 101.142C185.249 102.547 185.978 105.567 184.573 107.859C183.583 109.316 181.969 110.15 180.355 110.15ZM179.99 100.569C180.355 100.569 180.771 100.673 181.292 100.985C181.396 101.037 181.5 101.142 181.657 101.246C181.344 101.714 181.5 102.391 182.021 102.652C183.479 103.537 183.948 105.463 183.01 106.921C182.438 107.859 181.448 108.379 180.355 108.379C179.782 108.379 179.209 108.223 178.741 107.911C178.585 107.806 178.376 107.754 178.168 107.754C177.804 107.754 177.491 107.911 177.283 108.223C177.179 108.171 177.023 108.067 176.918 108.015C174.992 106.817 175.877 105.203 177.075 103.276C178.012 101.766 178.793 100.569 179.99 100.569Z" fill="#8F6D4E"/>
</svg>
