<svg width="40" height="48" viewBox="0 0 40 48" fill="none" xmlns="http://www.w3.org/2000/svg">
	<path d="M7.18123 31.3152H6.01855V36.4416H7.18123C7.74791 36.4416 8.20712 36.2496 8.53932 35.8752C8.87151 35.4912 9.04738 35.0112 9.04738 34.416V33.3408C9.04738 32.7552 8.88128 32.2656 8.53932 31.8912C8.20712 31.5072 7.75769 31.3152 7.18123 31.3152Z" fill="#8F6D4F"/>
	<path d="M14.4896 36.5186C15.0367 36.5186 15.4666 36.3266 15.7793 35.9522C16.0919 35.5778 16.2483 35.0978 16.2483 34.5026V33.2354C16.2483 32.6498 16.0919 32.1698 15.7695 31.7954C15.4569 31.421 15.027 31.229 14.4798 31.229C13.9522 31.229 13.5419 31.421 13.239 31.7954C12.9361 32.1698 12.7896 32.6498 12.7896 33.2354V34.5026C12.7896 35.0882 12.9459 35.5778 13.2488 35.9522C13.5516 36.3362 13.962 36.5186 14.4896 36.5186Z" fill="#8F6D4F"/>
	<path d="M39.7362 10.7712L28.8422 0.2304C28.6957 0.0864 28.4905 0 28.2755 0H8.17782C5.13923 0 2.67709 2.5536 2.67709 5.7024V26.7456H0V41.0112H2.67709V42.2976C2.67709 45.4368 5.149 48 8.17782 48H34.4993C37.5379 48 40 45.4464 40 42.2976V11.3952C40 11.1648 39.9121 10.9344 39.7362 10.7712ZM28.002 1.7664L37.4792 10.944H32.3205C29.9365 10.944 28.002 9.072 28.002 6.7776V1.7664ZM38.339 42.2976C38.339 44.496 36.6194 46.2816 34.4993 46.2816H8.17782C6.05764 46.2816 4.33806 44.496 4.33806 42.2976V41.0112H22.6087C26.1749 41.0112 29.0572 37.8144 29.0572 33.8784C29.0572 29.9424 26.1651 26.7456 22.6087 26.7456H4.33806V5.7024C4.33806 3.504 6.05764 1.7184 8.17782 1.7184H26.341V6.7776C26.341 10.0224 29.0181 12.6624 32.3205 12.6624H38.339V42.2976ZM4.82657 37.3824V30.384H7.18124C8.08012 30.384 8.82267 30.6624 9.38935 31.2192C9.95603 31.776 10.2394 32.4864 10.2394 33.36V34.4256C10.2394 35.2992 9.95603 36.0096 9.38935 36.5664C8.82267 37.1136 8.08989 37.392 7.18124 37.392H4.82657V37.3824ZM11.6072 34.512V33.2544C11.6072 32.4 11.871 31.6896 12.4084 31.1328C12.9458 30.5664 13.6395 30.288 14.4895 30.288C15.3591 30.288 16.0723 30.5664 16.6194 31.1328C17.1666 31.6992 17.4402 32.4096 17.4402 33.2544V34.512C17.4402 35.3664 17.1666 36.0768 16.6194 36.6432C16.0723 37.2096 15.3591 37.488 14.4895 37.488C13.6395 37.488 12.9458 37.2096 12.4084 36.6432C11.871 36.0768 11.6072 35.3664 11.6072 34.512ZM20.4006 35.9808C20.6839 36.3552 21.0747 36.5472 21.573 36.5472C22.0616 36.5472 22.4328 36.4224 22.6771 36.1728C22.9311 35.9232 23.0581 35.5584 23.0581 35.088H24.2013L24.211 35.1168C24.2208 35.8176 23.9863 36.3936 23.5076 36.8256C23.0288 37.2576 22.384 37.4784 21.5633 37.4784C20.7328 37.4784 20.0586 37.2 19.5506 36.6528C19.0327 36.1056 18.7787 35.4048 18.7787 34.5408V33.216C18.7787 32.3616 19.0327 31.6608 19.5408 31.104C20.0489 30.5472 20.7132 30.2784 21.534 30.2784C22.3742 30.2784 23.0288 30.4896 23.5173 30.912C23.9961 31.3344 24.2306 31.9104 24.2208 32.64L24.211 32.6688H23.0581C23.0581 32.1984 22.9311 31.8432 22.6673 31.5936C22.4133 31.344 22.0322 31.2192 21.534 31.2192C21.0552 31.2192 20.6644 31.4112 20.3908 31.7856C20.1075 32.16 19.9707 32.64 19.9707 33.2064V34.5504C19.9707 35.1264 20.1172 35.6064 20.4006 35.9808Z" fill="#8F6D4F"/>
</svg>
