<svg width="40" height="60" viewBox="0 0 40 60" fill="none" xmlns="http://www.w3.org/2000/svg">
	<path d="M20 60C18.3626 60 16.9591 59.1892 16.1404 57.7992C10.1754 46.9112 0 27.6834 0 19.807C0 8.91892 9.00585 0 20 0C30.9942 0 40 8.91892 40 19.807C40 27.6834 29.8246 46.9112 23.8596 57.7992C23.0409 59.1892 21.6374 60 20 60Z" fill="#2A3C83"/>
	<path d="M20 60C18.3626 60 16.9591 59.1892 16.1404 57.7992C10.1754 46.9112 0 27.6834 0 19.807C0 8.91892 9.00585 0 20 0C30.9942 0 40 8.91892 40 19.807C40 27.6834 29.8246 46.9112 23.8596 57.7992C23.0409 59.1892 21.6374 60 20 60ZM20 1.73745C9.94152 1.73745 1.75439 9.84556 1.75439 19.807C1.75439 27.5676 12.8655 48.3012 17.6608 56.8726C18.1287 57.6834 19.0643 58.2626 20 58.2626C20.9357 58.2626 21.8713 57.7992 22.3392 56.8726C27.1345 48.3012 38.2456 27.5676 38.2456 19.807C38.2456 9.84556 30.0585 1.73745 20 1.73745Z" fill="#6F5C4D"/>
	<path d="M26.7836 14.363H23.7426L19.9999 20.0387L16.2572 14.363H13.2163L18.7134 22.587V28.1468H21.2865V22.587L26.7836 14.363Z" fill="white"/>
	<path d="M20.0001 33.4749C12.3978 33.4749 6.31592 27.4517 6.31592 19.9227C6.31592 12.3938 12.3978 6.37061 20.0001 6.37061C27.4855 6.37061 33.6843 12.3938 33.6843 19.9227C33.6843 27.3359 27.6025 33.4749 20.0001 33.4749ZM20.0001 8.10806C13.4504 8.10806 8.0703 13.4362 8.0703 19.9227C8.0703 26.4092 13.4504 31.7374 20.0001 31.7374C26.5498 31.7374 31.93 26.4092 31.93 19.9227C31.93 13.4362 26.5498 8.10806 20.0001 8.10806Z" fill="#6F5C4D"/>
</svg>
