<svg width="40" height="48" viewBox="0 0 40 48" fill="none" xmlns="http://www.w3.org/2000/svg">
	<path d="M39.7362 10.7712L28.8422 0.2304C28.6957 0.0864 28.4905 0 28.2755 0H8.17782C5.13923 0 2.67709 2.5536 2.67709 5.7024V26.7456H0V41.0112H2.67709V42.2976C2.67709 45.4368 5.149 48 8.17782 48H34.4993C37.5379 48 40 45.4464 40 42.2976V11.3952C40 11.1648 39.9121 10.9344 39.7362 10.7712ZM28.002 1.7664L37.4792 10.944H32.3205C29.9365 10.944 28.002 9.072 28.002 6.7776V1.7664ZM38.339 42.2976C38.339 44.496 36.6194 46.2816 34.4993 46.2816H8.17782C6.05764 46.2816 4.33806 44.496 4.33806 42.2976V41.0112H22.6087C26.1749 41.0112 29.0572 37.8144 29.0572 33.8784C29.0572 29.9424 26.1651 26.7456 22.6087 26.7456H4.33806V5.7024C4.33806 3.504 6.05764 1.7184 8.17782 1.7184H26.341V6.7776C26.341 10.0224 29.0181 12.6624 32.3205 12.6624H38.339V42.2976ZM5.13923 37.4784V30.2784H7.94333C8.75427 30.2784 9.38935 30.48 9.83879 30.8928C10.2882 31.3056 10.5227 31.8432 10.5227 32.5152C10.5227 33.1872 10.298 33.7344 9.83879 34.1376C9.37958 34.5408 8.7445 34.752 7.94333 34.752H6.36053V37.4784H5.13923ZM12.0078 37.4784V30.2784H14.4309C15.3591 30.2784 16.1114 30.5664 16.6976 31.1328C17.2838 31.6992 17.5672 32.4384 17.5672 33.3312V34.4256C17.5672 35.328 17.2741 36.0576 16.6976 36.624C16.1114 37.1904 15.3591 37.4784 14.4309 37.4784H12.0078ZM23.4001 33.4464V34.4064H20.4494V37.4784H19.2184V30.2784H23.9082V31.2384H20.4397V33.4368H23.4001V33.4464Z" fill="#8F6D4F"/>
	<path d="M8.96905 33.4277C9.19377 33.1877 9.31101 32.8901 9.31101 32.5253C9.31101 32.1605 9.19377 31.8533 8.96905 31.6133C8.74433 31.3733 8.40236 31.2485 7.94316 31.2485H6.36035V33.7925H7.94316C8.40236 33.7829 8.73456 33.6677 8.96905 33.4277Z" fill="#8F6D4F"/>
	<path d="M14.4308 31.2485H13.229V36.5285H14.4308C15.017 36.5285 15.486 36.3365 15.8279 35.9429C16.1699 35.5493 16.3458 35.0501 16.3458 34.4357V33.3317C16.3458 32.7269 16.1699 32.2277 15.8279 31.8341C15.486 31.4405 15.017 31.2485 14.4308 31.2485Z" fill="#8F6D4F"/>
</svg>
