<?xml version="1.0" encoding="UTF-8"?><!DOCTYPE svg PUBLIC "-//W3C//DTD SVG 1.1//EN" "http://www.w3.org/Graphics/SVG/1.1/DTD/svg11.dtd"><svg xmlns="http://www.w3.org/2000/svg" xmlns:xlink="http://www.w3.org/1999/xlink"><symbol id="icon-arrow_down" viewBox="0 0 17 11">
    <path fill-rule="evenodd" clip-rule="evenodd" d="M1.503 1.123L.475 2.136l8.03 7.912 1.03-1.013-8.032-7.912z"/>
    <path fill-rule="evenodd" clip-rule="evenodd" d="M9.473 9.08L7.44 9.054l8.03-7.912L16.5 2.156 9.473 9.079z"/>
</symbol><symbol id="icon-arrow_left" viewBox="0 0 29 29">
    <path d="M16.263 2.121L14.142 0 0 14.142l14.142 14.142 2.121-2.121-12.02-12.02L16.262 2.12z"/>
</symbol><symbol id="icon-arrow_long_left" viewBox="0 0 26 15">
    <path d="M0 7.5l2.167-1.177 7.119 6.77-1.548 1.765L0 7.5z"/>
    <path d="M2.167 8.677L0 7.5 7.738.142l1.548 1.766-7.12 6.77z"/>
    <path d="M1.857 8.677V6.323H26v2.354H1.857z"/>
</symbol><symbol id="icon-arrow_long_right" viewBox="0 0 26 15">
    <path d="M26 7.5l-2.167 1.177-7.119-6.77L18.262.143 26 7.5z"/>
    <path d="M23.833 6.323L26 7.5l-7.738 7.358-1.548-1.766 7.12-6.77z"/>
    <path d="M24.143 6.323v2.354H0V6.323h24.143z"/>
</symbol><symbol id="icon-arrow_right" viewBox="0 0 30 29">
    <path d="M12.879 26.163L15 28.284l14.142-14.142L15 0l-2.121 2.121 12.02 12.021-12.02 12.021z"/>
</symbol><symbol id="icon-facebook" viewBox="0 0 10 19">
    <path d="M9.766.157v2.946H8.014c-.64 0-1.071.134-1.295.402-.223.268-.335.67-.335 1.205v2.11h3.27l-.435 3.303H6.384v8.471H2.97v-8.47H.123V6.82H2.97V4.387c0-1.384.387-2.457 1.161-3.22C4.904.404 5.934.023 7.222.023c1.093 0 1.941.045 2.544.134z" fill-rule="evenodd"/>
</symbol><symbol id="icon-gallery" viewBox="0 0 19 18">
    <path fill-rule="evenodd" clip-rule="evenodd" d="M18.1 2.228l-4.431.019-.86-1.69C12.531 0 12.252 0 11.974 0H6.962c-.279 0-.557 0-.836.557l-.836 1.69H.622A.622.622 0 000 2.878v13.551c0 .557.278.836.835.836H18.1c.557 0 .835-.279.835-.836V3.063c0-.557-.278-.835-.835-.835zm-.278 13.923H1.114V3.34h5.01c.002 0 .981-1.958 1.116-2.227h4.455c.148.295 1.132 2.228 1.132 2.228h4.995V16.15zM9.468 4.455a5.015 5.015 0 00-5.013 5.013 5.015 5.015 0 005.013 5.012 5.015 5.015 0 005.012-5.012 5.015 5.015 0 00-5.012-5.013zm0 8.82A3.804 3.804 0 015.66 9.467 3.804 3.804 0 019.468 5.66a3.804 3.804 0 013.806 3.807 3.82 3.82 0 01-3.806 3.806zm6.63-7.706H14.51c-.328 0-.586-.235-.586-.557 0-.321.281-.557.61-.557h1.565c.328 0 .61.236.61.557 0 .322-.282.557-.61.557z"/>
    <path fill-rule="evenodd" clip-rule="evenodd" d="M18.1 2.228l-4.431.019-.86-1.69C12.531 0 12.252 0 11.974 0H6.962c-.279 0-.557 0-.836.557l-.836 1.69H.622A.622.622 0 000 2.878v13.551c0 .557.278.836.835.836H18.1c.557 0 .835-.279.835-.836V3.063c0-.557-.278-.835-.835-.835zm-.278 13.923H1.114V3.34h5.01c.002 0 .981-1.958 1.116-2.227h4.455c.148.295 1.132 2.228 1.132 2.228h4.995V16.15zM9.468 4.455a5.015 5.015 0 00-5.013 5.013 5.015 5.015 0 005.013 5.012 5.015 5.015 0 005.012-5.012 5.015 5.015 0 00-5.012-5.013zm0 8.82A3.804 3.804 0 015.66 9.467 3.804 3.804 0 019.468 5.66a3.804 3.804 0 013.806 3.807 3.82 3.82 0 01-3.806 3.806zm6.63-7.706H14.51c-.328 0-.586-.235-.586-.557 0-.321.281-.557.61-.557h1.565c.328 0 .61.236.61.557 0 .322-.282.557-.61.557z"/>
</symbol><symbol id="icon-message" viewBox="0 0 24 21">
    <path d="M11.5 14H1V1h22v13h-5v4.527l-5.909-4.333-.264-.194H11.5z"/>
</symbol><symbol id="icon-pin" viewBox="0 0 20 30">
    <path d="M9.9 30c-.9 0-1.7-.502-2.1-1.304C4.9 23.378 0 13.946 0 10.033 0 4.515 4.5 0 10 0s10 4.515 10 10.033c0 3.914-4.9 13.345-7.8 18.663-.6.802-1.4 1.304-2.3 1.304zm0-28.395c-4.7 0-8.5 3.813-8.5 8.529 0 2.608 2.8 9.13 7.6 17.96.3.602 1.3.602 1.7 0 4.8-8.83 7.6-15.352 7.6-17.96.1-4.716-3.7-8.529-8.4-8.529z"/>
    <path d="M9.9 15.15c-2.7 0-5-2.207-5-5.016 0-2.71 2.2-5.017 5-5.017 2.7 0 5 2.207 5 5.017 0 2.809-2.2 5.016-5 5.016zm0-8.528c-1.9 0-3.5 1.605-3.5 3.512 0 1.906 1.6 3.511 3.5 3.511s3.5-1.605 3.5-3.511c0-1.907-1.6-3.512-3.5-3.512z"/>
</symbol></svg>