<svg width="20" height="30" viewBox="0 0 20 30" fill="none" xmlns="http://www.w3.org/2000/svg">
    <path d="M10 29.8C9.1 29.8 8.3 29.3 7.9 28.5C4.9 23.3 0 13.8 0 10C0 4.5 4.5 0 10 0C15.5 0 20 4.5 20 10C20 13.9 15.1 23.3 12.2 28.6C11.7 29.3 10.9 29.8 10 29.8ZM10 1.5C5.3 1.5 1.5 5.3 1.5 10C1.5 12.6 4.3 19.1 9.1 27.9C9.4 28.5 10.4 28.5 10.8 27.9C15.6 19.1 18.4 12.6 18.4 10C18.4 5.3 14.6 1.5 10 1.5Z" fill="#85674F"/>
    <path d="M10 15C7.3 15 5 12.8 5 10C5 7.3 7.2 5 10 5C12.7 5 15 7.2 15 10C14.9 12.7 12.7 15 10 15ZM10 6.5C8 6.5 6.5 8.1 6.5 10C6.5 11.9 8.1 13.5 10 13.5C11.9 13.5 13.5 11.9 13.5 10C13.4 8.1 11.9 6.5 10 6.5Z" fill="#85674F"/>
</svg>
