<svg width="395" height="179" viewBox="0 0 395 179" fill="none" xmlns="http://www.w3.org/2000/svg">
	<path d="M387.419 0.607666H18.1684H1.30708V8.58085V43.872H0V135.106H1.30708V178.501H3.52912H18.1684H265.207H269.912H387.288H395V170.528V73.2814H387.288V73.4121C387.027 73.4121 386.765 73.5428 386.765 73.8042C386.765 74.0656 386.896 74.327 387.158 74.327V82.4309H380.753H373.041H336.181V53.9366H335.397V87.1364H335.789H373.041V117.199H365.591V124.911V170.528H269.651V87.1364H304.55V82.4309H269.651H264.945V87.1364V170.528H17.907V135.106H19.2141V43.872H17.907V8.58085H387.158V36.1603H354.219V36.9445H387.158H394.869V8.58085V0.607666H387.419ZM373.564 124.78H381.014V121.643V117.069V87.0057H387.419V170.398H373.564V124.78ZM18.0377 71.3208H16.7306V47.0091H14.2472V71.3208H12.0251V47.0091H9.54169V71.3208H1.43779V44.2642H17.907V71.3208H18.0377ZM1.43779 134.583V106.481H9.54169V130.924H12.0251V106.612H14.2472V130.924H16.7306V106.612H18.0377V134.714H1.43779V134.583Z" fill="#8F6D4E"/>
	<path d="M347.686 25.3113H364.678C365.593 25.3113 366.246 24.6577 366.246 23.8735C366.246 23.3507 365.985 22.8278 365.462 22.6971L356.574 17.9916V16.946V16.8152L355.92 16.5538C355.397 16.4231 354.874 16.1617 354.613 15.9003C354.352 15.6389 354.221 15.3775 354.221 14.9853C354.221 14.2011 354.874 13.5475 355.659 13.5475C356.051 13.5475 356.443 13.6783 356.835 14.0704C356.966 14.2011 357.227 14.4625 357.227 14.8546C357.227 15.116 357.358 15.2468 357.619 15.2468C357.881 15.2468 358.011 15.116 358.011 14.8546C357.881 13.6783 356.835 12.7633 355.659 12.7633C354.352 12.7633 353.306 13.809 353.306 15.116C353.306 16.2924 354.221 17.0767 355.659 17.4688V18.1223L346.771 22.8278C346.248 23.0892 345.986 23.4814 345.986 24.0042C346.117 24.6577 346.901 25.3113 347.686 25.3113ZM347.293 23.3507L356.182 18.6452L365.07 23.3507C365.331 23.4814 365.462 23.6121 365.462 23.8735C365.462 24.1349 365.07 24.3963 364.678 24.3963H347.816C347.424 24.3963 347.032 24.1349 347.032 23.8735C347.032 23.6121 347.163 23.4814 347.293 23.3507Z" fill="#8F6D4E"/>
	<path d="M265.991 28.3179C266.906 28.3179 267.69 27.6644 267.69 26.7494C267.69 26.2266 267.298 25.7038 266.775 25.4423L257.103 20.3447V19.1684V19.0376L256.45 18.7762C255.796 18.6455 255.404 18.3841 255.012 17.992C254.75 17.7306 254.62 17.3384 254.62 17.077C254.62 16.1621 255.404 15.3778 256.319 15.3778C256.842 15.3778 257.234 15.5085 257.495 15.9006C257.626 16.0314 257.887 16.4235 257.887 16.8156C257.887 17.077 258.149 17.3384 258.41 17.3384C258.672 17.3384 258.933 17.077 258.933 16.8156C258.802 15.5085 257.626 14.5936 256.319 14.5936C254.881 14.5936 253.705 15.7699 253.705 17.2077C253.705 18.3841 254.75 19.4298 256.319 19.8219V20.4754L246.646 25.573C246.124 25.8345 245.731 26.3573 245.731 26.8801C245.731 27.7951 246.516 28.4486 247.431 28.4486H265.991V28.3179ZM247.431 27.403C247.039 27.403 246.646 27.1416 246.646 26.7494C246.646 26.488 246.777 26.3573 247.039 26.2266L256.842 21.129L266.645 26.2266C266.906 26.3573 267.037 26.488 267.037 26.7494C267.037 27.1416 266.645 27.403 266.253 27.403H247.431Z" fill="#8F6D4E"/>
	<path d="M311.347 25.4423L301.674 20.3447V19.1684V19.0376L301.021 18.7762C300.367 18.6455 299.975 18.3841 299.583 17.992C299.322 17.7306 299.191 17.3384 299.191 17.077C299.191 16.1621 299.975 15.3778 300.89 15.3778C301.413 15.3778 301.805 15.5085 302.066 15.9006C302.197 16.0314 302.459 16.4235 302.459 16.8156C302.459 17.077 302.72 17.3384 302.981 17.3384C303.243 17.3384 303.504 17.077 303.504 16.8156C303.374 15.5085 302.197 14.5936 300.89 14.5936C299.452 14.5936 298.276 15.7699 298.276 17.2077C298.276 18.3841 299.322 19.4298 300.89 19.8219V20.4754L291.218 25.573C290.695 25.8345 290.303 26.3573 290.303 26.8801C290.303 27.7951 291.087 28.4486 292.002 28.4486H310.562C311.477 28.4486 312.262 27.7951 312.262 26.8801C312.262 26.2266 311.87 25.7038 311.347 25.4423ZM310.562 27.403H292.002C291.61 27.403 291.218 27.1416 291.218 26.7494C291.218 26.488 291.348 26.3573 291.61 26.2266L301.413 21.129L311.216 26.2266C311.477 26.3573 311.608 26.488 311.608 26.7494C311.347 27.1416 310.955 27.403 310.562 27.403Z" fill="#8F6D4E"/>
	<path d="M220.244 28.3179C221.159 28.3179 221.943 27.6644 221.943 26.7494C221.943 26.2266 221.551 25.7038 221.028 25.4423L211.356 20.3447V19.1684V19.0376L210.702 18.7762C210.049 18.6455 209.657 18.3841 209.265 17.992C209.003 17.7306 208.873 17.3384 208.873 17.077C208.873 16.1621 209.657 15.3778 210.572 15.3778C211.095 15.3778 211.487 15.5085 211.748 15.9006C211.879 16.0314 212.14 16.4235 212.14 16.8156C212.14 17.077 212.402 17.3384 212.663 17.3384C212.924 17.3384 213.186 17.077 213.186 16.8156C213.055 15.5085 211.879 14.5936 210.572 14.5936C209.134 14.5936 207.958 15.7699 207.958 17.2077C207.958 18.3841 209.003 19.4298 210.572 19.8219V20.4754L200.899 25.573C200.376 25.8345 199.984 26.3573 199.984 26.8801C199.984 27.7951 200.769 28.4486 201.684 28.4486H220.244V28.3179ZM201.684 27.403C201.291 27.403 200.899 27.1416 200.899 26.7494C200.899 26.488 201.03 26.3573 201.291 26.2266L211.095 21.129L220.898 26.2266C221.159 26.3573 221.29 26.488 221.29 26.7494C221.29 27.1416 220.898 27.403 220.506 27.403H201.684Z" fill="#8F6D4E"/>
	<path d="M303.896 81.7779C303.896 82.0393 304.027 82.3007 304.419 82.3007C304.681 82.3007 304.942 82.17 304.942 81.9086C304.942 81.6472 304.811 81.3857 304.419 81.3857C304.027 81.3857 303.896 81.5164 303.896 81.7779Z" fill="#8F6D4E"/>
	<path d="M305.071 79.9478C305.071 79.6863 304.941 79.4249 304.679 79.4249C304.418 79.4249 304.156 79.5556 304.156 79.817C304.156 80.0785 304.287 80.3399 304.548 80.3399C304.81 80.3399 305.071 80.2092 305.071 79.9478Z" fill="#8F6D4E"/>
	<path d="M305.334 77.9875C305.334 77.7261 305.203 77.4647 304.942 77.4647C304.68 77.4647 304.419 77.5954 304.419 77.8568C304.419 78.1182 304.55 78.3797 304.811 78.3797C304.811 78.3797 304.811 78.3797 304.942 78.3797C305.072 78.3797 305.334 78.249 305.334 77.9875Z" fill="#8F6D4E"/>
	<path d="M308.863 66.7458C308.732 67.0072 308.732 67.2686 308.994 67.3993C309.125 67.3993 309.125 67.53 309.255 67.53C309.386 67.53 309.517 67.3993 309.647 67.2686C309.778 67.0072 309.778 66.7458 309.517 66.6151C309.386 66.4844 309.125 66.4844 308.863 66.7458Z" fill="#8F6D4E"/>
	<path d="M306.381 74.1958C306.512 73.9344 306.381 73.673 306.12 73.5423C305.858 73.4116 305.597 73.5423 305.466 73.8037C305.336 74.0651 305.466 74.3266 305.728 74.4573H305.858C306.12 74.588 306.251 74.4573 306.381 74.1958Z" fill="#8F6D4E"/>
	<path d="M307.426 70.9282C307.556 70.9282 307.818 70.7974 307.818 70.6667C307.949 70.4053 307.818 70.1439 307.556 70.0132C307.295 69.8825 307.034 70.0132 306.903 70.2746C306.772 70.536 306.903 70.7975 307.164 70.9282C307.164 70.9282 307.295 70.9282 307.426 70.9282Z" fill="#8F6D4E"/>
	<path d="M305.855 76.1574C305.855 75.896 305.724 75.6346 305.463 75.5039C305.201 75.5039 304.94 75.6346 304.809 75.896C304.678 76.1574 304.94 76.4188 305.201 76.5496H305.332C305.593 76.4188 305.724 76.2882 305.855 76.1574Z" fill="#8F6D4E"/>
	<path d="M310.039 65.0459C309.908 65.3074 309.908 65.5688 310.17 65.6995C310.3 65.6995 310.3 65.8302 310.431 65.8302C310.562 65.8302 310.693 65.8302 310.823 65.5688C310.954 65.3073 310.954 65.0459 310.693 64.9152C310.562 64.7845 310.3 64.9152 310.039 65.0459Z" fill="#8F6D4E"/>
	<path d="M308.08 69.0986C308.211 69.0986 308.211 69.2294 308.342 69.2294C308.472 69.2294 308.734 69.0986 308.734 68.9679C308.865 68.7065 308.734 68.4451 308.472 68.3144C308.211 68.1837 307.95 68.3144 307.819 68.4451C307.688 68.7065 307.819 68.9679 308.08 69.0986Z" fill="#8F6D4E"/>
	<path d="M306.512 72.7583C306.642 72.7583 306.904 72.6276 306.904 72.4969C307.034 72.2355 306.904 71.9741 306.642 71.8434C306.381 71.7127 306.119 71.8434 305.989 72.1048C305.858 72.3662 305.989 72.6276 306.25 72.7583C306.381 72.7583 306.512 72.7583 306.512 72.7583Z" fill="#8F6D4E"/>
	<path d="M328.076 54.1981C328.076 54.4595 328.337 54.5902 328.599 54.5902C328.599 54.5902 328.599 54.5902 328.73 54.5902C328.991 54.5902 329.122 54.3288 329.122 54.0674C329.122 53.8059 328.86 53.6752 328.599 53.6752C328.207 53.6752 327.945 53.9367 328.076 54.1981Z" fill="#8F6D4E"/>
	<path d="M322.719 55.3742C322.458 55.5049 322.327 55.7663 322.458 56.0277C322.588 56.1584 322.719 56.2891 322.98 56.2891H323.111C323.372 56.1584 323.503 55.897 323.372 55.6356C323.242 55.3742 322.98 55.2434 322.719 55.3742Z" fill="#8F6D4E"/>
	<path d="M324.547 54.5898C324.286 54.7205 324.155 54.9819 324.286 55.2433C324.286 55.374 324.547 55.5047 324.808 55.5047H324.939C325.201 55.374 325.331 55.1126 325.201 54.8512C325.07 54.7205 324.808 54.4591 324.547 54.5898Z" fill="#8F6D4E"/>
	<path d="M326.508 54.0676C326.247 54.1983 326.116 54.4598 326.116 54.7212C326.247 54.9826 326.378 55.1133 326.639 55.1133H326.77C327.031 54.9826 327.162 54.7212 327.162 54.4598C327.031 54.0676 326.77 53.9369 326.508 54.0676Z" fill="#8F6D4E"/>
	<path d="M334.483 53.0214C334.221 53.0214 333.96 53.2829 333.96 53.5443C333.96 53.8057 334.221 54.0671 334.483 54.0671C334.744 54.0671 335.006 53.8057 335.006 53.5443C334.875 53.1521 334.744 53.0214 334.483 53.0214Z" fill="#8F6D4E"/>
	<path d="M311.345 63.4784C311.214 63.7398 311.214 64.0012 311.345 64.1319C311.476 64.2627 311.607 64.2627 311.607 64.2627C311.737 64.2627 311.868 64.2627 311.999 64.1319C312.129 63.8705 312.129 63.6091 311.999 63.4784C311.868 63.3477 311.476 63.3477 311.345 63.4784Z" fill="#8F6D4E"/>
	<path d="M330.562 54.1983C330.823 54.1983 330.954 53.9369 330.954 53.6755C330.954 53.4141 330.693 53.2834 330.431 53.2834C330.17 53.2834 330.039 53.5448 330.039 53.8062C330.039 54.0676 330.3 54.1983 330.562 54.1983Z" fill="#8F6D4E"/>
	<path d="M332.523 54.0671C332.785 54.0671 333.046 53.8057 332.916 53.5443C332.916 53.2829 332.654 53.0214 332.393 53.0214C332.131 53.0214 331.87 53.2829 332.001 53.5443C332.001 53.8057 332.262 54.0671 332.523 54.0671Z" fill="#8F6D4E"/>
	<path d="M312.785 62.0403C312.654 62.3017 312.654 62.5632 312.785 62.6939C312.915 62.8246 313.046 62.8246 313.177 62.8246C313.307 62.8246 313.438 62.8246 313.569 62.6939C313.83 62.4325 313.699 62.171 313.569 62.0403C313.177 61.7789 312.915 61.9096 312.785 62.0403Z" fill="#8F6D4E"/>
	<path d="M315.792 59.4263C315.53 59.557 315.53 59.9491 315.661 60.0798C315.792 60.2105 315.922 60.2105 316.053 60.2105C316.184 60.2105 316.315 60.2105 316.315 60.0798C316.576 59.9491 316.576 59.557 316.445 59.4263C316.315 59.2956 315.922 59.1648 315.792 59.4263Z" fill="#8F6D4E"/>
	<path d="M320.889 56.1586C320.627 56.2893 320.497 56.5508 320.627 56.8122C320.758 56.9429 320.889 57.0736 321.02 57.0736C321.02 57.0736 321.15 57.0736 321.281 57.0736C321.542 56.9429 321.673 56.6815 321.542 56.4201C321.412 56.1586 321.15 56.0279 320.889 56.1586Z" fill="#8F6D4E"/>
	<path d="M314.22 60.6024C313.959 60.7331 313.959 61.1253 314.22 61.256C314.351 61.3867 314.482 61.3867 314.613 61.3867C314.743 61.3867 314.874 61.3867 314.874 61.256C315.135 61.1253 315.135 60.7331 314.874 60.6024C314.743 60.4717 314.351 60.4717 314.22 60.6024Z" fill="#8F6D4E"/>
	<path d="M317.359 58.2503C317.098 58.381 317.098 58.7732 317.228 58.9039C317.359 59.0346 317.49 59.1653 317.621 59.1653C317.751 59.1653 317.751 59.1653 317.882 59.0346C318.143 58.9039 318.143 58.5118 318.013 58.3811C317.882 58.1196 317.621 57.9889 317.359 58.2503Z" fill="#8F6D4E"/>
	<path d="M319.058 57.0737C318.797 57.2044 318.797 57.4659 318.928 57.7273C319.058 57.858 319.189 57.9887 319.32 57.9887C319.45 57.9887 319.45 57.9887 319.581 57.9887C319.843 57.858 319.843 57.5966 319.712 57.3352C319.581 57.0737 319.32 56.943 319.058 57.0737Z" fill="#8F6D4E"/>
	<path d="M358.532 54.852C358.662 54.9827 358.793 55.1134 358.924 55.1134C358.924 55.1134 359.055 55.1134 359.185 55.1134C359.447 54.9827 359.447 54.7213 359.447 54.4599C359.316 54.1985 359.055 54.1985 358.793 54.1985C358.532 54.3292 358.401 54.5906 358.532 54.852Z" fill="#8F6D4E"/>
	<path d="M384.936 73.4118C384.936 73.6732 385.066 73.9346 385.328 73.9346C385.328 73.9346 385.328 73.9346 385.458 73.9346C385.72 73.9346 385.85 73.804 385.981 73.5425C385.981 73.2811 385.851 73.0197 385.589 73.0197C385.197 72.889 384.936 73.1504 384.936 73.4118Z" fill="#8F6D4E"/>
	<path d="M358.139 53.2832C358.139 53.2832 358.269 53.2832 358.4 53.2832C358.662 53.1525 358.792 52.8911 358.662 52.6297C358.531 52.3682 358.269 52.2375 358.008 52.3682C357.747 52.4989 357.616 52.7604 357.747 53.0218C357.747 53.1525 357.877 53.2832 358.139 53.2832Z" fill="#8F6D4E"/>
	<path d="M382.975 73.0199C382.844 73.2813 383.106 73.5428 383.367 73.5428H383.498C383.759 73.5428 383.89 73.412 384.021 73.1506C384.021 72.8892 383.89 72.6278 383.629 72.6278C383.367 72.4971 383.106 72.7585 382.975 73.0199Z" fill="#8F6D4E"/>
	<path d="M356.573 49.6234H356.704C356.965 49.4927 357.096 49.2313 356.965 48.9699C356.835 48.7084 356.573 48.5777 356.312 48.7084C356.05 48.8392 355.92 49.1006 356.05 49.362C356.181 49.4927 356.442 49.6234 356.573 49.6234Z" fill="#8F6D4E"/>
	<path d="M354.872 41.9114C355.134 41.9114 355.395 41.6499 355.395 41.3885C355.395 41.1271 355.134 40.9964 354.872 40.9964C354.611 40.9964 354.349 41.2578 354.48 41.5192C354.48 41.7807 354.741 41.9114 354.872 41.9114Z" fill="#8F6D4E"/>
	<path d="M354.741 39.9506C355.002 39.9506 355.263 39.6891 355.263 39.4277C355.263 39.1663 355.002 38.9049 354.741 38.9049C354.479 38.9049 354.218 39.1663 354.218 39.4277C354.348 39.6891 354.479 39.9506 354.741 39.9506Z" fill="#8F6D4E"/>
	<path d="M381.145 72.4975C381.014 72.759 381.276 73.0204 381.537 73.1511H381.668C381.929 73.1511 382.06 73.0204 382.191 72.7589C382.321 72.4975 382.06 72.2361 381.799 72.1054C381.407 72.1054 381.145 72.2361 381.145 72.4975Z" fill="#8F6D4E"/>
	<path d="M357.355 51.453H357.486C357.747 51.3223 357.878 51.0609 357.747 50.7994C357.617 50.538 357.355 50.4073 357.094 50.538C356.833 50.6687 356.702 50.9302 356.833 51.1916C356.963 51.3223 357.094 51.453 357.355 51.453Z" fill="#8F6D4E"/>
	<path d="M356.048 47.7933C356.048 47.7933 356.179 47.7933 356.048 47.7933C356.44 47.6626 356.571 47.4011 356.571 47.1397C356.571 46.8783 356.179 46.7476 355.917 46.7476C355.656 46.8783 355.525 47.1397 355.525 47.4012C355.656 47.5319 355.787 47.7933 356.048 47.7933Z" fill="#8F6D4E"/>
	<path d="M355.132 43.8722C355.525 43.8722 355.655 43.6108 355.655 43.3493C355.655 43.0879 355.394 42.9572 355.132 42.9572C354.871 42.9572 354.74 43.2186 354.74 43.4801C354.74 43.7415 355.002 43.8722 355.132 43.8722Z" fill="#8F6D4E"/>
	<path d="M355.527 45.8331C355.658 45.8331 355.658 45.8331 355.527 45.8331C355.919 45.7024 356.05 45.5717 356.05 45.1796C356.05 44.9182 355.788 44.7875 355.527 44.7875C355.265 44.7875 355.135 45.0489 355.135 45.3103C355.135 45.7024 355.396 45.8331 355.527 45.8331Z" fill="#8F6D4E"/>
	<path d="M354.741 37.9904C355.002 37.9904 355.263 37.7289 355.263 37.4675C355.263 37.2061 355.002 36.9447 354.741 36.9447C354.479 36.9447 354.218 37.2061 354.218 37.4675C354.218 37.7289 354.479 37.9904 354.741 37.9904Z" fill="#8F6D4E"/>
	<path d="M364.413 62.3016C364.151 62.4323 364.151 62.8244 364.413 62.9551C364.544 63.0858 364.674 63.0858 364.805 63.0858C364.936 63.0858 365.066 63.0858 365.197 62.9551C365.328 62.8244 365.459 62.4323 365.197 62.3016C364.936 62.0402 364.674 62.0402 364.413 62.3016Z" fill="#8F6D4E"/>
	<path d="M379.184 71.8436C379.053 72.105 379.184 72.3664 379.445 72.4971H379.576C379.838 72.4971 379.968 72.3664 380.099 72.2357C380.23 71.9743 380.099 71.7129 379.838 71.5822C379.576 71.4515 379.315 71.5822 379.184 71.8436Z" fill="#8F6D4E"/>
	<path d="M363.108 60.7338C362.847 60.8645 362.847 61.2566 363.108 61.3873C363.239 61.518 363.37 61.518 363.5 61.518C363.631 61.518 363.762 61.518 363.762 61.3873C364.023 61.2566 364.023 60.8645 363.762 60.7338C363.631 60.6031 363.37 60.6031 363.108 60.7338Z" fill="#8F6D4E"/>
	<path d="M365.853 63.609C365.722 63.8704 365.722 64.1318 365.853 64.2626C365.984 64.3933 366.114 64.3933 366.245 64.3933C366.376 64.3933 366.506 64.3933 366.637 64.2626C366.768 64.1318 366.768 63.7397 366.637 63.609C366.376 63.4783 365.984 63.4783 365.853 63.609Z" fill="#8F6D4E"/>
	<path d="M360.755 57.596C360.493 57.7267 360.493 58.1188 360.624 58.2495C360.755 58.3802 360.885 58.511 361.016 58.511C361.147 58.511 361.147 58.5109 361.277 58.3802C361.539 58.2495 361.539 57.8574 361.408 57.7267C361.277 57.4653 361.016 57.4653 360.755 57.596Z" fill="#8F6D4E"/>
	<path d="M359.707 55.8969C359.445 56.0276 359.445 56.289 359.576 56.5504C359.707 56.6811 359.837 56.8119 359.968 56.8119C360.099 56.8119 360.099 56.8119 360.23 56.8119C360.491 56.6811 360.491 56.4197 360.36 56.1583C360.23 55.7662 359.968 55.7662 359.707 55.8969Z" fill="#8F6D4E"/>
	<path d="M367.289 65.0469C367.159 65.3083 367.159 65.5697 367.289 65.7004C367.42 65.8311 367.551 65.8311 367.551 65.8311C367.682 65.8311 367.812 65.8311 367.943 65.7004C368.074 65.439 368.074 65.1776 367.943 65.0469C367.812 64.7855 367.42 64.7855 367.289 65.0469Z" fill="#8F6D4E"/>
	<path d="M361.933 59.1649C361.672 59.2956 361.672 59.6877 361.803 59.8184C361.933 59.9492 362.064 60.0799 362.195 60.0799C362.326 60.0799 362.456 60.0798 362.456 59.9491C362.718 59.8184 362.718 59.4263 362.587 59.2956C362.456 59.0342 362.064 59.0342 361.933 59.1649Z" fill="#8F6D4E"/>
	<path d="M375.523 70.406C375.392 70.6674 375.523 70.9288 375.784 71.0595C375.784 71.0595 375.915 71.0595 376.046 71.0595C376.177 71.0595 376.438 70.9288 376.438 70.7981C376.569 70.5367 376.438 70.2752 376.176 70.1445C375.915 70.0138 375.654 70.1445 375.523 70.406Z" fill="#8F6D4E"/>
	<path d="M377.354 71.1897C377.223 71.4511 377.354 71.7125 377.615 71.8432H377.746C377.877 71.8432 378.138 71.7125 378.269 71.5818C378.4 71.3204 378.269 71.059 378.008 70.9283C377.746 70.7976 377.485 70.9283 377.354 71.1897Z" fill="#8F6D4E"/>
	<path d="M373.825 69.4908C373.694 69.7523 373.825 70.0137 373.955 70.1444C374.086 70.1444 374.086 70.1444 374.217 70.1444C374.347 70.1444 374.609 70.0137 374.609 69.883C374.74 69.6216 374.609 69.3601 374.347 69.2294C374.217 69.2294 373.955 69.2294 373.825 69.4908Z" fill="#8F6D4E"/>
	<path d="M370.426 67.3997C370.295 67.6611 370.295 67.9225 370.556 68.0532C370.687 68.0532 370.687 68.1839 370.818 68.1839C370.949 68.1839 371.079 68.0532 371.21 67.9225C371.341 67.6611 371.341 67.3997 371.079 67.269C370.818 67.1383 370.556 67.1382 370.426 67.3997Z" fill="#8F6D4E"/>
	<path d="M372.125 68.5766C371.994 68.838 371.994 69.0994 372.256 69.2301C372.386 69.2301 372.386 69.3608 372.517 69.3608C372.648 69.3608 372.778 69.2301 372.909 69.0994C373.04 68.838 372.909 68.5765 372.778 68.4458C372.517 68.1844 372.256 68.3151 372.125 68.5766Z" fill="#8F6D4E"/>
	<path d="M368.858 66.223C368.728 66.4844 368.728 66.7458 368.989 66.8765C369.12 67.0073 369.25 67.0073 369.25 67.0073C369.381 67.0073 369.512 67.0072 369.643 66.7458C369.773 66.4844 369.773 66.223 369.512 66.0923C369.25 65.9616 368.989 66.0923 368.858 66.223Z" fill="#8F6D4E"/>
	<path d="M133.323 60.6028C133.323 59.5571 132.669 58.5114 131.754 58.1193C132.669 57.5965 133.323 56.6815 133.323 55.5052V42.565C133.323 40.2123 131.493 38.3824 129.14 38.3824H117.769C115.416 38.3824 113.586 40.2123 113.586 42.565V55.5052C113.586 56.5508 114.239 57.5965 115.154 58.1193C114.239 58.6422 113.586 59.5571 113.586 60.6028C113.586 62.1713 114.893 63.4783 116.462 63.4783H130.317C132.016 63.4783 133.323 62.1713 133.323 60.6028ZM114.37 55.5052V42.565C114.37 40.7351 115.939 39.1666 117.769 39.1666H129.14C130.97 39.1666 132.539 40.7351 132.539 42.565V55.5052C132.539 56.6815 131.493 57.7272 130.317 57.7272H116.592C115.285 57.5965 114.37 56.6815 114.37 55.5052ZM114.37 60.6028C114.37 59.4264 115.285 58.5114 116.462 58.5114H130.186C131.362 58.5114 132.277 59.4264 132.277 60.6028C132.277 61.7791 131.362 62.6941 130.186 62.6941H116.462C115.285 62.6941 114.37 61.7791 114.37 60.6028Z" fill="#8F6D4E"/>
	<path d="M106.919 42.8255V53.4129C106.919 54.9814 108.226 56.2885 109.795 56.2885C111.363 56.2885 112.67 54.9814 112.67 53.4129V42.8255C112.67 41.257 111.363 39.95 109.795 39.95C108.226 39.95 106.919 41.257 106.919 42.8255ZM111.886 42.8255V53.4129C111.886 54.5893 110.971 55.5042 109.795 55.5042C108.618 55.5042 107.703 54.5893 107.703 53.4129V42.8255C107.703 41.6492 108.618 40.7342 109.795 40.7342C110.971 40.7342 111.886 41.6492 111.886 42.8255Z" fill="#8F6D4E"/>
	<path d="M134.238 42.8255V53.4129C134.238 54.9814 135.545 56.2885 137.114 56.2885C138.682 56.2885 139.989 54.9814 139.989 53.4129V42.8255C139.989 41.257 138.682 39.95 137.114 39.95C135.415 39.95 134.238 41.257 134.238 42.8255ZM139.074 42.8255V53.4129C139.074 54.5893 138.16 55.5042 136.983 55.5042C135.807 55.5042 134.892 54.5893 134.892 53.4129V42.8255C134.892 41.6492 135.807 40.7342 136.983 40.7342C138.16 40.7342 139.074 41.6492 139.074 42.8255Z" fill="#8F6D4E"/>
	<path d="M56.5953 23.7435H60.778C62.4772 23.7435 63.915 22.6978 64.5685 21.2601H78.8157V17.6002H64.6992C64.0457 16.1624 62.6079 15.1168 60.9087 15.1168H56.726C55.0268 15.1168 53.5891 16.1624 52.9355 17.6002H38.5576V21.2601H52.8048C53.4583 22.6978 54.8961 23.7435 56.5953 23.7435ZM39.3419 20.4758V18.3845H52.4127H52.8048H53.1969H64.0457H64.4378H64.8299H77.9008V20.4758H64.8299H64.4378H64.0457H53.1969H52.8048H52.4127H39.3419ZM63.7843 17.6002H53.7198C54.3733 16.5546 55.419 15.901 56.726 15.901H60.9087C62.0851 16.0317 63.1307 16.6853 63.7843 17.6002ZM60.778 22.9592H56.5953C55.2883 22.9592 54.2426 22.3057 53.5891 21.2601H63.6536C63.1307 22.3057 62.0851 22.9592 60.778 22.9592Z" fill="#8F6D4E"/>
	<path d="M116.724 18.5146V19.1682H117.509H129.272H130.057V18.5146H138.03H138.814V17.7304V16.2926V15.5083H138.03H130.057V14.8548H129.403H117.639H116.855V15.5083H108.882H108.098V16.2926V17.7304V18.5146H108.882H116.724ZM108.751 16.1619H116.724H117.509H129.272H130.057H138.03V17.5997H130.057H129.403H117.639H116.855H108.882V16.1619H108.751Z" fill="#8F6D4E"/>
	<path d="M112.67 31.1932H134.237V24.5271H112.67V31.1932ZM113.454 29.2326H133.453V30.409H113.454V29.2326ZM113.454 27.272H133.453V28.4483H113.454V27.272ZM133.453 26.4877H113.454V25.3113H133.453V26.4877Z" fill="#8F6D4E"/>
	<path d="M370.819 27.5339V27.2725H384.805H385.589V26.4882V10.6725H323.764H322.98H235.144H234.36H189.396V32.5008V32.8929H201.944V33.2851H222.727V32.8929H234.36H235.144H251.483V33.2851H303.635V32.8929H323.764V32.5008V32.1087V27.2725H338.796V27.5339H370.819ZM190.181 32.1087V11.4568H234.36V32.1087H215.538V32.5008H208.349V32.1087H190.181ZM235.144 32.1087V11.4568H277.886V32.5008H257.888V32.1087H235.144ZM296.446 32.1087V32.5008H278.67V11.4568H322.98V27.2725V32.1087H296.446ZM323.764 26.4882V11.4568H384.805V26.4882H363.238V26.7496H345.985V26.4882H323.764Z" fill="#8F6D4E"/>
	<path d="M143.909 11.457H24.5723V33.6774H143.909V11.457ZM143.125 32.8932H25.3565V12.2413H143.125V32.8932Z" fill="#8F6D4E"/>
	<path d="M361.669 111.187H363.76C364.414 111.187 364.937 110.664 364.937 110.01V97.5931C364.937 96.9396 364.414 96.4167 363.76 96.4167H361.669H352.258C348.206 96.4167 344.938 99.6845 344.938 103.736C344.938 107.788 348.206 111.056 352.258 111.056H361.669V111.187ZM364.022 97.7238V110.141C364.022 110.403 363.891 110.533 363.63 110.533H362.061V97.4624H363.76C363.891 97.3317 364.022 97.4624 364.022 97.7238ZM345.592 103.867C345.592 100.207 348.598 97.3317 352.127 97.3317H361.146V110.402H352.127C348.598 110.402 345.592 107.527 345.592 103.867Z" fill="#8F6D4E"/>
	<path d="M370.295 111.187C370.948 111.187 371.471 110.664 371.471 110.01V97.5931C371.471 96.9396 370.948 96.4167 370.295 96.4167H367.158C366.504 96.4167 365.981 96.9396 365.981 97.5931V110.01C365.981 110.664 366.504 111.187 367.158 111.187H370.295ZM366.896 110.141V97.7238C366.896 97.4624 367.027 97.3317 367.289 97.3317H370.426C370.687 97.3317 370.818 97.4624 370.818 97.7238V110.141C370.818 110.403 370.687 110.533 370.426 110.533H367.289C367.027 110.403 366.896 110.272 366.896 110.141Z" fill="#8F6D4E"/>
	<path d="M368.728 105.174C369.512 105.174 370.035 104.52 370.035 103.867C370.035 103.083 369.382 102.56 368.728 102.56C367.944 102.56 367.421 103.213 367.421 103.867C367.421 104.651 368.074 105.174 368.728 105.174ZM368.728 103.344C368.989 103.344 369.251 103.606 369.251 103.867C369.251 104.128 368.989 104.39 368.728 104.39C368.467 104.39 368.205 104.128 368.205 103.867C368.205 103.606 368.467 103.344 368.728 103.344Z" fill="#8F6D4E"/>
	<path d="M272.264 89.2278C272.003 89.2278 271.872 89.3585 271.872 89.62V144.256V168.306C271.872 168.568 272.003 168.698 272.264 168.698H296.314C296.576 168.698 296.707 168.568 296.707 168.306V144.256V89.62C296.707 89.3585 296.576 89.2278 296.314 89.2278H272.264ZM272.656 90.0121H295.922V143.864H272.656V90.0121ZM296.053 168.045H272.787V144.779H296.053V168.045Z" fill="#8F6D4E"/>
	<path d="M286.645 102.69H276.45C275.404 102.69 274.62 103.475 274.62 104.52V116.546H274.097C273.836 116.546 273.705 116.676 273.705 116.938C273.705 117.199 273.836 117.33 274.097 117.33H274.62V129.355C274.62 130.401 275.404 131.185 276.45 131.185H286.645C289.129 131.185 291.22 129.094 291.22 126.61V107.265C291.22 104.782 289.129 102.69 286.645 102.69ZM290.436 126.61C290.436 128.701 288.737 130.401 286.645 130.401H276.45C275.927 130.401 275.404 129.878 275.404 129.355V117.33H279.979C280.24 117.33 280.371 117.199 280.371 116.938C280.371 116.676 280.24 116.546 279.979 116.546H275.404V104.52C275.404 103.998 275.927 103.475 276.45 103.475H286.645C288.737 103.475 290.436 105.174 290.436 107.265V126.61Z" fill="#8F6D4E"/>
	<path d="M329.908 142.818V167.391C329.908 167.653 330.039 167.784 330.3 167.784H362.324C362.585 167.784 362.716 167.653 362.716 167.391V135.368C362.716 135.107 362.585 134.976 362.324 134.976H337.751C333.437 134.976 329.908 138.374 329.908 142.818ZM361.932 166.869H330.692V142.688C330.692 138.766 333.829 135.629 337.751 135.629H361.932V166.869Z" fill="#8F6D4E"/>
	<path d="M356.963 162.033C357.616 162.033 358.139 161.51 358.139 160.856C358.139 160.203 357.616 159.68 356.963 159.68C356.309 159.68 355.786 160.203 355.786 160.856C355.656 161.51 356.309 162.033 356.963 162.033ZM356.963 160.464C357.224 160.464 357.355 160.595 357.355 160.856C357.355 161.118 357.224 161.248 356.963 161.248C356.701 161.248 356.571 161.118 356.571 160.856C356.44 160.595 356.701 160.464 356.963 160.464Z" fill="#8F6D4E"/>
	<path d="M357.094 156.411C357.356 156.411 357.486 156.281 357.486 156.019V145.955C357.486 145.693 357.356 145.563 357.094 145.563C356.833 145.563 356.702 145.693 356.702 145.955V156.019C356.702 156.281 356.833 156.411 357.094 156.411Z" fill="#8F6D4E"/>
	<path d="M342.324 161.378H352.388C352.65 161.378 352.78 161.248 352.78 160.986C352.78 160.725 352.65 160.594 352.388 160.594H342.324C342.062 160.594 341.932 160.725 341.932 160.986C341.932 161.117 342.062 161.378 342.324 161.378Z" fill="#8F6D4E"/>
	<path d="M353.435 157.588C353.566 157.719 353.566 157.719 353.696 157.719C353.827 157.719 353.958 157.719 353.958 157.588C354.088 157.457 354.088 157.196 353.958 157.065L346.246 149.353C346.115 149.223 345.854 149.223 345.723 149.353C345.592 149.484 345.592 149.745 345.723 149.876L353.435 157.588Z" fill="#8F6D4E"/>
	<path d="M284.42 163.209C288.21 163.209 291.217 160.072 291.217 156.412C291.217 152.621 288.08 149.615 284.42 149.615C280.629 149.615 277.623 152.752 277.623 156.412C277.492 160.072 280.629 163.209 284.42 163.209ZM284.42 150.269C287.818 150.269 290.432 153.013 290.432 156.281C290.432 159.68 287.688 162.294 284.42 162.294C281.022 162.294 278.407 159.549 278.407 156.281C278.277 153.013 281.022 150.269 284.42 150.269Z" fill="#8F6D4E"/>
	<path d="M276.71 165.822C277.495 165.822 278.017 165.169 278.017 164.515C278.017 163.862 277.364 163.208 276.71 163.208C275.926 163.208 275.403 163.862 275.403 164.515C275.403 165.169 275.926 165.822 276.71 165.822ZM276.71 163.862C276.972 163.862 277.233 164.123 277.233 164.385C277.233 164.646 276.972 164.907 276.71 164.907C276.449 164.907 276.188 164.646 276.188 164.385C276.188 164.123 276.318 163.862 276.71 163.862Z" fill="#8F6D4E"/>
	<path d="M51.8902 168.568H120.251C120.512 168.568 120.643 168.437 120.643 168.176V164.516V137.459V86.0909C120.643 85.8295 120.512 85.6987 120.251 85.6987H51.8902C51.6288 85.6987 51.498 85.8295 51.498 86.0909V119.552V164.646V168.306C51.498 168.437 51.7595 168.568 51.8902 168.568ZM52.2823 120.467L69.5358 137.721C69.6665 137.851 69.6665 137.851 69.7972 137.851H119.858V164.254H52.2823V120.467ZM52.9358 119.814H67.4444C68.6208 119.814 69.6665 120.729 69.6665 122.036V136.544L52.9358 119.814ZM52.2823 86.483H119.858V137.067H70.1893V122.036C70.1893 120.467 68.8822 119.029 67.183 119.029H52.2823V86.483ZM119.989 167.783H52.2823V164.908H119.858V167.783H119.989Z" fill="#8F6D4E"/>
	<path d="M113.454 144.256H90.4493C89.1422 144.256 87.9658 145.433 87.9658 146.74V158.111C87.9658 159.549 89.1422 160.595 90.4493 160.595H113.585C114.892 160.595 116.068 159.418 116.068 158.111V146.74C115.937 145.433 114.892 144.256 113.454 144.256ZM115.153 158.111C115.153 159.026 114.369 159.811 113.454 159.811H90.4493C89.5343 159.811 88.7501 159.026 88.7501 158.111V146.74C88.7501 145.825 89.5343 145.041 90.4493 145.041H113.585C114.5 145.041 115.284 145.825 115.284 146.74V158.111H115.153Z" fill="#8F6D4E"/>
	<path d="M81.823 144.256H58.8184C57.5113 144.256 56.335 145.433 56.335 146.74V158.111C56.335 159.549 57.5113 160.595 58.8184 160.595H81.9538C83.2608 160.595 84.4372 159.418 84.4372 158.111V146.74C84.4372 145.433 83.2608 144.256 81.823 144.256ZM83.653 158.111C83.653 159.026 82.8687 159.811 81.9538 159.811H58.8184C57.9035 159.811 57.1192 159.026 57.1192 158.111V146.74C57.1192 145.825 57.9035 145.041 58.8184 145.041H81.9538C82.8687 145.041 83.653 145.825 83.653 146.74V158.111Z" fill="#8F6D4E"/>
	<path d="M136.589 164.908C141.948 164.908 146.392 160.464 146.392 155.105C146.392 149.746 141.948 145.302 136.589 145.302C131.23 145.302 126.786 149.746 126.786 155.105C126.786 160.464 131.23 164.908 136.589 164.908ZM136.589 146.217C141.556 146.217 145.608 150.269 145.608 155.236C145.608 160.203 141.556 164.255 136.589 164.255C131.622 164.255 127.57 160.203 127.57 155.236C127.57 150.138 131.622 146.217 136.589 146.217Z" fill="#8F6D4E"/>
	<path d="M26.0117 155.105C26.0117 160.464 30.4558 164.908 35.8148 164.908C41.1739 164.908 45.6179 160.464 45.6179 155.105C45.6179 149.746 41.1739 145.302 35.8148 145.302C30.3251 145.433 26.0117 149.746 26.0117 155.105ZM44.703 155.105C44.703 160.072 40.651 164.124 35.6841 164.124C30.7172 164.124 26.6653 160.072 26.6653 155.105C26.6653 150.138 30.7172 146.086 35.6841 146.086C40.7817 146.217 44.703 150.138 44.703 155.105Z" fill="#8F6D4E"/>
	<path d="M236.19 111.84C241.811 111.84 246.386 107.266 246.386 101.645C246.386 96.0248 241.811 91.45 236.19 91.45C235.014 91.45 234.099 92.3649 233.968 93.5413C230.439 94.4562 227.694 97.724 227.694 101.645C227.694 105.566 230.309 108.834 233.968 109.749C233.968 110.925 235.014 111.84 236.19 111.84ZM236.19 92.1035C241.419 92.1035 245.601 96.2862 245.601 101.514C245.601 106.743 241.419 110.925 236.19 110.925C235.537 110.925 234.883 110.403 234.753 109.749C234.753 109.618 234.753 109.618 234.753 109.488C234.753 109.357 234.753 109.096 234.883 108.965C235.145 108.442 235.537 108.05 236.19 108.05C239.85 108.05 242.726 105.044 242.726 101.514C242.726 97.8547 239.719 94.9791 236.19 94.9791C235.537 94.9791 235.014 94.5869 234.883 94.0641C234.883 93.9334 234.753 93.672 234.753 93.5413C234.753 93.4106 234.753 93.4106 234.753 93.2799C234.883 92.6264 235.537 92.1035 236.19 92.1035ZM228.609 101.645C228.609 98.1161 230.962 95.2405 234.099 94.3255C234.36 95.2405 235.275 95.8941 236.19 95.8941C239.458 95.8941 241.942 98.5082 241.942 101.645C241.942 104.913 239.327 107.396 236.19 107.396C235.275 107.396 234.36 108.05 234.099 108.965C230.962 108.05 228.609 105.044 228.609 101.645Z" fill="#8F6D4E"/>
	<path d="M185.082 109.749C188.611 108.834 191.356 105.566 191.356 101.645C191.356 97.724 188.742 94.4562 185.082 93.5413C185.082 92.3649 184.037 91.45 182.86 91.45C177.24 91.45 172.665 96.0248 172.665 101.645C172.665 107.266 177.24 111.84 182.86 111.84C184.167 111.84 185.082 110.925 185.082 109.749ZM182.86 92.1035C183.514 92.1035 184.167 92.6264 184.298 93.2799C184.298 93.4106 184.298 93.4106 184.298 93.5413C184.298 93.672 184.298 93.9334 184.167 94.0641C183.906 94.5869 183.514 94.9791 182.86 94.9791C179.2 94.9791 176.325 97.9854 176.325 101.514C176.325 105.174 179.331 108.05 182.86 108.05C183.514 108.05 184.037 108.442 184.167 108.965C184.167 109.096 184.298 109.357 184.298 109.488C184.298 109.618 184.298 109.618 184.298 109.749C184.167 110.403 183.645 110.925 182.86 110.925C177.632 110.925 173.449 106.743 173.449 101.514C173.449 96.4169 177.763 92.1035 182.86 92.1035ZM190.572 101.645C190.572 105.174 188.219 108.05 185.082 108.965C184.821 108.05 183.906 107.396 182.991 107.396C179.723 107.396 177.24 104.782 177.24 101.645C177.24 98.3775 179.854 95.8941 182.991 95.8941C183.906 95.8941 184.821 95.2405 185.082 94.3255C188.219 95.1098 190.572 98.1161 190.572 101.645Z" fill="#8F6D4E"/>
	<path d="M225.602 101.645C225.602 93.4106 218.936 86.7444 210.702 86.7444C202.467 86.7444 195.801 93.4106 195.801 101.645C195.801 109.88 202.467 116.546 210.702 116.546C218.936 116.415 225.602 109.749 225.602 101.645ZM196.585 101.645C196.585 93.9334 202.859 87.5287 210.702 87.5287C218.413 87.5287 224.818 93.8027 224.818 101.645C224.818 109.357 218.544 115.762 210.702 115.762C202.99 115.631 196.585 109.357 196.585 101.645Z" fill="#8F6D4E"/>
	<path d="M156.327 145.302V168.306C156.327 168.568 156.458 168.698 156.719 168.698H239.327H262.331C262.593 168.698 262.724 168.568 262.724 168.306V145.302C262.724 145.04 262.593 144.909 262.331 144.909H239.327H156.719C156.458 144.909 156.327 145.171 156.327 145.302ZM261.939 168.045H239.719V145.824H261.939V168.045ZM238.935 168.045H204.428V145.824H238.935V168.045ZM203.643 168.045H189.266V145.824H203.643V168.045ZM157.111 145.694H188.481V167.914H157.111V145.694Z" fill="#8F6D4E"/>
	<path d="M244.293 164.908H250.437V166.084C250.437 166.346 250.567 166.476 250.829 166.476C251.09 166.476 251.221 166.346 251.221 166.084V164.908H257.364C259.455 164.908 261.155 163.209 261.155 161.117V152.098C261.155 150.007 259.455 148.308 257.364 148.308H244.163C242.071 148.308 240.372 150.007 240.372 152.098V161.117C240.503 163.209 242.202 164.908 244.293 164.908ZM241.287 151.968C241.287 150.269 242.594 148.961 244.293 148.961H257.495C259.194 148.961 260.501 150.269 260.501 151.968V160.987C260.501 162.686 259.194 163.993 257.495 163.993H251.352V159.68C251.352 159.418 251.221 159.287 250.959 159.287C250.698 159.287 250.567 159.418 250.567 159.68V163.993H244.424C242.725 163.993 241.418 162.686 241.418 160.987V151.968H241.287Z" fill="#8F6D4E"/>
	<path d="M250.828 157.718C251.612 157.718 252.135 157.065 252.135 156.411C252.135 155.627 251.481 155.104 250.828 155.104C250.043 155.104 249.521 155.758 249.521 156.411C249.521 157.065 250.043 157.718 250.828 157.718ZM250.828 155.758C251.089 155.758 251.35 156.019 251.35 156.281C251.35 156.542 251.089 156.803 250.828 156.803C250.566 156.803 250.305 156.542 250.305 156.281C250.305 156.019 250.566 155.758 250.828 155.758Z" fill="#8F6D4E"/>
	<path d="M196.716 164.777C198.808 164.777 200.507 163.078 200.507 160.986C200.507 158.895 198.808 157.196 196.716 157.196C194.625 157.196 192.926 158.895 192.926 160.986C192.926 163.078 194.625 164.777 196.716 164.777ZM196.716 158.111C198.416 158.111 199.723 159.418 199.723 161.117C199.723 162.816 198.416 164.123 196.716 164.123C195.017 164.123 193.71 162.816 193.71 161.117C193.71 159.418 195.017 158.111 196.716 158.111Z" fill="#8F6D4E"/>
	<path d="M196.716 156.411C198.808 156.411 200.507 154.712 200.507 152.621C200.507 150.53 198.808 148.83 196.716 148.83C194.625 148.83 192.926 150.53 192.926 152.621C192.926 154.712 194.625 156.411 196.716 156.411ZM196.716 149.615C198.416 149.615 199.723 150.922 199.723 152.621C199.723 154.32 198.416 155.627 196.716 155.627C195.017 155.627 193.71 154.32 193.71 152.621C193.71 151.052 195.017 149.615 196.716 149.615Z" fill="#8F6D4E"/>
</svg>
