<svg width="191" height="130" viewBox="0 0 191 130" fill="none" xmlns="http://www.w3.org/2000/svg">
<path d="M155.304 19.4274C154.749 19.4274 154.249 19.8715 154.249 20.4821V27.3094C154.249 27.8645 154.693 28.3085 155.248 28.3085H155.97H156.303H162.242H163.963H169.236H170.957H176.896H177.229H177.95C178.505 28.3085 178.95 27.8645 178.95 27.3094V26.7543V20.4821C178.95 19.927 178.506 19.4274 177.895 19.4274C177.451 19.4274 177.062 19.7605 176.896 20.149C176.729 19.9825 176.452 19.8715 176.174 19.8715H170.846C170.513 19.8715 170.179 20.038 170.013 20.3156C169.846 20.038 169.513 19.8715 169.18 19.8715H163.852C163.519 19.8715 163.186 20.038 163.019 20.3156C162.853 20.038 162.52 19.8715 162.186 19.8715H156.969C156.691 19.8715 156.469 19.9825 156.247 20.149C156.136 19.7605 155.748 19.4274 155.304 19.4274ZM154.582 20.4821C154.582 20.0935 154.915 19.7605 155.304 19.7605C155.692 19.7605 156.025 20.0935 156.025 20.4821V20.8706V26.7543H154.638V20.4821H154.582ZM155.304 27.9755C154.915 27.9755 154.638 27.6424 154.638 27.3094V27.0874H156.025V27.9755H155.304ZM156.303 27.9755V27.0874H162.908V27.3094C162.908 27.698 162.575 27.9755 162.242 27.9755H156.303ZM163.019 27.9755C163.075 27.92 163.075 27.8645 163.13 27.8645C163.186 27.92 163.186 27.9755 163.241 27.9755H163.019ZM163.963 27.9755C163.574 27.9755 163.297 27.6424 163.297 27.3094V27.0874H169.902V27.3094C169.902 27.698 169.569 27.9755 169.236 27.9755H163.963ZM169.957 27.9755C170.013 27.92 170.013 27.8645 170.068 27.8645C170.124 27.92 170.124 27.9755 170.179 27.9755H169.957ZM170.957 27.9755C170.568 27.9755 170.29 27.6424 170.29 27.3094V27.0874H176.896V27.9755H170.957ZM178.617 27.3094C178.617 27.698 178.283 27.9755 177.95 27.9755H177.229V27.0874H178.617V27.3094ZM177.229 20.4821C177.229 20.0935 177.562 19.7605 177.95 19.7605C178.339 19.7605 178.672 20.0935 178.672 20.4821V26.7543H177.284V20.8706V20.4821H177.229ZM170.901 20.2045H176.23C176.563 20.2045 176.896 20.4821 176.896 20.8706V26.7543H170.29V20.8706C170.235 20.4821 170.568 20.2045 170.901 20.2045ZM163.963 20.2045H169.291C169.624 20.2045 169.957 20.4821 169.957 20.8706V26.7543H163.352V20.8706C163.297 20.4821 163.574 20.2045 163.963 20.2045ZM156.969 20.2045H162.298C162.631 20.2045 162.964 20.4821 162.964 20.8706V26.7543H156.358V20.8706C156.303 20.4821 156.636 20.2045 156.969 20.2045Z" fill="#8F6D4E"/>
<path d="M146.478 79.3193C146.533 79.3748 146.589 79.3748 146.644 79.3748C146.7 79.3748 146.755 79.3748 146.811 79.3193C146.866 79.2638 146.866 79.2083 146.866 79.1528C146.866 79.0973 146.866 79.0418 146.811 78.9863C146.755 78.9308 146.589 78.9308 146.533 78.9863C146.478 79.0418 146.478 79.0973 146.478 79.1528C146.422 79.2638 146.478 79.3193 146.478 79.3193Z" fill="#8F6D4E"/>
<path d="M146.479 78.3201C146.479 78.4311 146.534 78.5421 146.645 78.5421C146.756 78.5421 146.867 78.4866 146.867 78.3756C146.867 78.2646 146.812 78.1536 146.701 78.1536C146.59 78.0981 146.479 78.2091 146.479 78.3201Z" fill="#8F6D4E"/>
<path d="M146.589 77.4321C146.589 77.5432 146.644 77.6542 146.755 77.6542C146.755 77.6542 146.755 77.6542 146.811 77.6542C146.922 77.6542 146.977 77.5987 147.033 77.4877C147.033 77.3767 146.977 77.2656 146.866 77.2656C146.7 77.2656 146.644 77.3211 146.589 77.4321Z" fill="#8F6D4E"/>
<path d="M148.032 74.4898C148.088 74.4898 148.143 74.4343 148.199 74.3788C148.254 74.2678 148.254 74.1568 148.143 74.1013C148.032 74.0458 147.921 74.0458 147.866 74.1568C147.81 74.2678 147.81 74.3788 147.921 74.4343C147.977 74.4898 147.977 74.4898 148.032 74.4898Z" fill="#8F6D4E"/>
<path d="M149.808 72.4919C149.864 72.4364 149.919 72.2699 149.808 72.2144C149.753 72.1034 149.586 72.1034 149.531 72.2144C149.475 72.3254 149.42 72.4364 149.531 72.4919C149.586 72.5474 149.642 72.5474 149.697 72.5474C149.697 72.5474 149.753 72.4919 149.808 72.4919Z" fill="#8F6D4E"/>
<path d="M151.807 71.104C151.863 71.104 151.863 71.104 151.918 71.104C152.029 71.0485 152.085 70.9375 152.029 70.8265C151.974 70.7154 151.863 70.6599 151.752 70.7154C151.641 70.7709 151.585 70.882 151.641 70.993C151.641 71.0485 151.696 71.104 151.807 71.104Z" fill="#8F6D4E"/>
<path d="M149.198 73.0469C149.254 72.9359 149.254 72.8249 149.198 72.7694C149.087 72.7139 148.976 72.7139 148.921 72.7694C148.865 72.8249 148.865 72.9914 148.921 73.0469C148.976 73.1025 149.032 73.1024 149.032 73.1024C149.143 73.1579 149.198 73.1025 149.198 73.0469Z" fill="#8F6D4E"/>
<path d="M148.699 73.713C148.754 73.602 148.754 73.491 148.643 73.4355C148.532 73.38 148.421 73.38 148.366 73.491C148.31 73.602 148.31 73.713 148.421 73.7685C148.477 73.824 148.477 73.824 148.532 73.824C148.588 73.824 148.643 73.7686 148.699 73.713Z" fill="#8F6D4E"/>
<path d="M153.195 70.327C153.195 70.4381 153.306 70.4936 153.417 70.4936H153.472C153.583 70.438 153.639 70.327 153.639 70.216C153.583 70.105 153.472 70.0495 153.361 70.105C153.195 70.105 153.139 70.216 153.195 70.327Z" fill="#8F6D4E"/>
<path d="M146.811 76.5992C146.755 76.7102 146.866 76.8212 146.977 76.8767H147.033C147.144 76.8767 147.199 76.8212 147.255 76.7102C147.31 76.5992 147.199 76.4882 147.144 76.4327C146.922 76.4327 146.811 76.4882 146.811 76.5992Z" fill="#8F6D4E"/>
<path d="M154.859 69.9387C154.859 70.0497 154.97 70.1052 155.081 70.1052C155.192 70.1052 155.303 69.9942 155.248 69.8832C155.248 69.7722 155.137 69.6612 155.026 69.7167C154.915 69.7167 154.859 69.8277 154.859 69.9387Z" fill="#8F6D4E"/>
<path d="M150.474 71.9368C150.585 71.8813 150.585 71.7147 150.53 71.6592C150.474 71.5482 150.308 71.5482 150.252 71.6037C150.141 71.6592 150.141 71.8257 150.197 71.8812C150.252 71.9368 150.308 71.9368 150.363 71.9368C150.363 71.9923 150.419 71.9923 150.474 71.9368Z" fill="#8F6D4E"/>
<path d="M147.089 75.7667C147.034 75.8777 147.089 75.9887 147.2 76.0442H147.256C147.367 76.0442 147.422 75.9887 147.422 75.9332C147.478 75.8222 147.422 75.7112 147.311 75.6557C147.256 75.6002 147.145 75.6557 147.089 75.7667Z" fill="#8F6D4E"/>
<path d="M151.14 71.4927C151.251 71.4372 151.251 71.3262 151.196 71.2151C151.14 71.1041 151.029 71.1041 150.918 71.1596C150.807 71.2151 150.807 71.3261 150.863 71.4372C150.918 71.4927 150.974 71.5482 151.029 71.5482C151.085 71.4927 151.14 71.4927 151.14 71.4927Z" fill="#8F6D4E"/>
<path d="M147.532 75.2116C147.588 75.2116 147.588 75.2116 147.643 75.2116C147.699 75.2116 147.81 75.1562 147.81 75.1006C147.865 74.9896 147.81 74.8786 147.699 74.8231C147.588 74.7676 147.477 74.8231 147.421 74.9341C147.366 75.0451 147.421 75.1561 147.532 75.2116Z" fill="#8F6D4E"/>
<path d="M152.584 70.7156H152.639C152.75 70.6601 152.806 70.5491 152.75 70.4381C152.695 70.3271 152.584 70.2716 152.473 70.3271C152.362 70.3826 152.306 70.4936 152.362 70.6046C152.417 70.6601 152.473 70.7156 152.584 70.7156Z" fill="#8F6D4E"/>
<path d="M154.027 70.1049C154.027 70.2159 154.138 70.2714 154.249 70.2714H154.305C154.416 70.2714 154.471 70.1604 154.471 70.0494C154.471 69.9384 154.36 69.8829 154.249 69.8829C154.083 69.8829 153.972 69.9939 154.027 70.1049Z" fill="#8F6D4E"/>
<path d="M119.224 65.8864C119.28 65.8864 119.335 65.8864 119.391 65.8309C119.446 65.7754 119.446 65.7199 119.446 65.6644V65.6089C119.446 65.5534 119.446 65.5534 119.391 65.5534C119.335 65.4979 119.224 65.4979 119.169 65.4979C119.169 65.4979 119.113 65.4979 119.113 65.5534L119.058 65.6089V65.6644C119.058 65.7199 119.058 65.7754 119.113 65.8309C119.113 65.8864 119.169 65.8864 119.224 65.8864Z" fill="#8F6D4E"/>
<path d="M113.507 75.267C113.562 75.267 113.562 75.267 113.618 75.267C113.729 75.2115 113.784 75.1005 113.729 74.9895C113.673 74.8785 113.562 74.823 113.451 74.8785C113.34 74.934 113.285 75.045 113.34 75.156C113.34 75.2115 113.396 75.267 113.507 75.267Z" fill="#8F6D4E"/>
<path d="M115.005 74.3237C115.116 74.2682 115.116 74.1017 115.061 74.0462C115.005 73.9352 114.839 73.9352 114.783 73.9907C114.672 74.0462 114.672 74.1572 114.728 74.2682C114.783 74.3237 114.839 74.3792 114.894 74.3792C114.95 74.3792 115.005 74.3792 115.005 74.3237Z" fill="#8F6D4E"/>
<path d="M118.891 67.2741C118.891 67.3851 118.946 67.4962 119.057 67.4962C119.057 67.4962 119.057 67.4962 119.113 67.4962C119.224 67.4962 119.279 67.4407 119.335 67.3296C119.335 67.2186 119.279 67.1076 119.168 67.1076C119.002 67.1076 118.891 67.1631 118.891 67.2741Z" fill="#8F6D4E"/>
<path d="M118.502 68.8285C118.447 68.9395 118.502 69.0505 118.613 69.106H118.669C118.78 69.106 118.835 69.0505 118.891 68.9395C118.946 68.8285 118.891 68.7175 118.78 68.662C118.669 68.662 118.558 68.773 118.502 68.8285Z" fill="#8F6D4E"/>
<path d="M115.394 73.491C115.283 73.5465 115.283 73.713 115.394 73.7685C115.449 73.824 115.505 73.824 115.56 73.824C115.616 73.824 115.671 73.824 115.671 73.7685C115.782 73.713 115.782 73.5465 115.671 73.491C115.616 73.4355 115.505 73.4355 115.394 73.491Z" fill="#8F6D4E"/>
<path d="M118.724 68.0513C118.668 68.1623 118.779 68.2733 118.89 68.3288H118.946C119.057 68.3288 119.112 68.2733 119.168 68.1623C119.168 68.0513 119.112 67.9403 119.001 67.8848C118.89 67.8848 118.779 67.9403 118.724 68.0513Z" fill="#8F6D4E"/>
<path d="M119.167 66.7193C119.279 66.7193 119.39 66.6638 119.39 66.5528C119.39 66.4418 119.334 66.3307 119.223 66.3307C119.112 66.3307 119.001 66.3863 119.001 66.4973C119.001 66.6083 119.056 66.7193 119.167 66.7193Z" fill="#8F6D4E"/>
<path d="M116.283 73.2688C116.339 73.2133 116.339 73.0468 116.283 72.9913C116.172 72.9358 116.061 72.9358 116.005 72.9913C115.95 73.1023 115.95 73.2133 116.005 73.2688C116.061 73.3243 116.117 73.3243 116.172 73.3243C116.228 73.3243 116.283 73.2688 116.283 73.2688Z" fill="#8F6D4E"/>
<path d="M117.503 71.0485C117.448 71.1595 117.448 71.2705 117.559 71.326C117.614 71.326 117.614 71.326 117.67 71.326C117.725 71.326 117.781 71.2705 117.836 71.215C117.892 71.104 117.836 70.993 117.781 70.9375C117.67 70.9375 117.559 70.9375 117.503 71.0485Z" fill="#8F6D4E"/>
<path d="M112.73 75.6001C112.786 75.6001 112.786 75.6001 112.786 75.6001C112.897 75.5446 112.952 75.4336 112.897 75.3226C112.841 75.2115 112.73 75.156 112.619 75.2115C112.508 75.267 112.453 75.3781 112.508 75.4891C112.564 75.5446 112.675 75.6001 112.73 75.6001Z" fill="#8F6D4E"/>
<path d="M110.398 76.2665C110.509 76.2665 110.564 76.1555 110.564 76.0445C110.564 75.9335 110.453 75.878 110.342 75.878C110.231 75.878 110.12 75.989 110.176 76.1C110.176 76.1555 110.287 76.2665 110.398 76.2665Z" fill="#8F6D4E"/>
<path d="M111.175 76.0996C111.175 76.0996 111.231 76.0996 111.175 76.0996C111.342 76.0441 111.397 75.933 111.397 75.822C111.342 75.711 111.231 75.6555 111.12 75.6555C111.009 75.6555 110.953 75.7665 110.953 75.9331C111.009 76.0441 111.064 76.0996 111.175 76.0996Z" fill="#8F6D4E"/>
<path d="M116.893 72.603C116.949 72.492 116.949 72.381 116.893 72.3254C116.838 72.2699 116.671 72.2699 116.616 72.3254C116.56 72.4365 116.56 72.5475 116.616 72.603C116.671 72.6585 116.727 72.6585 116.727 72.6585C116.782 72.714 116.838 72.6585 116.893 72.603Z" fill="#8F6D4E"/>
<path d="M111.953 75.8779H112.008C112.119 75.8224 112.175 75.7113 112.119 75.6003C112.064 75.4893 111.953 75.4338 111.842 75.4893C111.731 75.5448 111.675 75.6558 111.731 75.7668C111.786 75.8223 111.897 75.8779 111.953 75.8779Z" fill="#8F6D4E"/>
<path d="M114.339 74.8231C114.45 74.7676 114.45 74.6566 114.395 74.5456C114.339 74.4346 114.228 74.4346 114.117 74.4901C114.006 74.5456 114.006 74.6566 114.062 74.7676C114.117 74.8231 114.173 74.8786 114.228 74.8786C114.228 74.8231 114.284 74.8231 114.339 74.8231Z" fill="#8F6D4E"/>
<path d="M118.225 69.6056C118.169 69.7166 118.225 69.8276 118.336 69.8831C118.391 69.8831 118.391 69.8831 118.391 69.8831C118.447 69.8831 118.558 69.8276 118.558 69.7721C118.613 69.6611 118.558 69.5501 118.447 69.4946C118.391 69.439 118.28 69.4946 118.225 69.6056Z" fill="#8F6D4E"/>
<path d="M117.892 70.327C117.836 70.438 117.892 70.5491 118.003 70.6046C118.058 70.6046 118.058 70.6046 118.114 70.6046C118.169 70.6046 118.28 70.549 118.28 70.4935C118.336 70.3825 118.28 70.2715 118.169 70.216C118.058 70.216 117.947 70.2715 117.892 70.327Z" fill="#8F6D4E"/>
<path d="M117.392 71.9923C117.447 71.8813 117.447 71.7702 117.336 71.7147C117.225 71.6592 117.114 71.6592 117.059 71.7703C117.003 71.8813 117.003 71.9923 117.114 72.0478C117.17 72.1033 117.17 72.1033 117.225 72.1033C117.281 72.0478 117.336 72.0478 117.392 71.9923Z" fill="#8F6D4E"/>
<path d="M109.566 76.3773C109.677 76.3773 109.788 76.2662 109.732 76.1552C109.732 76.0442 109.621 75.9332 109.51 75.9887C109.399 75.9887 109.288 76.0997 109.344 76.2107C109.344 76.2663 109.455 76.3773 109.566 76.3773Z" fill="#8F6D4E"/>
<path d="M108.733 76.3775C108.788 76.3775 108.844 76.3775 108.899 76.322C108.955 76.2665 108.955 76.211 108.955 76.1555C108.955 76.1 108.955 76.0445 108.899 75.989C108.844 75.9334 108.677 75.9334 108.622 75.989L108.566 76.0445C108.566 76.1 108.566 76.1 108.566 76.1555V76.211L108.622 76.2665C108.622 76.3775 108.677 76.3775 108.733 76.3775Z" fill="#8F6D4E"/>
<path d="M186.276 11.6563H185.555V36.1348H186.276V11.6563Z" fill="#8F6D4E"/>
<path d="M187.608 11.6563H186.887V36.1348H187.608V11.6563Z" fill="#8F6D4E"/>
<path d="M189.996 10.2688V2.10929V0H185.167H109.233H107.124V2.10929V62.3897V63.6108V65.7756H109.233H118.78V65.4425H109.233V63.6108H141.871H142.038V46.1262V46.0152V45.5156V45.1826V40.52V40.1869V39.9094V39.5764V34.9138V34.5808V34.1367L142.482 33.4151L146.922 26.6433L147.422 25.8662L146.645 25.3666L146.312 25.8662L141.705 32.9156L141.538 33.1931L141.205 33.6926L141.649 33.9702H141.094V34.5808V34.9138V39.5764V39.9094V40.1869V40.52V45.1826V45.5156V46.0152H134.877H133.656V47.2363V62.3897H109.233V2.10929H141.094V2.49781V2.83087V7.49342V7.82648V8.10402V8.43704V13.0996V13.4327V14.0433H141.649L141.205 14.3208L141.705 15.0979L146.312 22.1472L146.645 22.6468L147.422 22.1472L146.922 21.3701L142.315 14.3208L142.038 13.8767V13.4327V13.0996V8.43704V8.10402V7.82648V7.49342V2.83087V2.49781V2.10929H185.167V10.2688H184.778V37.4671H185.167V62.3897H155.415V62.8337V63.6108V69.9386H155.692V69.9941C155.692 69.9941 155.692 70.0496 155.748 70.0496C155.803 70.1051 155.859 70.1051 155.915 70.1051C155.97 70.1051 156.026 70.1051 156.081 70.0496L156.137 69.9941V69.9386H156.692V63.6108H185V80.3739H180.227H179.005V81.595V93.2514H156.747V79.0417H155.526V79.0972H147.144V79.4303H155.526V93.2514H114.784V78.6532V77.3765H113.563H108.401V76.5439H107.18V93.196V94.5836V95.3052H185.056H188.108V93.196V63.5553H190.051V62.3897V37.4671H190.44V10.2688H189.996ZM146.756 25.8107L146.978 25.9772L146.811 26.1992L146.7 26.1437L146.589 26.0882L146.756 25.8107ZM146.423 26.3102L146.534 26.3657L146.645 26.4213L142.204 33.1931L141.982 33.0266L146.423 26.3102ZM142.038 33.5261L141.871 33.7482L141.649 33.5816L141.816 33.3596L142.038 33.5261ZM141.427 34.3032H141.705V34.5808H141.427V34.3032ZM141.427 34.9138H141.705V39.5764H141.427V34.9138ZM141.427 39.9094H141.705V40.1869H141.427V39.9094ZM141.427 40.52H141.705V45.1826H141.427V40.52ZM141.705 45.7931H141.427V45.5156H141.705V45.7931ZM141.705 53.8971H134.877V47.2363H141.705V53.8971ZM134.877 54.2302H141.705V62.3897H134.877V54.2302ZM141.427 13.4327H141.705V13.7102H141.427V13.4327ZM146.756 22.2027L146.589 21.9807L146.7 21.9252L146.811 21.8697L146.978 22.0917L146.756 22.2027ZM146.534 21.6477L146.423 21.7032L141.982 14.9313L142.204 14.7648L146.645 21.5367L146.534 21.6477ZM142.038 14.4873L141.816 14.6538L141.649 14.4318L141.871 14.2653L142.038 14.4873ZM141.705 13.0996H141.427V8.43704H141.705V13.0996ZM141.705 8.10402H141.427V7.82648H141.705V8.10402ZM141.705 7.49342H141.427V2.83087H141.705V7.49342ZM141.705 2.49781H141.427V2.22027H141.705V2.49781ZM108.401 78.6532H113.563V93.2514H108.401V78.6532ZM180.171 81.595H184.945V93.2514H180.171V81.595ZM189.94 37.0786H185.222V10.8238H189.94V37.0786Z" fill="#8F6D4E"/>
<path d="M118.335 38.4661H115.504C115.115 38.4661 114.838 38.7991 114.838 39.1322C114.838 39.3542 114.949 39.5207 115.115 39.6318C114.949 39.7428 114.838 39.9648 114.838 40.1868V42.8511C114.838 43.3507 115.282 43.7948 115.782 43.7948H118.113C118.612 43.7948 119.056 43.3507 119.056 42.8511V40.1868C119.056 39.9648 118.945 39.7983 118.779 39.6318C118.945 39.5207 119.056 39.2987 119.056 39.1322C119.056 38.7991 118.723 38.4661 118.335 38.4661ZM118.723 42.9067C118.723 43.2397 118.446 43.5172 118.113 43.5172H115.782C115.448 43.5172 115.171 43.2397 115.171 42.9067V40.2423C115.171 40.0203 115.337 39.8538 115.559 39.8538H118.39C118.612 39.8538 118.779 40.0203 118.779 40.2423V42.9067H118.723ZM115.504 39.5207C115.282 39.5207 115.115 39.3542 115.115 39.1877C115.115 39.0212 115.282 38.8546 115.448 38.8546H118.279C118.501 38.8546 118.612 39.0212 118.612 39.1877C118.612 39.3542 118.446 39.5207 118.279 39.5207H115.504Z" fill="#8F6D4E"/>
<path d="M113.451 40.6308V42.7956C113.451 43.1841 113.729 43.4617 114.117 43.4617C114.506 43.4617 114.783 43.1841 114.783 42.7956V40.6308C114.783 40.2423 114.506 39.9647 114.117 39.9647C113.729 39.9647 113.451 40.2978 113.451 40.6308ZM114.45 40.6308V42.7956C114.45 42.9621 114.284 43.1286 114.117 43.1286C113.951 43.1286 113.784 42.9621 113.784 42.7956V40.6308C113.784 40.4643 113.951 40.2978 114.117 40.2978C114.284 40.2978 114.45 40.4643 114.45 40.6308Z" fill="#8F6D4E"/>
<path d="M120.39 42.8513V40.6865C120.39 40.298 120.112 40.0204 119.724 40.0204C119.335 40.0204 119.058 40.298 119.058 40.6865V42.8513C119.058 43.2398 119.335 43.5174 119.724 43.5174C120.112 43.5174 120.39 43.1843 120.39 42.8513ZM119.391 42.8513V40.6865C119.391 40.52 119.557 40.3535 119.724 40.3535C119.89 40.3535 120.057 40.52 120.057 40.6865V42.8513C120.057 43.0178 119.89 43.1843 119.724 43.1843C119.557 43.1843 119.391 43.0178 119.391 42.8513Z" fill="#8F6D4E"/>
<path d="M118.78 47.9024V47.7359H118.447H115.45H115.117V47.9024H113.23H112.896V48.2355V48.624V48.9571H113.23H115.117V49.1236H115.45H118.447H118.78V48.9571H120.667H121V48.624V48.2355V47.9024H120.667H118.78ZM120.667 48.624H118.78H118.447H115.45H115.117H113.23V48.2355H115.117H115.45H118.447H118.78H120.667V48.624Z" fill="#8F6D4E"/>
<path d="M119.723 44.7385H114.117V46.5702H119.723V44.7385ZM119.39 45.238H114.45V45.0715H119.39V45.238ZM119.39 45.7376H114.45V45.5711H119.39V45.7376ZM114.45 46.0706H119.39V46.2372H114.45V46.0706Z" fill="#8F6D4E"/>
<path d="M109.788 49.9008H124.053V44.1281H109.788V49.9008ZM110.121 44.4612H123.72V49.5678H110.121V44.4612Z" fill="#8F6D4E"/>
<path d="M163.574 37.0785C164.462 37.0785 165.239 36.4679 165.517 35.6908C165.85 35.6908 166.127 35.3577 166.127 35.0247C166.127 33.637 164.961 32.4714 163.574 32.4714C162.186 32.4714 161.021 33.637 161.021 35.0247C161.021 35.3577 161.298 35.6353 161.631 35.6908C161.909 36.4679 162.686 37.0785 163.574 37.0785ZM161.354 35.0247C161.354 33.8036 162.353 32.8044 163.574 32.8044C164.795 32.8044 165.794 33.8036 165.794 35.0247C165.794 35.1357 165.739 35.3022 165.572 35.3577C165.517 35.3577 165.461 35.4133 165.461 35.4133C165.406 35.4133 165.35 35.3577 165.295 35.3577C165.184 35.3022 165.128 35.1912 165.128 35.0802C165.128 34.2476 164.406 33.526 163.574 33.526C162.741 33.526 162.02 34.2476 162.02 35.0802C162.02 35.1912 161.964 35.3022 161.853 35.3577C161.798 35.4132 161.742 35.4133 161.687 35.4133C161.631 35.4133 161.576 35.4132 161.576 35.3577C161.409 35.2467 161.354 35.1357 161.354 35.0247ZM163.574 36.7454C162.852 36.7454 162.186 36.3014 161.964 35.6353C162.186 35.5243 162.353 35.3022 162.353 35.0247C162.353 34.3586 162.908 33.8036 163.574 33.8036C164.24 33.8036 164.795 34.3586 164.795 35.0247C164.795 35.3022 164.961 35.5243 165.184 35.6353C164.961 36.3014 164.295 36.7454 163.574 36.7454Z" fill="#8F6D4E"/>
<path d="M170.957 37.0785C171.845 37.0785 172.622 36.4679 172.899 35.6908C173.232 35.6908 173.51 35.3577 173.51 35.0247C173.51 33.637 172.344 32.4714 170.957 32.4714C169.569 32.4714 168.403 33.637 168.403 35.0247C168.403 35.3577 168.681 35.6353 169.014 35.6908C169.291 36.4679 170.069 37.0785 170.957 37.0785ZM168.736 35.0247C168.736 33.8036 169.735 32.8044 170.957 32.8044C172.178 32.8044 173.177 33.8036 173.177 35.0247C173.177 35.1357 173.121 35.3022 172.955 35.3577C172.899 35.3577 172.844 35.4133 172.844 35.4133C172.788 35.4133 172.733 35.3577 172.677 35.3577C172.566 35.3022 172.511 35.1912 172.511 35.0802C172.511 34.2476 171.789 33.526 170.957 33.526C170.124 33.526 169.402 34.2476 169.402 35.0802C169.402 35.1912 169.347 35.3022 169.236 35.3577C169.18 35.4132 169.125 35.4133 169.069 35.4133C169.014 35.4133 168.958 35.4132 168.958 35.3577C168.792 35.3022 168.736 35.1357 168.736 35.0247ZM170.957 36.7454C170.235 36.7454 169.569 36.3014 169.347 35.6353C169.569 35.5243 169.735 35.3022 169.735 35.0247C169.735 34.3586 170.291 33.8036 170.957 33.8036C171.623 33.8036 172.178 34.3586 172.178 35.0247C172.178 35.3022 172.344 35.5243 172.566 35.6353C172.344 36.3014 171.678 36.7454 170.957 36.7454Z" fill="#8F6D4E"/>
<path d="M153.194 42.5737C153.194 43.9614 154.36 45.1271 155.748 45.1271C156.081 45.1271 156.358 44.8495 156.414 44.5165C157.246 44.239 157.801 43.4619 157.801 42.5737C157.801 41.6856 157.191 40.9085 156.414 40.631C156.414 40.298 156.081 40.0204 155.748 40.0204C154.36 40.0204 153.194 41.1861 153.194 42.5737ZM156.081 40.5755C156.081 40.631 156.136 40.6865 156.136 40.6865C156.136 40.742 156.081 40.7975 156.081 40.853C156.025 40.9641 155.914 41.0196 155.803 41.0196C154.971 41.0196 154.249 41.7411 154.249 42.5737C154.249 43.4063 154.971 44.1279 155.803 44.1279C155.914 44.1279 156.025 44.1835 156.081 44.2945C156.136 44.35 156.136 44.4055 156.136 44.461C156.136 44.5165 156.136 44.572 156.081 44.572C156.025 44.683 155.914 44.794 155.748 44.794C154.526 44.794 153.527 43.7949 153.527 42.5737C153.527 41.3526 154.526 40.3535 155.748 40.3535C155.914 40.3535 156.025 40.4645 156.081 40.5755ZM157.468 42.5737C157.468 43.2953 157.024 43.9614 156.358 44.1835C156.247 43.9614 156.025 43.7949 155.748 43.7949C155.082 43.7949 154.526 43.2398 154.526 42.5737C154.526 41.9077 155.082 41.3526 155.748 41.3526C156.025 41.3526 156.247 41.1861 156.358 40.9641C157.024 41.2416 157.468 41.8522 157.468 42.5737Z" fill="#8F6D4E"/>
<path d="M178.561 40.0204C178.228 40.0204 177.95 40.298 177.895 40.631C177.062 40.9085 176.507 41.6856 176.507 42.5737C176.507 43.4619 177.117 44.239 177.895 44.5165C177.895 44.8495 178.228 45.1271 178.561 45.1271C179.948 45.1271 181.114 43.9614 181.114 42.5737C181.114 41.1861 180.004 40.0204 178.561 40.0204ZM178.283 44.6275C178.283 44.572 178.228 44.5165 178.228 44.5165C178.228 44.461 178.283 44.4055 178.283 44.35C178.339 44.239 178.45 44.1835 178.561 44.1835C179.393 44.1835 180.115 43.4619 180.115 42.6293C180.115 41.7967 179.393 41.0751 178.561 41.0751C178.45 41.0751 178.339 41.0196 178.283 40.9085C178.228 40.853 178.228 40.7975 178.228 40.742C178.228 40.6865 178.228 40.631 178.283 40.631C178.339 40.52 178.45 40.409 178.616 40.409C179.837 40.409 180.836 41.4081 180.836 42.6293C180.836 43.8504 179.837 44.8495 178.616 44.8495C178.45 44.8495 178.283 44.7385 178.283 44.6275ZM176.84 42.5737C176.84 41.8522 177.284 41.1861 177.95 40.9641C178.061 41.1861 178.283 41.3526 178.561 41.3526C179.227 41.3526 179.782 41.9077 179.782 42.5737C179.782 43.2398 179.227 43.7949 178.561 43.7949C178.283 43.7949 178.061 43.9614 177.95 44.1835C177.284 43.9614 176.84 43.3508 176.84 42.5737Z" fill="#8F6D4E"/>
<path d="M158.856 37.9665V47.2361C158.856 47.3472 158.912 47.4027 159.023 47.4027H175.564C175.675 47.4027 175.731 47.3472 175.731 47.2361V37.9665C175.731 37.8555 175.675 37.8 175.564 37.8H159.023C158.912 37.8 158.856 37.8555 158.856 37.9665ZM159.189 38.133H175.397V47.0696H159.189V38.133Z" fill="#8F6D4E"/>
<path d="M177.45 60.9462C178.061 60.9462 178.56 60.4467 178.56 59.8361C178.56 59.2255 178.061 58.726 177.45 58.726C176.84 58.726 176.34 59.2255 176.34 59.8361C176.285 60.4467 176.784 60.9462 177.45 60.9462ZM177.45 59.0035C177.894 59.0035 178.227 59.3365 178.227 59.7806C178.227 60.2246 177.894 60.5577 177.45 60.5577C177.006 60.5577 176.673 60.2246 176.673 59.7806C176.673 59.3365 177.006 59.0035 177.45 59.0035Z" fill="#8F6D4E"/>
<path d="M177.45 58.504C178.061 58.504 178.56 58.0045 178.56 57.3939C178.56 56.7833 178.061 56.2838 177.45 56.2838C176.84 56.2838 176.34 56.7833 176.34 57.3939C176.285 58.0045 176.784 58.504 177.45 58.504ZM177.45 56.6168C177.894 56.6168 178.227 56.9498 178.227 57.3939C178.227 57.8379 177.894 58.171 177.45 58.171C177.006 58.171 176.673 57.8379 176.673 57.3939C176.618 56.9498 177.006 56.6168 177.45 56.6168Z" fill="#8F6D4E"/>
<path d="M168.625 56.1174H164.795C164.128 56.1174 163.629 56.617 163.629 57.2831V59.8919C163.629 60.558 164.128 61.0575 164.795 61.0575H166.515V61.3351C166.515 61.4461 166.571 61.5016 166.682 61.5016C166.793 61.5016 166.848 61.4461 166.848 61.3351V61.0575H168.569C169.235 61.0575 169.735 60.558 169.735 59.8919V57.2831C169.79 56.617 169.291 56.1174 168.625 56.1174ZM169.457 59.8919C169.457 60.3359 169.069 60.7245 168.625 60.7245H166.904V59.5589C166.904 59.4478 166.848 59.3923 166.737 59.3923C166.626 59.3923 166.571 59.4478 166.571 59.5589V60.7245H164.85C164.406 60.7245 164.017 60.3359 164.017 59.8919V57.2831C164.017 56.839 164.406 56.4505 164.85 56.4505H168.68C169.124 56.4505 169.513 56.839 169.513 57.2831V59.8919H169.457Z" fill="#8F6D4E"/>
<path d="M166.738 58.0602C166.516 58.0602 166.294 58.2823 166.294 58.5043C166.294 58.7263 166.516 58.9483 166.738 58.9483C166.96 58.9483 167.182 58.7263 167.182 58.5043C167.182 58.2823 166.96 58.0602 166.738 58.0602ZM166.627 58.5043C166.627 58.4488 166.683 58.3933 166.738 58.3933C166.794 58.3933 166.849 58.4488 166.849 58.5043C166.849 58.6708 166.627 58.6708 166.627 58.5043Z" fill="#8F6D4E"/>
<path d="M155.414 55.5067V61.668C155.414 61.779 155.47 61.8345 155.581 61.8345H184.278C184.389 61.8345 184.444 61.779 184.444 61.668V55.5067C184.444 55.3957 184.389 55.3402 184.278 55.3402H155.581C155.47 55.3402 155.414 55.4512 155.414 55.5067ZM184.056 61.5015H179.56V55.6733H184.056V61.5015ZM179.282 61.5015H175.619V55.6733H179.282V61.5015ZM155.747 55.6733H175.285V61.5015H155.747V55.6733Z" fill="#8F6D4E"/>
<path d="M115.782 11.1015H112.785C112.397 11.1015 112.063 11.4346 112.063 11.8231V17.9289C112.063 18.3174 112.397 18.6504 112.785 18.6504H115.782C116.171 18.6504 116.504 18.3174 116.504 17.9289V11.8231C116.504 11.4346 116.171 11.1015 115.782 11.1015ZM116.171 17.9289C116.171 18.1509 116.004 18.3174 115.782 18.3174H112.785C112.563 18.3174 112.397 18.1509 112.397 17.9289V11.8231C112.397 11.6011 112.563 11.4346 112.785 11.4346H115.782C116.004 11.4346 116.171 11.6011 116.171 11.8231V17.9289Z" fill="#8F6D4E"/>
<path d="M115.782 19.4828H112.785C112.397 19.4828 112.063 19.8158 112.063 20.2044V26.3101C112.063 26.6987 112.397 27.0317 112.785 27.0317H115.782C116.171 27.0317 116.504 26.6987 116.504 26.3101V20.2044C116.504 19.8158 116.171 19.4828 115.782 19.4828ZM116.171 26.3101C116.171 26.5321 116.004 26.6987 115.782 26.6987H112.785C112.563 26.6987 112.397 26.5321 112.397 26.3101V20.2044C112.397 19.9823 112.563 19.8158 112.785 19.8158H115.782C116.004 19.8158 116.171 19.9823 116.171 20.2044V26.3101Z" fill="#8F6D4E"/>
<path d="M132.102 28.1418V9.9911C132.102 9.88009 132.047 9.82458 131.936 9.82458H118.281H111.065H110.122C110.011 9.82458 109.955 9.88009 109.955 9.9911V28.1418C109.955 28.2528 110.011 28.3083 110.122 28.3083H111.065H123.055H131.936C131.991 28.3083 132.102 28.2528 132.102 28.1418ZM118.67 23.5348H122.333C122.611 23.5348 122.833 23.7568 122.833 24.0344V27.6978L118.67 23.5348ZM110.288 10.1576H110.899V27.9753H110.288V10.1576ZM111.232 27.9753V10.1576H118.115V23.3683C118.115 23.4238 118.115 23.4238 118.17 23.4793L122.666 27.9753H111.232ZM131.769 27.9753H123.221V24.0344C123.221 23.5903 122.833 23.2017 122.389 23.2017H118.448V10.1576H131.769V27.9753Z" fill="#8F6D4E"/>
<path d="M113.563 8.32596C115.006 8.32596 116.227 7.16032 116.227 5.66164C116.227 4.21846 115.061 2.99731 113.563 2.99731C112.12 2.99731 110.898 4.16295 110.898 5.66164C110.898 7.16032 112.12 8.32596 113.563 8.32596ZM113.563 3.33034C114.839 3.33034 115.894 4.38498 115.894 5.66164C115.894 6.93829 114.839 7.99293 113.563 7.99293C112.286 7.99293 111.231 6.93829 111.231 5.66164C111.231 4.38498 112.286 3.33034 113.563 3.33034Z" fill="#8F6D4E"/>
<path d="M113.563 29.8071C112.12 29.8071 110.898 30.9728 110.898 32.4714C110.898 33.9146 112.064 35.1358 113.563 35.1358C115.006 35.1358 116.227 33.9701 116.227 32.4714C116.227 30.9728 115.061 29.8071 113.563 29.8071ZM113.563 34.7472C112.286 34.7472 111.231 33.6926 111.231 32.416C111.231 31.1393 112.286 30.0847 113.563 30.0847C114.839 30.0847 115.894 31.1393 115.894 32.416C115.894 33.6926 114.839 34.7472 113.563 34.7472Z" fill="#8F6D4E"/>
<path d="M156.857 5.32857H180.226V2.66425H156.857V5.32857ZM157.19 2.99727H179.893V4.99551H157.19V2.99727Z" fill="#8F6D4E"/>
<path d="M168.902 3.05298H168.069C167.736 3.05298 167.403 3.27502 167.237 3.55255H163.629V4.44065H167.292C167.459 4.71818 167.736 4.94022 168.125 4.94022H168.958C169.291 4.94022 169.624 4.71818 169.79 4.44065H173.454V3.55255H169.735C169.568 3.27502 169.291 3.05298 168.902 3.05298ZM173.065 3.88558V4.10762H169.846H169.679H169.513H167.514H167.348H167.181H163.962V3.88558H167.181H167.348H167.514H169.513H169.679H169.846H173.065ZM168.125 4.6072C167.958 4.6072 167.847 4.55166 167.736 4.44065H169.346C169.235 4.55166 169.124 4.6072 168.958 4.6072H168.125ZM168.902 3.38604C169.069 3.38604 169.18 3.44154 169.291 3.55255H167.681C167.792 3.44154 167.903 3.38604 168.069 3.38604H168.902Z" fill="#8F6D4E"/>
<path d="M176.84 4.66239H178.117V3.38574H176.84V4.66239ZM177.173 3.66328H177.783V4.27384H177.173V3.66328Z" fill="#8F6D4E"/>
<path d="M158.911 4.66239H160.188V3.38574H158.911V4.66239ZM159.244 3.66328H159.855V4.27384H159.244V3.66328Z" fill="#8F6D4E"/>
<path d="M159.189 90.1986H163.297C163.519 90.1986 163.741 90.0321 163.741 89.7546V89.033V85.8691C163.741 84.4814 162.631 83.3713 161.243 83.3713C159.855 83.3713 158.745 84.4814 158.745 85.8691V89.033V89.7546C158.745 90.0321 158.967 90.1986 159.189 90.1986ZM163.408 89.8101C163.408 89.8656 163.352 89.9211 163.297 89.9211H159.189C159.134 89.9211 159.078 89.8656 159.078 89.8101V89.255H163.408V89.8101ZM159.078 85.9801C159.078 84.8145 160.022 83.8153 161.243 83.8153C162.409 83.8153 163.408 84.759 163.408 85.9801V88.9775H159.078V85.9801V85.9801Z" fill="#8F6D4E"/>
<path d="M158.745 92.0302C158.745 92.2523 158.912 92.4743 159.189 92.4743H163.297C163.519 92.4743 163.741 92.3078 163.741 92.0302V90.9756C163.741 90.7536 163.574 90.5316 163.297 90.5316H159.189C158.967 90.5316 158.745 90.6981 158.745 90.9756V92.0302ZM159.078 90.9756C159.078 90.9201 159.134 90.8646 159.189 90.8646H163.297C163.352 90.8646 163.408 90.9201 163.408 90.9756V92.0302C163.408 92.0858 163.352 92.1412 163.297 92.1412H159.189C159.134 92.1412 159.078 92.0858 159.078 92.0302V90.9756Z" fill="#8F6D4E"/>
<path d="M161.243 91.9748C161.52 91.9748 161.742 91.7528 161.742 91.4752C161.742 91.1977 161.52 90.9756 161.243 90.9756C160.965 90.9756 160.743 91.1977 160.743 91.4752C160.743 91.7528 160.965 91.9748 161.243 91.9748ZM161.243 91.3642C161.298 91.3642 161.409 91.4197 161.409 91.5307C161.409 91.5862 161.354 91.6972 161.243 91.6972C161.187 91.6972 161.076 91.6417 161.076 91.5307C161.076 91.4197 161.187 91.3642 161.243 91.3642Z" fill="#8F6D4E"/>
<path d="M184.278 79.9298C184.389 79.9298 184.444 79.8743 184.444 79.7633V64.2214C184.444 64.1104 184.389 64.0549 184.278 64.0549H179.116C179.005 64.0549 178.949 64.1104 178.949 64.2214V79.7633C178.949 79.8743 179.005 79.9298 179.116 79.9298H184.278ZM179.282 64.3879H184.111V79.5968H179.282V64.3879Z" fill="#8F6D4E"/>
<path d="M183.89 71.8259L183.834 69.0505C183.834 68.773 183.612 68.551 183.335 68.551H180.948C180.337 68.551 179.782 69.0505 179.782 69.7166V74.2682C179.782 74.8788 180.282 75.4338 180.948 75.4338H183.335C183.612 75.4338 183.834 75.2118 183.834 74.9342V72.2144H183.89C184.001 72.2144 184.056 72.1589 184.056 72.0479C184.056 71.8814 184.001 71.8259 183.89 71.8259ZM183.557 74.8788C183.557 74.9898 183.501 75.0453 183.39 75.0453H181.003C180.559 75.0453 180.171 74.6567 180.171 74.2127V69.6611C180.171 69.217 180.559 68.8285 181.003 68.8285H183.39C183.501 68.8285 183.557 68.884 183.557 68.995V71.7704H182.558C182.447 71.7704 182.391 71.8259 182.391 71.9369C182.391 72.0479 182.447 72.1034 182.558 72.1034H183.557V74.8788Z" fill="#8F6D4E"/>
<path d="M146.645 88.4779L149.364 89.921V90.0876C148.92 90.1986 148.643 90.4761 148.643 90.8092C148.643 91.1977 148.976 91.5307 149.364 91.5307C149.753 91.5307 150.031 91.2532 150.086 90.9202C150.086 90.8647 150.031 90.8092 149.975 90.8092C149.92 90.8092 149.864 90.8647 149.864 90.9202C149.864 91.0312 149.809 91.0867 149.753 91.1422C149.642 91.2532 149.531 91.3087 149.42 91.3087C149.142 91.3087 148.976 91.0867 148.976 90.8647C148.976 90.7536 149.031 90.6981 149.087 90.5871C149.198 90.4761 149.309 90.4206 149.476 90.3651L149.698 90.3096V90.2541V89.921L152.417 88.4779C152.584 88.4224 152.639 88.2558 152.639 88.0893C152.639 87.8673 152.417 87.6453 152.14 87.6453H146.922C146.645 87.6453 146.423 87.8673 146.423 88.0893C146.367 88.3113 146.478 88.4224 146.645 88.4779ZM146.867 87.9228H152.084C152.195 87.9228 152.306 87.9783 152.306 88.0893C152.306 88.1448 152.251 88.2003 152.195 88.2558L149.476 89.699L146.756 88.2558C146.7 88.2003 146.645 88.1448 146.645 88.0893C146.645 88.0338 146.756 87.9228 146.867 87.9228Z" fill="#8F6D4E"/>
<path d="M134.767 88.4779L137.487 89.921V90.0876C137.043 90.1986 136.765 90.4761 136.765 90.8092C136.765 91.1977 137.098 91.5307 137.487 91.5307C137.875 91.5307 138.153 91.2532 138.208 90.9202C138.208 90.8647 138.153 90.8092 138.097 90.8092C138.042 90.8092 137.986 90.8647 137.986 90.9202C137.986 91.0312 137.931 91.0867 137.875 91.1422C137.764 91.2532 137.653 91.3087 137.542 91.3087C137.265 91.3087 137.098 91.0867 137.098 90.8647C137.098 90.7536 137.154 90.6981 137.209 90.5871C137.32 90.4761 137.431 90.4206 137.598 90.3651L137.82 90.3096V90.2541V89.921L140.539 88.4779C140.706 88.4224 140.761 88.2558 140.761 88.0893C140.761 87.8673 140.539 87.6453 140.262 87.6453H135.044C134.767 87.6453 134.545 87.8673 134.545 88.0893C134.489 88.3113 134.6 88.4224 134.767 88.4779ZM134.989 87.9228H140.206C140.317 87.9228 140.428 87.9783 140.428 88.0893C140.428 88.1448 140.373 88.2003 140.317 88.2558L137.598 89.699L134.878 88.2558C134.822 88.2003 134.767 88.1448 134.767 88.0893C134.767 88.0338 134.878 87.9228 134.989 87.9228Z" fill="#8F6D4E"/>
<path d="M131.936 87.7007H126.718C126.441 87.7007 126.219 87.9227 126.219 88.1448C126.219 88.3113 126.33 88.4223 126.441 88.5333L129.161 89.9765V90.143C128.717 90.254 128.439 90.5315 128.439 90.8646C128.439 91.2531 128.772 91.5862 129.161 91.5862C129.549 91.5862 129.827 91.3086 129.882 90.9756C129.882 90.9201 129.827 90.8646 129.771 90.8646C129.716 90.8646 129.66 90.9201 129.66 90.9756C129.66 91.0866 129.605 91.1421 129.549 91.1976C129.438 91.3087 129.327 91.3642 129.216 91.3642C128.939 91.3642 128.772 91.1421 128.772 90.9201C128.772 90.8091 128.828 90.7536 128.883 90.6426C128.994 90.5316 129.105 90.476 129.272 90.4205L129.494 90.365V90.3095V89.9765L132.213 88.5333C132.38 88.4778 132.436 88.3113 132.436 88.1448C132.436 87.8672 132.213 87.7007 131.936 87.7007ZM132.047 88.2558L129.327 89.6989L126.607 88.2558C126.552 88.2002 126.496 88.1447 126.496 88.0892C126.496 87.9782 126.607 87.9227 126.718 87.9227H131.936C132.047 87.9227 132.158 87.9782 132.158 88.0892C132.158 88.2003 132.102 88.2558 132.047 88.2558Z" fill="#8F6D4E"/>
<path d="M123.664 87.7007H118.447C118.169 87.7007 117.947 87.9227 117.947 88.1448C117.947 88.3113 118.058 88.4223 118.169 88.5333L120.889 89.9765V90.143C120.445 90.254 120.168 90.5315 120.168 90.8646C120.168 91.2531 120.501 91.5862 120.889 91.5862C121.278 91.5862 121.555 91.3086 121.611 90.9756C121.611 90.9201 121.555 90.8646 121.5 90.8646C121.444 90.8646 121.389 90.9201 121.389 90.9756C121.389 91.0866 121.333 91.1421 121.278 91.1976C121.167 91.3087 121.056 91.3642 120.945 91.3642C120.667 91.3642 120.501 91.1421 120.501 90.9201C120.501 90.8091 120.556 90.7536 120.612 90.6426C120.723 90.5316 120.834 90.476 121 90.4205L121.222 90.365V90.3095V89.9765L123.942 88.5333C124.109 88.4778 124.164 88.3113 124.164 88.1448C124.164 87.8672 123.942 87.7007 123.664 87.7007ZM123.775 88.2558L121.056 89.6989L118.336 88.2558C118.28 88.2002 118.225 88.1447 118.225 88.0892C118.225 87.9782 118.336 87.9227 118.447 87.9227H123.664C123.775 87.9227 123.886 87.9782 123.886 88.0892C123.886 88.2003 123.831 88.2558 123.775 88.2558Z" fill="#8F6D4E"/>
<path d="M115.449 86.535H115.338V92.4187H143.036H143.369H154.526V86.3685H143.369H143.036H136.042V86.0909H122.776V86.3685H115.393V86.535H115.449ZM154.193 92.0857H143.369V86.7015H154.193V92.0857ZM143.036 86.7015V92.0857H115.671V86.7015H125.218V86.424H133.877V86.7015H143.036Z" fill="#8F6D4E"/>
<path d="M122.887 57.0609C122.61 57.0609 122.388 57.2829 122.388 57.505C122.388 57.6715 122.499 57.7825 122.61 57.8935L125.33 59.3367V59.5032C124.886 59.6142 124.608 59.8917 124.608 60.2248C124.608 60.6133 124.941 60.9464 125.33 60.9464C125.718 60.9464 125.996 60.6688 126.051 60.3358C126.051 60.2803 125.996 60.2248 125.94 60.2248C125.885 60.2248 125.829 60.2803 125.829 60.3358C125.829 60.4468 125.774 60.5023 125.718 60.5578C125.607 60.6688 125.496 60.7243 125.385 60.7243C125.108 60.7243 124.941 60.5023 124.941 60.2803C124.941 60.1693 124.997 60.1138 125.052 60.0028C125.163 59.8918 125.274 59.8362 125.441 59.7807L125.663 59.7252V59.6697V59.3367L128.382 57.8935C128.549 57.838 128.604 57.6715 128.604 57.505C128.604 57.2829 128.382 57.0609 128.105 57.0609H122.887V57.0609ZM128.105 57.3384C128.216 57.3384 128.327 57.3939 128.327 57.505C128.327 57.5605 128.271 57.616 128.216 57.6715L125.496 59.1146L122.776 57.6715C122.721 57.616 122.665 57.5605 122.665 57.505C122.665 57.3939 122.776 57.3384 122.887 57.3384H128.105Z" fill="#8F6D4E"/>
<path d="M118.169 57.0609H112.952C112.674 57.0609 112.452 57.2829 112.452 57.505C112.452 57.6715 112.563 57.7825 112.674 57.8935L115.394 59.3367V59.5032C114.95 59.6142 114.672 59.8917 114.672 60.2248C114.672 60.6133 115.005 60.9464 115.394 60.9464C115.783 60.9464 116.06 60.6688 116.116 60.3358C116.116 60.2803 116.06 60.2248 116.005 60.2248C115.949 60.2248 115.894 60.2803 115.894 60.3358C115.894 60.4468 115.838 60.5023 115.783 60.5578C115.672 60.6688 115.561 60.7243 115.45 60.7243C115.172 60.7243 115.005 60.5023 115.005 60.2803C115.005 60.1693 115.061 60.1138 115.116 60.0028C115.227 59.8918 115.339 59.8362 115.505 59.7807L115.727 59.7252V59.6697V59.3367L118.447 57.8935C118.613 57.838 118.669 57.6715 118.669 57.505C118.669 57.2829 118.447 57.0609 118.169 57.0609ZM118.28 57.6715L115.561 59.1146L112.841 57.6715C112.785 57.616 112.73 57.5605 112.73 57.505C112.73 57.3939 112.841 57.3384 112.952 57.3384H118.169C118.28 57.3384 118.391 57.3939 118.391 57.505C118.391 57.5605 118.336 57.616 118.28 57.6715Z" fill="#8F6D4E"/>
<path d="M109.732 55.951H109.677V61.8347H131.435V56.1175V55.951V55.7844H126.551V55.5069H114.728V55.7844H109.788V55.951H109.732ZM131.102 56.1175V61.5017H110.01V56.1175H117.115V55.84H124.331V56.1175H131.102Z" fill="#8F6D4E"/>
<path d="M177.839 92.4188C177.95 92.4188 178.006 92.3633 178.006 92.2523V80.9289C178.006 80.8179 177.95 80.7624 177.839 80.7624H169.125C167.571 80.7624 166.294 82.0391 166.294 83.5933V92.3078C166.294 92.4188 166.349 92.4743 166.46 92.4743H177.839V92.4188ZM166.627 83.5377C166.627 82.1501 167.737 81.0399 169.125 81.0399H177.673V92.0303H166.682V83.5377H166.627Z" fill="#8F6D4E"/>
<path d="M175.896 89.5323C175.674 89.5323 175.452 89.7543 175.452 89.9763C175.452 90.1984 175.674 90.4204 175.896 90.4204C176.118 90.4204 176.34 90.1984 176.34 89.9763C176.34 89.7543 176.174 89.5323 175.896 89.5323ZM175.896 90.0874C175.841 90.0874 175.785 90.0318 175.785 89.9763C175.785 89.9208 175.841 89.8653 175.896 89.8653C175.952 89.8653 176.007 89.9208 176.007 89.9763C176.007 90.0318 175.952 90.0874 175.896 90.0874Z" fill="#8F6D4E"/>
<path d="M175.953 88.4224C176.064 88.4224 176.119 88.3669 176.119 88.2559V84.7034C176.119 84.5924 176.064 84.5369 175.953 84.5369C175.842 84.5369 175.786 84.5924 175.786 84.7034V88.2559C175.786 88.3669 175.842 88.4224 175.953 88.4224Z" fill="#8F6D4E"/>
<path d="M174.287 89.8098H170.735C170.624 89.8098 170.568 89.8653 170.568 89.9763C170.568 90.0873 170.624 90.1428 170.735 90.1428H174.287C174.398 90.1428 174.454 90.0873 174.454 89.9763C174.454 89.9208 174.343 89.8098 174.287 89.8098Z" fill="#8F6D4E"/>
<path d="M172.178 85.8692C172.122 85.8137 172.011 85.8137 171.956 85.8692C171.9 85.9247 171.9 86.0357 171.956 86.0912L174.676 88.8111C174.731 88.8666 174.731 88.8666 174.787 88.8666C174.842 88.8666 174.898 88.8666 174.898 88.8111C174.953 88.7556 174.953 88.6446 174.898 88.5891L172.178 85.8692Z" fill="#8F6D4E"/>
<path d="M137.098 50.6776H137.93L137.542 51.3992C137.486 51.4547 137.542 51.5657 137.597 51.6212H137.653C137.708 51.6212 137.764 51.5657 137.819 51.5102L138.208 50.7886L138.596 51.5102C138.652 51.5657 138.707 51.6212 138.763 51.6212C138.818 51.6212 138.818 51.6212 138.874 51.6212C138.929 51.5657 138.985 51.4547 138.929 51.3992L138.541 50.6776H139.373C139.484 50.6776 139.54 50.6221 139.54 50.5111C139.54 50.4 139.484 50.3445 139.373 50.3445H138.541L138.929 49.623C138.985 49.5675 138.929 49.4564 138.874 49.4009C138.818 49.3454 138.707 49.4009 138.652 49.4564L138.263 50.178L137.875 49.4564C137.819 49.4009 137.708 49.3454 137.653 49.4009C137.597 49.4564 137.542 49.5675 137.597 49.623L137.986 50.3445H137.153C137.042 50.3445 136.987 50.4 136.987 50.5111C136.931 50.6221 136.987 50.6776 137.098 50.6776Z" fill="#8F6D4E"/>
<path d="M65.2149 50.1782C65.2149 49.5676 64.7154 49.1235 64.1603 49.1235H56.9999C56.3894 49.1235 55.9453 49.6231 55.9453 50.1782V50.8998V51.2328V57.4496V59.2258V64.721V66.4972V72.7139V73.047V73.7686C55.9453 74.3792 56.4449 74.8232 56.9999 74.8232H57.555H64.1048C64.7154 74.8232 65.1594 74.3236 65.1594 73.7686C65.1594 73.269 64.8264 72.8805 64.3823 72.7695C64.6044 72.6029 64.7154 72.3254 64.7154 72.0479V66.4972C64.7154 66.1642 64.5489 65.8311 64.2713 65.6646C64.5489 65.4981 64.7154 65.165 64.7154 64.832V59.2813C64.7154 58.9483 64.5489 58.6152 64.2713 58.4487C64.3823 58.3932 64.4934 58.2822 64.6044 58.1156C64.7709 58.3932 65.1039 58.6152 65.4925 58.6152H71.0987C71.6537 58.6152 72.0978 58.1712 72.0978 57.6161V52.0654C72.0978 51.5104 71.6537 51.0663 71.0987 51.0663H65.4925C65.1039 51.0663 64.7709 51.2328 64.6044 51.5658C64.5489 51.5103 64.4934 51.3993 64.4379 51.3438C64.8819 51.0663 65.2149 50.6777 65.2149 50.1782ZM56.2784 50.1782C56.2784 49.7896 56.6114 49.4566 56.9999 49.4566H57.222V50.8998H56.2784V50.1782ZM57.222 51.2328V58.1712H56.9999C56.6114 58.1712 56.2784 57.8381 56.2784 57.4496V51.2328H57.222ZM57.222 65.4426H56.9999C56.6114 65.4426 56.2784 65.1095 56.2784 64.721V59.2258C56.2784 58.8372 56.6114 58.5042 56.9999 58.5042H57.222V65.4426ZM56.2784 58.2267C56.3339 58.2822 56.3894 58.3377 56.4449 58.3377C56.3894 58.3932 56.3339 58.3932 56.2784 58.4487V58.2267ZM56.2784 65.498C56.3339 65.5536 56.3894 65.6091 56.4449 65.6091C56.3894 65.6646 56.3339 65.6646 56.2784 65.7201V65.498ZM56.2784 66.4972C56.2784 66.1086 56.6114 65.7756 56.9999 65.7756H57.222V72.7139H56.2784V66.4972ZM56.9999 74.5457C56.6114 74.5457 56.2784 74.2126 56.2784 73.8241V73.1025H57.222V74.6012H56.9999V74.5457ZM64.1603 73.047C64.5489 73.047 64.8819 73.38 64.8819 73.7686C64.8819 74.1571 64.5489 74.4902 64.1603 74.4902H57.6105V72.9915H63.7163H64.1603V73.047ZM64.4379 66.4972V72.0479C64.4379 72.4364 64.1048 72.7139 63.7718 72.7139H57.6105V65.7756H63.7163C64.1048 65.7756 64.4379 66.1086 64.4379 66.4972ZM64.4379 59.2258V64.7765C64.4379 65.165 64.1048 65.4426 63.7718 65.4426H57.6105V58.5042H63.7163C64.1048 58.5042 64.4379 58.8372 64.4379 59.2258ZM65.4925 51.2328H71.0987C71.4872 51.2328 71.7648 51.5658 71.7648 51.8989V57.4496C71.7648 57.8381 71.4317 58.1156 71.0987 58.1156H65.4925C65.1039 58.1156 64.7709 57.7826 64.7709 57.3941V51.8989C64.7709 51.5658 65.1039 51.2328 65.4925 51.2328ZM64.4379 57.4496C64.4379 57.8936 64.1048 58.1712 63.7718 58.1712H57.6105V51.2328H63.7163C64.1048 51.2328 64.3823 51.5658 64.3823 51.8989V51.9544V57.4496H64.4379ZM64.1603 50.8998H63.7163H57.555V49.4011H64.1048C64.4934 49.4011 64.8264 49.7341 64.8264 50.1227C64.8819 50.5667 64.5489 50.8998 64.1603 50.8998Z" fill="#8F6D4E"/>
<path d="M67.9355 60.9463V69.7164C67.9355 69.8274 67.9911 69.8829 68.1021 69.8829H74.7629C74.8739 69.8829 74.9294 69.8274 74.9294 69.7164V60.9463C74.9294 60.8353 74.8739 60.7798 74.7629 60.7798H68.1021C67.9911 60.7798 67.9355 60.8353 67.9355 60.9463ZM68.2686 61.1128H74.5964V69.5499H68.2686V61.1128V61.1128Z" fill="#8F6D4E"/>
<path d="M51.7832 28.5304C51.8387 28.4749 51.8387 28.4194 51.8387 28.3639C51.8387 28.3084 51.8387 28.2529 51.7832 28.1974C51.7277 28.1419 51.5612 28.1419 51.5057 28.1974C51.4502 28.2529 51.4502 28.3084 51.4502 28.3639C51.4502 28.4194 51.4502 28.4749 51.5057 28.5304C51.5612 28.5859 51.6167 28.5859 51.6722 28.5859C51.6722 28.5859 51.7277 28.5859 51.7832 28.5304Z" fill="#8F6D4E"/>
<path d="M46.1766 30.4178C46.2321 30.4178 46.2876 30.4178 46.2876 30.3623C46.3986 30.3068 46.3986 30.1403 46.3431 30.0848C46.2876 29.9737 46.1211 29.9738 46.0656 30.0293C45.9546 30.0848 45.9546 30.2513 46.0101 30.3068C46.0101 30.4178 46.1211 30.4178 46.1766 30.4178Z" fill="#8F6D4E"/>
<path d="M47.5643 29.5295C47.6198 29.5295 47.6198 29.5295 47.6753 29.5295C47.7863 29.474 47.8418 29.363 47.7863 29.252C47.7308 29.141 47.6198 29.0855 47.5088 29.141C47.3978 29.1965 47.3422 29.3075 47.3978 29.4185C47.4533 29.5295 47.5088 29.5295 47.5643 29.5295Z" fill="#8F6D4E"/>
<path d="M49.063 28.5305C48.952 28.586 48.8965 28.697 48.8965 28.8081C48.952 28.9191 49.0075 28.9746 49.1185 28.9746H49.174C49.285 28.9191 49.3405 28.808 49.3405 28.697C49.285 28.586 49.174 28.5305 49.063 28.5305Z" fill="#8F6D4E"/>
<path d="M46.8426 29.9736C46.8981 29.9736 46.8981 29.9736 46.9536 29.9736C47.0647 29.9181 47.0647 29.807 47.0091 29.696C46.9536 29.585 46.8426 29.585 46.7316 29.6405C46.6206 29.696 46.6206 29.8071 46.6761 29.9181C46.7316 29.9181 46.7871 29.9736 46.8426 29.9736Z" fill="#8F6D4E"/>
<path d="M43.7902 32.8598C43.8457 32.8598 43.8457 32.9154 43.9012 32.9154C43.9567 32.9154 44.0122 32.8599 44.0677 32.8044C44.1232 32.6933 44.1233 32.5823 44.0122 32.5268C43.9012 32.4713 43.7902 32.4713 43.7347 32.5823C43.6792 32.6933 43.6792 32.8043 43.7902 32.8598Z" fill="#8F6D4E"/>
<path d="M44.9007 31.5834C44.9562 31.5834 45.0117 31.5834 45.0672 31.5279C45.1227 31.4169 45.1227 31.3059 45.0672 31.2504C44.9562 31.1949 44.8452 31.1949 44.7897 31.2504C44.7342 31.3059 44.7342 31.4724 44.7897 31.5279C44.8452 31.5279 44.8452 31.5834 44.9007 31.5834Z" fill="#8F6D4E"/>
<path d="M44.2337 31.861C44.1782 31.972 44.1782 32.083 44.2892 32.1386C44.3447 32.1386 44.3447 32.194 44.4002 32.194C44.4558 32.194 44.5113 32.1941 44.5668 32.0831C44.6223 31.972 44.6223 31.861 44.5113 31.8055C44.4002 31.75 44.2892 31.8055 44.2337 31.861Z" fill="#8F6D4E"/>
<path d="M49.7285 28.5858C49.7285 28.6968 49.8395 28.7523 49.9505 28.7523C49.9505 28.7523 49.9505 28.7523 50.006 28.7523C50.1171 28.7523 50.1726 28.6413 50.1726 28.5303C50.1726 28.4193 50.0616 28.3638 49.9505 28.3638C49.784 28.3638 49.7285 28.4748 49.7285 28.5858Z" fill="#8F6D4E"/>
<path d="M42.9573 34.8027C42.8463 34.7472 42.7353 34.8582 42.6798 34.9692C42.6243 35.0802 42.7353 35.1912 42.8463 35.2467H42.9018C43.0128 35.2467 43.0684 35.1912 43.1239 35.0802C43.1239 34.9137 43.0684 34.8027 42.9573 34.8027Z" fill="#8F6D4E"/>
<path d="M48.2861 28.808C48.1751 28.8635 48.1196 28.9745 48.1751 29.0856C48.2306 29.1411 48.2861 29.1966 48.3416 29.1966C48.3971 29.1966 48.3971 29.1966 48.3971 29.1966C48.5081 29.1411 48.5636 29.0301 48.5081 28.919C48.5081 28.808 48.3971 28.7525 48.2861 28.808Z" fill="#8F6D4E"/>
<path d="M42.5689 36.8008C42.6799 36.8008 42.7909 36.7453 42.7909 36.6343C42.7909 36.5233 42.7354 36.4123 42.6244 36.4123C42.5134 36.4123 42.4023 36.4678 42.4023 36.5788C42.4023 36.6898 42.4579 36.8008 42.5689 36.8008Z" fill="#8F6D4E"/>
<path d="M45.5117 30.9726C45.5672 30.9726 45.6227 30.9726 45.6782 30.9171C45.7337 30.8616 45.7892 30.695 45.6782 30.6395C45.6227 30.5285 45.4561 30.5285 45.4006 30.6395C45.2896 30.695 45.2896 30.8616 45.4006 30.9171C45.4006 30.9726 45.4561 30.9726 45.5117 30.9726Z" fill="#8F6D4E"/>
<path d="M42.6803 36.0241C42.7913 36.0241 42.9023 35.9686 42.9023 35.8575C42.9023 35.7465 42.8468 35.6355 42.7358 35.6355C42.6248 35.6355 42.5138 35.691 42.5138 35.802C42.4583 35.8575 42.5693 35.9685 42.6803 36.0241Z" fill="#8F6D4E"/>
<path d="M50.5625 28.4748C50.5625 28.5859 50.6735 28.6414 50.7845 28.6414C50.8955 28.6414 51.0066 28.5303 50.951 28.4193C50.951 28.3083 50.84 28.1973 50.729 28.2528C50.6735 28.2528 50.5625 28.3638 50.5625 28.4748Z" fill="#8F6D4E"/>
<path d="M43.4011 33.5815C43.4566 33.5815 43.4566 33.5815 43.5121 33.5815C43.5676 33.5815 43.6786 33.526 43.6786 33.4705C43.7341 33.3595 43.6786 33.2485 43.5676 33.193C43.4566 33.1375 43.3455 33.193 43.29 33.304C43.29 33.415 43.29 33.526 43.4011 33.5815Z" fill="#8F6D4E"/>
<path d="M43.069 34.3588H43.1245C43.2355 34.3588 43.2911 34.3032 43.3466 34.2477C43.4021 34.1367 43.3466 34.0257 43.2355 33.9702C43.1245 33.9147 43.0135 33.9702 42.958 34.0812C42.958 34.1922 42.958 34.3588 43.069 34.3588Z" fill="#8F6D4E"/>
<path d="M42.5689 37.6889C42.6244 37.6889 42.6799 37.6889 42.7354 37.6334C42.7909 37.5779 42.7909 37.5224 42.7909 37.4669C42.7909 37.4114 42.7909 37.3559 42.7354 37.3004C42.6799 37.2449 42.5134 37.2449 42.4578 37.3004C42.4023 37.3559 42.4023 37.4114 42.4023 37.4669C42.4023 37.5224 42.4023 37.5779 42.4578 37.6334C42.4578 37.6334 42.5134 37.6889 42.5689 37.6889Z" fill="#8F6D4E"/>
<path d="M39.3495 11.7119C39.2939 11.7674 39.2939 11.8229 39.2939 11.8784C39.2939 11.9339 39.2939 11.9894 39.3495 12.0449C39.405 12.1005 39.4605 12.1005 39.516 12.1005C39.5715 12.1005 39.627 12.1005 39.6825 12.0449C39.738 11.9894 39.738 11.9339 39.738 11.8784C39.738 11.8229 39.738 11.7674 39.6825 11.7119C39.516 11.6564 39.405 11.6564 39.3495 11.7119Z" fill="#8F6D4E"/>
<path d="M49.73 5.05101H49.7855C49.841 5.05101 49.952 4.9955 49.952 4.93999C50.0075 4.82898 49.952 4.71797 49.841 4.66246C49.73 4.60695 49.619 4.66247 49.5635 4.77348C49.5635 4.88449 49.619 4.99551 49.73 5.05101Z" fill="#8F6D4E"/>
<path d="M45.0126 10.6018C45.0681 10.6018 45.0681 10.6018 45.1236 10.6018C45.2346 10.5463 45.2346 10.4353 45.1791 10.3243C45.1236 10.2133 45.0126 10.2132 44.9015 10.2688C44.7905 10.3243 44.7905 10.4353 44.846 10.5463C44.9015 10.5463 44.957 10.6018 45.0126 10.6018Z" fill="#8F6D4E"/>
<path d="M49.3965 5.77257C49.3965 5.77257 49.452 5.77257 49.5075 5.77257C49.563 5.77257 49.674 5.71706 49.674 5.66155C49.7295 5.55054 49.674 5.43952 49.563 5.38402C49.452 5.32851 49.341 5.38402 49.2854 5.49504C49.2299 5.60605 49.2854 5.71707 49.3965 5.77257Z" fill="#8F6D4E"/>
<path d="M47.6194 8.54788C47.6749 8.54788 47.7305 8.54789 47.786 8.49238C47.8415 8.43688 47.8415 8.27035 47.786 8.21485C47.6749 8.15934 47.5639 8.15934 47.5084 8.21485C47.4529 8.27035 47.4529 8.43688 47.5084 8.49238C47.5084 8.49238 47.5639 8.54788 47.6194 8.54788Z" fill="#8F6D4E"/>
<path d="M48.1756 7.88194C48.2311 7.88194 48.2867 7.88196 48.3422 7.82645C48.3977 7.71544 48.3977 7.60442 48.2866 7.54892C48.1756 7.49341 48.0646 7.4934 48.0091 7.60441C47.9536 7.71542 47.9536 7.82644 48.0646 7.88194C48.0646 7.88194 48.1201 7.88194 48.1756 7.88194Z" fill="#8F6D4E"/>
<path d="M45.7335 10.1576C45.789 10.1576 45.789 10.1575 45.8445 10.102C45.9555 10.0465 45.9555 9.93552 45.9 9.8245C45.8445 9.71349 45.6779 9.7135 45.6224 9.76901C45.5669 9.82452 45.5114 9.99104 45.5669 10.0465C45.6224 10.102 45.6779 10.1576 45.7335 10.1576Z" fill="#8F6D4E"/>
<path d="M49.0076 6.49439C49.0631 6.49439 49.0631 6.54992 49.1186 6.54992C49.1741 6.54992 49.2296 6.4944 49.2852 6.4389C49.3407 6.32788 49.2852 6.21687 49.2296 6.16136C49.1186 6.10585 49.0076 6.16135 48.9521 6.21685C48.8411 6.32787 48.8966 6.43888 49.0076 6.49439Z" fill="#8F6D4E"/>
<path d="M50.4508 2.60871C50.5618 2.60871 50.6728 2.55321 50.6728 2.44219C50.6728 2.33118 50.6173 2.22015 50.5063 2.22015C50.3953 2.22015 50.2843 2.27569 50.2843 2.3867C50.2288 2.49772 50.3398 2.60871 50.4508 2.60871Z" fill="#8F6D4E"/>
<path d="M40.2936 12.045C40.4046 12.045 40.5156 11.934 40.5156 11.823C40.5156 11.712 40.4046 11.6009 40.2936 11.6564C40.1826 11.6564 40.0716 11.7675 40.1271 11.8785C40.1271 11.9895 40.1826 12.045 40.2936 12.045Z" fill="#8F6D4E"/>
<path d="M41.1255 11.9894C41.292 11.9894 41.3475 11.8784 41.3475 11.7674C41.3475 11.6564 41.2365 11.6009 41.1255 11.6009C41.0145 11.6009 40.959 11.7119 40.959 11.8229C40.959 11.8784 41.0145 11.9894 41.1255 11.9894Z" fill="#8F6D4E"/>
<path d="M50.2848 3.44136C50.3958 3.44136 50.5068 3.38586 50.5068 3.27485C50.5068 3.16383 50.4513 3.05282 50.3403 2.99731C50.2293 2.99731 50.1183 3.05281 50.1183 3.16383C50.0628 3.33035 50.1738 3.44136 50.2848 3.44136Z" fill="#8F6D4E"/>
<path d="M42.735 11.6009H42.7905C42.9015 11.5454 42.957 11.4344 42.9015 11.3233C42.846 11.2123 42.735 11.1568 42.624 11.2123C42.513 11.2678 42.4575 11.3788 42.513 11.4899C42.5685 11.5454 42.6795 11.6009 42.735 11.6009Z" fill="#8F6D4E"/>
<path d="M41.9586 11.823C42.1252 11.823 42.1807 11.712 42.1807 11.5455C42.1807 11.4345 42.0696 11.379 41.9586 11.379C41.8476 11.4345 41.7921 11.49 41.7921 11.6565C41.7366 11.7675 41.8476 11.823 41.9586 11.823Z" fill="#8F6D4E"/>
<path d="M43.5124 11.3235H43.5679C43.6789 11.268 43.7344 11.157 43.6789 11.0459C43.6234 10.9349 43.5124 10.8794 43.4013 10.9349C43.2903 10.9904 43.2348 11.1014 43.2903 11.2125C43.3458 11.268 43.4569 11.3235 43.5124 11.3235Z" fill="#8F6D4E"/>
<path d="M48.6747 7.21588C48.7302 7.21588 48.7857 7.1604 48.8412 7.10489C48.8967 6.99388 48.8967 6.88287 48.7857 6.82736C48.6747 6.77185 48.5636 6.77184 48.5081 6.88285C48.4526 6.99387 48.4526 7.10488 48.5636 7.16039C48.5636 7.21589 48.6192 7.21588 48.6747 7.21588Z" fill="#8F6D4E"/>
<path d="M50.5628 1.38763C50.4518 1.38763 50.3408 1.44317 50.3408 1.55418C50.3408 1.6652 50.3963 1.77619 50.5073 1.77619C50.6184 1.77619 50.7294 1.72069 50.7294 1.60968C50.7849 1.49866 50.6739 1.38763 50.5628 1.38763Z" fill="#8F6D4E"/>
<path d="M46.3995 9.65816C46.455 9.65816 46.5105 9.65817 46.5105 9.60267C46.6215 9.54716 46.6215 9.38064 46.566 9.32513C46.5105 9.21412 46.344 9.2141 46.2885 9.26961C46.233 9.32511 46.1774 9.49163 46.233 9.54714C46.2885 9.65815 46.344 9.65816 46.3995 9.65816Z" fill="#8F6D4E"/>
<path d="M44.2899 10.9901C44.3454 10.9901 44.3454 10.9901 44.4009 10.9901C44.5119 10.9346 44.5674 10.8236 44.5119 10.7126C44.4564 10.6016 44.3454 10.546 44.2344 10.6015C44.1233 10.6571 44.0678 10.7681 44.1233 10.8791C44.1233 10.9346 44.2344 10.9901 44.2899 10.9901Z" fill="#8F6D4E"/>
<path d="M50.006 4.21833H50.0615C50.1725 4.21833 50.2281 4.16283 50.2836 4.05182C50.3391 3.9408 50.2836 3.82979 50.1725 3.77428C50.0615 3.71878 49.9505 3.77426 49.895 3.88527C49.8395 4.1073 49.9505 4.21833 50.006 4.21833Z" fill="#8F6D4E"/>
<path d="M47.0097 9.10293C47.0652 9.10293 47.1207 9.10295 47.1762 9.04744C47.2317 8.99193 47.2872 8.82541 47.1762 8.76991C47.0652 8.65889 46.9542 8.65889 46.8987 8.76991C46.7877 8.82541 46.7877 8.99193 46.8987 9.04744C46.8987 9.10295 46.9542 9.10293 47.0097 9.10293Z" fill="#8F6D4E"/>
<path d="M37.6289 16.2633C37.5734 16.2078 37.4069 16.2078 37.3514 16.2633C37.2959 16.3188 37.2959 16.3743 37.2959 16.4298C37.2959 16.4853 37.2959 16.5408 37.3514 16.5963C37.4069 16.6518 37.4624 16.6518 37.5179 16.6518C37.5734 16.6518 37.6289 16.6518 37.6844 16.5963C37.74 16.5408 37.74 16.4853 37.74 16.4298C37.6844 16.3743 37.6844 16.3188 37.6289 16.2633Z" fill="#8F6D4E"/>
<path d="M36.6294 20.2601C36.5184 20.2045 36.4074 20.2601 36.3519 20.3711C36.2963 20.4821 36.3519 20.5931 36.4629 20.6486C36.5184 20.6486 36.5184 20.6486 36.5739 20.6486C36.6294 20.6486 36.7404 20.5931 36.7404 20.5376C36.7404 20.4266 36.7404 20.3156 36.6294 20.2601Z" fill="#8F6D4E"/>
<path d="M35.7972 21.9806C35.8527 21.8696 35.8527 21.7586 35.7417 21.7031C35.6307 21.6476 35.5197 21.6476 35.4642 21.7586C35.4087 21.8696 35.4087 21.9806 35.5197 22.0361C35.5752 22.0361 35.5752 22.0916 35.6307 22.0916C35.6862 22.0916 35.7972 22.0361 35.7972 21.9806Z" fill="#8F6D4E"/>
<path d="M35.242 22.6466C35.2975 22.591 35.2975 22.4245 35.242 22.369C35.1865 22.3135 35.02 22.3135 34.9645 22.369C34.909 22.48 34.909 22.591 34.9645 22.6466C35.02 22.7021 35.0755 22.7021 35.0755 22.7021C35.1865 22.7021 35.242 22.7021 35.242 22.6466Z" fill="#8F6D4E"/>
<path d="M34.687 23.2573C34.7425 23.2018 34.798 23.0353 34.687 22.9798C34.6315 22.8688 34.4649 22.8688 34.4094 22.9798C34.2984 23.0353 34.2984 23.2018 34.4094 23.2573C34.4649 23.3128 34.5204 23.3128 34.576 23.3128C34.576 23.3128 34.6315 23.3128 34.687 23.2573Z" fill="#8F6D4E"/>
<path d="M36.2408 21.037C36.1297 20.9814 36.0187 20.9814 35.9632 21.0924C35.9077 21.2035 35.9077 21.3145 36.0187 21.37C36.0742 21.37 36.0742 21.4255 36.1297 21.4255C36.1852 21.4255 36.2408 21.37 36.2963 21.3145C36.3518 21.2035 36.3518 21.0925 36.2408 21.037Z" fill="#8F6D4E"/>
<path d="M37.1294 19.0944C37.2404 19.0944 37.2959 19.0389 37.3514 18.9279C37.4069 18.8168 37.2959 18.7058 37.1849 18.6503C37.0739 18.5948 36.9628 18.7058 36.9073 18.8168C36.8518 18.9279 36.9629 19.0389 37.0739 19.0944H37.1294Z" fill="#8F6D4E"/>
<path d="M36.8522 19.8714C36.9077 19.8714 37.0187 19.8159 37.0187 19.7604C37.0742 19.6494 37.0187 19.5383 36.9077 19.4828C36.7967 19.4273 36.6857 19.4828 36.6302 19.5939C36.5747 19.7049 36.6302 19.8159 36.7412 19.8714C36.7967 19.8714 36.8522 19.8714 36.8522 19.8714Z" fill="#8F6D4E"/>
<path d="M37.6288 17.2626C37.6288 17.1516 37.5733 17.0405 37.4623 17.0405C37.3512 17.0405 37.2402 17.096 37.2402 17.207C37.2402 17.3181 37.2957 17.4291 37.4068 17.4291C37.5178 17.4846 37.6288 17.3736 37.6288 17.2626Z" fill="#8F6D4E"/>
<path d="M37.5184 18.0951C37.5184 17.9841 37.4629 17.873 37.3519 17.873C37.2409 17.873 37.1299 17.9285 37.1299 18.0396C37.1299 18.1506 37.1854 18.2616 37.2964 18.2616H37.3519C37.4074 18.2616 37.5184 18.2061 37.5184 18.0951Z" fill="#8F6D4E"/>
<path d="M30.9134 25.3667C31.08 25.3112 31.1355 25.2002 31.1355 25.0892C31.08 24.9782 30.9689 24.9227 30.8579 24.9227C30.7469 24.9227 30.6914 25.0892 30.6914 25.2002C30.7469 25.3112 30.8024 25.3667 30.9134 25.3667Z" fill="#8F6D4E"/>
<path d="M30.1351 25.5329C30.2461 25.5329 30.3016 25.4219 30.3016 25.3109C30.3016 25.1998 30.1906 25.1443 30.0796 25.1443C29.9686 25.1443 29.9131 25.2553 29.9131 25.3664C29.9131 25.4774 29.9686 25.5329 30.1351 25.5329C30.1351 25.5329 30.0796 25.5329 30.1351 25.5329Z" fill="#8F6D4E"/>
<path d="M31.6901 25.089H31.7456C31.8566 25.0335 31.9121 24.9225 31.8566 24.8114C31.8011 24.7004 31.6901 24.6449 31.5791 24.7004C31.4681 24.7559 31.4126 24.8669 31.4681 24.978C31.5236 25.0335 31.6346 25.089 31.6901 25.089Z" fill="#8F6D4E"/>
<path d="M34.021 23.8125C34.132 23.757 34.132 23.5905 34.0765 23.535C34.021 23.424 33.8545 23.424 33.799 23.4795C33.688 23.535 33.688 23.7015 33.7435 23.7571C33.799 23.8126 33.8545 23.8125 33.91 23.8125C33.91 23.8681 33.9655 23.8681 34.021 23.8125Z" fill="#8F6D4E"/>
<path d="M29.4687 25.422C29.4687 25.311 29.3577 25.2 29.2467 25.2555C29.1357 25.2555 29.0247 25.3665 29.0802 25.4775C29.0802 25.5885 29.1912 25.644 29.3022 25.644C29.4132 25.644 29.4687 25.533 29.4687 25.422Z" fill="#8F6D4E"/>
<path d="M33.2993 24.312C33.4104 24.2565 33.4104 24.1454 33.3549 24.0344C33.2993 23.9234 33.1883 23.9234 33.0773 23.9789C32.9663 24.0344 32.9663 24.1454 33.0218 24.2564C33.0773 24.3119 33.1328 24.3675 33.1883 24.3675C33.2438 24.3119 33.2438 24.312 33.2993 24.312Z" fill="#8F6D4E"/>
<path d="M32.4666 24.7558C32.4666 24.7558 32.5221 24.7558 32.5776 24.7558C32.6886 24.7003 32.7441 24.5893 32.6886 24.4783C32.6331 24.3673 32.5221 24.3118 32.4111 24.3673C32.3001 24.4228 32.2446 24.5338 32.3001 24.6448C32.3001 24.7003 32.3556 24.7558 32.4666 24.7558Z" fill="#8F6D4E"/>
<path d="M93.8574 36.7455H66.2705V1.22116V0H63.8282H50.3956V0.666089C50.3956 0.666089 50.3956 0.721602 50.3956 0.777109V0.832602V1.22116H63.8282V36.7455V37.9112H51.8943V28.808H51.5057V38.0777V39.1878H63.8282H66.2705H93.8574V84.5369H86.4195L85.9199 84.0373L78.8706 76.988L78.2045 77.654L85.0873 84.5369L85.7534 85.203L86.1975 84.7589V85.5915H93.9129V123.669H85.2539V123.281H56.2793V123.669H51.8388V121.615H50.0625V85.4805H55.3912H55.6687H56.1128H56.3903H61.8855H62.163H62.6071H62.8846H68.3798H68.6573H69.1014H69.3789H74.8741H75.1516H75.8732V84.5924H75.1516H74.8186H69.3234H69.0459H68.6018H68.3243H62.8291H62.6071H62.163H61.8855H56.3903H56.1128H55.6687H55.3912H49.9515H2.88175V39.1878H42.5691V37.9667H29.0255V25.3111H28.4704H28.3594H27.8043V37.9667H2.88175V7.9375H18.6457H19.8668V6.71634V5.77272H27.8043V16.208V16.5966H37.0739V16.1525H29.0255V1.27668H39.1832V11.4344H39.6273V0.0555271H39.1832H29.0255H27.8043H2.88175H0.439453V1.27668V6.77184V7.99299V37.9667V39.1878V84.5924V87.0347H2.88175H47.5647V123.725V128.554V128.665H56.2238V129.053H85.1983V128.665H96.2997V127.555V123.725V39.1878V36.7455H93.8574V36.7455ZM78.5375 77.654L78.8151 77.3765L85.4759 84.0373L85.1983 84.3149L78.5375 77.654ZM85.6979 84.8144L85.4204 84.5369L85.6979 84.2594L85.9754 84.5369L85.6979 84.8144ZM75.0961 84.8699H75.5402V85.314H75.0961V84.8699ZM69.3234 84.8699H74.8186V85.314H69.3234V84.8699ZM68.6018 84.8699H69.0459V85.314H68.6018V84.8699ZM62.8846 84.8699H68.3798V85.314H62.8846V84.8699ZM62.163 84.8699H62.6071V85.314H62.163V84.8699ZM56.3903 84.8699H61.8855V85.314H56.3903V84.8699ZM55.6687 84.8699H56.1128V85.314H55.6687V84.8699ZM2.88175 1.22116H27.8043V4.49607H19.8668H18.6457V5.71723V6.66082H2.88175V1.22116ZM55.3912 85.314H49.9515V84.8699H55.3912V85.314ZM56.6123 123.725H84.9763V128.609H56.6123V123.725V123.725Z" fill="#8F6D4E"/>
<path d="M83.9221 124.113H57.4453V124.835H83.9221V124.113Z" fill="#8F6D4E"/>
<path d="M83.9221 125.501H57.4453V126.222H83.9221V125.501Z" fill="#8F6D4E"/>
<path d="M21.3658 52.3985C21.3658 52.01 21.0327 51.7324 20.6442 51.7324C19.0345 51.7324 17.7578 53.0091 17.7578 54.6188C17.7578 56.2285 19.0345 57.5051 20.6442 57.5051C21.0327 57.5051 21.3102 57.2276 21.3658 56.8391C22.3094 56.5615 22.9755 55.6734 22.9755 54.6188C22.9755 53.6197 22.3094 52.7316 21.3658 52.3985ZM20.6442 57.2276C19.201 57.2276 18.0909 56.0619 18.0909 54.6743C18.0909 53.2866 19.2565 52.121 20.6442 52.121C20.8107 52.121 20.9772 52.232 21.0327 52.3985C21.0327 52.454 21.0327 52.5095 21.0327 52.5095C21.0327 52.565 21.0327 52.676 20.9772 52.7315C20.9217 52.8426 20.8107 52.8981 20.6442 52.8981C19.645 52.8981 18.8679 53.6752 18.8679 54.6743C18.8679 55.6734 19.645 56.4505 20.6442 56.4505C20.8107 56.4505 20.9217 56.506 20.9772 56.617C21.0327 56.6725 21.0327 56.728 21.0327 56.8391C21.0327 56.8946 21.0327 56.9501 21.0327 56.9501C20.9217 57.1166 20.8107 57.2276 20.6442 57.2276ZM21.3102 56.5615C21.1992 56.284 20.9217 56.1175 20.6442 56.1175C19.8671 56.1175 19.201 55.4514 19.201 54.6743C19.201 53.8972 19.8671 53.2311 20.6442 53.2311C20.9217 53.2311 21.1992 53.0646 21.3102 52.7871C22.0873 53.0646 22.6424 53.7862 22.6424 54.6743C22.6424 55.5624 22.0873 56.284 21.3102 56.5615Z" fill="#8F6D4E"/>
<path d="M21.3658 59.7808C21.3658 59.3923 21.0327 59.1147 20.6442 59.1147C19.0345 59.1147 17.7578 60.3914 17.7578 62.0011C17.7578 63.6108 19.0345 64.8875 20.6442 64.8875C21.0327 64.8875 21.3102 64.6099 21.3658 64.2214C22.3094 63.9438 22.9755 63.0557 22.9755 62.0011C22.9755 60.9465 22.3094 60.0584 21.3658 59.7808ZM20.6442 64.5544C19.201 64.5544 18.0909 63.3888 18.0909 62.0011C18.0909 60.6134 19.2565 59.4478 20.6442 59.4478C20.8107 59.4478 20.9772 59.5588 21.0327 59.7253C21.0327 59.7808 21.0327 59.8364 21.0327 59.8364C21.0327 59.8919 21.0327 60.0029 20.9772 60.0584C20.9217 60.1694 20.8107 60.2249 20.6442 60.2249C19.645 60.2249 18.8679 61.002 18.8679 62.0011C18.8679 63.0002 19.645 63.7773 20.6442 63.7773C20.8107 63.7773 20.9217 63.8328 20.9772 63.9438C21.0327 63.9994 21.0327 64.0549 21.0327 64.1659C21.0327 64.2214 21.0327 64.2769 21.0327 64.2769C20.9217 64.4434 20.8107 64.5544 20.6442 64.5544ZM21.3102 63.8884C21.1992 63.6108 20.9217 63.4443 20.6442 63.4443C19.8671 63.4443 19.201 62.7782 19.201 62.0011C19.201 61.224 19.8671 60.5579 20.6442 60.5579C20.9217 60.5579 21.1992 60.3914 21.3102 60.1139C22.0873 60.3914 22.6424 61.113 22.6424 62.0011C22.6424 62.8892 22.0873 63.6108 21.3102 63.8884Z" fill="#8F6D4E"/>
<path d="M20.6442 66.4418C19.0345 66.4418 17.7578 67.7184 17.7578 69.3281C17.7578 70.9378 19.0345 72.2145 20.6442 72.2145C21.0327 72.2145 21.3102 71.937 21.3658 71.5484C22.3094 71.2709 22.9755 70.3828 22.9755 69.3281C22.9755 68.2735 22.3094 67.3854 21.3658 67.1079C21.3102 66.7193 21.0327 66.4418 20.6442 66.4418ZM20.6442 71.8814C19.201 71.8814 18.0909 70.7158 18.0909 69.3281C18.0909 67.885 19.2565 66.7748 20.6442 66.7748C20.8107 66.7748 20.9772 66.8858 21.0327 67.0524C21.0327 67.1079 21.0327 67.1634 21.0327 67.1634C21.0327 67.2189 21.0327 67.3299 20.9772 67.3854C20.9217 67.4964 20.8107 67.5519 20.6442 67.5519C19.645 67.5519 18.8679 68.329 18.8679 69.3281C18.8679 70.3273 19.645 71.1044 20.6442 71.1044C20.8107 71.1044 20.9217 71.1599 20.9772 71.2709C21.0327 71.3264 21.0327 71.3819 21.0327 71.4929C21.0327 71.5484 21.0327 71.6039 21.0327 71.6039C20.9217 71.8259 20.8107 71.8814 20.6442 71.8814ZM22.6424 69.3281C22.6424 70.2162 22.0873 70.9378 21.3102 71.2154C21.1992 70.9378 20.9217 70.7713 20.6442 70.7713C19.8671 70.7713 19.201 70.1052 19.201 69.3281C19.201 68.551 19.8671 67.885 20.6442 67.885C20.9217 67.885 21.1992 67.7184 21.3102 67.4409C22.0873 67.7184 22.6424 68.44 22.6424 69.3281Z" fill="#8F6D4E"/>
<path d="M37.5735 66.4418C37.1849 66.4418 36.9074 66.7193 36.8519 67.1079C35.9083 67.3854 35.2422 68.2735 35.2422 69.3281C35.2422 70.3828 35.9083 71.2709 36.8519 71.5484C36.8519 71.937 37.1849 72.2145 37.5735 72.2145C39.1832 72.2145 40.4598 70.9378 40.4598 69.3281C40.4598 67.7184 39.1832 66.4418 37.5735 66.4418ZM37.5735 71.8814C37.407 71.8814 37.2404 71.7704 37.1849 71.6039C37.1849 71.5484 37.1849 71.4929 37.1849 71.4929C37.1849 71.4374 37.1849 71.3264 37.2404 71.2709C37.2959 71.1599 37.407 71.1044 37.5735 71.1044C38.5726 71.1044 39.3497 70.3273 39.3497 69.3281C39.3497 68.329 38.5726 67.5519 37.5735 67.5519C37.407 67.5519 37.2959 67.4964 37.2404 67.3854C37.1849 67.3299 37.1849 67.2744 37.1849 67.1634C37.1849 67.1078 37.1849 67.0524 37.1849 67.0524C37.2404 66.8858 37.3514 66.7748 37.5735 66.7748C39.0167 66.7748 40.1268 67.9405 40.1268 69.3281C40.1268 70.7713 39.0167 71.8814 37.5735 71.8814ZM35.5752 69.3281C35.5752 68.44 36.1303 67.7184 36.9074 67.4409C37.0184 67.7184 37.2959 67.885 37.5735 67.885C38.4061 67.885 39.0167 68.551 39.0167 69.3281C39.0167 70.1607 38.3506 70.7713 37.5735 70.7713C37.2959 70.7713 37.0184 70.9378 36.9074 71.2154C36.1303 70.9378 35.5752 70.2162 35.5752 69.3281Z" fill="#8F6D4E"/>
<path d="M37.5735 59.1147C37.1849 59.1147 36.9074 59.3923 36.8519 59.7808C35.9083 60.0584 35.2422 60.9465 35.2422 62.0011C35.2422 63.0557 35.9083 63.9438 36.8519 64.2214C36.8519 64.6099 37.1849 64.8875 37.5735 64.8875C39.1832 64.8875 40.4598 63.6108 40.4598 62.0011C40.4598 60.3914 39.1832 59.1147 37.5735 59.1147ZM37.5735 64.5544C37.407 64.5544 37.2404 64.4434 37.1849 64.2769C37.1849 64.2214 37.1849 64.1659 37.1849 64.1659C37.1849 64.1104 37.1849 63.9994 37.2404 63.9438C37.2959 63.8328 37.407 63.7773 37.5735 63.7773C38.5726 63.7773 39.3497 63.0002 39.3497 62.0011C39.3497 61.002 38.5726 60.2249 37.5735 60.2249C37.407 60.2249 37.2959 60.1694 37.2404 60.0584C37.1849 60.0029 37.1849 59.9474 37.1849 59.8364C37.1849 59.7809 37.1849 59.7253 37.1849 59.7253C37.2404 59.5588 37.3514 59.4478 37.5735 59.4478C39.0167 59.4478 40.1268 60.6134 40.1268 62.0011C40.1268 63.3888 39.0167 64.5544 37.5735 64.5544ZM35.5752 62.0011C35.5752 61.113 36.1303 60.3914 36.9074 60.1139C37.0184 60.3914 37.2959 60.5579 37.5735 60.5579C38.4061 60.5579 39.0167 61.224 39.0167 62.0011C39.0167 62.8337 38.3506 63.4443 37.5735 63.4443C37.2959 63.4443 37.0184 63.6108 36.9074 63.8884C36.1303 63.6108 35.5752 62.8892 35.5752 62.0011Z" fill="#8F6D4E"/>
<path d="M37.5735 51.7324C37.1849 51.7324 36.9074 52.01 36.8519 52.3985C35.9083 52.676 35.2422 53.5642 35.2422 54.6188C35.2422 55.6734 35.9083 56.5615 36.8519 56.8391C36.8519 57.2276 37.1849 57.5051 37.5735 57.5051C39.1832 57.5051 40.4598 56.2285 40.4598 54.6188C40.4598 53.0646 39.1832 51.7324 37.5735 51.7324ZM37.5735 57.2276C37.407 57.2276 37.2404 57.1166 37.1849 56.9501C37.1849 56.8946 37.1849 56.8391 37.1849 56.8391C37.1849 56.7835 37.1849 56.6725 37.2404 56.617C37.2959 56.506 37.407 56.4505 37.5735 56.4505C38.5726 56.4505 39.3497 55.6734 39.3497 54.6743C39.3497 53.6752 38.5726 52.8981 37.5735 52.8981C37.407 52.8981 37.2959 52.8426 37.2404 52.7315C37.1849 52.676 37.1849 52.6205 37.1849 52.5095C37.1849 52.454 37.1849 52.3985 37.1849 52.3985C37.2404 52.232 37.3514 52.121 37.5735 52.121C39.0167 52.121 40.1268 53.2866 40.1268 54.6743C40.1268 56.0619 39.0167 57.2276 37.5735 57.2276ZM35.5752 54.6188C35.5752 53.7307 36.1303 53.0091 36.9074 52.7315C37.0184 53.0091 37.2959 53.1756 37.5735 53.1756C38.4061 53.1756 39.0167 53.8417 39.0167 54.6188C39.0167 55.4514 38.3506 56.0619 37.5735 56.0619C37.2959 56.0619 37.0184 56.2285 36.9074 56.506C36.1303 56.284 35.5752 55.5069 35.5752 54.6188Z" fill="#8F6D4E"/>
<path d="M81.3691 102.354C81.2026 102.188 81.0361 102.077 80.7585 102.077C80.3145 102.077 79.9814 102.41 79.9814 102.854V106.129C79.9814 106.573 80.3145 106.906 80.7585 106.906C80.9806 106.906 81.2026 106.795 81.3691 106.628C81.5356 106.795 81.7577 106.906 81.9797 106.906H85.0326C85.6431 106.906 86.0872 106.406 86.0872 105.851V103.187C86.0872 102.576 85.5876 102.132 85.0326 102.132H81.9797C81.7577 102.021 81.5356 102.132 81.3691 102.354ZM81.2026 106.073C81.2026 106.295 80.9806 106.517 80.7585 106.517C80.5365 106.517 80.3145 106.295 80.3145 106.073V102.798C80.3145 102.576 80.5365 102.354 80.7585 102.354C80.9806 102.354 81.2026 102.576 81.2026 102.798V106.073ZM81.9797 102.354H85.0326C85.4211 102.354 85.7542 102.687 85.7542 103.076V105.74C85.7542 106.129 85.4211 106.462 85.0326 106.462H81.9797C81.7577 106.462 81.5356 106.24 81.5356 106.018V102.743C81.5356 102.576 81.7577 102.354 81.9797 102.354Z" fill="#8F6D4E"/>
<path d="M82.4783 106.906C82.0897 106.906 81.7012 107.239 81.7012 107.628C81.7012 108.016 82.0342 108.349 82.4783 108.349H84.9761C85.3646 108.349 85.6977 108.016 85.6977 107.628C85.6977 107.239 85.3646 106.906 84.9761 106.906H82.4783ZM85.4201 107.683C85.4201 107.905 85.2536 108.127 84.9761 108.127H82.4783C82.2562 108.127 82.0342 107.961 82.0342 107.683C82.0342 107.461 82.2007 107.239 82.4783 107.239H84.9761C85.2536 107.239 85.4201 107.461 85.4201 107.683Z" fill="#8F6D4E"/>
<path d="M85.0317 101.966C85.4203 101.966 85.8088 101.633 85.8088 101.244C85.8088 100.856 85.4758 100.523 85.0317 100.523H82.5339C82.1454 100.523 81.7568 100.856 81.7568 101.244C81.7568 101.633 82.0899 101.966 82.5339 101.966H85.0317ZM82.0899 101.244C82.0899 101.022 82.2564 100.8 82.5339 100.8H85.0317C85.2538 100.8 85.4758 100.967 85.4758 101.244C85.4758 101.466 85.3093 101.688 85.0317 101.688H82.5339C82.2564 101.633 82.0899 101.466 82.0899 101.244Z" fill="#8F6D4E"/>
<path d="M90.9155 108.738V109.071H91.2486H91.6926H92.0257V108.738V106.517H92.1922V106.184V102.743V102.354H92.0257V100.134V99.801H91.6926H91.2486H90.9155V100.134V102.354H90.749V102.687V106.129V106.462H90.9155V108.738ZM91.2486 102.354V100.134H91.6926V102.354V102.687V106.129V106.462V108.682H91.2486V106.462V106.129V102.687V102.354Z" fill="#8F6D4E"/>
<path d="M89.25 101.244H87.1963V107.683H89.25V101.244ZM88.917 107.295H88.695V101.522H88.917V107.295ZM87.5293 101.577H87.7514V107.35H87.5293V101.577ZM88.1399 101.577H88.3619V107.35H88.1399V101.577Z" fill="#8F6D4E"/>
<path d="M86.4756 122.06H93.1364V86.8127H86.4756V122.06ZM92.8034 121.727H86.8641V87.0903H92.8034V121.727Z" fill="#8F6D4E"/>
<path d="M21.3094 10.2687V13.5436C21.3094 14.9868 22.4751 16.0969 23.8627 16.0969C25.3059 16.0969 26.416 14.9313 26.416 13.5436V10.2687V9.54714C26.416 9.32511 26.2495 9.10309 25.972 9.10309H21.698C21.4759 9.10309 21.2539 9.2696 21.2539 9.54714V10.2687H21.3094ZM26.083 13.5436C26.083 14.7648 25.0839 15.7639 23.8627 15.7639C22.6416 15.7639 21.6425 14.7648 21.6425 13.5436V10.4353H26.083V13.5436ZM21.6425 9.54714C21.6425 9.49163 21.698 9.43612 21.7535 9.43612H25.972C26.0275 9.43612 26.083 9.49163 26.083 9.54714V10.1022H21.6425V9.54714Z" fill="#8F6D4E"/>
<path d="M21.698 8.76995H25.972C26.194 8.76995 26.416 8.6034 26.416 8.32587V7.27126C26.416 7.04923 26.2495 6.82721 25.972 6.82721H21.698C21.4759 6.82721 21.2539 6.99372 21.2539 7.27126V8.32587C21.3094 8.6034 21.4759 8.76995 21.698 8.76995ZM21.6425 7.27126C21.6425 7.21575 21.698 7.16024 21.7535 7.16024H25.972C26.0275 7.16024 26.083 7.21575 26.083 7.27126V8.32587C26.083 8.38137 26.0275 8.43689 25.972 8.43689H21.698C21.6425 8.43689 21.5869 8.38137 21.5869 8.32587V7.27126H21.6425Z" fill="#8F6D4E"/>
<path d="M23.8628 8.32614C24.1404 8.32614 24.3624 8.10414 24.3624 7.8266C24.3624 7.54907 24.1404 7.32703 23.8628 7.32703C23.5853 7.32703 23.3633 7.54907 23.3633 7.8266C23.3633 8.10414 23.5853 8.32614 23.8628 8.32614ZM23.8628 7.66009C23.9739 7.66009 24.0294 7.71559 24.0294 7.8266C24.0294 7.93761 23.9739 7.99311 23.8628 7.99311C23.7518 7.99311 23.6963 7.93761 23.6963 7.8266C23.6963 7.71559 23.7518 7.66009 23.8628 7.66009Z" fill="#8F6D4E"/>
<path d="M3.26953 31.5833V37.245C3.26953 37.356 3.32504 37.4115 3.43605 37.4115H27.2485C27.3595 37.4115 27.415 37.356 27.415 37.245V31.5833C27.415 31.4723 27.3595 31.4168 27.2485 31.4168H3.43605C3.38054 31.4168 3.26953 31.4723 3.26953 31.5833ZM3.60257 31.7498H27.082V37.0785H3.60257V31.7498Z" fill="#8F6D4E"/>
<path d="M17.0356 32.7491H12.484C11.8734 32.7491 11.3184 33.2487 11.3184 33.9147V36.3015C11.3184 36.5791 11.5404 36.8011 11.8179 36.8011H14.5933V36.8566C14.5933 36.9676 14.6488 37.0231 14.7598 37.0231C14.8708 37.0231 14.9263 36.9676 14.9263 36.8566V36.8011H17.7016C17.9792 36.8011 18.2012 36.5791 18.2012 36.3015V33.9147C18.2012 33.2487 17.7016 32.7491 17.0356 32.7491ZM17.8682 36.3015C17.8682 36.4125 17.8127 36.468 17.7016 36.468H14.9263V35.4689C14.9263 35.3579 14.8708 35.3024 14.7598 35.3024C14.6488 35.3024 14.5933 35.3579 14.5933 35.4689V36.468H11.8179C11.7069 36.468 11.6514 36.4125 11.6514 36.3015V33.9147C11.6514 33.4707 12.0399 33.0821 12.484 33.0821H17.0356C17.4796 33.0821 17.8682 33.4707 17.8682 33.9147V36.3015V36.3015Z" fill="#8F6D4E"/>
<path d="M23.6411 51.1774C23.5301 51.1774 23.4746 51.2329 23.4746 51.3439V72.603C23.4746 72.714 23.5301 72.7695 23.6411 72.7695H34.5205C34.6315 72.7695 34.687 72.714 34.687 72.603V51.3439C34.687 51.2329 34.6315 51.1774 34.5205 51.1774H23.6411ZM34.3539 72.4365H23.8076V51.5104H34.3539V72.4365Z" fill="#8F6D4E"/>
<path d="M7.43231 55.9509C8.09839 55.9509 8.59795 55.4513 8.59795 54.7852C8.59795 54.1191 8.09839 53.6196 7.43231 53.6196C6.82174 53.6196 5.76711 54.5632 5.65609 54.6742C5.60059 54.7297 5.60059 54.7297 5.60059 54.7852C5.60059 54.8407 5.60059 54.8962 5.65609 54.8962C5.76711 55.0627 6.87724 55.9509 7.43231 55.9509ZM7.43231 53.9526C7.87637 53.9526 8.26491 54.3411 8.26491 54.7852C8.26491 55.2293 7.87637 55.6178 7.43231 55.6178C7.09927 55.6178 6.43319 55.1737 5.98913 54.7852C6.48869 54.4522 7.15478 53.9526 7.43231 53.9526Z" fill="#8F6D4E"/>
<path d="M5.93435 64.2214C6.54493 64.2214 7.04449 63.7218 7.04449 63.1112C7.04449 62.5007 6.54493 62.0011 5.93435 62.0011C5.32378 62.0011 4.82422 62.5007 4.82422 63.1112C4.82422 63.7218 5.32378 64.2214 5.93435 64.2214ZM5.93435 62.3342C6.37841 62.3342 6.71145 62.6672 6.71145 63.1112C6.71145 63.5553 6.37841 63.8883 5.93435 63.8883C5.4903 63.8883 5.15726 63.5553 5.15726 63.1112C5.15726 62.6672 5.4903 62.3342 5.93435 62.3342Z" fill="#8F6D4E"/>
<path d="M8.32205 64.2214C8.93263 64.2214 9.43219 63.7218 9.43219 63.1112C9.43219 62.5007 8.93263 62.0011 8.32205 62.0011C7.71148 62.0011 7.21191 62.5007 7.21191 63.1112C7.21191 63.7218 7.65597 64.2214 8.32205 64.2214ZM8.32205 62.3342C8.76611 62.3342 9.09915 62.6672 9.09915 63.1112C9.09915 63.5553 8.76611 63.8883 8.32205 63.8883C7.878 63.8883 7.54496 63.5553 7.54496 63.1112C7.48945 62.6672 7.878 62.3342 8.32205 62.3342Z" fill="#8F6D4E"/>
<path d="M5.82375 80.263H6.82287L6.32331 81.0956C6.2678 81.1511 6.32331 81.2621 6.37882 81.3176H6.43432C6.48983 81.3176 6.54534 81.2621 6.60084 81.2066L7.1004 80.374L7.59997 81.2066C7.65547 81.2621 7.71098 81.3176 7.76649 81.3176C7.82199 81.3176 7.82199 81.3176 7.82199 81.3176C7.8775 81.2621 7.93301 81.1511 7.8775 81.0956L7.37794 80.263H8.37706C8.48807 80.263 8.54358 80.2075 8.54358 80.0964C8.54358 79.9854 8.48807 79.9299 8.37706 79.9299H7.37794L7.8775 79.0973C7.93301 79.0418 7.8775 78.9308 7.82199 78.8753C7.76649 78.8198 7.65547 78.8753 7.59997 78.9308L7.1004 79.7634L6.60084 78.9308C6.54534 78.8753 6.43432 78.8198 6.37882 78.8753C6.32331 78.9308 6.2678 79.0418 6.32331 79.0973L6.82287 79.9299H5.82375C5.71273 79.9299 5.65723 79.9854 5.65723 80.0964C5.65723 80.152 5.76824 80.263 5.82375 80.263Z" fill="#8F6D4E"/>
<path d="M10.3198 51.7878V40.6864C10.3198 40.5754 10.2643 40.5199 10.1533 40.5199H4.10304C3.99203 40.5199 3.93652 40.5754 3.93652 40.6864V51.7878V57.838V61.3905V64.9984V71.0486V77.0989V83.1492C3.93652 83.2602 3.99203 83.3157 4.10304 83.3157H10.1533C10.2643 83.3157 10.3198 83.2602 10.3198 83.1492V77.0989V71.0486V64.9984V61.3905V57.838V51.7878ZM9.98677 57.6715H4.26956V51.9543H9.98677V57.6715V57.6715ZM9.98677 61.224H4.26956V58.0045H9.98677V61.224V61.224ZM9.98677 64.8319H4.26956V61.557H9.98677V64.8319V64.8319ZM9.98677 70.8821H4.26956V65.1649H9.98677V70.8821V70.8821ZM9.98677 76.8769H4.26956V71.1597H9.98677V76.8769V76.8769ZM4.26956 40.853H9.98677V51.6213H4.26956V40.853ZM9.98677 82.9271H4.26956V77.2099H9.98677V82.9271V82.9271Z" fill="#8F6D4E"/>
<path d="M8.43254 45.0159H5.82372C5.21315 45.0159 4.65808 45.5155 4.65808 46.1816V47.9023H4.43605C4.32504 47.9023 4.26953 47.9578 4.26953 48.0688C4.26953 48.1798 4.32504 48.2353 4.43605 48.2353H4.71359V49.956C4.71359 50.5666 5.21315 51.1217 5.87923 51.1217H8.48805C9.09862 51.1217 9.65369 50.6221 9.65369 49.956V46.1816C9.54268 45.571 9.04312 45.0159 8.43254 45.0159ZM9.20964 49.956C9.20964 50.4001 8.82109 50.7886 8.37704 50.7886H5.82372C5.37967 50.7886 4.99112 50.4001 4.99112 49.956V48.2353H6.15676C6.26778 48.2353 6.32328 48.1798 6.32328 48.0688C6.32328 47.9578 6.26778 47.9023 6.15676 47.9023H5.04663V46.1816C5.04663 45.7375 5.43517 45.349 5.87923 45.349H8.48805C8.9321 45.349 9.32065 45.7375 9.32065 46.1816V49.956H9.20964Z" fill="#8F6D4E"/>
<path d="M7.21066 47.6248C6.98863 47.6248 6.7666 47.8468 6.7666 48.0689C6.7666 48.2909 6.98863 48.5129 7.21066 48.5129C7.43268 48.5129 7.65471 48.2909 7.65471 48.0689C7.65471 47.8468 7.43268 47.6248 7.21066 47.6248ZM7.09964 48.0689C7.09964 48.0134 7.15515 47.9578 7.21066 47.9578C7.26616 47.9578 7.32167 48.0134 7.32167 48.0689C7.32167 48.1799 7.09964 48.1799 7.09964 48.0689Z" fill="#8F6D4E"/>
<path d="M5.71242 44.6272H8.54327C8.65428 44.6272 8.70979 44.5717 8.70979 44.4607V42.2404C8.70979 42.1294 8.65428 42.0739 8.54327 42.0739H5.71242C5.60141 42.0739 5.5459 42.1294 5.5459 42.2404V44.4607C5.5459 44.5162 5.60141 44.6272 5.71242 44.6272ZM5.87894 42.3514H8.37675V44.2387H5.87894V42.3514Z" fill="#8F6D4E"/>
<path d="M56.3342 95.9712H53.3368C52.9483 95.9712 52.6152 96.3042 52.6152 96.6928V102.799C52.6152 103.187 52.9483 103.52 53.3368 103.52H56.3342C56.7227 103.52 57.0558 103.187 57.0558 102.799V96.6928C57.0558 96.2487 56.7227 95.9712 56.3342 95.9712ZM56.7227 102.799C56.7227 103.021 56.5562 103.187 56.3342 103.187H53.3368C53.1148 103.187 52.9483 103.021 52.9483 102.799V96.6928C52.9483 96.4707 53.1148 96.3042 53.3368 96.3042H56.3342C56.5562 96.3042 56.7227 96.4707 56.7227 96.6928V102.799Z" fill="#8F6D4E"/>
<path d="M56.3342 104.297H53.3368C52.9483 104.297 52.6152 104.63 52.6152 105.019V111.125C52.6152 111.513 52.9483 111.846 53.3368 111.846H56.3342C56.7227 111.846 57.0558 111.513 57.0558 111.125V105.019C57.0558 104.63 56.7227 104.297 56.3342 104.297ZM56.7227 111.125C56.7227 111.347 56.5562 111.513 56.3342 111.513H53.3368C53.1148 111.513 52.9483 111.347 52.9483 111.125V105.019C52.9483 104.797 53.1148 104.63 53.3368 104.63H56.3342C56.5562 104.63 56.7227 104.797 56.7227 105.019V111.125Z" fill="#8F6D4E"/>
<path d="M72.3765 113.123C72.4875 113.123 72.543 113.067 72.543 112.956V94.8611C72.543 94.7501 72.4875 94.6946 72.3765 94.6946H58.7774H51.617H50.6734C50.5623 94.6946 50.5068 94.7501 50.5068 94.8611V112.956C50.5068 113.067 50.5623 113.123 50.6734 113.123H51.617H63.5509H72.3765ZM59.1659 108.349H62.8294C63.1069 108.349 63.3289 108.571 63.3289 108.849V112.512L59.1659 108.349ZM72.21 112.79H63.7175V108.904C63.7175 108.46 63.3289 108.072 62.8849 108.072H58.9994V95.0831H72.2655V112.79H72.21ZM50.8399 95.0276H51.4505V112.79H50.8399V95.0276ZM51.7835 112.79V95.0276H58.6108V108.183C58.6108 108.238 58.6108 108.238 58.6663 108.294L63.1069 112.734H51.7835V112.79Z" fill="#8F6D4E"/>
<path d="M54.1145 93.196C55.5577 93.196 56.7788 92.0304 56.7788 90.5317C56.7788 89.0885 55.6132 87.8674 54.1145 87.8674C52.6713 87.8674 51.4502 89.033 51.4502 90.5317C51.4502 92.0304 52.6158 93.196 54.1145 93.196ZM54.1145 88.2559C55.3912 88.2559 56.4458 89.3105 56.4458 90.5872C56.4458 91.8638 55.3912 92.9185 54.1145 92.9185C52.8379 92.9185 51.7832 91.8638 51.7832 90.5872C51.7832 89.3105 52.8379 88.2559 54.1145 88.2559Z" fill="#8F6D4E"/>
<path d="M51.4502 117.23C51.4502 118.674 52.6158 119.895 54.1145 119.895C55.5577 119.895 56.7788 118.729 56.7788 117.23C56.7788 115.787 55.6132 114.566 54.1145 114.566C52.6158 114.566 51.4502 115.732 51.4502 117.23ZM56.3903 117.23C56.3903 118.507 55.3357 119.562 54.059 119.562C52.7824 119.562 51.7277 118.507 51.7277 117.23C51.7277 115.954 52.7824 114.899 54.059 114.899C55.3912 114.899 56.3903 115.954 56.3903 117.23Z" fill="#8F6D4E"/>
<path d="M87.8623 83.9263H93.1355V39.9094H87.8623V83.9263ZM92.8024 83.5933H88.1953V40.2425H92.8024V83.5933Z" fill="#8F6D4E"/>
<path d="M89.9711 63.5552V67.7737H90.9702V63.5552C91.3032 63.3887 91.5253 63.0557 91.5253 62.6116V61.668C91.5253 61.2794 91.3032 60.9464 90.9702 60.7244V56.5059H89.9711V60.7244C89.638 60.8909 89.416 61.2239 89.416 61.668V62.6116C89.416 63.0557 89.638 63.3887 89.9711 63.5552ZM89.7491 61.7235C89.7491 61.5015 89.8601 61.335 89.9711 61.2239V63.2222C89.8601 63.1112 89.7491 62.8891 89.7491 62.7226V61.7235ZM90.3041 60.6689V56.8944H90.6372V60.6689V60.8354V61.0019V63.3332V63.4997V63.6662V67.4407H90.3041V63.6662V63.4997V63.3332V61.0019V60.8354V60.6689ZM91.1922 62.6671C91.1922 62.8891 91.0812 63.0557 90.9702 63.1667V61.1684C91.0812 61.2794 91.1922 61.5015 91.1922 61.668V62.6671Z" fill="#8F6D4E"/>
<path d="M89.75 70.4382H91.1932V68.995H89.75V70.4382ZM90.083 69.328H90.8601V70.1051H90.083V69.328Z" fill="#8F6D4E"/>
<path d="M91.1932 53.897H89.75V55.3401H91.1932V53.897ZM90.8601 55.0071H90.083V54.23H90.8601V55.0071Z" fill="#8F6D4E"/>
<path d="M58.1108 23.0352C58.2773 23.0352 58.4439 22.9242 58.5549 22.7576L60.2201 19.5938H60.4421C60.5531 20.0933 60.8862 20.4264 61.2747 20.4264C61.7188 20.4264 62.1073 20.0378 62.1073 19.5938C62.1073 19.1497 61.7743 18.8167 61.3857 18.7612C61.3302 18.7612 61.2192 18.8167 61.2192 18.9277C61.2192 18.9832 61.2747 19.0942 61.3857 19.0942C61.4967 19.0942 61.6078 19.1497 61.6633 19.2052C61.7743 19.3162 61.8298 19.4272 61.8298 19.5938C61.8298 19.8713 61.6077 20.1488 61.2747 20.1488C61.1637 20.1488 61.0527 20.0933 60.9972 20.0378C60.8862 19.9268 60.8307 19.7603 60.7751 19.5938L60.7196 19.3717H60.6641H60.2756L58.6104 16.2078C58.4994 16.0413 58.3884 15.9303 58.1663 15.9303C57.8888 15.9303 57.6668 16.2078 57.6668 16.4854V22.4801C57.6113 22.8131 57.8333 23.0352 58.1108 23.0352ZM57.8888 22.4801V16.4854C57.8888 16.3188 57.9998 16.2078 58.1108 16.2078C58.1663 16.2078 58.2218 16.2633 58.2773 16.3189L59.9425 19.4827L58.2773 22.6466C58.2218 22.7022 58.1663 22.7576 58.1108 22.7576C57.9998 22.7576 57.8888 22.6466 57.8888 22.4801Z" fill="#8F6D4E"/>
<path d="M58.1108 11.4898C58.2773 11.4898 58.4439 11.3788 58.5549 11.2123L60.2201 8.04839H60.4421C60.5531 8.54795 60.8862 8.88099 61.2747 8.88099C61.7188 8.88099 62.1073 8.49244 62.1073 8.04839C62.1073 7.60433 61.7743 7.27129 61.3857 7.21578C61.3302 7.21578 61.2192 7.27132 61.2192 7.38233C61.2192 7.43784 61.2747 7.54884 61.3857 7.54884C61.4967 7.54884 61.6078 7.60436 61.6633 7.65986C61.7743 7.77088 61.8298 7.88186 61.8298 8.04839C61.8298 8.32592 61.6077 8.60345 61.2747 8.60345C61.1637 8.60345 61.0527 8.54797 60.9972 8.49247C60.8862 8.38145 60.8307 8.21491 60.7751 8.04839L60.7196 7.82638H60.6641H60.2756L58.6104 4.66248C58.4994 4.49596 58.3884 4.38495 58.1663 4.38495C57.8888 4.38495 57.6668 4.66248 57.6668 4.94002V10.9347C57.6113 11.2123 57.8333 11.4898 58.1108 11.4898ZM57.8888 10.8793V4.88452C57.8888 4.718 57.9998 4.60699 58.1108 4.60699C58.1663 4.60699 58.2218 4.66247 58.2773 4.71798L59.9425 7.88187L58.2773 11.0458C58.2218 11.1013 58.1663 11.1568 58.1108 11.1568C57.9998 11.1568 57.8888 11.0458 57.8888 10.8793Z" fill="#8F6D4E"/>
<path d="M58.1108 34.5809C58.2773 34.5809 58.4439 34.4698 58.5549 34.3033L60.2201 31.1394H60.4421C60.5531 31.639 60.8862 31.972 61.2747 31.972C61.7188 31.972 62.1073 31.5835 62.1073 31.1394C62.1073 30.6954 61.7743 30.3623 61.3857 30.3068C61.3302 30.3068 61.2192 30.3623 61.2192 30.4733C61.2192 30.5288 61.2747 30.6398 61.3857 30.6398C61.4967 30.6398 61.6078 30.6954 61.6633 30.7509C61.7743 30.8619 61.8298 30.9729 61.8298 31.1394C61.8298 31.417 61.6077 31.6945 61.2747 31.6945C61.1637 31.6945 61.0527 31.639 60.9972 31.5835C60.8862 31.4725 60.8307 31.3059 60.7751 31.1394L60.7196 30.9174H60.6641H60.2756L58.6104 27.7535C58.4994 27.587 58.3884 27.476 58.1663 27.476C57.8888 27.476 57.6668 27.7535 57.6668 28.031V34.0258C57.6113 34.3588 57.8333 34.5809 58.1108 34.5809ZM57.8888 34.0258V28.031C57.8888 27.8645 57.9998 27.7535 58.1108 27.7535C58.1663 27.7535 58.2218 27.809 58.2773 27.8645L59.9425 31.0284L58.2773 34.1923C58.2218 34.2478 58.1663 34.3033 58.1108 34.3033C57.9998 34.3033 57.8888 34.1923 57.8888 34.0258Z" fill="#8F6D4E"/>
<path d="M63.0517 36.6899V2.22015H56.4464H56.2798H56.1133V12.4334H55.7803V26.4766H56.1133V36.6344H56.2798V36.6899H63.0517V36.6899ZM56.1133 23.6458V14.9312H56.4464V2.55322H62.7186V36.3568H56.4464V23.7013H56.1133V23.6458Z" fill="#8F6D4E"/>
<path d="M14.482 22.5358C16.3693 22.5358 17.8679 21.0371 17.8679 19.1498V8.54804C17.8679 8.43703 17.8124 8.38153 17.7014 8.38153H3.82472C3.71371 8.38153 3.6582 8.43703 3.6582 8.54804V22.3693C3.6582 22.4803 3.71371 22.5358 3.82472 22.5358H14.482V22.5358ZM3.99124 8.65906H17.4794V19.0943C17.4794 20.7595 16.0917 22.1472 14.4265 22.1472H3.99124V8.65906Z" fill="#8F6D4E"/>
<path d="M6.21148 10.8238C5.93394 10.8238 5.71191 11.0458 5.71191 11.3234C5.71191 11.6009 5.93394 11.8229 6.21148 11.8229C6.48901 11.8229 6.71104 11.6009 6.71104 11.3234C6.71104 11.0458 6.48901 10.8238 6.21148 10.8238ZM6.21148 11.4899C6.10046 11.4899 6.04496 11.4344 6.04496 11.3234C6.04496 11.2124 6.10046 11.1569 6.21148 11.1569C6.32249 11.1569 6.378 11.2124 6.378 11.3234C6.378 11.4344 6.26698 11.4899 6.21148 11.4899Z" fill="#8F6D4E"/>
<path d="M6.15675 13.2106C6.04574 13.2106 5.99023 13.2661 5.99023 13.3771V17.7067C5.99023 17.8177 6.04574 17.8732 6.15675 17.8732C6.26777 17.8732 6.32328 17.8177 6.32328 17.7067V13.3771C6.32328 13.2661 6.21226 13.2106 6.15675 13.2106Z" fill="#8F6D4E"/>
<path d="M12.54 11.1015H8.21047C8.09945 11.1015 8.04395 11.157 8.04395 11.268C8.04395 11.3791 8.09945 11.4346 8.21047 11.4346H12.54C12.651 11.4346 12.7065 11.3791 12.7065 11.268C12.7065 11.157 12.5955 11.1015 12.54 11.1015Z" fill="#8F6D4E"/>
<path d="M7.65526 12.7112C7.59975 12.6557 7.48874 12.6557 7.43323 12.7112C7.37772 12.7668 7.37772 12.8778 7.43323 12.9333L10.7636 16.2637C10.8191 16.3192 10.8191 16.3192 10.8747 16.3192C10.9302 16.3192 10.9857 16.3192 10.9857 16.2637C11.0412 16.2082 11.0412 16.0972 10.9857 16.0417L7.65526 12.7112Z" fill="#8F6D4E"/>
<path d="M36.1302 1.60974H29.3584V14.2653H36.1302V1.60974ZM29.6914 1.94277H35.7972V13.9323H29.6914V1.94277Z" fill="#8F6D4E"/>
<path d="M36.1302 30.4733H29.3584V37.4116H36.1302V30.4733ZM35.7972 37.0786H29.6914V30.8063H35.7972V37.0786Z" fill="#8F6D4E"/>
<path d="M34.5209 4.38495C34.3544 4.38495 34.1879 4.49596 34.0768 4.66248L32.4116 7.82638H32.1896C32.0786 7.32682 31.7456 6.99378 31.357 6.99378C30.913 6.99378 30.5244 7.38232 30.5244 7.82638C30.5244 8.27043 30.8575 8.60347 31.246 8.65898C31.3015 8.65898 31.4125 8.60348 31.4125 8.49247C31.4125 8.43696 31.357 8.32592 31.246 8.32592C31.135 8.32592 31.024 8.27044 30.9685 8.21493C30.8575 8.10392 30.8019 7.9929 30.8019 7.82638C30.8019 7.54884 31.024 7.27131 31.357 7.27131C31.468 7.27131 31.579 7.32682 31.6346 7.38233C31.7456 7.49334 31.8011 7.65986 31.8566 7.82638L31.9121 8.04839H31.9676H32.3561L34.0213 11.2123C34.1324 11.3788 34.2989 11.4898 34.4654 11.4898C34.7429 11.4898 34.965 11.2123 34.965 10.9347V4.94002C35.0205 4.60698 34.7984 4.38495 34.5209 4.38495ZM34.6874 4.94002V10.9347C34.6874 11.1013 34.5764 11.2123 34.4654 11.2123C34.4099 11.2123 34.3544 11.1568 34.2989 11.1013L32.6337 7.9374L34.2989 4.7735C34.3544 4.718 34.4099 4.66248 34.4654 4.66248C34.6319 4.66248 34.6874 4.7735 34.6874 4.94002Z" fill="#8F6D4E"/>
</svg>
