<svg width="190" height="75" viewBox="0 0 190 75" fill="none" xmlns="http://www.w3.org/2000/svg">
<path d="M155.701 11.5199L151.01 9.07V8.49662V8.44449L150.645 8.34024C150.332 8.28811 150.123 8.13174 149.967 7.97536C149.811 7.81898 149.758 7.71472 149.758 7.50621C149.758 7.0892 150.123 6.72432 150.54 6.72432C150.749 6.72432 150.957 6.82857 151.114 6.98495C151.218 7.0892 151.27 7.19347 151.322 7.40197C151.322 7.50622 151.427 7.61047 151.531 7.61047C151.635 7.61047 151.739 7.50622 151.739 7.40197C151.739 7.40197 151.739 7.40197 151.739 7.34984C151.687 6.72433 151.114 6.25519 150.488 6.25519C149.811 6.25519 149.237 6.82857 149.237 7.50621C149.237 8.0796 149.706 8.54875 150.488 8.75726V9.07L145.797 11.5199C145.536 11.6242 145.38 11.8848 145.38 12.1455C145.38 12.5625 145.745 12.8752 146.214 12.8752H155.127C155.597 12.8752 155.962 12.5625 155.962 12.1455C156.118 11.937 155.909 11.6763 155.701 11.5199ZM155.284 12.5103H146.318C146.11 12.5103 145.901 12.354 145.901 12.1976C145.901 12.0933 145.953 11.9891 146.058 11.9369L150.749 9.43489L155.44 11.9369C155.545 11.9891 155.597 12.0933 155.597 12.1976C155.649 12.354 155.492 12.5103 155.284 12.5103Z" fill="#8F6D4E"/>
<path d="M77.4074 5.5777H14.6475V16.2114H16.5761V19.1826C16.5761 19.9124 17.2016 20.5379 17.9314 20.5379C18.6612 20.5379 19.2867 19.9124 19.2867 19.1826V16.2114H19.7558V20.173C19.7558 20.6943 20.0686 21.1634 20.5377 21.4241C20.0686 21.6326 19.7558 22.1017 19.7558 22.623C19.7558 23.4049 20.3813 23.9782 21.1111 23.9782H27.7833C28.5652 23.9782 29.1385 23.3527 29.1385 22.623C29.1385 22.1017 28.8258 21.6326 28.3567 21.4241C28.8258 21.2156 29.1385 20.7464 29.1385 20.173V16.2114H29.6077V19.1826C29.6077 19.9124 30.2332 20.5379 30.963 20.5379C31.6927 20.5379 32.3182 19.9124 32.3182 19.1826V16.2114H77.4074V5.5777ZM77.0947 15.8987H32.3182H32.0055H29.9726H29.6598H29.1907H28.8779H20.0165H19.7037H19.2346H18.9218H16.8889H16.5761H14.9602V5.89046H77.0947V15.8987ZM18.9218 19.1826C18.9218 19.756 18.4527 20.2252 17.8793 20.2252C17.3059 20.2252 16.8368 19.756 16.8368 19.1826V16.2114H18.8697V19.1826H18.9218ZM27.7833 21.5804C28.3567 21.5804 28.8258 22.0496 28.8258 22.623C28.8258 23.1963 28.3567 23.6655 27.7833 23.6655H21.059C20.4856 23.6655 20.0165 23.1963 20.0165 22.623C20.0165 22.0496 20.4856 21.5804 21.059 21.5804H27.7833ZM28.8258 20.173C28.8258 20.7985 28.3567 21.2677 27.7311 21.2677H21.1111C20.4856 21.2677 20.0165 20.7985 20.0165 20.173V16.2114H28.8258V20.173ZM32.0055 19.1826C32.0055 19.756 31.5364 20.2252 30.963 20.2252C30.3896 20.2252 29.9204 19.756 29.9204 19.1826V16.2114H31.9534V19.1826H32.0055Z" fill="#8F6D4E"/>
<path d="M190 0H189.531H187.863H8.70508H4.53498H0.625514V15.7942H0V58.5377H0.625514V70.3182V74.1234H8.70508H138.187H140.949H178.845H179.94H181.034V50.4582H181.868H184.005V48.321V38.5734H190V37.0617V34.7682V32.5267H187.967H174.414V32.9438H187.133V34.7682H168.524V24.9163H168.107V38.5734H168.211H181.816V48.321H180.982H178.845V50.4582V70.3182H140.949V38.5734H156.17V34.7682H138.187V34.9767V38.5734V70.3182H8.70508V58.5377H9.33059V15.7942H8.70508V3.80522H187.811V17.1495H187.915C187.863 17.2016 187.863 17.2538 187.863 17.3059C187.863 17.4102 187.967 17.4623 188.071 17.4623C188.176 17.4623 188.28 17.358 188.228 17.2538C188.228 17.2016 188.228 17.2016 188.176 17.1495H188.645V17.2016C188.645 17.3059 188.749 17.4101 188.853 17.4101C188.853 17.4101 188.749 17.4101 188.853 17.4101C188.957 17.4101 189.062 17.3059 189.062 17.2016V17.1495H190V0V0ZM8.65295 58.2771H0.677641V15.8464H8.60082V58.2771H8.65295Z" fill="#8F6D4E"/>
<path d="M7.40203 16.7325H6.20312V57.4431H7.40203V16.7325Z" fill="#8F6D4E"/>
<path d="M5.15984 16.7325H3.96094V57.4431H5.15984V16.7325Z" fill="#8F6D4E"/>
<path d="M168.263 24.0825C168.211 24.0825 168.211 24.0825 168.211 24.1346C168.159 24.1868 168.159 24.2389 168.159 24.291C168.159 24.291 168.159 24.3432 168.159 24.3953L168.211 24.4474C168.263 24.4995 168.316 24.4995 168.368 24.4995C168.42 24.4995 168.472 24.4995 168.524 24.4474L168.576 24.3953C168.576 24.3432 168.576 24.3431 168.576 24.291C168.576 24.2389 168.576 24.1868 168.524 24.1346C168.42 24.0304 168.316 24.0304 168.263 24.0825Z" fill="#8F6D4E"/>
<path d="M165.24 24.812C165.24 24.812 165.292 24.812 165.24 24.812C165.396 24.7599 165.448 24.6556 165.448 24.5514C165.448 24.4471 165.344 24.395 165.188 24.395C165.083 24.395 165.031 24.4993 165.031 24.6557C165.083 24.7599 165.135 24.812 165.24 24.812Z" fill="#8F6D4E"/>
<path d="M164.51 25.0206H164.562C164.667 24.9685 164.719 24.8643 164.667 24.76C164.614 24.6558 164.51 24.6036 164.406 24.6558C164.302 24.7079 164.25 24.8121 164.302 24.9164C164.354 24.9685 164.406 25.0206 164.51 25.0206Z" fill="#8F6D4E"/>
<path d="M162.947 25.2292C162.843 25.2814 162.791 25.3856 162.843 25.4899C162.895 25.542 162.947 25.5941 162.999 25.5941C163.051 25.5941 163.051 25.5941 163.103 25.5941C163.208 25.542 163.26 25.4378 163.208 25.3335C163.155 25.2293 163.051 25.1771 162.947 25.2292Z" fill="#8F6D4E"/>
<path d="M160.287 26.8972C160.183 26.9492 160.183 27.1052 160.235 27.1572C160.287 27.2093 160.339 27.2093 160.391 27.2093C160.443 27.2093 160.495 27.2093 160.495 27.1572C160.599 27.1052 160.599 26.9492 160.547 26.8972C160.495 26.8452 160.391 26.8452 160.287 26.8972Z" fill="#8F6D4E"/>
<path d="M157.109 31.4843C157.161 31.4843 157.265 31.4321 157.265 31.38C157.317 31.2758 157.265 31.1715 157.161 31.1194C157.057 31.0673 156.952 31.1194 156.9 31.2236C156.848 31.3279 156.9 31.4321 157.005 31.4843C157.057 31.4843 157.057 31.4843 157.109 31.4843Z" fill="#8F6D4E"/>
<path d="M160.914 26.428C160.809 26.4802 160.809 26.6365 160.861 26.6887C160.914 26.7408 160.966 26.7929 161.018 26.7929C161.07 26.7929 161.07 26.7929 161.122 26.7408C161.226 26.6887 161.226 26.5323 161.174 26.4802C161.122 26.3759 161.018 26.3759 160.914 26.428Z" fill="#8F6D4E"/>
<path d="M163.675 24.9163C163.571 24.9684 163.519 25.0726 163.571 25.1769C163.623 25.229 163.675 25.2811 163.78 25.2811H163.832C163.936 25.229 163.988 25.1248 163.936 25.0205C163.884 24.9163 163.78 24.8641 163.675 24.9163Z" fill="#8F6D4E"/>
<path d="M159.142 27.9918C159.09 28.0958 159.09 28.1998 159.142 28.2519C159.194 28.3039 159.246 28.3039 159.298 28.3039C159.35 28.3039 159.402 28.3039 159.454 28.2519C159.506 28.1998 159.506 28.0438 159.454 27.9918C159.35 27.8878 159.194 27.8878 159.142 27.9918Z" fill="#8F6D4E"/>
<path d="M162.269 25.5939C162.165 25.646 162.165 25.7502 162.165 25.8545C162.217 25.9066 162.269 25.9587 162.321 25.9587C162.374 25.9587 162.374 25.9587 162.426 25.9587C162.53 25.9066 162.53 25.8024 162.53 25.6981C162.478 25.5417 162.374 25.5417 162.269 25.5939Z" fill="#8F6D4E"/>
<path d="M161.591 25.9588C161.487 26.0108 161.487 26.1148 161.539 26.2189C161.591 26.2709 161.643 26.3229 161.695 26.3229C161.747 26.3229 161.747 26.3229 161.799 26.2709C161.903 26.2189 161.903 26.1148 161.851 26.0108C161.799 25.9588 161.643 25.9068 161.591 25.9588Z" fill="#8F6D4E"/>
<path d="M156.744 32.7875C156.796 32.6832 156.692 32.579 156.639 32.5269C156.535 32.4747 156.431 32.5269 156.379 32.6311C156.327 32.7354 156.379 32.8396 156.483 32.8917H156.535C156.639 32.9439 156.692 32.8917 156.744 32.7875Z" fill="#8F6D4E"/>
<path d="M158.62 28.565C158.568 28.669 158.568 28.7731 158.62 28.8251C158.672 28.8771 158.724 28.8771 158.724 28.8771C158.776 28.8771 158.828 28.8771 158.88 28.8251C158.932 28.7211 158.932 28.617 158.88 28.565C158.776 28.461 158.672 28.461 158.62 28.565Z" fill="#8F6D4E"/>
<path d="M156.535 33.5692C156.535 33.4649 156.483 33.3607 156.379 33.3607C156.274 33.3085 156.17 33.4128 156.17 33.5171C156.118 33.6213 156.222 33.7256 156.326 33.7777H156.379C156.431 33.6734 156.483 33.6213 156.535 33.5692Z" fill="#8F6D4E"/>
<path d="M156.952 32.1098C157.004 32.0056 156.952 31.9013 156.847 31.8492C156.743 31.7971 156.639 31.8492 156.587 31.9534C156.535 32.0577 156.587 32.1619 156.691 32.2141H156.743C156.847 32.2141 156.952 32.1619 156.952 32.1098Z" fill="#8F6D4E"/>
<path d="M167.534 24.4472C167.638 24.4472 167.742 24.3429 167.742 24.2387C167.742 24.1344 167.638 24.0302 167.534 24.0302C167.429 24.0302 167.325 24.1344 167.325 24.2387C167.325 24.395 167.429 24.4472 167.534 24.4472Z" fill="#8F6D4E"/>
<path d="M158.099 29.1909C158.047 29.2951 158.047 29.3994 158.151 29.4515C158.203 29.4515 158.203 29.5036 158.255 29.5036C158.307 29.5036 158.359 29.4515 158.411 29.3994C158.464 29.2951 158.464 29.1909 158.359 29.1387C158.307 29.0866 158.203 29.0866 158.099 29.1909Z" fill="#8F6D4E"/>
<path d="M157.683 29.8161C157.631 29.9201 157.631 30.0241 157.735 30.0761C157.787 30.0761 157.787 30.1281 157.839 30.1281C157.891 30.1281 157.943 30.0761 157.995 30.0241C158.047 29.9201 158.047 29.8161 157.943 29.764C157.839 29.712 157.735 29.764 157.683 29.8161Z" fill="#8F6D4E"/>
<path d="M159.662 27.679C159.714 27.7312 159.766 27.7312 159.819 27.7312C159.871 27.7312 159.923 27.7312 159.975 27.679C160.027 27.6269 160.079 27.4705 159.975 27.4184C159.923 27.3141 159.766 27.3141 159.714 27.4184C159.61 27.4705 159.61 27.6269 159.662 27.679Z" fill="#8F6D4E"/>
<path d="M166.804 24.5505C166.908 24.5505 167.012 24.4465 166.96 24.3425C166.96 24.2384 166.856 24.1864 166.752 24.1864C166.648 24.1864 166.596 24.2904 166.596 24.3945C166.596 24.4465 166.648 24.5505 166.804 24.5505Z" fill="#8F6D4E"/>
<path d="M166.022 24.655C166.126 24.655 166.178 24.551 166.178 24.4469C166.178 24.3429 166.074 24.2909 165.97 24.2909C165.865 24.2909 165.813 24.3949 165.813 24.4989C165.813 24.603 165.918 24.655 166.022 24.655Z" fill="#8F6D4E"/>
<path d="M157.369 30.8066C157.421 30.8066 157.421 30.8587 157.473 30.8587C157.525 30.8587 157.629 30.8066 157.629 30.7545C157.682 30.6502 157.629 30.5459 157.525 30.4938C157.421 30.4417 157.317 30.4938 157.265 30.5459C157.212 30.5981 157.265 30.7545 157.369 30.8066Z" fill="#8F6D4E"/>
<path d="M156.013 34.1428C155.961 34.1949 155.961 34.247 155.961 34.2992V34.3513L156.013 34.4034C156.065 34.4555 156.117 34.4555 156.169 34.4555C156.222 34.4555 156.274 34.4555 156.326 34.4034L156.378 34.3513V34.2992C156.378 34.247 156.378 34.1949 156.326 34.1428C156.222 34.0385 156.117 34.0385 156.013 34.1428Z" fill="#8F6D4E"/>
<path d="M180.669 19.8082C180.565 19.8604 180.565 20.0167 180.617 20.0689C180.669 20.121 180.721 20.1731 180.774 20.1731C180.826 20.1731 180.878 20.1731 180.878 20.121C180.982 20.0689 180.982 19.9125 180.93 19.8604C180.878 19.7561 180.774 19.7561 180.669 19.8082Z" fill="#8F6D4E"/>
<path d="M184.995 17.6709C184.891 17.723 184.838 17.8273 184.891 17.9315C184.943 18.0358 184.995 18.0879 185.047 18.0879H185.099C185.203 18.0358 185.255 17.9315 185.203 17.8273C185.203 17.723 185.099 17.6709 184.995 17.6709Z" fill="#8F6D4E"/>
<path d="M182.755 18.5571C182.65 18.6092 182.598 18.7134 182.65 18.8177C182.702 18.8698 182.755 18.922 182.807 18.922C182.859 18.922 182.859 18.922 182.911 18.922C183.015 18.8698 183.067 18.7656 183.015 18.6613C182.963 18.5571 182.859 18.5049 182.755 18.5571Z" fill="#8F6D4E"/>
<path d="M185.726 17.4623C185.621 17.5145 185.569 17.6187 185.569 17.723C185.569 17.8272 185.674 17.8794 185.778 17.8794H185.83C185.934 17.8794 185.986 17.7751 185.986 17.6187C185.934 17.5145 185.83 17.4623 185.726 17.4623Z" fill="#8F6D4E"/>
<path d="M178.846 21.3196C178.742 21.3717 178.742 21.5281 178.846 21.5802C178.898 21.6323 178.95 21.6323 179.002 21.6323C179.054 21.6323 179.106 21.6323 179.159 21.5802C179.211 21.5281 179.211 21.3717 179.159 21.3196C179.054 21.2674 178.95 21.2674 178.846 21.3196Z" fill="#8F6D4E"/>
<path d="M180.044 20.2772C179.94 20.3292 179.94 20.4852 179.992 20.5372C180.044 20.5893 180.096 20.5893 180.148 20.5893C180.2 20.5893 180.252 20.5893 180.252 20.5372C180.356 20.4852 180.356 20.3292 180.304 20.2772C180.252 20.2252 180.148 20.2252 180.044 20.2772Z" fill="#8F6D4E"/>
<path d="M183.38 18.5043C183.432 18.6083 183.484 18.6083 183.536 18.6083C183.588 18.6083 183.588 18.6083 183.588 18.6083C183.692 18.5563 183.744 18.4523 183.692 18.3483C183.64 18.2442 183.536 18.1922 183.432 18.2442C183.38 18.2962 183.328 18.4003 183.38 18.5043Z" fill="#8F6D4E"/>
<path d="M184.215 17.9316C184.11 17.9837 184.058 18.088 184.11 18.1922C184.162 18.2443 184.215 18.2965 184.319 18.2965H184.371C184.475 18.2443 184.527 18.1401 184.475 18.0358C184.423 17.9316 184.319 17.8795 184.215 17.9316Z" fill="#8F6D4E"/>
<path d="M179.418 20.7986C179.314 20.8507 179.314 21.0071 179.418 21.0592C179.47 21.1113 179.522 21.1113 179.574 21.1113C179.627 21.1113 179.679 21.1113 179.679 21.0592C179.783 21.0071 179.783 20.8507 179.679 20.7986C179.627 20.7464 179.522 20.7464 179.418 20.7986Z" fill="#8F6D4E"/>
<path d="M182.024 18.9217C181.92 18.9737 181.92 19.0778 181.92 19.1818C181.972 19.2338 182.024 19.2858 182.076 19.2858C182.128 19.2858 182.128 19.2858 182.18 19.2858C182.284 19.2338 182.284 19.1298 182.232 19.0257C182.18 18.9217 182.128 18.8697 182.024 18.9217Z" fill="#8F6D4E"/>
<path d="M181.347 19.3388C181.243 19.3908 181.243 19.5468 181.295 19.5988C181.347 19.6508 181.399 19.7029 181.451 19.7029C181.503 19.7029 181.503 19.7029 181.555 19.7029C181.659 19.6509 181.659 19.5468 181.607 19.4428C181.555 19.3388 181.451 19.2867 181.347 19.3388Z" fill="#8F6D4E"/>
<path d="M174.622 30.3375C174.518 30.3375 174.414 30.3895 174.414 30.4935C174.414 30.5975 174.466 30.7016 174.57 30.7016C174.674 30.7016 174.778 30.6495 174.778 30.5455C174.83 30.4415 174.726 30.3375 174.622 30.3375Z" fill="#8F6D4E"/>
<path d="M175.508 26.8972C175.56 26.8972 175.665 26.845 175.665 26.7929C175.717 26.6887 175.665 26.5844 175.56 26.5323C175.456 26.4802 175.352 26.5323 175.3 26.6365C175.248 26.7408 175.3 26.8451 175.404 26.8972C175.456 26.8972 175.508 26.8972 175.508 26.8972Z" fill="#8F6D4E"/>
<path d="M175.04 29.0343C175.04 28.9301 174.988 28.8258 174.884 28.8258C174.779 28.8258 174.675 28.8779 174.623 28.9822C174.623 29.0864 174.675 29.1907 174.779 29.1907C174.779 29.1907 174.779 29.1907 174.832 29.1907C174.936 29.1907 175.04 29.1386 175.04 29.0343Z" fill="#8F6D4E"/>
<path d="M175.248 28.2525C175.248 28.1482 175.196 28.0439 175.092 27.9918C174.988 27.9918 174.883 28.0439 174.831 28.1482C174.779 28.2524 174.883 28.3567 174.988 28.4088H175.04C175.144 28.4088 175.196 28.3567 175.248 28.2525Z" fill="#8F6D4E"/>
<path d="M175.457 27.5228C175.509 27.4185 175.404 27.3143 175.352 27.2622C175.248 27.21 175.144 27.2621 175.092 27.3664C175.04 27.4706 175.092 27.5749 175.196 27.627H175.248C175.352 27.6792 175.405 27.627 175.457 27.5228Z" fill="#8F6D4E"/>
<path d="M176.447 24.7592C176.499 24.7592 176.499 24.8112 176.551 24.8112C176.603 24.8112 176.655 24.7592 176.707 24.7072C176.759 24.6032 176.759 24.4992 176.655 24.4471C176.551 24.3951 176.447 24.4471 176.395 24.4992C176.343 24.5512 176.395 24.7072 176.447 24.7592Z" fill="#8F6D4E"/>
<path d="M175.822 26.1674C175.874 26.1674 175.978 26.1153 175.978 26.0632C176.03 25.9589 175.978 25.8547 175.874 25.8026C175.77 25.7504 175.665 25.8026 175.613 25.9068C175.561 26.0111 175.613 26.1153 175.717 26.1674C175.77 26.1674 175.822 26.1674 175.822 26.1674Z" fill="#8F6D4E"/>
<path d="M176.082 25.4368C176.134 25.4368 176.134 25.4368 176.186 25.4368C176.238 25.4368 176.342 25.3848 176.342 25.3328C176.394 25.2288 176.342 25.1247 176.238 25.0727C176.134 25.0207 176.03 25.0727 175.978 25.1767C175.978 25.2808 175.978 25.3848 176.082 25.4368Z" fill="#8F6D4E"/>
<path d="M177.28 23.1442C177.228 23.2484 177.228 23.3527 177.332 23.4048C177.385 23.4048 177.385 23.4569 177.437 23.4569C177.489 23.4569 177.541 23.4048 177.593 23.3527C177.645 23.2484 177.645 23.1442 177.541 23.092C177.437 23.0399 177.332 23.0399 177.28 23.1442Z" fill="#8F6D4E"/>
<path d="M176.812 23.8218C176.759 23.9261 176.759 24.0304 176.864 24.0825C176.916 24.0825 176.916 24.1346 176.968 24.1346C177.02 24.1346 177.072 24.0825 177.124 24.0303C177.176 23.9261 177.176 23.8218 177.072 23.7697C177.02 23.6655 176.864 23.7176 176.812 23.8218Z" fill="#8F6D4E"/>
<path d="M178.271 21.893C178.219 21.997 178.219 22.1011 178.271 22.1531C178.323 22.2051 178.375 22.2051 178.427 22.2051C178.479 22.2051 178.532 22.2051 178.584 22.1531C178.636 22.1011 178.636 21.945 178.584 21.893C178.479 21.841 178.375 21.841 178.271 21.893Z" fill="#8F6D4E"/>
<path d="M186.352 17.5143C186.352 17.6186 186.456 17.6707 186.56 17.6707H186.612C186.716 17.6707 186.769 17.5665 186.769 17.4622C186.769 17.358 186.664 17.3058 186.56 17.3058C186.404 17.3058 186.352 17.4101 186.352 17.5143Z" fill="#8F6D4E"/>
<path d="M174.883 29.7637C174.883 29.6596 174.831 29.5556 174.727 29.5556C174.623 29.5556 174.519 29.6076 174.519 29.7116C174.519 29.8157 174.571 29.9197 174.675 29.9197H174.727C174.779 29.9717 174.883 29.8677 174.883 29.7637Z" fill="#8F6D4E"/>
<path d="M174.571 31.1196C174.467 31.1196 174.362 31.2238 174.362 31.3281C174.362 31.4323 174.467 31.5366 174.571 31.5366C174.675 31.5366 174.779 31.4845 174.779 31.3802C174.727 31.2238 174.675 31.1196 174.571 31.1196Z" fill="#8F6D4E"/>
<path d="M174.519 31.9014C174.415 31.9014 174.311 32.0056 174.311 32.1099C174.311 32.2141 174.415 32.3184 174.519 32.3184C174.623 32.3184 174.728 32.2141 174.728 32.1099C174.728 32.0056 174.623 31.9014 174.519 31.9014Z" fill="#8F6D4E"/>
<path d="M177.751 22.5185C177.699 22.6225 177.699 22.7265 177.751 22.7785C177.803 22.7785 177.855 22.8305 177.855 22.8305C177.907 22.8305 177.959 22.8305 178.011 22.7785C178.063 22.6745 178.063 22.5705 178.011 22.5185C177.959 22.4144 177.855 22.4144 177.751 22.5185Z" fill="#8F6D4E"/>
<path d="M187.133 17.41C187.133 17.5142 187.237 17.5664 187.341 17.5664H187.393C187.498 17.5664 187.602 17.4621 187.55 17.3579C187.55 17.2536 187.446 17.2015 187.341 17.2015C187.185 17.2015 187.133 17.3057 187.133 17.41Z" fill="#8F6D4E"/>
<path d="M137.196 11.5199L132.505 9.07V8.49662V8.44449L132.14 8.34024C131.827 8.28811 131.618 8.13174 131.462 7.97536C131.306 7.81898 131.254 7.71472 131.254 7.50621C131.254 7.0892 131.618 6.72432 132.035 6.72432C132.244 6.72432 132.453 6.82857 132.609 6.98495C132.713 7.0892 132.765 7.19347 132.817 7.40197C132.817 7.50622 132.922 7.61047 133.026 7.61047C133.13 7.61047 133.234 7.50622 133.234 7.40197C133.234 7.40197 133.234 7.40197 133.234 7.34984C133.182 6.72433 132.609 6.25519 131.983 6.25519C131.306 6.25519 130.732 6.82857 130.732 7.50621C130.732 8.0796 131.201 8.54875 131.983 8.75726V9.07L127.292 11.5199C127.031 11.6242 126.875 11.8848 126.875 12.1455C126.875 12.5625 127.24 12.8752 127.709 12.8752H136.623C137.092 12.8752 137.457 12.5625 137.457 12.1455C137.613 11.937 137.457 11.6763 137.196 11.5199ZM136.779 12.5103H127.813C127.605 12.5103 127.396 12.354 127.396 12.1976C127.396 12.0933 127.448 11.9891 127.553 11.9369L132.244 9.43489L136.935 11.9369C137.04 11.9891 137.092 12.0933 137.092 12.1976C137.196 12.354 136.987 12.5103 136.779 12.5103Z" fill="#8F6D4E"/>
<path d="M178.116 12.9272C178.585 12.9272 178.95 12.6145 178.95 12.1974C178.95 11.9368 178.794 11.6762 178.533 11.5719L173.842 9.122V8.54861V8.4965L173.477 8.39224C173.164 8.34011 172.955 8.18373 172.799 8.02735C172.643 7.87097 172.591 7.76672 172.591 7.55822C172.591 7.14121 172.955 6.77632 173.372 6.77632C173.581 6.77632 173.789 6.88058 173.946 7.03695C174.05 7.14121 174.102 7.24547 174.154 7.45397C174.154 7.55823 174.259 7.66247 174.363 7.66247C174.467 7.66247 174.571 7.55823 174.571 7.45397C174.571 7.45397 174.571 7.45397 174.571 7.40184C174.519 6.77633 173.946 6.30719 173.32 6.30719C172.643 6.30719 172.069 6.88058 172.069 7.55822C172.069 8.1316 172.538 8.60074 173.32 8.80924V9.122L168.629 11.5719C168.368 11.6762 168.212 11.9368 168.212 12.1974C168.212 12.6145 168.577 12.9272 169.046 12.9272H178.116V12.9272ZM169.15 12.5102C168.942 12.5102 168.733 12.3538 168.733 12.1974C168.733 12.0932 168.785 11.9889 168.89 11.9368L173.581 9.43476L178.272 11.9368C178.377 11.9889 178.429 12.0932 178.429 12.1974C178.429 12.3538 178.272 12.5102 178.012 12.5102H169.15Z" fill="#8F6D4E"/>
<path d="M111.811 68.2855H114.261V68.7546C114.261 68.8589 114.313 68.911 114.417 68.911C114.522 68.911 114.574 68.8589 114.574 68.7546V68.2855H117.024C117.858 68.2855 118.535 67.6079 118.535 66.7738V63.2293C118.535 62.3952 117.858 61.7176 117.024 61.7176H111.863C111.029 61.7176 110.351 62.3952 110.351 63.2293V66.7738C110.299 67.6079 110.977 68.2855 111.811 68.2855ZM110.612 63.2293C110.612 62.5516 111.133 62.0304 111.811 62.0304H116.971C117.649 62.0304 118.17 62.5516 118.17 63.2293V66.7738C118.17 67.4515 117.649 67.9727 116.971 67.9727H114.522V66.3047C114.522 66.2004 114.469 66.1483 114.365 66.1483C114.261 66.1483 114.209 66.2004 114.209 66.3047V67.9727H111.759C111.081 67.9727 110.56 67.4515 110.56 66.7738V63.2293H110.612Z" fill="#8F6D4E"/>
<path d="M114.364 65.4705C114.677 65.4705 114.885 65.2099 114.885 64.9492C114.885 64.6886 114.625 64.428 114.364 64.428C114.051 64.428 113.843 64.6886 113.843 64.9492C113.843 65.2099 114.103 65.4705 114.364 65.4705ZM114.364 64.6886C114.468 64.6886 114.573 64.7929 114.573 64.8971C114.573 65.0014 114.468 65.1056 114.364 65.1056C114.26 65.1056 114.156 65.0014 114.156 64.8971C114.156 64.7929 114.26 64.6886 114.364 64.6886Z" fill="#8F6D4E"/>
<path d="M90.439 64.7408C91.273 64.7408 91.8986 64.0632 91.8986 63.2813C91.8986 62.4994 91.2209 61.8218 90.439 61.8218C89.6571 61.8218 88.9795 62.4994 88.9795 63.2813C88.9795 64.0632 89.6571 64.7408 90.439 64.7408ZM90.439 62.1345C91.0645 62.1345 91.5858 62.6558 91.5858 63.2813C91.5858 63.9068 91.0645 64.4281 90.439 64.4281C89.8135 64.4281 89.2923 63.9068 89.2923 63.2813C89.2923 62.6558 89.8135 62.1345 90.439 62.1345Z" fill="#8F6D4E"/>
<path d="M87.1548 64.7408C87.9889 64.7408 88.6144 64.0632 88.6144 63.2813C88.6144 62.4994 87.9367 61.8218 87.1548 61.8218C86.3208 61.8218 85.6953 62.4994 85.6953 63.2813C85.6953 64.0632 86.373 64.7408 87.1548 64.7408ZM87.1548 62.1345C87.7804 62.1345 88.3016 62.6558 88.3016 63.2813C88.3016 63.9068 87.7804 64.4281 87.1548 64.4281C86.5293 64.4281 86.0081 63.9068 86.0081 63.2813C86.0081 62.6558 86.5293 62.1345 87.1548 62.1345Z" fill="#8F6D4E"/>
<path d="M90.439 68.2333C91.273 68.2333 91.8986 67.5556 91.8986 66.7737C91.8986 65.9918 91.2209 65.3142 90.439 65.3142C89.6571 65.3142 88.9795 65.9918 88.9795 66.7737C88.9795 67.5556 89.6571 68.2333 90.439 68.2333ZM90.439 65.627C91.0645 65.627 91.5858 66.1482 91.5858 66.7737C91.5858 67.3993 91.0645 67.9205 90.439 67.9205C89.8135 67.9205 89.2923 67.3993 89.2923 66.7737C89.2923 66.1482 89.8135 65.627 90.439 65.627Z" fill="#8F6D4E"/>
<path d="M87.1548 68.2333C87.9889 68.2333 88.6144 67.5556 88.6144 66.7737C88.6144 65.9918 87.9367 65.3142 87.1548 65.3142C86.3208 65.3142 85.6953 65.9918 85.6953 66.7737C85.6953 67.5556 86.373 68.2333 87.1548 68.2333ZM87.1548 65.627C87.7804 65.627 88.3016 66.1482 88.3016 66.7737C88.3016 67.3993 87.7804 67.9205 87.1548 67.9205C86.5293 67.9205 86.0081 67.3993 86.0081 66.7737C86.0081 66.1482 86.5293 65.627 87.1548 65.627Z" fill="#8F6D4E"/>
<path d="M186.873 14.9603V14.8039V4.48291H159.715H159.403H123.175V14.8039V15.1167H129.795V15.3252H135.685H136.988H151.948V15.1167H159.403H159.715H168.472V15.3252H180.097V15.1167H186.873V14.9603V14.9603ZM135.685 15.0124H133.496V14.8039H123.488V4.79567H141.315V14.9603H136.988H135.685V15.0124ZM148.508 14.8039V15.0124H141.627V4.8478H159.403V14.856H148.508V14.8039ZM159.715 14.8039V4.79567H186.56V14.8039H176.656V15.0124H171.861V14.8039H159.715Z" fill="#8F6D4E"/>
<path d="M67.6079 69.3278H77.3034H84.5489H92.8891H136.988C137.092 69.3278 137.144 69.2757 137.144 69.1714V60.8312C137.144 60.727 137.092 60.6748 136.988 60.6748H92.8891H84.5489H77.4076V43.7338C77.4076 43.6296 77.3555 43.5775 77.2513 43.5775H67.5558C67.4515 43.5775 67.3994 43.6296 67.3994 43.7338V69.1193C67.4515 69.2757 67.5558 69.3278 67.6079 69.3278ZM136.884 69.015H93.0976V61.0397H136.884V69.015ZM92.7849 69.015H84.7574V61.0397H92.7849V69.015ZM77.5119 61.0397H84.4447V69.0672H77.5119V61.0397ZM67.7643 43.9423H77.147V69.015H67.7643V43.9423Z" fill="#8F6D4E"/>
<path d="M102.063 21.0591C103.94 21.0591 105.504 19.7559 105.973 18.0358C106.494 18.0358 106.963 17.5666 106.963 17.0454C106.963 14.3869 104.774 12.1976 102.115 12.1976C99.4569 12.1976 97.2676 14.3869 97.2676 17.0454C97.2676 17.5666 97.6846 18.0358 98.258 18.0358C98.6229 19.8081 100.239 21.0591 102.063 21.0591ZM97.5282 17.0454C97.5282 14.5433 99.5611 12.5104 102.063 12.5104C104.565 12.5104 106.598 14.5433 106.598 17.0454C106.598 17.4103 106.338 17.6709 106.025 17.723C105.973 17.723 105.973 17.723 105.921 17.723C105.868 17.723 105.764 17.723 105.712 17.6709C105.451 17.5666 105.243 17.306 105.243 17.0454C105.243 15.2731 103.835 13.8657 102.063 13.8657C100.291 13.8657 98.8835 15.2731 98.8835 17.0454C98.8835 17.3581 98.675 17.6188 98.4144 17.6709C98.3622 17.6709 98.258 17.723 98.2058 17.723C98.1537 17.723 98.1537 17.723 98.1016 17.723C97.7888 17.6709 97.5282 17.4103 97.5282 17.0454ZM102.063 20.7463C100.343 20.7463 98.9356 19.5996 98.4665 17.9836C98.8835 17.8794 99.1962 17.4624 99.1962 17.0454C99.1962 15.4816 100.499 14.1784 102.063 14.1784C103.627 14.1784 104.93 15.4816 104.93 17.0454C104.93 17.5145 105.243 17.8794 105.66 17.9836C105.243 19.5996 103.783 20.7463 102.063 20.7463Z" fill="#8F6D4E"/>
<path d="M89.9171 32.4226C89.7608 32.1099 89.3959 31.9535 89.0831 31.9535C88.9267 31.9535 88.7182 32.0056 88.5619 32.1099C87.4151 32.7354 86.6332 33.83 86.3204 35.0811C86.0077 36.3321 86.1641 37.6352 86.7896 38.782C87.6757 40.2937 89.2916 41.2319 91.0118 41.2319C91.8458 41.2319 92.6798 41.0234 93.4096 40.6064C93.8787 40.3458 94.0351 39.7203 93.7745 39.2512C94.2957 38.7299 94.6606 38.1044 94.8691 37.4267C95.1298 36.3842 95.0255 35.2896 94.4521 34.4034C93.5139 32.6311 91.6373 31.9535 89.9171 32.4226ZM93.2532 40.2416C92.5235 40.6586 91.7416 40.8671 91.0118 40.8671C89.448 40.8671 87.8842 40.033 87.0502 38.5735C85.7992 36.3842 86.5289 33.6215 88.7182 32.3705C88.8225 32.3184 88.9267 32.2662 89.0831 32.2662C89.2916 32.2662 89.5001 32.3705 89.6044 32.5269L89.6565 32.579C89.7086 32.6311 89.7086 32.7354 89.7086 32.7875C89.7608 33.0481 89.6565 33.3609 89.3959 33.5173C87.8842 34.4034 87.363 36.3321 88.2491 37.8437C88.8225 38.8863 89.9171 39.4075 91.0118 39.4075C91.5331 39.4075 92.1064 39.2512 92.5756 38.9905C92.6798 38.9384 92.7841 38.8863 92.9405 38.8863C93.0968 38.8863 93.2532 38.9384 93.4096 39.0426C93.4617 39.0948 93.5139 39.1469 93.566 39.199C93.566 39.2512 93.566 39.2511 93.6181 39.3033C93.6702 39.6682 93.566 40.033 93.2532 40.2416ZM94.5564 37.2182C94.4 37.8437 94.0351 38.4171 93.6181 38.8863C93.4096 38.7299 93.2011 38.6256 92.9405 38.6256C92.7841 38.6256 92.5756 38.6778 92.4192 38.782C92.0022 39.0426 91.4809 39.1469 91.0118 39.1469C89.9693 39.1469 89.031 38.5735 88.5097 37.7395C88.1449 37.0618 88.0406 36.3321 88.2491 35.5502C88.4576 34.8204 88.9267 34.1949 89.6044 33.83C90.0214 33.6215 90.1778 33.1524 90.0735 32.7354C90.3863 32.6311 90.699 32.6311 91.0118 32.6311C92.315 32.6311 93.566 33.3088 94.2436 34.4555C94.7128 35.2896 94.817 36.28 94.5564 37.2182Z" fill="#8F6D4E"/>
<path d="M110.769 40.5023C111.499 40.9193 112.333 41.1278 113.167 41.1278C114.887 41.1278 116.503 40.1896 117.389 38.6779C118.014 37.5311 118.223 36.228 117.858 34.9769C117.545 33.7259 116.711 32.6834 115.617 32.0057C115.46 31.9015 115.304 31.8494 115.095 31.8494C114.73 31.8494 114.418 32.0579 114.261 32.3185C112.541 31.8494 110.613 32.5791 109.726 34.195C109.205 35.1333 109.049 36.228 109.309 37.2184C109.518 37.9481 109.883 38.5736 110.404 39.0428C110.091 39.6162 110.3 40.2417 110.769 40.5023ZM110.613 39.3555C110.613 39.3034 110.613 39.3034 110.665 39.2513C110.717 39.1992 110.769 39.147 110.821 39.0949C110.925 38.9907 111.134 38.9385 111.29 38.9385C111.394 38.9385 111.551 38.9906 111.655 39.0428C112.176 39.3555 112.698 39.4598 113.219 39.4598C114.313 39.4598 115.408 38.8864 115.982 37.896C116.868 36.3843 116.346 34.4557 114.835 33.5695C114.574 33.4131 114.47 33.1004 114.522 32.8398C114.522 32.7876 114.574 32.6834 114.574 32.6313C114.574 32.5791 114.626 32.5791 114.626 32.5791C114.783 32.4228 114.939 32.3185 115.147 32.3185C115.252 32.3185 115.408 32.3706 115.512 32.4228C117.702 33.6738 118.431 36.4886 117.18 38.6258C116.346 40.0853 114.783 40.9193 113.219 40.9193C112.437 40.9193 111.655 40.7108 110.977 40.2938C110.613 40.0332 110.508 39.6683 110.613 39.3555ZM109.622 37.2184C109.361 36.2801 109.518 35.2897 109.987 34.4035C110.665 33.2046 111.916 32.5791 113.219 32.5791C113.532 32.5791 113.844 32.6313 114.157 32.6834C114.053 33.1004 114.209 33.5695 114.626 33.778C115.304 34.1429 115.773 34.7684 115.982 35.4982C116.19 36.228 116.086 37.0099 115.721 37.6875C115.2 38.5737 114.261 39.0949 113.219 39.0949C112.698 39.0949 112.228 38.9385 111.811 38.73C111.655 38.6258 111.499 38.5736 111.29 38.5736C111.03 38.5736 110.769 38.6779 110.613 38.8343C110.091 38.4694 109.778 37.896 109.622 37.2184Z" fill="#8F6D4E"/>
<path d="M94.9736 29.2948C94.9736 33.2043 98.1533 36.384 102.063 36.384C105.972 36.384 109.152 33.2043 109.152 29.2948C109.152 25.3853 105.972 22.1535 102.063 22.1535C98.1533 22.2056 94.9736 25.3853 94.9736 29.2948ZM102.063 22.5184C105.816 22.5184 108.839 25.5938 108.839 29.3469C108.839 33.1 105.764 36.1233 102.063 36.1233C98.3097 36.1233 95.2864 33.0479 95.2864 29.3469C95.2864 25.5417 98.3097 22.5184 102.063 22.5184Z" fill="#8F6D4E"/>
<path d="M59.9455 11.4156H61.9785C62.8125 11.4156 63.4901 10.9465 63.8029 10.2167H70.6314V8.49658H63.8029C63.4901 7.81894 62.7604 7.29767 61.9785 7.29767H59.9455C59.1115 7.29767 58.4339 7.76681 58.1211 8.49658H51.3447V10.2167H58.1733C58.4339 10.9465 59.1637 11.4156 59.9455 11.4156ZM51.6575 9.95611V8.86145H58.069H58.2254H58.3818H63.5944H63.7508H63.9071H70.3187V9.95611H63.9071H63.7508H63.5944H58.3296H58.1733H58.0169H51.6575ZM63.438 8.54869H58.486C58.7988 8.02743 59.32 7.66256 59.9455 7.66256H61.9785C62.604 7.71468 63.1774 8.02743 63.438 8.54869ZM61.9785 11.1029H59.9455C59.32 11.1029 58.7466 10.738 58.486 10.2167H63.438C63.1774 10.7901 62.604 11.1029 61.9785 11.1029Z" fill="#8F6D4E"/>
<path d="M21.2671 8.86151V9.17427H21.5799H27.2617H27.5744V8.86151H31.4839H31.7966V8.54875V7.81899V7.50623H31.4839H27.5744V7.19348H27.2617H21.5799H21.2671V7.50623H17.3577H17.0449V7.81899V8.54875V8.86151H17.3577H21.2671ZM17.4098 7.81899H21.3193H21.632H27.3138H27.6265H31.536V8.54875H27.6265H27.3138H21.5799H21.2671H17.3577V7.81899H17.4098ZM21.5799 7.50623H27.2617H21.5799Z" fill="#8F6D4E"/>
<path d="M19.2871 15.0122H19.7041H20.0169H28.8262H29.139H29.556V11.8846H19.2871V15.0122ZM19.5999 12.1974H20.7466H28.1486H29.2953V12.8229H28.8262H28.4092H20.4339H20.0169H19.5477V12.1974H19.5999ZM29.2432 13.7612H29.0868H28.7741H20.0169H19.7041H19.5477V13.1357H19.8084H20.1733H28.5656H28.9305H29.1911V13.7612H29.2432ZM29.2432 14.6995H29.139H28.8262H20.0169H19.7041H19.5999V14.0739H19.7041H20.0169H28.8262H29.139H29.2432V14.6995Z" fill="#8F6D4E"/>
<path d="M52.0739 57.6516H40.971C40.3455 57.6516 39.8242 58.1729 39.8242 58.7984V64.2716C39.8242 64.8972 40.3455 65.4184 40.971 65.4184H52.0739C52.6994 65.4184 53.2207 64.8972 53.2207 64.2716V58.7984C53.2728 58.1729 52.7515 57.6516 52.0739 57.6516ZM52.96 64.2716C52.96 64.7408 52.5951 65.1057 52.126 65.1057H40.971C40.5019 65.1057 40.137 64.7408 40.137 64.2716V58.7984C40.137 58.3293 40.5019 57.9644 40.971 57.9644H52.0739C52.543 57.9644 52.9079 58.3293 52.9079 58.7984V64.2716H52.96Z" fill="#8F6D4E"/>
<path d="M36.9049 57.6516H25.8021C25.1765 57.6516 24.6553 58.1729 24.6553 58.7984V64.2716C24.6553 64.8972 25.1765 65.4184 25.8021 65.4184H36.9049C37.5304 65.4184 38.0517 64.8972 38.0517 64.2716V58.7984C38.0517 58.1729 37.5304 57.6516 36.9049 57.6516ZM37.739 64.2716C37.739 64.7408 37.3741 65.1057 36.9049 65.1057H25.8021C25.3329 65.1057 24.968 64.7408 24.968 64.2716V58.7984C24.968 58.3293 25.3329 57.9644 25.8021 57.9644H36.9049C37.3741 57.9644 37.739 58.3293 37.739 58.7984V64.2716V64.2716Z" fill="#8F6D4E"/>
<path d="M22.4659 29.4512C22.3617 29.4512 22.3096 29.5033 22.3096 29.6076V45.6624V67.3469V69.1192C22.3096 69.2235 22.3617 69.2756 22.4659 69.2756H55.3576C55.4618 69.2756 55.514 69.2235 55.514 69.1192V67.3469V54.3154V29.6076C55.514 29.5033 55.4618 29.4512 55.3576 29.4512H22.4659V29.4512ZM22.6223 29.7639H55.2533V54.159H31.2753V46.9135C31.2753 46.1316 30.6498 45.5061 29.8679 45.5061H22.6223V29.7639ZM22.883 45.8709H29.92C30.4934 45.8709 31.0146 46.3401 31.0146 46.9656V54.0026L22.883 45.8709ZM22.6223 46.0794L31.0146 54.4718C31.0668 54.5239 31.0668 54.5239 31.1189 54.5239H55.2533V67.2427H22.6223V46.0794ZM55.2533 68.9628H22.6223V67.5033H55.2533V68.9628Z" fill="#8F6D4E"/>
<path d="M177.385 46.8094H178.219C178.48 46.8094 178.636 46.6009 178.636 46.3924V41.4404C178.636 41.1797 178.428 41.0234 178.219 41.0234H177.385H173.632C172.016 41.0234 170.713 42.3265 170.713 43.9424C170.713 45.5584 172.016 46.8615 173.632 46.8615H177.385V46.8094ZM178.375 41.4404V46.3924C178.375 46.4966 178.323 46.5488 178.219 46.5488H177.541V41.284H178.219C178.323 41.284 178.375 41.3361 178.375 41.4404ZM170.974 43.8903C170.974 42.4308 172.172 41.2319 173.632 41.2319H177.281V46.4966H173.632C172.172 46.5488 170.974 45.3499 170.974 43.8903Z" fill="#8F6D4E"/>
<path d="M180.826 46.8094C181.087 46.8094 181.243 46.6009 181.243 46.3924V41.4404C181.243 41.1797 181.035 41.0234 180.826 41.0234H179.575C179.315 41.0234 179.158 41.2319 179.158 41.4404V46.3924C179.158 46.653 179.367 46.8094 179.575 46.8094H180.826ZM179.419 46.3924V41.4404C179.419 41.3361 179.471 41.284 179.575 41.284H180.826C180.93 41.284 180.983 41.3361 180.983 41.4404V46.3924C180.983 46.4966 180.93 46.5488 180.826 46.5488H179.575C179.523 46.5488 179.419 46.4966 179.419 46.3924Z" fill="#8F6D4E"/>
<path d="M180.2 44.4115C180.461 44.4115 180.721 44.203 180.721 43.8902C180.721 43.6296 180.513 43.369 180.2 43.369C179.939 43.369 179.679 43.5775 179.679 43.8902C179.731 44.203 179.939 44.4115 180.2 44.4115ZM180.2 43.6817C180.356 43.6817 180.461 43.786 180.461 43.9423C180.461 44.0987 180.356 44.203 180.2 44.203C180.044 44.203 179.939 44.0987 179.939 43.9423C179.991 43.786 180.096 43.6817 180.2 43.6817Z" fill="#8F6D4E"/>
<path d="M164.25 58.5898V68.5459C164.25 68.6502 164.302 68.7023 164.406 68.7023H177.386C177.49 68.7023 177.542 68.6502 177.542 68.5459V55.5665C177.542 55.4622 177.49 55.4101 177.386 55.4101H167.43C165.657 55.4101 164.25 56.8696 164.25 58.5898ZM177.282 68.4416H164.615V58.6419C164.615 57.0781 165.918 55.775 167.482 55.775H177.282V68.4416Z" fill="#8F6D4E"/>
<path d="M175.197 66.4611C175.457 66.4611 175.666 66.2525 175.666 65.9919C175.666 65.7313 175.457 65.5228 175.197 65.5228C174.936 65.5228 174.728 65.7313 174.728 65.9919C174.728 66.2525 174.936 66.4611 175.197 66.4611ZM175.197 65.7834C175.301 65.7834 175.353 65.8355 175.353 65.9398C175.353 66.0441 175.301 66.0962 175.197 66.0962C175.092 66.0962 175.04 66.0441 175.04 65.9398C175.04 65.8355 175.145 65.7834 175.197 65.7834Z" fill="#8F6D4E"/>
<path d="M175.248 64.1675C175.352 64.1675 175.405 64.1154 175.405 64.0111V59.9453C175.405 59.841 175.352 59.7889 175.248 59.7889C175.144 59.7889 175.092 59.841 175.092 59.9453V64.0111C175.092 64.1154 175.196 64.1675 175.248 64.1675Z" fill="#8F6D4E"/>
<path d="M169.254 66.1482H173.32C173.424 66.1482 173.476 66.0961 173.476 65.9918C173.476 65.8876 173.424 65.8354 173.32 65.8354H169.254C169.15 65.8354 169.098 65.8876 169.098 65.9918C169.098 66.0961 169.202 66.1482 169.254 66.1482Z" fill="#8F6D4E"/>
<path d="M173.841 64.6365C173.894 64.6886 173.894 64.6886 173.946 64.6886C173.998 64.6886 174.05 64.6886 174.05 64.6365C174.102 64.5843 174.102 64.4801 174.05 64.428L170.922 61.3004C170.87 61.2483 170.766 61.2483 170.714 61.3004C170.662 61.3525 170.662 61.4568 170.714 61.5089L173.841 64.6365Z" fill="#8F6D4E"/>
<path d="M141.523 38.8861C141.418 38.8861 141.366 38.9382 141.366 39.0425V61.561V68.598C141.366 68.7023 141.418 68.7544 141.523 68.7544H148.56C148.664 68.7544 148.716 68.7023 148.716 68.598V61.561V39.0425C148.716 38.9382 148.664 38.8861 148.56 38.8861H141.523ZM141.679 39.1989H148.403V61.4046H141.679V39.1989ZM148.403 68.4417H141.679V61.7174H148.403V68.4417Z" fill="#8F6D4E"/>
<path d="M145.693 46.0795H142.722C142.409 46.0795 142.148 46.3402 142.148 46.6529V50.1454H142.044C141.94 50.1454 141.888 50.1975 141.888 50.3018C141.888 50.406 141.94 50.4581 142.044 50.4581H142.148V53.9506C142.148 54.2633 142.409 54.524 142.722 54.524H145.693C146.475 54.524 147.048 53.8985 147.048 53.1687V47.4869C147.048 46.705 146.475 46.0795 145.693 46.0795ZM146.735 53.1166C146.735 53.69 146.266 54.1591 145.693 54.1591H142.722C142.565 54.1591 142.461 54.0548 142.461 53.8985V50.406H143.712C143.816 50.406 143.868 50.3539 143.868 50.2496C143.868 50.1454 143.816 50.0933 143.712 50.0933H142.461V46.6008C142.461 46.4444 142.565 46.3402 142.722 46.3402H145.693C146.266 46.3402 146.735 46.8093 146.735 47.3827V53.1166Z" fill="#8F6D4E"/>
<path d="M145.067 67.1385C146.214 67.1385 147.1 66.2002 147.1 65.1056C147.1 63.9588 146.162 63.0727 145.067 63.0727C143.92 63.0727 143.034 64.0109 143.034 65.1056C142.982 66.2002 143.92 67.1385 145.067 67.1385ZM145.067 63.3333C146.005 63.3333 146.787 64.1152 146.787 65.0535C146.787 65.9918 146.005 66.7736 145.067 66.7736C144.129 66.7736 143.347 65.9918 143.347 65.0535C143.295 64.1152 144.077 63.3333 145.067 63.3333Z" fill="#8F6D4E"/>
<path d="M142.773 67.8684C143.034 67.8684 143.19 67.6599 143.19 67.4514C143.19 67.1907 142.982 67.0344 142.773 67.0344C142.513 67.0344 142.356 67.2429 142.356 67.4514C142.356 67.6599 142.565 67.8684 142.773 67.8684ZM142.773 67.3471C142.826 67.3471 142.878 67.3992 142.878 67.4514C142.878 67.5035 142.826 67.5556 142.773 67.5556C142.721 67.5556 142.669 67.5035 142.669 67.4514C142.669 67.3992 142.721 67.3471 142.773 67.3471Z" fill="#8F6D4E"/>
</svg>
